<?xml version="1.0" encoding="UTF-8" standalone="no"?>
<!-- Created with Inkscape (http://www.inkscape.org/) -->

<svg
   xmlns:dc="http://purl.org/dc/elements/1.1/"
   xmlns:cc="http://creativecommons.org/ns#"
   xmlns:rdf="http://www.w3.org/1999/02/22-rdf-syntax-ns#"
   xmlns:svg="http://www.w3.org/2000/svg"
   xmlns="http://www.w3.org/2000/svg"
   xmlns:sodipodi="http://sodipodi.sourceforge.net/DTD/sodipodi-0.dtd"
   xmlns:inkscape="http://www.inkscape.org/namespaces/inkscape"
   id="svg4311"
   version="1.1"
   inkscape:version="0.91 r13725"
   xml:space="preserve"
   width="80"
   height="80"
   viewBox="0 0 80 80"
   sodipodi:docname="send-image.svg"><metadata
     id="metadata4317"><rdf:RDF><cc:Work
         rdf:about=""><dc:format>image/svg+xml</dc:format><dc:type
           rdf:resource="http://purl.org/dc/dcmitype/StillImage" /><dc:title /></cc:Work></rdf:RDF></metadata><defs
     id="defs4315" /><sodipodi:namedview
     pagecolor="#ffffff"
     bordercolor="#666666"
     borderopacity="1"
     objecttolerance="10"
     gridtolerance="10"
     guidetolerance="10"
     inkscape:pageopacity="0"
     inkscape:pageshadow="2"
     inkscape:window-width="1920"
     inkscape:window-height="1009"
     id="namedview4313"
     showgrid="false"
     inkscape:zoom="2.085965"
     inkscape:cx="-284.73674"
     inkscape:cy="65.541346"
     inkscape:window-x="0"
     inkscape:window-y="0"
     inkscape:window-maximized="1"
     inkscape:current-layer="g4319" /><g
     id="g4319"
     inkscape:groupmode="layer"
     inkscape:label="ink_ext_XXXXXX"
     transform="matrix(1.25,0,0,-1.25,0,80)"><path
       inkscape:connector-curvature="0"
       id="path4323"
       style="fill:#039bd5;fill-opacity:1;fill-rule:nonzero;stroke:none"
       d="M 64,32 C 64,14.327 49.673,0 32,0 14.327,0 0,14.327 0,32 0,49.673 14.327,64 32,64 49.673,64 64,49.673 64,32" /><path
       inkscape:connector-curvature="0"
       id="path4325"
       style="fill:#000000;fill-opacity:0.15686275;fill-rule:nonzero;stroke:none"
       d="m 45.545501,13.221531 -27.091002,0 c -1.870464,0 -3.386375,1.516249 -3.386375,3.386375 l 0,27.091001 c 0,1.870464 1.515911,3.386375 3.386375,3.386375 l 27.091002,0 c 1.870464,0 3.386375,-1.515911 3.386375,-3.386375 l 0,-27.091001 c 0,-1.870126 -1.515911,-3.386375 -3.386375,-3.386375" /><path
       inkscape:connector-curvature="0"
       id="path4327"
       style="fill:#7db6d8;fill-opacity:1;fill-rule:nonzero;stroke:none"
       d="m 18.454499,16.607906 c -0.933877,0 -1.693187,0.759987 -1.693187,1.693187 l 0,27.091001 c 0,0.933201 0.75931,1.693188 1.693187,1.693188 l 27.091002,0 c 0.933877,0 1.693187,-0.759987 1.693187,-1.693188 l 0,-27.091001 c 0,-0.9332 -0.75931,-1.693187 -1.693187,-1.693187 l -27.091002,0" /><path
       inkscape:connector-curvature="0"
       id="path4329"
       style="fill:#ffffff;fill-opacity:1;fill-rule:nonzero;stroke:none"
       d="m 45.545501,48.778469 -27.091002,0 c -1.870464,0 -3.386375,-1.51591 -3.386375,-3.386375 l 0,-27.091001 c 0,-1.870125 1.515911,-3.386375 3.386375,-3.386375 l 27.091002,0 c 1.870464,0 3.386375,1.51625 3.386375,3.386375 l 0,27.091001 c 0,1.870465 -1.515911,3.386375 -3.386375,3.386375 z m 0,-3.386375 0,-27.091001 -27.091002,0 0,27.091001 27.091002,0" /><path
       inkscape:connector-curvature="0"
       id="path4331"
       style="fill:#ffffff;fill-opacity:1;fill-rule:nonzero;stroke:none"
       d="m 18.454499,18.301093 27.091002,0 0,3.386375 -27.091002,0 0,-3.386375 z" /><path
       inkscape:connector-curvature="0"
       id="path4333"
       style="fill:#495672;fill-opacity:1;fill-rule:nonzero;stroke:none"
       d="m 16.752423,21.687468 29.542736,0 0,2.472985 c 0,0 -1.444119,2.520564 -2.782499,4.099716 -0.995425,1.174987 -2.481875,1.507275 -3.778856,0.06417 l -2.330165,-2.237886 -5.078547,6.458241 c -1.891629,2.405173 -4.986607,2.405173 -6.877897,0 L 16.752423,21.687468" /><path
       inkscape:connector-curvature="0"
       id="path4335"
       style="fill:#bcd9ff;fill-opacity:1;fill-rule:nonzero;stroke:none"
       d="m 41.312532,38.619344 c 0,-1.402806 -1.137314,-2.539781 -2.539782,-2.539781 -1.402806,0 -2.539781,1.136975 -2.539781,2.539781 0,1.402806 1.136975,2.539781 2.539781,2.539781 1.402468,0 2.539782,-1.136975 2.539782,-2.539781" /><path
       inkscape:connector-curvature="0"
       id="path4337"
       style="fill:#ffffff;fill-opacity:1;fill-rule:nonzero;stroke:none"
       d="m 45.545501,48.778469 -27.091002,0 c -1.870464,0 -3.386375,-1.51591 -3.386375,-3.386375 l 0,-27.091001 c 0,-1.870125 1.515911,-3.386375 3.386375,-3.386375 l 27.091002,0 c 1.870464,0 3.386375,1.51625 3.386375,3.386375 l 0,27.091001 c 0,1.870465 -1.515911,3.386375 -3.386375,3.386375 z m 0,-3.386375 0,-27.091001 -27.091002,0 0,27.091001 27.091002,0" /></g></svg>