<?xml version="1.0" encoding="iso-8859-1"?>
<svg xmlns="http://www.w3.org/2000/svg" xmlns:xlink="http://www.w3.org/1999/xlink" version="1.1" viewBox="0 0 44 44" enable-background="new 0 0 44 44" width="512px" height="512px">
  <g>
    <circle cx="18" cy="26" r="5" fill="#039bd5"/>
    <path d="m22,0c-12.2,0-22,9.8-22,22s9.8,22 22,22 22-9.8 22-22-9.8-22-22-22zm12.7,12.1l-8.8,8.8c-0.2,0.2-0.2,0.4-0.1,0.6 0.8,1.3 1.2,2.8 1.2,4.5 0,5-4,9-9,9s-9-4-9-9 4-9 9-9c1.6,0 3.1,0.4 4.5,1.2 0.2,0.1 0.4,0.1 0.6-0.1l.8-.8c0.2-0.2 0.2-0.5 0-0.7l-.5-.5c-0.4-0.4-0.4-1 0-1.4l1.4-1.4c0.4-0.4 1-0.4 1.4,0l.5,.5c0.2,0.2 0.5,0.2 0.7,0l.5-.5c0.2-0.2 0.2-0.5 0-0.7l-.5-.5c-0.4-0.4-0.4-1 0-1.4l1.4-1.4c0.2-0.2 0.5-0.3 0.7-0.3s0.5,0.1 0.7,0.3l.5,.5c0.2,0.2 0.5,0.2 0.7,0l.5-.5c0.2-0.2 0.5-0.3 0.7-0.3s0.5,0.1 0.7,0.3l1.4,1.4c0.2,0.2 0.3,0.5 0.3,0.7s-0.1,0.5-0.3,0.7z" fill="#039bd5"/>
  </g>
</svg>
