<?xml version="1.0" encoding="UTF-8" standalone="no"?>
<!-- Created with Inkscape (http://www.inkscape.org/) -->

<svg
   xmlns:dc="http://purl.org/dc/elements/1.1/"
   xmlns:cc="http://creativecommons.org/ns#"
   xmlns:rdf="http://www.w3.org/1999/02/22-rdf-syntax-ns#"
   xmlns:svg="http://www.w3.org/2000/svg"
   xmlns="http://www.w3.org/2000/svg"
   xmlns:sodipodi="http://sodipodi.sourceforge.net/DTD/sodipodi-0.dtd"
   xmlns:inkscape="http://www.inkscape.org/namespaces/inkscape"
   id="svg2"
   version="1.1"
   inkscape:version="0.91 r13725"
   xml:space="preserve"
   width="80"
   height="80"
   viewBox="0 0 80 80"
   sodipodi:docname="microphone.svg"><metadata
     id="metadata8"><rdf:RDF><cc:Work
         rdf:about=""><dc:format>image/svg+xml</dc:format><dc:type
           rdf:resource="http://purl.org/dc/dcmitype/StillImage" /><dc:title /></cc:Work></rdf:RDF></metadata><defs
     id="defs6"><clipPath
       clipPathUnits="userSpaceOnUse"
       id="clipPath16"><path
         d="M 0,64 64,64 64,0 0,0 0,64 Z"
         id="path18"
         inkscape:connector-curvature="0" /></clipPath><clipPath
       clipPathUnits="userSpaceOnUse"
       id="clipPath28"><path
         d="m 26,52.5 12,0 0,-30 -12,0 0,30 z"
         id="path30"
         inkscape:connector-curvature="0" /></clipPath><clipPath
       clipPathUnits="userSpaceOnUse"
       id="clipPath44"><path
         d="m 19,34 26,0 0,-18.25 -26,0 0,18.25 z"
         id="path46"
         inkscape:connector-curvature="0" /></clipPath><clipPath
       clipPathUnits="userSpaceOnUse"
       id="clipPath60"><path
         d="m 30.5,18 3,0 0,-9 -3,0 0,9 z"
         id="path62"
         inkscape:connector-curvature="0" /></clipPath><clipPath
       clipPathUnits="userSpaceOnUse"
       id="clipPath76"><path
         d="m 25.5,11 13,0 0,-3 -13,0 0,3 z"
         id="path78"
         inkscape:connector-curvature="0" /></clipPath></defs><sodipodi:namedview
     pagecolor="#ffffff"
     bordercolor="#666666"
     borderopacity="1"
     objecttolerance="10"
     gridtolerance="10"
     guidetolerance="10"
     inkscape:pageopacity="0"
     inkscape:pageshadow="2"
     inkscape:window-width="1920"
     inkscape:window-height="1009"
     id="namedview4"
     showgrid="false"
     inkscape:zoom="5.9"
     inkscape:cx="-69.119913"
     inkscape:cy="23.011738"
     inkscape:window-x="0"
     inkscape:window-y="0"
     inkscape:window-maximized="1"
     inkscape:current-layer="g10" /><g
     id="g10"
     inkscape:groupmode="layer"
     inkscape:label="Elegant_circle-icons"
     transform="matrix(1.25,0,0,-1.25,0,80)"><path
       inkscape:connector-curvature="0"
       id="path22"
       style="fill:#039bd5;fill-opacity:1;fill-rule:nonzero;stroke:none"
       d="M 64,32 C 64,14.327 49.673,0 32,0 14.327,0 0,14.327 0,32 0,49.673 14.327,64 32,64 49.673,64 64,49.673 64,32" /><g
       id="g24"
       style="fill:#000000;fill-opacity:0.15686275"><g
         id="g26"
         style="fill:#000000;fill-opacity:0.15686275" /><g
         id="g32"
         style="fill:#000000;fill-opacity:0.15686275"><g
           clip-path="url(#clipPath28)"
           id="g34"
           style="fill:#000000;fill-opacity:0.15686275"><g
             transform="translate(32,22.5)"
             id="g36"
             style="fill:#000000;fill-opacity:0.15686275"><path
               d="m 0,0 c 3.315,0 6,2.685 6,6 l 0,18 c 0,3.315 -2.685,6 -6,6 -3.315,0 -6,-2.685 -6,-6 L -6,6 C -6,2.685 -3.315,0 0,0"
               style="fill:#000000;fill-opacity:0.15686275;fill-rule:nonzero;stroke:none"
               id="path38"
               inkscape:connector-curvature="0" /></g></g></g></g><g
       id="g40"
       style="fill:#000000;fill-opacity:0.15686275"><g
         id="g42"
         style="fill:#000000;fill-opacity:0.15686275" /><g
         id="g48"
         style="fill:#000000;fill-opacity:0.15686275"><g
           clip-path="url(#clipPath44)"
           id="g50"
           style="fill:#000000;fill-opacity:0.15686275"><g
             transform="translate(32,15.75)"
             id="g52"
             style="fill:#000000;fill-opacity:0.15686275"><path
               d="m 0,0 c -7.168,0 -13,5.832 -13,13 l 0,3.75 c 0,0.828 0.672,1.5 1.5,1.5 0.828,0 1.5,-0.672 1.5,-1.5 L -10,13 C -10,7.486 -5.514,3 0,3 5.514,3 10,7.486 10,13 l 0,3.75 c 0,0.828 0.672,1.5 1.5,1.5 0.828,0 1.5,-0.672 1.5,-1.5 L 13,13 C 13,5.832 7.168,0 0,0"
               style="fill:#000000;fill-opacity:0.15686275;fill-rule:nonzero;stroke:none"
               id="path54"
               inkscape:connector-curvature="0" /></g></g></g></g><g
       id="g72"
       style="fill:#000000;fill-opacity:0.15686275"><g
         id="g74"
         style="fill:#000000;fill-opacity:0.15686275" /><g
         id="g80"
         style="fill:#000000;fill-opacity:0.15686275"><g
           clip-path="url(#clipPath76)"
           id="g82"
           style="fill:#000000;fill-opacity:0.15686275"><g
             transform="translate(37,8)"
             id="g84"
             style="fill:#000000;fill-opacity:0.15686275"><path
               d="m 0,0 -10,0 c -0.828,0 -1.5,0.672 -1.5,1.5 0,0.828 0.672,1.5 1.5,1.5 L 0,3 C 0.828,3 1.5,2.328 1.5,1.5 1.5,0.672 0.828,0 0,0"
               style="fill:#000000;fill-opacity:0.15686275;fill-rule:nonzero;stroke:none"
               id="path86"
               inkscape:connector-curvature="0" /></g></g></g></g><g
       id="g88"
       transform="translate(32,24.5)"
       style="fill:#036ea7;fill-opacity:1"><path
         d="m 0,0 c 3.315,0 6,2.685 6,6 l 0,18 c 0,3.315 -2.685,6 -6,6 -3.315,0 -6,-2.685 -6,-6 L -6,6 C -6,2.685 -3.315,0 0,0"
         style="fill:#036ea7;fill-opacity:1;fill-rule:nonzero;stroke:none"
         id="path90"
         inkscape:connector-curvature="0" /></g><g
       id="g92"
       transform="translate(32,17.75)"><path
         d="m 0,0 c -7.168,0 -13,5.832 -13,13 l 0,3.75 c 0,0.828 0.672,1.5 1.5,1.5 0.828,0 1.5,-0.672 1.5,-1.5 L -10,13 C -10,7.486 -5.514,3 0,3 5.514,3 10,7.486 10,13 l 0,3.75 c 0,0.828 0.672,1.5 1.5,1.5 0.828,0 1.5,-0.672 1.5,-1.5 L 13,13 C 13,5.832 7.168,0 0,0"
         style="fill:#ffffff;fill-opacity:1;fill-rule:nonzero;stroke:none"
         id="path94"
         inkscape:connector-curvature="0" /></g><g
       id="g96"
       transform="translate(32,11)"><path
         d="m 0,0 c -0.828,0 -1.5,0.672 -1.5,1.5 l 0,6 C -1.5,8.328 -0.828,9 0,9 0.828,9 1.5,8.328 1.5,7.5 l 0,-6 C 1.5,0.672 0.828,0 0,0"
         style="fill:#ffffff;fill-opacity:1;fill-rule:nonzero;stroke:none"
         id="path98"
         inkscape:connector-curvature="0" /></g><g
       id="g100"
       transform="translate(37,10)"><path
         d="m 0,0 -10,0 c -0.828,0 -1.5,0.672 -1.5,1.5 0,0.828 0.672,1.5 1.5,1.5 L 0,3 C 0.828,3 1.5,2.328 1.5,1.5 1.5,0.672 0.828,0 0,0"
         style="fill:#ffffff;fill-opacity:1;fill-rule:nonzero;stroke:none"
         id="path102"
         inkscape:connector-curvature="0" /></g></g></svg>