<?xml version="1.0" encoding="UTF-8" standalone="no"?>
<!-- Created with Inkscape (http://www.inkscape.org/) -->

<svg
   xmlns:dc="http://purl.org/dc/elements/1.1/"
   xmlns:cc="http://creativecommons.org/ns#"
   xmlns:rdf="http://www.w3.org/1999/02/22-rdf-syntax-ns#"
   xmlns:svg="http://www.w3.org/2000/svg"
   xmlns="http://www.w3.org/2000/svg"
   xmlns:sodipodi="http://sodipodi.sourceforge.net/DTD/sodipodi-0.dtd"
   xmlns:inkscape="http://www.inkscape.org/namespaces/inkscape"
   id="svg4925"
   version="1.1"
   inkscape:version="0.91 r13725"
   xml:space="preserve"
   width="80"
   height="80"
   viewBox="0 0 80 80"
   sodipodi:docname="search.svg"><metadata
     id="metadata4931"><rdf:RDF><cc:Work
         rdf:about=""><dc:format>image/svg+xml</dc:format><dc:type
           rdf:resource="http://purl.org/dc/dcmitype/StillImage" /><dc:title /></cc:Work></rdf:RDF></metadata><defs
     id="defs4929" /><sodipodi:namedview
     pagecolor="#ffffff"
     bordercolor="#666666"
     borderopacity="1"
     objecttolerance="10"
     gridtolerance="10"
     guidetolerance="10"
     inkscape:pageopacity="0"
     inkscape:pageshadow="2"
     inkscape:window-width="1920"
     inkscape:window-height="1009"
     id="namedview4927"
     showgrid="false"
     inkscape:zoom="5.9"
     inkscape:cx="-34.973275"
     inkscape:cy="31.754347"
     inkscape:window-x="0"
     inkscape:window-y="0"
     inkscape:window-maximized="1"
     inkscape:current-layer="g4933" /><g
     id="g4933"
     inkscape:groupmode="layer"
     inkscape:label="ink_ext_XXXXXX"
     transform="matrix(1.25,0,0,-1.25,0,80)"><path
       inkscape:connector-curvature="0"
       id="path4937"
       style="fill:#039bd5;fill-opacity:1;fill-rule:nonzero;stroke:none"
       d="M 64,32 C 64,14.327 49.673,0 32,0 14.327,0 0,14.327 0,32 0,49.673 14.327,64 32,64 49.673,64 64,49.673 64,32" /><path
       inkscape:connector-curvature="0"
       id="path4939"
       style="fill:#000000;fill-opacity:0.15686275;fill-rule:nonzero;stroke:none"
       d="m 48,11.5 c -0.6395,0 -1.2797,0.2441 -1.7676,0.7324 l -9.4636,9.4637 c 0.3863,0.273 0.7605,0.5656 1.1218,0.8777 l 8.3418,-8.3414 C 46.7203,13.7441 47.3605,13.5 48,13.5 c 0.6395,0 1.2797,0.2441 1.7676,0.7324 0.2281,0.2281 0.4027,0.4891 0.5242,0.7676 C 50.691,14.0852 50.516,12.9809 49.7676,12.2324 49.2797,11.7441 48.6395,11.5 48,11.5 M 33.9215,24.6102 c -0.3543,0.5289 -0.4856,1.1632 -0.3926,1.7699 0.132,0.0734 0.2633,0.1504 0.3926,0.2301 0.0894,-0.1332 0.193,-0.2598 0.3109,-0.3778 l 0.8192,-0.8191 C 34.6891,25.118 34.3113,24.8504 33.9215,24.6102" /><path
       inkscape:connector-curvature="0"
       id="path4941"
       style="fill:#495672;fill-opacity:1;fill-rule:nonzero;stroke:none"
       d="m 48,13.5 c -0.6395,0 -1.2797,0.2441 -1.7676,0.7324 l -12,12 c -0.9765,0.9766 -0.9765,2.5586 0,3.5352 0.9754,0.9765 2.5598,0.9765 3.5352,0 l 12,-12 c 0.9765,-0.9766 0.9765,-2.5586 0,-3.5352 C 49.2797,13.7441 48.6395,13.5 48,13.5" /><path
       inkscape:connector-curvature="0"
       id="path4943"
       style="fill:#7db6d8;fill-opacity:1;fill-rule:nonzero;stroke:none"
       d="m 35.8578,43.0859 c 4.127,-4.1265 4.127,-10.8171 0,-14.9437 -4.1265,-4.127 -10.8172,-4.127 -14.9437,0 -4.127,4.1266 -4.127,10.8172 0,14.9437 4.1265,4.127 10.8172,4.127 14.9437,0" /><path
       inkscape:connector-curvature="0"
       id="path4945"
       style="fill:#000000;fill-opacity:0.15686275;fill-rule:nonzero;stroke:none"
       d="m 28.3859,19.0469 c -3.891,0 -7.5492,1.5152 -10.3004,4.2668 -5.6796,5.6797 -5.6796,14.9211 0,20.6008 2.7512,2.7511 6.4094,4.2668 10.3004,4.2668 3.8911,0 7.5493,-1.5157 10.3004,-4.2668 4.7211,-4.7211 5.518,-11.904 2.3903,-17.4555 l -2.9801,2.9801 c 0.7051,1.641 0.9746,3.4246 0.8094,5.175 0.2859,3.0269 -0.7297,6.1539 -3.0481,8.4718 -2.0633,2.0633 -4.7676,3.0954 -7.4719,3.0954 -2.7043,0 -5.4086,-1.0321 -7.4718,-3.0954 -2.318,-2.3179 -3.334,-5.4449 -3.0481,-8.4718 -0.2859,-3.0274 0.7301,-6.1539 3.0481,-8.4719 2.0632,-2.0637 4.7675,-3.0953 7.4718,-3.0953 1.9219,0 3.8438,0.5211 5.5356,1.5633 0.0894,-0.1332 0.193,-0.2598 0.3109,-0.3778 l 2.5364,-2.5363 C 34.332,19.9746 31.4305,19.0469 28.3859,19.0469" /><path
       inkscape:connector-curvature="0"
       id="path4947"
       style="fill:#000000;fill-opacity:0.15686275;fill-rule:nonzero;stroke:none"
       d="m 36.7688,21.6961 -2.5364,2.5363 c -0.1179,0.118 -0.2215,0.2446 -0.3109,0.3778 0.3898,0.2402 0.7676,0.5078 1.1301,0.8031 l 2.839,-2.8395 c -0.3613,-0.3121 -0.7355,-0.6047 -1.1218,-0.8777" /><path
       inkscape:connector-curvature="0"
       id="path4951"
       style="fill:#000000;fill-opacity:0.15686275;fill-rule:nonzero;stroke:none"
       d="m 17.866,34.6141 c -0.2859,3.0269 0.7301,6.1539 3.0481,8.4718 2.0632,2.0633 4.7675,3.0954 7.4718,3.0954 2.7043,0 5.4086,-1.0321 7.4719,-3.0954 2.3184,-2.3179 3.334,-5.4449 3.0481,-8.4718 -0.2235,2.3621 -1.2391,4.6632 -3.0481,6.4718 -2.0633,2.0633 -4.7676,3.0954 -7.4719,3.0954 -2.7043,0 -5.4086,-1.0321 -7.4718,-3.0954 -1.8086,-1.8086 -2.8246,-4.1097 -3.0481,-6.4718" /><path
       inkscape:connector-curvature="0"
       id="path4953"
       style="fill:#ffffff;fill-opacity:1;fill-rule:nonzero;stroke:none"
       d="m 28.3859,50.1813 c -3.891,0 -7.5492,-1.5157 -10.3004,-4.2668 -5.6796,-5.6797 -5.6796,-14.9211 0,-20.6008 2.7512,-2.7516 6.4094,-4.2668 10.3004,-4.2668 3.8911,0 7.5493,1.5152 10.3004,4.2668 5.6797,5.6797 5.6797,14.9211 0,20.6008 -2.7511,2.7511 -6.4093,4.2668 -10.3004,4.2668 z m 0,-4 c 2.7043,0 5.4086,-1.0321 7.4719,-3.0954 4.127,-4.1265 4.127,-10.8171 0,-14.9437 -2.0633,-2.0637 -4.7676,-3.0953 -7.4719,-3.0953 -2.7043,0 -5.4086,1.0316 -7.4718,3.0953 -4.127,4.1266 -4.127,10.8172 0,14.9437 2.0632,2.0633 4.7675,3.0954 7.4718,3.0954" /></g></svg>