<?xml version="1.0" encoding="UTF-8" standalone="no"?>
<!-- Created with Inkscape (http://www.inkscape.org/) -->

<svg
   xmlns:dc="http://purl.org/dc/elements/1.1/"
   xmlns:cc="http://creativecommons.org/ns#"
   xmlns:rdf="http://www.w3.org/1999/02/22-rdf-syntax-ns#"
   xmlns:svg="http://www.w3.org/2000/svg"
   xmlns="http://www.w3.org/2000/svg"
   xmlns:sodipodi="http://sodipodi.sourceforge.net/DTD/sodipodi-0.dtd"
   xmlns:inkscape="http://www.inkscape.org/namespaces/inkscape"
   id="svg2"
   version="1.1"
   inkscape:version="0.91 r13725"
   xml:space="preserve"
   width="80"
   height="80"
   viewBox="0 0 80 80"
   sodipodi:docname="smiley.svg"><metadata
     id="metadata8"><rdf:RDF><cc:Work
         rdf:about=""><dc:format>image/svg+xml</dc:format><dc:type
           rdf:resource="http://purl.org/dc/dcmitype/StillImage" /><dc:title /></cc:Work></rdf:RDF></metadata><defs
     id="defs6"><clipPath
       clipPathUnits="userSpaceOnUse"
       id="clipPath16"><path
         d="M 0,64 64,64 64,0 0,0 0,64 Z"
         id="path18"
         inkscape:connector-curvature="0" /></clipPath><clipPath
       clipPathUnits="userSpaceOnUse"
       id="clipPath28"><path
         d="m 10,52.0001 44.5,0 L 54.5,8 10,8 10,52.0001 Z"
         id="path30"
         inkscape:connector-curvature="0" /></clipPath><clipPath
       clipPathUnits="userSpaceOnUse"
       id="clipPath48"><path
         d="m 23.4994,49.0008 17.0012,0 0,-38.0013 -17.0012,0 0,38.0013 z"
         id="path50-3"
         inkscape:connector-curvature="0" /></clipPath></defs><sodipodi:namedview
     pagecolor="#ffffff"
     bordercolor="#666666"
     borderopacity="1"
     objecttolerance="10"
     gridtolerance="10"
     guidetolerance="10"
     inkscape:pageopacity="0"
     inkscape:pageshadow="2"
     inkscape:window-width="1920"
     inkscape:window-height="1009"
     id="namedview4"
     showgrid="false"
     inkscape:zoom="2.95"
     inkscape:cx="28.678265"
     inkscape:cy="43.034814"
     inkscape:window-x="0"
     inkscape:window-y="0"
     inkscape:window-maximized="1"
     inkscape:current-layer="g10"
     showguides="true"
     inkscape:guide-bbox="true" /><g
     id="g10"
     inkscape:groupmode="layer"
     inkscape:label="Elegant_circle-icons_3"
     transform="matrix(1.25,0,0,-1.25,0,80)"
     style="display:inline"><path
       inkscape:connector-curvature="0"
       id="path22"
       style="fill:#039bd5;fill-opacity:1;fill-rule:nonzero;stroke:none"
       d="M 64,32 C 64,14.327 49.673,0 32,0 14.327,0 0,14.327 0,32 0,49.673 14.327,64 32,64 49.673,64 64,49.673 64,32" /></g><g
     inkscape:groupmode="layer"
     id="layer2"
     inkscape:label="smiley"
     style="display:inline"><circle
       r="28.74452"
       cy="42.809505"
       cx="39.909584"
       id="use4269"
       style="opacity:1;fill:#000000;fill-opacity:0.17056855;stroke:none;stroke-opacity:1" /><circle
       style="opacity:1;fill:#ffffff;fill-opacity:1;stroke:none;stroke-opacity:1"
       id="path4174"
       cx="39.909584"
       cy="40.210262"
       r="28.74452" /><circle
       style="opacity:1;fill:#036290;fill-opacity:1;stroke:none;stroke-opacity:1"
       id="path4176"
       r="4.9137926"
       cy="33.378891"
       cx="27.565178" /><path
       style="opacity:1;fill:#036290;fill-opacity:1;stroke:none;stroke-opacity:1"
       d="m 58.609498,44.088438 c 2e-6,10.526248 -8.53321,19.059459 -19.059457,19.059458 -10.526248,0 -19.059458,-8.53321 -19.059456,-19.059458 10.822598,0 26.991722,0 38.118913,0 z"
       id="path4176-6"
       inkscape:connector-curvature="0"
       sodipodi:nodetypes="cscc" /><path
       style="opacity:1;fill:#ffffff;fill-opacity:1;stroke:none;stroke-opacity:1"
       d="m 55.758437,46.383882 c 0,1.551486 -0.494738,3.390982 -1.209686,4.542984 -7.470104,0 -21.735573,0.04946 -29.84381,0.04946 -0.953872,-1.281469 -1.224005,-3.022933 -1.224005,-4.592444 z"
       id="path4176-6-7"
       inkscape:connector-curvature="0"
       sodipodi:nodetypes="ccccc" /><circle
       style="opacity:1;fill:#036290;fill-opacity:1;stroke:none;stroke-opacity:1"
       id="path4176-5"
       r="4.9137926"
       cy="33.360207"
       cx="51.260605" /></g></svg>