/* XPM */
static char *toto[] = {
/* columns rows colors chars-per-pixel */
"48 48 256 2 ",
"   c #151514",
".  c #0D1119",
"X  c #162930",
"o  c #292928",
"O  c #2A363B",
"+  c #373939",
"@  c #2A3C44",
"#  c #3B3F44",
"$  c #173273",
"%  c #3B484C",
"&  c #1F4C61",
"*  c #3B5B67",
"=  c #396B7D",
"-  c #4E4E4E",
";  c #434545",
":  c #465948",
">  c #474E51",
",  c #4A5559",
"<  c #545454",
"1  c #5C5C5C",
"2  c #565758",
"3  c #605F5F",
"4  c #457A45",
"5  c #565E62",
"6  c #405F6B",
"7  c #586468",
"8  c #436D7D",
"9  c #596C73",
"0  c #5D727A",
"q  c #636363",
"w  c #6B6C6C",
"e  c #64686A",
"r  c #677478",
"t  c #747374",
"y  c #737A7C",
"u  c #7B7B7B",
"i  c #767777",
"p  c #6E6F6F",
"a  c #9A5215",
"s  c #B66C2F",
"d  c #FF7401",
"f  c #FF7909",
"g  c #F17C18",
"h  c #C97E37",
"j  c #9A785D",
"k  c #AB7A4C",
"l  c #1A971A",
"z  c #04AE04",
"x  c #02B002",
"c  c #0EB50E",
"v  c #18AB19",
"b  c #11B611",
"n  c #3A8B3A",
"m  c #24BB24",
"M  c #36BA37",
"N  c #40B93F",
"B  c #449344",
"V  c #569E56",
"C  c #46B84A",
"Z  c #558D62",
"A  c #58A474",
"S  c #69B871",
"D  c #4DC94D",
"F  c #77CB77",
"G  c #FE821A",
"H  c #FF8017",
"J  c #FF953B",
"K  c #958E75",
"L  c #AB9574",
"P  c #EF9C56",
"I  c #EE9449",
"U  c #FFA75D",
"Y  c #CF9660",
"T  c #FEB375",
"R  c #FFAD65",
"E  c #3D788F",
"W  c #4E798A",
"Q  c #6C7D83",
"!  c #787F82",
"~  c #4B71BF",
"^  c #1F62D8",
"/  c #3671D5",
"(  c #024CFF",
")  c #0349F1",
"_  c #0D55FF",
"`  c #0F51EC",
"'  c #1D60FF",
"]  c #2767FB",
"[  c #3872F7",
"{  c #4B7EF7",
"}  c #598A9C",
"|  c #538293",
" . c #6A8C99",
".. c #7B8D94",
"X. c #7D929A",
"o. c #788986",
"O. c #70B186",
"+. c #5793A8",
"@. c #4D99B6",
"#. c #549DB8",
"$. c #5090A8",
"%. c #6694A6",
"&. c #7C99A4",
"*. c #719AA5",
"=. c #6D9FB2",
"-. c #4BA0BF",
";. c #59A2BC",
":. c #63A3BB",
">. c #6EA6BB",
",. c #6FA6BB",
"<. c #77A7B8",
"1. c #6CA0AA",
"2. c #449BCB",
"3. c #4497D2",
"4. c #5B9BD2",
"5. c #508CD5",
"6. c #6396D4",
"7. c #7790CA",
"8. c #47A4C7",
"9. c #55AAC6",
"0. c #4EB2D9",
"q. c #54B6DA",
"w. c #45ADD5",
"e. c #6DACC4",
"r. c #62A7C1",
"t. c #73AEC4",
"y. c #64B0CC",
"u. c #77B1C6",
"i. c #75ACD7",
"p. c #6DB8D3",
"a. c #78BAD5",
"s. c #598BFF",
"d. c #5384F5",
"f. c #6894FD",
"g. c #7099FC",
"h. c #4BBCE6",
"j. c #4DBFEA",
"k. c #50BFE9",
"l. c #7DC0D9",
"z. c #4EC0EB",
"x. c #53C1EB",
"c. c #5CC5EC",
"v. c #62C6EC",
"b. c #66C9EE",
"n. c #6CCAEE",
"m. c #6BC4E6",
"M. c #73CCEE",
"N. c #79CFEF",
"B. c #78C7E5",
"V. c #6CCCF0",
"C. c #74CEF0",
"Z. c #7DD1F0",
"A. c #7CD0EF",
"S. c #838383",
"D. c #8C8C8C",
"F. c #879598",
"G. c #939393",
"H. c #9B9C9C",
"J. c #939A9C",
"K. c #839489",
"L. c #8CA29D",
"P. c #949FA4",
"I. c #8DA3AB",
"U. c #9BA6AA",
"Y. c #98A6AB",
"T. c #85AEBD",
"R. c #87AAB7",
"E. c #9BACB3",
"W. c #98B1BB",
"Q. c #A4A4A5",
"!. c #AAAAAB",
"~. c #A8A7A6",
"^. c #ADB4B7",
"/. c #B5B5B5",
"(. c #BBBBBA",
"). c #AEAFB0",
"_. c #D3B393",
"`. c #DDBCA1",
"'. c #8ECD90",
"]. c #9CE09B",
"[. c #8DC2AA",
"{. c #96C3A5",
"}. c #8EC7BD",
"|. c #B4E6B4",
" X c #F9C293",
".X c #FFD8B7",
"XX c #82B2C4",
"oX c #87B7C9",
"OX c #95B7C4",
"+X c #80BDD4",
"@X c #8BA3D4",
"#X c #A5BCC5",
"$X c #B7BFC2",
"%X c #87AAFC",
"&X c #A0BCFF",
"*X c #8BC5DA",
"=X c #87C1D7",
"-X c #97C7D9",
";X c #9ED4DB",
":X c #A8CAD7",
">X c #B7CACC",
",X c #83C9E4",
"<X c #8DCBE3",
"1X c #82CFEB",
"2X c #94CCE2",
"3X c #9BCEE1",
"4X c #94D3EB",
"5X c #9BD6EC",
"6X c #9DD8EE",
"7X c #96D0E6",
"8X c #83D3F1",
"9X c #8CD6F2",
"0X c #91D7F2",
"qX c #94D9F3",
"wX c #9BDBF3",
"eX c #8CD3EE",
"rX c #A4D2E4",
"tX c #A6D8EC",
"yX c #B5DBEA",
"uX c #A4DEF4",
"iX c #ABDEF2",
"pX c #A7E0F5",
"aX c #ABE1F5",
"sX c #AFE4F8",
"dX c #B3E3F6",
"fX c #BAE6F7",
"gX c #BFE8F7",
"hX c #BAE7F8",
"jX c #BCE8F9",
"kX c #B3E4F9",
"lX c #C7C6C6",
"zX c #C4DACC",
"xX c #C6D9D8",
"cX c #D4D4D4",
"vX c #DDDDDD",
"bX c #C2EBC2",
"nX c #FFEAD7",
"mX c #C8D7F1",
"MX c #C0E7F5",
"NX c #C3EAF8",
"BX c #CBECF9",
"VX c #CDE9F2",
"CX c #D1EFFA",
"ZX c #D7ECF4",
"AX c #D6F0FB",
"SX c #DBF2FB",
"DX c #C9E2E8",
"FX c #E4E4E3",
"GX c #EAECEB",
"HX c #E3F5FC",
"JX c #E9F7FC",
"KX c #EDF9FD",
"LX c #F3FBFE",
"PX c #FAFDFE",
"IX c #E3F6E3",
"UX c None",
/* pixels */
"UXUXUXUXUXUXUXUXUXUXUXUXUXUXUXUXUXUXUXUXUXUXUXUX, UXUXUXUXUXUXUXUXUXUXUXUXUXUXUXUXUXUXUXUXUXUXUX",
"UXUXUXUXUXUXUXUXUXUXUXUXUXUXUXUXUXUXUXUXUXUXj E.Q.D.p UXUXUXUXUXUXUXUXUXUXUXUXUXUXUXUXUXUXUXUXUX",
"UXUXUXUXUXUXUXUXUXUXUXUXUXUXUXUXUXUXUXUXUXy cXvXG.3 q 1 UXUXUXUXUXUXUXUXUXUXUXUXUXUXUXUXUXUXUXUX",
"UXUXUXUXUXUXUXUXUXUXUXUXUXUXUXUXUXUX;.p.e.P.vXlX5 - < 5 +.8.UXUXUXUXUXUXUXUXUXUXUXUXUXUXUXUXUXUX",
"UXUXUXUXUXUXUXUXUXUXUXUXUXUXUX,.-XtXkXfX-XS.G.w , 7 e p :XsX6Xa.#.UXUXUXUXUXUXUXUXUXUXUXUXUXUXUX",
"UXUXUXUXUXUXUXUXUXUXUXUXUXOXrXfXgXdXkXkX3Xr 3 - 5 j G.y -XpXsXjXdX3X,.UXUXUXUXUXUXUXUXUXUXUXUXUX",
"UXUXUXUXUXUXUXUXUXUXUXUXrXdXhXhXhXhXdXdXfX>Xy u J.H.H.:XqXwXuXpXaXhXhX:XUXUXUXUXUXUXUXUXUXUXUXUX",
"UXUXUXUXUXUXUXUXUXUXrXtXfXMXgXNXNXgXNXhXBXMXOX..F...T.iXkXwXwXuXaXaXkXhXyX:XUXUXUXUXUXUXUXUXUXUX",
"UXUXUXUXUXUXi D.t X.5XhXBXBXBXBXBXBXNXBXBXgXhXiXtXtXuXuXkXiXwXuXuXaXdXfXfXiXrXUXUXUXUXUXUXUXUXUX",
"UXUXUXUXUXu cXQ.q e :XBXBXCXCXCXBXCXCXSXBXMXhXhXkXiXaXuXuXhXwXwXuXaXkXfXjXMX-X>X$Xj e UXUXUXUXUX",
"UXUXUXUXUXD./.w 1 q E.SXZXSXSXSXSXZXHXAXBXNXgXhXkXaXiXuXwXsXsXwXuXaXkXdXjXMXE.cXQ., 2 UXUXUXUXUX",
"UXUXUXUXUX< u D.D.y >XSXHXSXHXHXSXSXHXAXBXNXNXgXfXkXiXuXuXwXhXuXuXaXkXfXjXMXF.S.e i e UXUXUXUXUX",
"UXUXUXUXUXUXF.P.).#XSXHXJXJXJXJXHXJXHXAXBXBXNXgXfXkXsXaXwX9XwX8Xb.V.Z.0XsXNX#Xe G.H.t UXUXUXUXUX",
"UXUXUXUXUXrXB.yXZXJXJXJXKXLXLXKXKXKXSXAXAXBXNXNXfXkXaXqXn.x.v.N.j.j.j.z.c.Z.iXxX>XI.R.UXUXUXUXUX",
"UXUXUXUXUX,XuXSXHXJXKXLXLXPXPXLXKXLXHXAXZXBXNXMXdXdXqXc.x.h.x.8Xz.z.j.j.j.x.9XaXCXZXtXUXUXUXUXUX",
"UXUXUXUXUX1XNXSXHXJXLXLXPXPXGXzX>XDXSXSXCXBXNXhXfXuXv.j.j.h.9.L.F.1.0.x.C.9Xb.j.9XSXhXrXUXUXUXUX",
"UXUXUXUX+XqXAXSXHXHXKXKXPXzX'.F F F {.DXCXBXMXhXkXZ.z.h.h.*._. XT P L a.V.x.z.j.j.0XAXyXUXUXUXUX",
"UXUXUXUX=XsXAXAXSXHXJXJXxX'.bX|.D m M [.BXNXgXhXaXv.z.h.;.`.nX.XJ f G K h.j.z.z.j.x.kXVXUXUXUXUX",
"UXUXUXUX4XNXCXAXSXSXHXHX{.|.IXF z z l Z Y.W.OXOXoX#.@.$.r `.nXT d d d h 9.z.z.z.z.h.n.ZXW.UXUXUX",
"UXUXUXE XX:XmXCXZXSXSXZXF ].'.m z z 4 t w w e 5 5 3 1 1 2 j U H f f G g <.V.x.z.z.z.j.dXOXUXUXUX",
"UXUXi G.J.G.J.>XCXSXSXSXS m z x b M B % , : ; # O O O @ O a H d f I J h p.Z.8X8Xn.-.} F...UXUXUX",
"UXS.lXcX!.t i P.DXCXCXCX[.v c v n B N A 3X;X-XoX:.-.w.w.-.s s s I U I K.k.k.k.v.T.^./.!.G.u UXUX",
"UX/.GXvXp < S.i P.NXNXNXfXO.C V t < V ;XkXiXuXwXC.z.z.z.z.$.y p L Y K.q.c.c.c.9.U.GXvXG.1 1 e UX",
"1 (.lXH.< < 1 < Q dXjXjXhXkXW.O.u 1  .pXuXuXwXqXx.z.z.z.z.+.i 7 +.y.c.c.v.c.v.+.lXFX(.1 - - 1 - ",
"; i r 2 < 7 9 q Q iXdXdXdXkXsXiXF.e 5 7XuXwXwXN.z.z.z.z.0.r 3 W v.v.b.b.v.v.b.} ~.~.t - < 3 1 ; ",
"UX- , , 5 j S.w &.aXaXkXaXaXaXaXXXr ; *.wXqX9Xx.z.z.z.z.$.3 : ;.b.b.b.b.b.b.v.} 3 1 - 1 t i e + ",
"UX; e j !.H.D.Q 2XuXuXuXuXuXuXuX2XQ - % <XqXc.j.z.z.z.0.9 - * m.n.n.n.b.n.n.n.y.7 1 p D.D.D.3 UX",
"UXUXUXy Q.P.%.+XwXwXuXwXqXwXqXqXwX<.1 o W c.j.h.z.z.z.| > + +.V.n.M.M.M.M.M.M.n.#.y !.~.G.w UXUX",
"UXUXUX| i.,Xn.C.9XqXqXqXwXqXwXqXuX7X0 + X 2.h.h.k.x.8., + * m.M.C.M.M.M.M.M.N.M.N.-XXX*.9 UXUXUX",
"UXUXUXUX,Xb.8XN.v.n.8X0XqXqXqX9XZ.V.@.# . & 3.5.3.2.8 + O :.Z.A.N.N.N.N.Z.N.N.8XuX0XV.,XUXUXUXUX",
"UXUXUXUXoXb.x.C.8Xn.x.x.x.c.x.z.j.j.h.=   . 7.%Xf.~ % o = A.Z.A.Z.Z.Z.8XZ.8XwXuX9XM.N.+XUXUXUXUX",
"UXUXUXUX=.1Xc.k.c.M.8Xn.c.h.j.j.j.h.j.2.O 5 mX%X' ` $ @ p.8X8XZ.Z.8X8X8XwXiXwX8XZ.N.4X<.UXUXUXUX",
"UXUXUXUXUX=XC.c.x.j.x.C.8X8XV.c.k.j.j.3.@XVXmX] ( ( ) / 1X8X8X8X0XwXuXsXwX9X8X8X8X8X*XUXUXUXUXUX",
"UXUXUXUXUX=.4Xb.c.x.x.h.h.c.M.Z.8X8X8X4.%X&Xs.( ( _ _ / 7XuXiXsXiXuXqX9X9X8X9X8X8XqX>.UXUXUXUXUX",
"UXUXUXUXUXUX+X9Xb.c.x.x.z.z.j.h.k.c.c.3.] ' ( ( ' [ ] / wXwXwX0X9X9X9X0X9X0X0X8XqX+XUXUXUXUXUXUX",
"UXUXUXUXUXUXUX2X9Xn.b.c.x.x.x.x.k.k.k.0.^ _ _ ] d.s.[ 6.0X0X0X0XqXqXqXqXqX0X9XqX7XUXUXUXUXUXUXUX",
"UXUXUXUXUXUXUX>.5X9XC.C.V.b.v.v.k.b.b.Z.i./ { f.g.d.4.tXqXqXqXwXwX4X4XqXwX9XqXwXr.UXUXUXUXUXUXUX",
"UXUXUXUXUXUXUXUXe.wXwX,Xe.%.%.e.N.Z.0XiXqXa.6.4.6.i.5XdXiXwXwX5XXXX...<.4XwXuXe.UXUXUXUXUXUXUXUX",
"UXUXUXUXUXUXUXUXUXe.6XR.!.).S.Q XXuXkXwXwXwXwX5X6XuXwXpXhXkXuXT.).(.S.t &.6Xt.UXUXUXUXUXUXUXUXUX",
"UXUXUXUXUXUXUXUXUXUX+.Q.FXQ.< w Y.dXuXuXuXuXuXuXpXuXpXuXuXfXyX^.FX!.< < 9 %.UXUXUXUXUXUXUXUXUXUX",
"UXUXUXUXUXUXUXUXUXUXUXG.Q.q < 3 r 3XpXaXuXaXaXiXaXuXpXiXaXpXrXJ.H.q < q 2 UXUXUXUXUXUXUXUXUXUXUX",
"UXUXUXUXUXUXUXUXUXUXUX< 2 2 t i Q iXpXuXuXaXaXaXaXaXaXaXuXuXtXQ 2 2 i S.3 UXUXUXUXUXUXUXUXUXUXUX",
"UXUXUXUXUXUXUXUXUXUXUXUXw S.G.y <.uXkXdXkXaXaXaXaXaXaXaXsXkXaX<.e S.G.u UXUXUXUXUXUXUXUXUXUXUXUX",
"UXUXUXUXUXUXUXUXUXUXUXUXUXUXUXUXUXt.a.<X5XuXiXiXiXiXuX6X2X=Xt.UXUXUXUXUXUXUXUXUXUXUXUXUXUXUXUXUX",
"UXUXUXUXUXUXUXUXUXUXUXUXUXUXUXUXUXUXUXUXUX>.t.u.t.t.>.UXUXUXUXUXUXUXUXUXUXUXUXUXUXUXUXUXUXUXUXUX",
"UXUXUXUXUXUXUXUXUXUXUXUXUXUXUXUXUXUXUXUXUXUXUXUXUXUXUXUXUXUXUXUXUXUXUXUXUXUXUXUXUXUXUXUXUXUXUXUX",
"UXUXUXUXUXUXUXUXUXUXUXUXUXUXUXUXUXUXUXUXUXUXUXUXUXUXUXUXUXUXUXUXUXUXUXUXUXUXUXUXUXUXUXUXUXUXUXUX",
"UXUXUXUXUXUXUXUXUXUXUXUXUXUXUXUXUXUXUXUXUXUXUXUXUXUXUXUXUXUXUXUXUXUXUXUXUXUXUXUXUXUXUXUXUXUXUXUX"
};
