/* XPM */
static char *retroshare[] = {
/* columns rows colors chars-per-pixel */
"48 48 204 2 ",
"   c #000000",
".  c #030709",
"X  c #040A0D",
"o  c #050F13",
"O  c #0A0F11",
"+  c #031016",
"@  c #091116",
"#  c #04141C",
"$  c #0B161A",
"%  c #0E181D",
"&  c #10171B",
"*  c #141B1F",
"=  c #041923",
"-  c #0B1C24",
";  c #041E2A",
":  c #0A1F29",
">  c #0B212C",
",  c #14242B",
"<  c #1B272C",
"1  c #1D282E",
"2  c #052535",
"3  c #0C2936",
"4  c #032B3E",
"5  c #132933",
"6  c #1A2B33",
"7  c #1B313C",
"8  c #202D34",
"9  c #22343D",
"0  c #072E40",
"q  c #0C3447",
"w  c #04364E",
"e  c #173644",
"r  c #183441",
"t  c #153A4C",
"y  c #063B54",
"u  c #0C3C52",
"i  c #113E53",
"p  c #1D3F50",
"a  c #223B46",
"s  c #263E49",
"d  c #164155",
"f  c #1B4355",
"g  c #19455A",
"h  c #24404D",
"j  c #2F4048",
"k  c #224353",
"l  c #294856",
"z  c #294C5D",
"x  c #084562",
"c  c #074D6E",
"v  c #094B6A",
"b  c #124A64",
"n  c #1B4E66",
"m  c #0B5477",
"M  c #095579",
"N  c #09597E",
"B  c #175978",
"V  c #274D60",
"C  c #284F62",
"Z  c #245167",
"A  c #3A5460",
"S  c #295D75",
"D  c #215F7D",
"F  c #315D72",
"G  c #396174",
"H  c #326178",
"J  c #386478",
"K  c #436778",
"L  c #436B7E",
"P  c #4D6C7B",
"I  c #0A628C",
"U  c #166285",
"Y  c #1A6487",
"T  c #116B96",
"R  c #186B93",
"E  c #0D709F",
"W  c #11719F",
"Q  c #2D6783",
"!  c #256A8A",
"~  c #396B84",
"^  c #3F7189",
"/  c #2C7598",
"(  c #3D7995",
")  c #3A7B9B",
"_  c #1574A2",
"`  c #1D78A3",
"'  c #187DAD",
"]  c #0F7DB1",
"[  c #237BA5",
"{  c #287EA7",
"}  c #446D81",
"|  c #507A8E",
" . c #597B8B",
".. c #437993",
"X. c #1984B6",
"o. c #1A86BA",
"O. c #2B80A9",
"+. c #3680A3",
"@. c #3484AB",
"#. c #3A88AD",
"$. c #2785B2",
"%. c #2A88B4",
"&. c #398CB3",
"*. c #51829A",
"=. c #5C879B",
"-. c #4888A7",
";. c #4089AC",
":. c #548EAA",
">. c #4891B4",
",. c #5A9BBB",
"<. c #168BC3",
"1. c #1C8DC2",
"2. c #118EC9",
"3. c #1492CE",
"4. c #1A95CF",
"5. c #1594D1",
"6. c #1C96D0",
"7. c #1E98D2",
"8. c #2391C5",
"9. c #2D95C7",
"0. c #2197CF",
"q. c #2A95C8",
"w. c #2B99CD",
"e. c #3C96C1",
"r. c #3D9AC6",
"t. c #319ACC",
"y. c #389DCC",
"u. c #239AD2",
"i. c #2A9ED5",
"p. c #3FA0CE",
"a. c #2EA0D7",
"s. c #32A2D7",
"d. c #35A4D9",
"f. c #3AA6DA",
"g. c #3DA9DC",
"h. c #529DC1",
"j. c #4FA2C9",
"k. c #54A2C6",
"l. c #5EA5C7",
"z. c #51A6CF",
"x. c #5DA9CD",
"c. c #46A5D2",
"v. c #4DA8D3",
"b. c #43ABDD",
"n. c #49AEDE",
"m. c #54ABD4",
"M. c #5CADD4",
"N. c #52AFDC",
"B. c #4CB0DF",
"V. c #5CB3DC",
"C. c #65A5C3",
"Z. c #6BA8C5",
"A. c #60A8CA",
"S. c #68AECF",
"D. c #79ADC6",
"F. c #70AFCD",
"G. c #71B0CF",
"H. c #62B2D9",
"J. c #69B6DB",
"K. c #65B8DF",
"L. c #6CBADF",
"P. c #71B2D1",
"I. c #74BBDC",
"U. c #48AFE0",
"Y. c #4DB2E1",
"T. c #53B4E3",
"R. c #59B7E4",
"E. c #5DB9E5",
"W. c #62BCE6",
"Q. c #6EBBE0",
"!. c #65BEE8",
"~. c #68BFE9",
"^. c #6CC1EA",
"/. c #76C2E6",
"(. c #78C1E4",
"). c #73C5EC",
"_. c #77C8EF",
"`. c #7AC9EF",
"'. c #76C8F0",
"]. c #7DCBF0",
"[. c #82B4CC",
"{. c #81B9D4",
"}. c #8ABCD4",
"|. c #80BDDB",
" X c #8AC1DC",
".X c #82C5E5",
"XX c #88C6E4",
"oX c #84CCEF",
"OX c #8BCDEC",
"+X c #94CAE5",
"@X c #91CEEB",
"#X c #97D3EF",
"$X c #82CDF1",
"%X c #87D0F3",
"&X c #8CD3F4",
"*X c #92D6F6",
"=X c #95D8F7",
"-X c #92D7F8",
";X c #96D8F8",
":X c #9BDBFA",
">X c #A2DEFC",
",X c #A5E1FD",
"<X c #A9E2FE",
"1X c None",
/* pixels */
"1X1X1X1X1X1X1X1X1X1X1X1X1X1X1X1X1X1X1X1X                    1X1X1X1X1X1X1X1X1X1X1X1X1X1X1X1X1X1X",
"1X1X1X1X1X1X1X1X1X1X1X1X1X1X1X1X1X                                1X1X1X1X1X1X1X1X1X1X1X1X1X1X1X",
"1X1X1X1X1X1X1X1X1X1X1X1X1X1X                                          1X1X1X1X1X1X1X1X1X1X1X1X1X",
"1X1X1X1X1X1X1X1X1X1X1X1X1X                                        , } Z.oX&X-X:X:X1X1X1X1X1X1X1X",
"1X1X1X1X1X1X1X1X1X1X1X                                          l S.].%X%X&X&X;X:X:X1X1X1X1X1X1X",
"1X1X1X1X1X1X1X1X1X1X                                          l Q.'.`.].oX%X*X=X:X>X>X1X1X1X1X1X",
"1X1X1X1X1X1X1X1X1X                                          , x.).).`.].oX%X&X=X;X:X>X<X1X1X1X1X",
"1X1X1X1X1X1X1X1X                                            ~ ^.^.)._.`.%X%X&X*X;X:X>X<X<X1X1X1X",
"1X1X1X1X1X1X1X                                            @ h.^.^.)._.`.oXOX&X*X;X:X>X<X<X1X1X1X",
"1X1X1X1X1X1X                                              e V.!.^.).).`.].$X%X*X=X;X:X>X<X1X1X1X",
"1X1X1X1X1X1X1 9 8 & .                             @ 5 Z ) j.E.!.~.^.)._.].oX%X&X=X;X:X>X,X1X1X1X",
"1X1X1X1X1X}.+X#X@X{.=.9                   X : d ! &.c.Y.T.R.E.W.~.^.).).`.$X%X&X*X=X:X>X>X1X1X1X",
"1X1X1X<X,X,X:X:X:X=X-X.XK X       . # q B [ 9.f.g.b.n.B.T.R.E.W.~.^.^.`.`.$XoX&X*X=X;X>X}.1X1X1X",
"1X1X<X<X>X:X:X;X*X*X&X%XoXL . = v T o.0.i.a.d.d.f.b.b.B.Y.T.E.W.W.^.).)._.$XoX%X&X=X:X>X .  1X1X",
"1X<X,X>X>X:X=X=X&X&X%X$X$X/.s 0 2.5.4.0.u.i.s.d.f.b.b.Y.T.Y.z.V.W.^.^.'._.].$X%X&X*X:X X1   1X1X",
"1X,X>X:X:X=X*X&X&X%XoX$X`.`.:.@ E 5.4.7.u.i.a.d.f.f.p.&.Q p - V V.^.^.)._.`.$X%X&X-XOXA       1X",
",X>X:X:X;X-X*X%X%X$XoX`.'.'.J., c 3.4.6.u.i.w.%.! g > o       . V M.^.).'.`.$X%X&X|.A         1X",
">X:X:X;X*X*X%X%XoXoX`.`.'.).^.h w 3.3.X.R b 3 +                   , ^ A.L.).(.F.| 6           1X",
">X:X=X*X*X%X%X%X$X`.`.).^.^.^.l ; c 4 @ .                       2 y # % 6 9 6 $ .               ",
":X=X*X*X&X%XoX].]._.).).^.~.W.k                                 M 3.] I c 4                     ",
"=X=X&X&X%X$X$X`.`.'.^.^.^.!.M.,                               X _ 5.5.5.5.x                     ",
"1X&X&X%X$XoX`.`.).^.^.^.!.!.>.X                               ; 1.4.4.4.<.2                     ",
"1X&X%XoX$X`._._.^.^.~.~.W.E.m.l                               i u.u.0.7.' +                     ",
"1X1XI.%X.X_._.).^.~.~.W.E.E.T.v.f                             Y a.u.u.u.U                       ",
"1X1Xa C.`.`.).^.^.!.!.E.E.T.Y.Y.c.f                         o $.a.i.i.i.i                       ",
"1X1X  % G ,.H.W.H.k.( >.R.T.Y.n.U.p.f                       3 t.s.s.s.9.>                       ",
"1X1X      O , 6 6 $   - &.T.Y.n.b.g.y.d                     n f.f.d.d.{ X                       ",
"1X1X                    - #.U.b.b.f.f.t.i                 . / g.f.f.g.D                         ",
"1X1X                      - @.b.f.d.d.s.q.i               $ e.b.b.g.f.t                       1X",
"1X1X1X                      = @.f.d.s.i.a.8.u             e b.U.n.n.r.-                       1X",
"1X1X1X                        = { d.i.i.u.0.1.u           S Y.Y.B.Y.+..                       1X",
"1X1X1X                          = [ i.u.0.6.4.<.y       X ;.R.T.Y.Y.S                       1X1X",
"1X1X1X1X                          = ` 0.6.4.3.3.I X . > z m.R.R.R.N.r                       1X1X",
"1X1X1X1X                            = ` 6.3.2.M + a -.M.W.W.E.E.E.j.%                       1X1X",
"1X1X1X1X1X                            = _ 3.N + J W.^.^.~.W.~.W.!.V.H .                   1X1X1X",
"1X1X1X1X1X                              = M # G ^.).^.^.^.~.~.~.!.!.W.F                 1X1X1X1X",
"1X1X1X1X1X1X                                a Q._.`.^.'.^.^.^.^.~.~.^.V.7               1X1X1X1X",
"1X1X1X1X1X1X1X                              *.]._.`.`.'._.`.).^.).^.^.^...            1X1X1X1X1X",
"1X1X1X1X1X1X1X1X                          % P.%XoX$X].].`.`.`.`.'.).).).A.$         1X1X1X1X1X1X",
"1X1X1X1X1X1X1X1X1X                        7 .X%XoXoX$X$XoX`.`.`._._.`.`.L.6       1X1X1X1X1X1X1X",
"1X1X1X1X1X1X1X1X1X1X                      9 OX%X&X%X%X%XoX%XoX$X$X].].].).8     1X1X1X1X1X1X1X1X",
"1X1X1X1X1X1X1X1X1X1X1X                    < XX-X*X*X&X%X&X%X%XoXoXoX$XoXI.,   1X1X1X1X1X1X1X1X1X",
"1X1X1X1X1X1X1X1X1X1X1X1X                  O D.:X=X*X*X*X*X&X&X&X%X%X%X%XG.1X1X1X1X1X1X1X1X1X1X1X",
"1X1X1X1X1X1X1X1X1X1X1X1X1X1X                P :X:X:X;X;X;X;X*X*X&X-X&X&X1X1X1X1X1X1X1X1X1X1X1X1X",
"1X1X1X1X1X1X1X1X1X1X1X1X1X1X1X1X            * [.>X:X:X:X:X;X;X;X;X*X*X&X1X1X1X1X1X1X1X1X1X1X1X1X",
"1X1X1X1X1X1X1X1X1X1X1X1X1X1X1X1X1X1X1X        j +X,X>X>X>X:X:X:X:X:X;X1X1X1X1X1X1X1X1X1X1X1X1X1X",
"1X1X1X1X1X1X1X1X1X1X1X1X1X1X1X1X1X1X1X1X1X1X1X1X1X<X,X,X,X>X>X>X>X:X1X1X1X1X1X1X1X1X1X1X1X1X1X1X",
"1X1X1X1X1X1X1X1X1X1X1X1X1X1X1X1X1X1X1X1X1X1X1X1X1X1X1X<X<X,X,X,X1X1X1X1X1X1X1X1X1X1X1X1X1X1X1X1X"
};
