<?xml version="1.0" encoding="UTF-8" standalone="no"?>
<!-- Created with Inkscape (http://www.inkscape.org/) -->

<svg
   xmlns:dc="http://purl.org/dc/elements/1.1/"
   xmlns:cc="http://creativecommons.org/ns#"
   xmlns:rdf="http://www.w3.org/1999/02/22-rdf-syntax-ns#"
   xmlns:svg="http://www.w3.org/2000/svg"
   xmlns="http://www.w3.org/2000/svg"
   xmlns:sodipodi="http://sodipodi.sourceforge.net/DTD/sodipodi-0.dtd"
   xmlns:inkscape="http://www.inkscape.org/namespaces/inkscape"
   id="svg4155"
   version="1.1"
   inkscape:version="0.91 r13725"
   xml:space="preserve"
   width="80"
   height="80"
   viewBox="0 0 80 80"
   sodipodi:docname="add.svg"><metadata
     id="metadata4161"><rdf:RDF><cc:Work
         rdf:about=""><dc:format>image/svg+xml</dc:format><dc:type
           rdf:resource="http://purl.org/dc/dcmitype/StillImage" /><dc:title></dc:title></cc:Work></rdf:RDF></metadata><defs
     id="defs4159" /><sodipodi:namedview
     pagecolor="#ffffff"
     bordercolor="#666666"
     borderopacity="1"
     objecttolerance="10"
     gridtolerance="10"
     guidetolerance="10"
     inkscape:pageopacity="0"
     inkscape:pageshadow="2"
     inkscape:window-width="1366"
     inkscape:window-height="706"
     id="namedview4157"
     showgrid="false"
     inkscape:zoom="5.11875"
     inkscape:cx="28.462795"
     inkscape:cy="38.239659"
     inkscape:window-x="-8"
     inkscape:window-y="-8"
     inkscape:window-maximized="1"
     inkscape:current-layer="g4163" /><g
     id="g4163"
     inkscape:groupmode="layer"
     inkscape:label="ink_ext_XXXXXX"
     transform="matrix(1.25,0,0,-1.25,0,80)"><path
       inkscape:connector-curvature="0"
       id="path4167"
       style="fill:#039bd5;fill-opacity:1;fill-rule:nonzero;stroke:none"
       d="M 64,32 C 64,14.327 49.673,0 32,0 14.327,0 0,14.327 0,32 0,49.673 14.327,64 32,64 49.673,64 64,49.673 64,32" /><path
       inkscape:connector-curvature="0"
       style="fill:#ffffff"
       d="m 52.357845,35.83752 -15.874967,0 c -0.560293,0 -0.933823,0.373529 -0.933823,0.933822 l 0,15.874965 c 0,1.120588 -0.747056,1.867645 -1.867641,1.867645 l -3.735288,0 c -1.120584,0 -1.867644,-0.747057 -1.867644,-1.867645 l 0,-15.874965 c 0,-0.560293 -0.373527,-0.933822 -0.933819,-0.933822 l -15.874968,0 c -1.120586,0 -1.8676431,-0.747057 -1.8676431,-1.867644 l 0,-3.735285 c 0,-1.120585 0.7470571,-1.867644 1.8676431,-1.867644 l 15.874968,0 c 0.560292,0 0.933819,-0.373527 0.933819,-0.933821 l 0,-15.874967 c 0,-1.120585 0.74706,-1.8676415 1.867644,-1.8676415 l 3.735288,0 c 1.120585,0 1.867641,0.7470565 1.867641,1.8676415 l 0,15.874967 c 0,0.560294 0.37353,0.933821 0.933823,0.933821 l 15.874967,0 c 1.120585,0 1.867641,0.747059 1.867641,1.867644 l 0,3.735285 c 0,1.120587 -0.747056,1.867644 -1.867641,1.867644 z"
       id="path4" /></g></svg>