<?xml version="1.0" encoding="UTF-8" standalone="no"?>
<!-- Created with Inkscape (http://www.inkscape.org/) -->

<svg
   xmlns:dc="http://purl.org/dc/elements/1.1/"
   xmlns:cc="http://creativecommons.org/ns#"
   xmlns:rdf="http://www.w3.org/1999/02/22-rdf-syntax-ns#"
   xmlns:svg="http://www.w3.org/2000/svg"
   xmlns="http://www.w3.org/2000/svg"
   xmlns:sodipodi="http://sodipodi.sourceforge.net/DTD/sodipodi-0.dtd"
   xmlns:inkscape="http://www.inkscape.org/namespaces/inkscape"
   id="svg4155"
   version="1.1"
   inkscape:version="0.92.3 (2405546, 2018-03-11)"
   xml:space="preserve"
   width="128"
   height="128"
   viewBox="0 0 128 128"
   sodipodi:docname="addstickers.svg"><metadata
     id="metadata4161"><rdf:RDF><cc:Work
         rdf:about=""><dc:format>image/svg+xml</dc:format><dc:type
           rdf:resource="http://purl.org/dc/dcmitype/StillImage" /><dc:title></dc:title></cc:Work></rdf:RDF></metadata><defs
     id="defs4159" /><sodipodi:namedview
     pagecolor="#ffffff"
     bordercolor="#666666"
     borderopacity="1"
     objecttolerance="10"
     gridtolerance="10"
     guidetolerance="10"
     inkscape:pageopacity="0"
     inkscape:pageshadow="2"
     inkscape:window-width="1152"
     inkscape:window-height="801"
     id="namedview4157"
     showgrid="false"
     inkscape:zoom="3.6195028"
     inkscape:cx="53.669069"
     inkscape:cy="71.112562"
     inkscape:window-x="-8"
     inkscape:window-y="-8"
     inkscape:window-maximized="1"
     inkscape:current-layer="g4163" /><g
     id="g4163"
     inkscape:groupmode="layer"
     inkscape:label="ink_ext_XXXXXX"
     transform="matrix(1.25,0,0,-1.25,0,128)"><path
       inkscape:connector-curvature="0"
       id="path4167"
       style="fill:#039bd5;fill-opacity:1;fill-rule:nonzero;stroke:none;stroke-width:1.60304987"
       d="m 102.81622,51.518623 c 0,-28.330702 -22.966895,-51.29759817 -51.297597,-51.29759817 -28.330702,0 -51.29759817,22.96689617 -51.29759817,51.29759817 0,28.330702 22.96689617,51.297597 51.29759817,51.297597 28.330702,0 51.297597,-22.966895 51.297597,-51.297597" /><g
       id="g835"
       transform="matrix(0.16426573,0,0,-0.1695986,9.5806414,96.195902)"><g
         id="g833"><g
           id="g831"><path
             d="m 511.653,195.545 h 0.018 C 500.227,149.939 477.629,109.379 443.689,76.275 V 76.178 C 394.902,27.098 329.298,0.021 259.891,0.021 190.485,0.021 125.202,27.026 76.122,76.107 27.043,125.186 0,190.427 0,259.834 c 0,69.407 27.474,134.654 76.554,183.735 33.107,33.106 74.409,56.647 120.015,68.089 v -0.017 c 0,0.22 1.288,0.338 2.158,0.338 2.776,0 5.26,-1.09 7.275,-3.107 L 509,205.71 c 2.647,-2.648 3.575,-6.983 2.653,-10.165 z m -331.684,243.559 -0.021,-0.051 c -21.899,-9.701 -41.643,-23.277 -58.851,-40.485 -76.502,-76.501 -76.502,-200.981 0,-277.483 38.255,-38.256 88.49,-57.377 138.742,-57.377 50.239,0 100.495,19.13 138.741,57.377 17.209,17.209 30.783,36.953 40.485,58.852 l 0.072,0.021 c -68.393,0.168 -134.341,27.402 -183.049,76.118 -48.713,48.703 -75.946,114.652 -76.119,183.028 z m 24.612,40.963 c -1.461,-8.557 -2.461,-17.209 -2.983,-25.878 -4.137,-68.081 21.19,-134.824 69.491,-183.115 44.875,-44.884 105.674,-69.928 168.688,-69.928 4.797,0 9.615,0.145 14.433,0.439 8.665,0.523 17.315,1.522 25.873,2.984 z M 462.426,180.93 c -10.888,-28.139 -27.292,-53.294 -48.845,-74.847 -84.775,-84.774 -222.71,-84.771 -307.483,0 -84.772,84.773 -84.772,222.709 0,307.482 21.554,21.552 46.709,37.957 74.848,48.846 0.695,7.955 1.75,15.883 3.17,23.732 C 149.239,474.489 117.347,454.814 91.096,428.561 46.021,383.49 21.198,323.564 21.198,259.822 c 0,-63.742 24.823,-123.667 69.896,-168.741 45.074,-45.074 105,-69.897 168.741,-69.897 63.742,0 123.669,24.823 168.742,69.896 26.251,26.251 45.926,58.144 57.582,93.02 -7.851,-1.421 -15.779,-2.476 -23.733,-3.17 z"
             data-original="#000000"
             class="active-path"
             data-old_color="#000000"
             id="path829"
             inkscape:connector-curvature="0"
             style="fill:#fffcfc" /></g></g></g></g></svg>