<?xml version="1.0"?>
<svg xmlns="http://www.w3.org/2000/svg" xmlns:xlink="http://www.w3.org/1999/xlink" version="1.1" id="Capa_1" x="0px" y="0px" viewBox="0 0 512 512" style="enable-background:new 0 0 512 512;" xml:space="preserve" width="512px" height="512px" class=""><g transform="matrix(0.95099 0 0 0.95099 12.5465 12.5465)"><g>
	<g>
		<path d="M418.88,344.021l-54.869-19.093c-4.011-1.365-8.469-0.277-11.371,2.859c-26.901,29.376-61.227,45.547-96.64,45.547    s-69.739-16.171-96.64-45.525c-2.88-3.136-7.36-4.224-11.371-2.859L93.12,344.043C37.419,363.392,0,416.021,0,475.008v15.659    c0,5.888,4.779,10.667,10.667,10.667h490.667c5.888,0,10.667-4.779,10.667-10.667v-15.659    C512,416.021,474.581,363.392,418.88,344.021z" data-original="#000000" class="active-path" data-old_color="#000000" fill="#039BD5"/>
	</g>
</g><g>
	<g>
		<path d="M224,181.333h-21.333c-5.888,0-10.667,4.779-10.667,10.667s4.779,10.667,10.667,10.667H224    c5.888,0,10.667-4.779,10.667-10.667S229.888,181.333,224,181.333z" data-original="#000000" class="active-path" data-old_color="#000000" fill="#039BD5"/>
	</g>
</g><g>
	<g>
		<path d="M309.333,181.333H288c-5.888,0-10.667,4.779-10.667,10.667s4.779,10.667,10.667,10.667h21.333    c5.888,0,10.667-4.779,10.667-10.667S315.221,181.333,309.333,181.333z" data-original="#000000" class="active-path" data-old_color="#000000" fill="#039BD5"/>
	</g>
</g><g>
	<g>
		<path d="M369.643,222.229c-5.76-1.429-11.499,2.048-12.928,7.787C341.781,290.219,301.312,330.667,256,330.667    s-85.781-40.448-100.715-100.651c-1.429-5.739-7.232-9.216-12.928-7.787c-5.717,1.408-9.195,7.211-7.787,12.928    C151.915,305.045,200.704,352,256,352s104.085-46.955,121.429-116.843C378.837,229.44,375.36,223.637,369.643,222.229z" data-original="#000000" class="active-path" data-old_color="#000000" fill="#039BD5"/>
	</g>
</g><g>
	<g>
		<path d="M256,10.667c-70.507,0-125.739,56.235-125.739,128c0,5.888,4.779,10.667,10.667,10.667s10.667-4.779,10.667-10.667    C151.595,78.848,197.44,32,256,32s104.405,46.848,104.405,106.667c0,5.888,4.779,10.667,10.667,10.667s10.667-4.779,10.667-10.667    C381.739,66.901,326.507,10.667,256,10.667z" data-original="#000000" class="active-path" data-old_color="#000000" fill="#039BD5"/>
	</g>
</g><g>
	<g>
		<path d="M336.576,236.437c-4.949-3.264-11.52-1.941-14.784,2.965l-14.997,22.507c-1.984,2.987-5.312,4.757-8.875,4.757h-3.925    c-4.907,0-9.152-3.328-10.859-9.6l-6.635-15.851c-1.664-3.968-5.525-6.549-9.835-6.549h-21.333c-4.309,0-8.171,2.581-9.856,6.571    l-7.125,17.365c-1.195,4.757-5.44,8.085-10.347,8.085h-3.925c-3.563,0-6.891-1.771-8.875-4.757l-14.997-22.507    c-3.264-4.928-9.877-6.229-14.784-2.965c-4.907,3.264-6.229,9.877-2.965,14.784l14.997,22.507    C193.408,282.667,203.371,288,214.08,288h3.925c14.72,0,27.477-9.963,30.549-22.699l3.883-9.301h7.189l3.328,7.765    c3.563,14.272,16.341,24.235,31.04,24.235h3.925c10.709,0,20.672-5.333,26.624-14.272l14.997-22.507    C342.805,246.315,341.483,239.701,336.576,236.437z" data-original="#000000" class="active-path" data-old_color="#000000" fill="#039BD5"/>
	</g>
</g><g>
	<g>
		<path d="M222.784,229.717c-2.752-5.205-9.152-7.253-14.4-4.501c-7.573,3.968-32.299,9.451-59.051,9.451    c-5.888,0-10.667,4.779-10.667,10.667S143.445,256,149.333,256c30.037,0,57.941-6.123,68.949-11.883    C223.509,241.387,225.515,234.944,222.784,229.717z" data-original="#000000" class="active-path" data-old_color="#000000" fill="#039BD5"/>
	</g>
</g><g>
	<g>
		<path d="M362.667,234.667c-26.752,0-51.477-5.483-59.051-9.451c-5.227-2.752-11.669-0.704-14.4,4.501    c-2.731,5.227-0.725,11.669,4.501,14.4c11.008,5.76,38.912,11.883,68.949,11.883c5.888,0,10.667-4.779,10.667-10.667    S368.555,234.667,362.667,234.667z" data-original="#000000" class="active-path" data-old_color="#000000" fill="#039BD5"/>
	</g>
</g><g>
	<g>
		<path d="M241.643,151.915c-8.896-7.68-54.485-44.821-78.507-20.8c-4.16,4.16-4.16,10.923,0,15.083c4.16,4.16,10.923,4.16,15.083,0    c6.933-6.891,33.493,8.085,49.493,21.867c2.027,1.749,4.48,2.603,6.955,2.603c2.987,0,5.973-1.259,8.085-3.712    C246.592,162.496,246.101,155.776,241.643,151.915z" data-original="#000000" class="active-path" data-old_color="#000000" fill="#039BD5"/>
	</g>
</g><g>
	<g>
		<path d="M348.864,131.136c-24-23.979-69.611,13.12-78.507,20.8c-4.459,3.861-4.949,10.581-1.109,15.04    c2.112,2.432,5.077,3.691,8.085,3.691c2.475,0,4.949-0.853,6.955-2.581c16.021-13.803,42.624-28.736,49.493-21.867    c4.16,4.16,10.923,4.16,15.083,0C353.024,142.059,353.024,135.296,348.864,131.136z" data-original="#000000" class="active-path" data-old_color="#000000" fill="#039BD5"/>
	</g>
</g><g>
	<g>
		<path d="M377.877,75.669C332.288,54.272,259.2,53.355,255.915,53.333c-3.093,0.021-76.181,0.939-121.771,22.336    c-3.904,1.835-6.315,5.824-6.144,10.112l6.272,147.243c0.256,5.909,5.397,10.603,11.115,10.219    c5.888-0.256,10.453-5.227,10.197-11.115l-5.952-139.925c41.835-16.725,105.792-17.536,106.261-17.536    c0.683,0,64.619,0.811,106.475,17.536l-5.952,139.925c-0.256,5.888,4.309,10.859,10.197,11.115c0.149,0,0.32,0,0.469,0    c5.675,0,10.411-4.48,10.667-10.219L384,85.781C384.171,81.493,381.76,77.504,377.877,75.669z" data-original="#000000" class="active-path" data-old_color="#000000" fill="#039BD5"/>
	</g>
</g><g>
	<g>
		<path d="M268.416,288.128c-5.824-1.045-11.307,2.965-12.267,8.768L256,297.771l-0.149-0.853c-0.96-5.803-6.485-9.813-12.267-8.768    c-5.803,0.96-9.728,6.464-8.768,12.267l10.667,64c0.853,5.141,5.291,8.917,10.517,8.917s9.664-3.776,10.517-8.939l10.667-64    C278.165,294.592,274.219,289.088,268.416,288.128z" data-original="#000000" class="active-path" data-old_color="#000000" fill="#039BD5"/>
	</g>
</g><g>
	<g>
		<path d="M363.989,72.853C341.269,33.92,300.885,10.667,256,10.667S170.731,33.92,148.011,72.853    c-2.24,3.797-1.877,8.597,0.875,12.032c2.752,3.456,7.36,4.864,11.541,3.52c41.323-13.056,95.125-13.739,95.467-13.739    c0.533,0,54.272,0.661,95.68,13.739c1.045,0.341,2.133,0.491,3.2,0.491c3.179,0,6.272-1.429,8.341-4.011    C365.867,81.451,366.229,76.651,363.989,72.853z" data-original="#000000" class="active-path" data-old_color="#000000" fill="#039BD5"/>
	</g>
</g></g> </svg>
