<?xml version="1.0" encoding="UTF-8" standalone="no"?>
<svg
   xmlns:dc="http://purl.org/dc/elements/1.1/"
   xmlns:cc="http://creativecommons.org/ns#"
   xmlns:rdf="http://www.w3.org/1999/02/22-rdf-syntax-ns#"
   xmlns:svg="http://www.w3.org/2000/svg"
   xmlns="http://www.w3.org/2000/svg"
   xmlns:sodipodi="http://sodipodi.sourceforge.net/DTD/sodipodi-0.dtd"
   xmlns:inkscape="http://www.inkscape.org/namespaces/inkscape"
   height="128"
   version="1.0"
   viewBox="0 0 176 176"
   width="128"
   xml:space="preserve"
   id="svg2"
   inkscape:version="0.92.4 (5da689c313, 2019-01-14)"
   sodipodi:docname="attachments.svg"
   inkscape:export-filename="C:\Users\ProBook\Documents\GitHub\RetroShare\retroshare-gui\src\gui\icons\png\attachments.png"
   inkscape:export-xdpi="96"
   inkscape:export-ydpi="96"><metadata
     id="metadata20"><rdf:RDF><cc:Work
         rdf:about=""><dc:format>image/svg+xml</dc:format><dc:type
           rdf:resource="http://purl.org/dc/dcmitype/StillImage" /><dc:title></dc:title></cc:Work></rdf:RDF></metadata><defs
     id="defs18" /><sodipodi:namedview
     pagecolor="#ffffff"
     bordercolor="#666666"
     borderopacity="1"
     objecttolerance="10"
     gridtolerance="10"
     guidetolerance="10"
     inkscape:pageopacity="0"
     inkscape:pageshadow="2"
     inkscape:window-width="1366"
     inkscape:window-height="705"
     id="namedview16"
     showgrid="false"
     inkscape:zoom="3.0341309"
     inkscape:cx="77.428349"
     inkscape:cy="56.305717"
     inkscape:window-x="-8"
     inkscape:window-y="-8"
     inkscape:window-maximized="1"
     inkscape:current-layer="layer1"
     inkscape:snap-grids="true"
     inkscape:snap-text-baseline="false" /><g
     id="Artboard"
     transform="translate(0,66)" /><g
     inkscape:groupmode="layer"
     id="layer1"
     inkscape:label="Layer 1"
     style="display:inline"
     transform="translate(0,66)"><path
       style="fill:#000000;fill-opacity:0.15686275;stroke-width:2.0708437"
       sodipodi:nodetypes="ccccccccccsasccsccccccccccccccsasccccccccccc"
       id="use4188"
       d="M 44.090446,93.263012 C 36.60259,93.26473 29.049256,90.31345 23.296365,84.559964 17.540579,78.805052 14.586684,71.248839 14.588708,63.762419 14.578631,56.714431 17.235414,49.610791 22.586516,44.268625 l 1.228456,-1.229034 73.807296,-73.810749 c 7.023462,-7.033281 16.348102,-10.522805 25.643592,-10.510118 9.88016,-0.0041 19.86818,3.891902 27.49306,11.514173 7.61737,7.621106 11.51185,17.603953 11.50984,27.4835423 0.009,9.2986616 -3.47829,18.6209827 -10.51011,25.6482117 -22.19267,22.190182 -42.74228,42.759514 -62.090436,61.547843 -2.356316,2.288138 -6.947381,2.559968 -9.094662,0.41551 -2.211303,-2.208399 -2.355168,-6.664588 0.415584,-9.366387 C 100.49719,56.939042 142.5393,14.141181 142.5393,14.141181 c 4.45924,-4.4687669 6.67705,-10.3154133 6.68745,-16.4251041 -0.001,-6.4740034 -2.54289,-13.1109589 -7.69179,-18.2615999 -5.15065,-5.152375 -11.79106,-7.691786 -18.2688,-7.696403 -6.10712,0.01204 -11.9526,2.22848 -16.41878,6.689751 l -73.812767,73.813052 -1.227304,1.228169 c -2.782271,2.788629 -4.164763,6.41717 -4.176873,10.272442 0.0041,4.083986 1.60198,8.29087 4.888447,11.578776 3.283004,3.279826 7.486989,4.876057 11.571857,4.88065 3.854685,-0.01203 7.482949,-1.393715 10.27359,-4.176 l 52.2275,-52.224822 4.37386,-4.373591 c 1.0479,-1.055682 1.56941,-2.39779 1.57949,-3.93459 0,-1.620148 -0.63109,-3.323089 -1.98706,-4.679333 -1.35881,-1.3594062 -3.06204,-1.9881997 -4.68075,-1.9928177 -1.53623,0.013254 -2.87633,0.5356379 -3.93345,1.5852657 0,0 -36.737225,36.900144 -43.141031,43.526168 -2.533705,2.621625 -7.447295,2.364616 -9.606654,7e-6 -2.146619,-2.350651 -1.908387,-6.726026 0.864761,-9.510726 6.658412,-6.686146 42.656956,-43.2330758 42.656956,-43.2330758 3.613556,-3.6253763 8.433938,-5.4183106 13.158838,-5.4067739 5.02371,-0.00415 10.07311,1.9809959 13.90618,5.8123196 3.82209,3.8281512 5.80569,8.8732211 5.80569,13.8992641 0.0103,4.722021 -1.78082,9.541535 -5.40217,13.156813 l -4.37531,4.373593 -52.227216,52.226921 c -5.335236,5.339266 -12.419565,7.99521 -19.452563,7.993769 l -0.0409,-2.93e-4 v 0 z"
       inkscape:connector-curvature="0" /><g
       id="g16"
       transform="matrix(1.2942773,0,0,1.2942773,-23.539199,-4.5703125)"><g
         id="g12"><path
           inkscape:connector-curvature="0"
           d="m 52.721094,72.291436 c -5.785112,0.05327 -11.641306,-2.174445 -16.125925,-6.579667 -4.486865,-4.406304 -6.821488,-10.223738 -6.871883,-16.007767 -0.05672,-5.44521 1.946631,-10.951928 6.04382,-15.11643 l 0.940577,-0.958077 56.511309,-57.538488 c 5.377523,-5.482663 12.557528,-8.243386 19.739318,-8.298095 7.63339,-0.07177 15.37719,2.868994 21.32107,8.705045 5.93808,5.835208 9.01624,13.5209371 9.08326,21.1539263 0.0715,7.184092 -2.55809,14.4107297 -7.94212,19.8887737 -16.99206,17.298173 -32.72596,33.332678 -47.54396,47.982837 -1.804612,1.78417 -5.349786,2.02605 -7.02366,0.384141 -1.723781,-1.690862 -1.865859,-5.132718 0.256076,-7.239362 14.939916,-14.832244 47.124654,-48.189692 47.124654,-48.189692 3.4142,-3.4835213 5.0871,-8.0160384 5.05273,-12.7364609 -0.0457,-5.0018134 -2.05563,-10.1118911 -6.06942,-14.0555431 -4.01515,-3.944983 -9.16317,-5.860847 -14.16791,-5.819458 -4.71827,0.05169 -9.21912,1.804681 -12.63873,5.282459 l -56.515517,57.540301 -0.939692,0.957403 c -2.130231,2.173807 -3.173162,4.986819 -3.155762,7.965487 0.03154,3.155262 1.295232,6.394415 3.857178,8.911842 2.559215,2.511214 5.818295,3.715285 8.974299,3.690485 2.978049,-0.03605 5.77166,-1.128717 7.908402,-3.297683 L 100.52776,18.206 l 3.3489,-3.409396 c 0.80228,-0.822895 1.19588,-1.863425 1.19301,-3.05083 -0.0112,-1.251726 -0.51065,-2.563041 -1.56768,-3.6014632 -1.05926,-1.0408503 -2.37954,-1.5148338 -3.630189,-1.5071657 -1.186801,0.020901 -2.218534,0.4337938 -3.027982,1.2520738 0,0 -28.127115,28.7640491 -33.028714,33.9277661 -1.939347,2.043052 -5.737375,1.878588 -7.422109,0.06668 -1.674793,-1.801218 -1.521101,-5.18329 0.602108,-7.353998 5.097891,-5.211934 32.656749,-33.69796164 32.656749,-33.69796164 2.766676,-2.82604606 6.478461,-4.24472176 10.129002,-4.26860216 3.881295,-0.038066 7.796245,1.4606072 10.784265,4.39409167 2.97952,2.93110473 4.54706,6.81516313 4.58195,10.69828813 0.0408,3.648164 -1.30965,7.384155 -4.08241,10.202455 l -3.35001,3.409408 -39.988325,40.713033 c -4.084951,4.162151 -9.539876,6.263301 -14.973587,6.310999 l -0.0316,5.9e-5 v 0 z"
           id="path3"
           sodipodi:nodetypes="ccccccccccsasccsccccccccccccccsasccccccccccc"
           style="fill:#039bd5;fill-opacity:1;stroke-width:1.60000002" /></g></g></g></svg>