<?xml version="1.0" encoding="UTF-8" standalone="no"?>
<svg
   xmlns:dc="http://purl.org/dc/elements/1.1/"
   xmlns:cc="http://creativecommons.org/ns#"
   xmlns:rdf="http://www.w3.org/1999/02/22-rdf-syntax-ns#"
   xmlns:svg="http://www.w3.org/2000/svg"
   xmlns="http://www.w3.org/2000/svg"
   xmlns:sodipodi="http://sodipodi.sourceforge.net/DTD/sodipodi-0.dtd"
   xmlns:inkscape="http://www.inkscape.org/namespaces/inkscape"
   height="128"
   version="1.0"
   viewBox="0 0 176 176"
   width="128"
   xml:space="preserve"
   id="svg2"
   inkscape:version="0.92.3 (2405546, 2018-03-11)"
   sodipodi:docname="attach.svg"><metadata
     id="metadata20"><rdf:RDF><cc:Work
         rdf:about=""><dc:format>image/svg+xml</dc:format><dc:type
           rdf:resource="http://purl.org/dc/dcmitype/StillImage" /><dc:title></dc:title></cc:Work></rdf:RDF></metadata><defs
     id="defs18" /><sodipodi:namedview
     pagecolor="#ffffff"
     bordercolor="#666666"
     borderopacity="1"
     objecttolerance="10"
     gridtolerance="10"
     guidetolerance="10"
     inkscape:pageopacity="0"
     inkscape:pageshadow="2"
     inkscape:window-width="1024"
     inkscape:window-height="705"
     id="namedview16"
     showgrid="false"
     inkscape:zoom="3.0341309"
     inkscape:cx="76.713743"
     inkscape:cy="56.305717"
     inkscape:window-x="-8"
     inkscape:window-y="-8"
     inkscape:window-maximized="1"
     inkscape:current-layer="layer1" /><g
     id="Artboard"
     transform="translate(0,66)" /><g
     inkscape:groupmode="layer"
     id="layer1"
     inkscape:label="Layer 1"
     style="display:inline"
     transform="translate(0,66)"><circle
       id="circle6"
       style="fill:#039bd5;fill-opacity:1;stroke-width:1.60000002"
       cy="22"
       cx="88"
       r="88" /><path
       style="fill:#000000;fill-opacity:0.15686275;stroke-width:1.60000002"
       sodipodi:nodetypes="ccccccccccsasccsccccccccccccccsasccccccccccc"
       id="use4188"
       d="m 52.252826,75.589155 c -5.785357,0.0013 -11.621304,-2.278926 -16.066172,-6.724254 -4.447104,-4.446429 -6.729377,-10.2846 -6.727814,-16.068848 -0.0078,-5.445501 2.04493,-10.934 6.179362,-15.061528 l 0.949145,-0.949591 57.025877,-57.028545 c 5.426554,-5.434138 12.631066,-8.130255 19.813056,-8.120453 7.63373,-0.0032 15.3508,3.007008 21.24202,8.896218 5.88542,5.88831 8.89442,13.6013772 8.89287,21.2346636 0.007,7.1844432 -2.68743,14.3871664 -8.12045,19.8166284 -17.14676,17.144844 -33.02405,33.037367 -47.973053,47.553831 -1.820565,1.767889 -5.367769,1.977913 -7.026827,0.321037 -1.708523,-1.70628 -1.819678,-5.149274 0.321094,-7.23677 15.072546,-14.69745 47.555626,-47.764446 47.555626,-47.764446 3.44535,-3.452712 5.1589,-7.970018 5.16693,-12.6905604 -8e-4,-5.0020224 -1.96471,-10.1299456 -5.94292,-14.1094956 -3.97955,-3.98089 -9.11015,-5.94292 -14.11506,-5.946487 -4.71855,0.0093 -9.23496,1.721795 -12.68567,5.168715 l -57.030104,57.030324 -0.948254,0.948923 c -2.149672,2.154584 -3.217829,4.95811 -3.227186,7.936817 0.0032,3.155418 1.237741,6.405791 3.776971,8.946132 2.536554,2.534099 5.784687,3.767398 8.940786,3.770947 2.978253,-0.0093 5.781566,-1.076829 7.937705,-3.226511 l 40.352632,-40.350568 3.37939,-3.379176 c 0.80964,-0.815654 1.21257,-1.852609 1.22037,-3.03999 0,-1.251778 -0.48761,-2.567525 -1.53527,-3.615402 -1.04986,-1.050321 -2.36583,-1.536147 -3.616501,-1.539715 -1.186941,0.01024 -2.222341,0.413851 -3.039107,1.224827 0,0 -28.384357,28.510231 -33.332142,33.629709 -1.957621,2.025551 -5.754018,1.826978 -7.422408,5e-6 -1.658546,-1.816187 -1.47448,-5.196742 0.668142,-7.34829 5.144502,-5.165931 32.958128,-33.4032572 32.958128,-33.4032572 2.791949,-2.8010816 6.516328,-4.18636 10.166936,-4.1774464 3.881482,-0.0032 7.782812,1.5305808 10.744362,4.490784 2.95307,2.957752 4.48566,6.8557346 4.48566,10.7390156 0.008,3.648384 -1.37592,7.372095 -4.17389,10.165375 l -3.3805,3.379177 -40.352419,40.352189 c -4.122173,4.125288 -9.595752,6.177355 -15.029672,6.176242 l -0.0316,-2.26e-4 v 0 z"
       inkscape:connector-curvature="0" /><path
       inkscape:connector-curvature="0"
       d="m 52.252826,71.985813 c -5.785357,0.0013 -11.621304,-2.278927 -16.066172,-6.724255 -4.447104,-4.44643 -6.729377,-10.2846 -6.727814,-16.068849 -0.0078,-5.445499 2.04493,-10.934 6.179362,-15.06153 l 0.949145,-0.94959 57.025877,-57.028546 c 5.426554,-5.434137 12.631066,-8.130253 19.813056,-8.120449 7.63373,-0.0032 15.3508,3.007006 21.24202,8.896214 5.88542,5.888312 8.89442,13.6013808 8.89287,21.234664 0.007,7.1844448 -2.68743,14.38717 -8.12045,19.81663 -17.14676,17.144842 -33.02405,33.037368 -47.973053,47.553831 -1.820565,1.767888 -5.367769,1.977913 -7.026827,0.321035 -1.708523,-1.706278 -1.819678,-5.149272 0.321094,-7.23677 15.072546,-14.697446 47.555626,-47.764444 47.555626,-47.764444 3.44535,-3.4527124 5.1589,-7.9700196 5.16693,-12.6905604 -8e-4,-5.0020224 -1.96471,-10.1299476 -5.94292,-14.1094956 -3.97955,-3.98089 -9.11015,-5.94292 -14.11506,-5.946488 -4.71855,0.0093 -9.23496,1.721796 -12.68567,5.168716 l -57.030104,57.030322 -0.948254,0.948923 c -2.149672,2.154584 -3.217829,4.958114 -3.227186,7.936819 0.0032,3.155418 1.237741,6.405791 3.776971,8.94613 2.536554,2.534101 5.784687,3.767398 8.940786,3.770949 2.978253,-0.0093 5.781566,-1.076827 7.937705,-3.226512 l 40.352632,-40.350568 3.37939,-3.379176 c 0.80964,-0.815655 1.21257,-1.852608 1.22037,-3.039991 0,-1.251776 -0.48761,-2.5675244 -1.53527,-3.6153996 -1.04986,-1.0503232 -2.36583,-1.5361472 -3.616501,-1.5397136 -1.186941,0.01024 -2.222341,0.413848 -3.039107,1.224824 0,0 -28.384357,28.5102332 -33.332142,33.6297122 -1.957621,2.025549 -5.754018,1.826976 -7.422408,5e-6 -1.658546,-1.816189 -1.47448,-5.196744 0.668142,-7.348292 5.144502,-5.165932 32.958128,-33.4032588 32.958128,-33.4032588 2.791949,-2.80108 6.516328,-4.1863568 10.166936,-4.1774448 3.881482,-0.0032 7.782812,1.5305792 10.744362,4.4907856 2.95307,2.9577504 4.48566,6.8557328 4.48566,10.739014 0.008,3.648384 -1.37592,7.372093 -4.17389,10.165373 l -3.3805,3.379179 -40.352419,40.352189 c -4.122173,4.12529 -9.595752,6.177355 -15.029672,6.176242 l -0.0316,-2.24e-4 v 0 z"
       id="path3"
       sodipodi:nodetypes="ccccccccccsasccsccccccccccccccsasccccccccccc"
       style="fill:#ffffff;fill-opacity:1;stroke-width:1.60000002" /></g></svg>