<?xml version="1.0" encoding="UTF-8" standalone="no"?>
<!-- Created with Inkscape (http://www.inkscape.org/) -->

<svg
   xmlns:osb="http://www.openswatchbook.org/uri/2009/osb"
   xmlns:dc="http://purl.org/dc/elements/1.1/"
   xmlns:cc="http://creativecommons.org/ns#"
   xmlns:rdf="http://www.w3.org/1999/02/22-rdf-syntax-ns#"
   xmlns:svg="http://www.w3.org/2000/svg"
   xmlns="http://www.w3.org/2000/svg"
   xmlns:sodipodi="http://sodipodi.sourceforge.net/DTD/sodipodi-0.dtd"
   xmlns:inkscape="http://www.inkscape.org/namespaces/inkscape"
   id="svg4155"
   version="1.1"
   inkscape:version="0.91 r13725"
   xml:space="preserve"
   width="80"
   height="80"
   viewBox="0 0 80 80"
   sodipodi:docname="channels-notify.svg"
   inkscape:export-filename="C:\Qt\RetroShare\RetroShare\retroshare-gui\src\gui\icons\png\channels-notify.png"
   inkscape:export-xdpi="144"
   inkscape:export-ydpi="144"><metadata
     id="metadata4161"><rdf:RDF><cc:Work
         rdf:about=""><dc:format>image/svg+xml</dc:format><dc:type
           rdf:resource="http://purl.org/dc/dcmitype/StillImage" /><dc:title /></cc:Work></rdf:RDF></metadata><defs
     id="defs4159"><linearGradient
       id="linearGradient4148"
       osb:paint="solid"><stop
         style="stop-color:#7b2a46;stop-opacity:1;"
         offset="0"
         id="stop4150" /></linearGradient></defs><sodipodi:namedview
     pagecolor="#ffffff"
     bordercolor="#666666"
     borderopacity="1"
     objecttolerance="10"
     gridtolerance="10"
     guidetolerance="10"
     inkscape:pageopacity="0"
     inkscape:pageshadow="2"
     inkscape:window-width="1366"
     inkscape:window-height="706"
     id="namedview4157"
     showgrid="false"
     inkscape:zoom="7.2390057"
     inkscape:cx="23.793449"
     inkscape:cy="41.710731"
     inkscape:window-x="-8"
     inkscape:window-y="-8"
     inkscape:window-maximized="1"
     inkscape:current-layer="g4163" /><g
     id="g4163"
     inkscape:groupmode="layer"
     inkscape:label="ink_ext_XXXXXX"
     transform="matrix(1.25,0,0,-1.25,0,80)"><path
       inkscape:connector-curvature="0"
       id="path4167"
       style="fill:#ff990d;fill-opacity:1;fill-rule:nonzero;stroke:none"
       d="M 64,32 C 64,14.327 49.673,0 32,0 14.327,0 0,14.327 0,32 0,49.673 14.327,64 32,64 49.673,64 64,49.673 64,32"
       inkscape:export-xdpi="144"
       inkscape:export-ydpi="144" /><rect
       y="-53.716011"
       x="9.6750126"
       style="fill:none;stroke-width:1.7944;stroke-miterlimit:10;stroke-dasharray:none"
       height="44.862545"
       width="44.862545"
       id="rect3"
       transform="scale(1,-1)" /><rect
       style="fill:none;stroke:#fffff0;stroke-width:1.7944;stroke-linecap:round;stroke-miterlimit:10;stroke-dasharray:none;stroke-opacity:1"
       height="26.917528"
       stroke-miterlimit="10"
       width="43.068047"
       x="10.572263"
       y="-46.538002"
       id="rect5"
       transform="scale(1,-1)" /><line
       style="fill:#ffffff;stroke:#fffff0;stroke-width:1.7944;stroke-linecap:round;stroke-miterlimit:10;stroke-dasharray:none;fill-opacity:1;stroke-opacity:0.96078432"
       stroke-miterlimit="10"
       x1="44.667801"
       x2="19.544771"
       y1="16.031466"
       y2="16.031466"
       id="line7" /><path
       inkscape:connector-curvature="0"
       d="m 38.366406,33.035271 -9.888603,5.709207 c -0.176758,0.10139 -0.395687,0.10139 -0.571548,0 -0.177656,-0.101389 -0.286223,-0.289812 -0.286223,-0.493488 l 0,-11.421107 c 0,-0.204573 0.108567,-0.392996 0.285325,-0.494385 0.08793,-0.05114 0.186629,-0.07627 0.285326,-0.07627 0.0978,0 0.197395,0.02512 0.285326,0.07627 l 9.888602,5.709208 c 0.176759,0.102286 0.285326,0.290709 0.285326,0.495282 0,0.204573 -0.106773,0.392996 -0.283531,0.495283 z"
       id="path9"
       style="stroke-width:1.7944;stroke-miterlimit:10;stroke-dasharray:none;fill:#ffffff;fill-opacity:1" /></g></svg>