<?xml version="1.0" encoding="UTF-8" standalone="no"?>
<!-- Created with Inkscape (http://www.inkscape.org/) -->

<svg
   xmlns:dc="http://purl.org/dc/elements/1.1/"
   xmlns:cc="http://creativecommons.org/ns#"
   xmlns:rdf="http://www.w3.org/1999/02/22-rdf-syntax-ns#"
   xmlns:svg="http://www.w3.org/2000/svg"
   xmlns="http://www.w3.org/2000/svg"
   xmlns:sodipodi="http://sodipodi.sourceforge.net/DTD/sodipodi-0.dtd"
   xmlns:inkscape="http://www.inkscape.org/namespaces/inkscape"
   id="svg4155"
   version="1.1"
   inkscape:version="0.92.3 (2405546, 2018-03-11)"
   xml:space="preserve"
   width="80"
   height="80"
   viewBox="0 0 80 80"
   sodipodi:docname="chat-lobbies-notify.svg"
   inkscape:export-filename="C:\Users\Mustermann\Documents\GitHub\RetroShare\retroshare-gui\src\gui\icons\png\chats.png"
   inkscape:export-xdpi="153"
   inkscape:export-ydpi="153"><metadata
     id="metadata4161"><rdf:RDF><cc:Work
         rdf:about=""><dc:format>image/svg+xml</dc:format><dc:type
           rdf:resource="http://purl.org/dc/dcmitype/StillImage" /><dc:title></dc:title></cc:Work></rdf:RDF></metadata><defs
     id="defs4159" /><sodipodi:namedview
     pagecolor="#ffffff"
     bordercolor="#666666"
     borderopacity="1"
     objecttolerance="10"
     gridtolerance="10"
     guidetolerance="10"
     inkscape:pageopacity="0"
     inkscape:pageshadow="2"
     inkscape:window-width="1152"
     inkscape:window-height="801"
     id="namedview4157"
     showgrid="false"
     inkscape:zoom="5.11875"
     inkscape:cx="27.545788"
     inkscape:cy="39.748523"
     inkscape:window-x="-8"
     inkscape:window-y="-8"
     inkscape:window-maximized="1"
     inkscape:current-layer="g4163"><inkscape:grid
       type="xygrid"
       id="grid4146" /></sodipodi:namedview><g
     id="g4163"
     inkscape:groupmode="layer"
     inkscape:label="ink_ext_XXXXXX"
     transform="matrix(1.25,0,0,-1.25,0,80)"><g
       transform="matrix(2.0115028,0,0,-2.0115028,1.8333347,61.674992)"
       id="g3"
       style="opacity:0.97000002;fill:#ff990d;fill-opacity:1"><g
         id="g5"
         style="fill:#ff990d;fill-opacity:1"><path
           style="fill:#ff990d;fill-opacity:1"
           inkscape:connector-curvature="0"
           d="m 30,18.3 c 0,-2.682 -1.877,-5.024 -4.673,-6.291 0.164,0.585 0.259,1.189 0.276,1.809 0.279,0.166 0.549,0.345 0.801,0.54 1.41,1.088 2.188,2.487 2.188,3.942 0,1.454 -0.775,2.854 -2.188,3.941 -1.547,1.192 -3.627,1.85 -5.855,1.85 -1.504,0 -2.938,-0.301 -4.188,-0.859 -0.778,0.153 -1.585,0.25 -2.416,0.284 1.705,1.282 4.033,2.073 6.603,2.073 1.648,0 3.198,-0.325 4.549,-0.898 l 3.439,1.756 -0.695,-3.511 C 29.191,21.676 30,20.061 30,18.3 Z"
           id="path7" /><path
           style="fill:#ff990d;fill-opacity:1"
           inkscape:connector-curvature="0"
           d="M 24.625,12.837 C 24.607,12.218 24.512,11.613 24.348,11.029 23.147,6.755 18.215,3.554 12.314,3.554 5.513,3.554 0,7.806 0,13.051 c 0,2.295 1.055,4.399 2.812,6.041 l -0.906,4.573 4.483,-2.287 c 1.758,0.746 3.777,1.17 5.925,1.17 0.219,0 0.437,-0.004 0.653,-0.014 0.829,-0.032 1.637,-0.129 2.414,-0.283 5.316,-1.051 9.246,-4.771 9.246,-9.2 0,-0.072 -10e-4,-0.143 -0.002,-0.214 z M 6.506,14.615 c -0.99,0 -1.792,-0.802 -1.792,-1.791 0,-0.99 0.802,-1.792 1.792,-1.792 0.989,0 1.792,0.802 1.792,1.792 0,0.988 -0.802,1.791 -1.792,1.791 z m 5.808,0 c -0.99,0 -1.792,-0.802 -1.792,-1.791 0,-0.99 0.802,-1.792 1.792,-1.792 0.989,0 1.792,0.802 1.792,1.792 0,0.988 -0.803,1.791 -1.792,1.791 z m 5.808,0 c -0.989,0 -1.792,-0.802 -1.792,-1.791 0,-0.99 0.803,-1.792 1.792,-1.792 0.989,0 1.792,0.802 1.792,1.792 0,0.988 -0.803,1.791 -1.792,1.791 z"
           id="path9" /></g></g></g></svg>