<?xml version="1.0" encoding="iso-8859-1"?>
<!-- Generator: Adobe Illustrator 19.0.0, SVG Export Plug-In . SVG Version: 6.00 Build 0)  -->
<svg version="1.1" id="Capa_1" xmlns="http://www.w3.org/2000/svg" xmlns:xlink="http://www.w3.org/1999/xlink" x="0px" y="0px"
	 viewBox="0 0 512 512" style="enable-background:new 0 0 512 512;" xml:space="preserve">
<path style="fill:#8B8992;" d="M299.493,502h-90v-86h90V502z M239.493,482h30v-36h-30L239.493,482L239.493,482z"/>
<polygon style="fill:#57555C;" points="255.993,446 269.493,446 269.493,482 255.993,482 255.993,502 299.493,502 299.493,416 
	255.993,416 "/>
<path style="fill:#9BC9FF;" d="M480.493,376h-449V136h449V376z"/>
<rect x="255.99" y="136" style="fill:#009AE5;" width="224.5" height="240"/>
<rect x="179.49" y="482" style="fill:#005ECE;" width="150" height="30"/>
<path style="fill:#B87FD9;" d="M239.493,376h-90V171h90V376z"/>
<path style="fill:#8034AD;" d="M239.493,376h-45V171h45V376z"/>
<path style="fill:#8B8992;" d="M289.686,131H98.301L59.39,0h57.243c20.439,0,44.228,7.314,62.86,20.502V0h149.103L289.686,131z"/>
<polygon style="fill:#57555C;" points="328.596,0 193.993,0 193.993,131 289.686,131 "/>
<path style="fill:#E3CEF0;" d="M248.493,201h-108c-24.813,0-45-20.187-45-45v-55h198v55C293.493,180.813,273.306,201,248.493,201z"
	/>
<path style="fill:#D5B4E8;" d="M194.493,101v100h54c24.813,0,45-20.187,45-45v-55H194.493z"/>
<path style="fill:#E0E0E2;" d="M427.705,118.346c-9.131,0-18.141-2.394-26.261-7.082c-12.189-7.038-20.909-18.401-24.551-31.997
	c-3.643-13.595-1.774-27.795,5.264-39.984s18.401-20.908,31.997-24.551l50.898-13.638l13.637,50.898
	c3.643,13.595,1.774,27.795-5.264,39.984s-18.4,20.909-31.996,24.551C436.89,117.744,432.281,118.346,427.705,118.346z"/>
<path style="fill:#ACABB1;" d="M478.688,51.992L465.051,1.094h-0.001l-63.606,110.169l0,0c8.12,4.688,17.13,7.083,26.261,7.082
	c4.577,0,9.185-0.602,13.724-1.818c13.595-3.643,24.958-12.362,31.996-24.551C480.462,79.787,482.331,65.587,478.688,51.992z"/>
<path style="fill:#FFE477;" d="M280.915,410.025l-77.942-45l125-216.506l77.942,45L280.915,410.025z"/>
<rect x="301.424" y="165.518" transform="matrix(-0.866 -0.5 0.5 -0.866 459.1859 704.0723)" style="fill:#FFA733;" width="44.999" height="249.995"/>
<path style="fill:#FF9A00;" d="M402.462,226.167l-101.036-58.333l87.069-98.688l55.898,32.273L402.462,226.167z"/>
<polygon style="fill:#E67500;" points="444.393,101.419 416.444,85.283 351.944,197 402.462,226.167 "/>
<path style="fill:#005ECE;" d="M480.493,446h-449V346h449V446z"/>
<g>
	<rect x="255.99" y="346" style="fill:#003F8A;" width="224.5" height="100"/>
	<rect x="254.49" y="482" style="fill:#003F8A;" width="75" height="30"/>
</g>
<g>
</g>
<g>
</g>
<g>
</g>
<g>
</g>
<g>
</g>
<g>
</g>
<g>
</g>
<g>
</g>
<g>
</g>
<g>
</g>
<g>
</g>
<g>
</g>
<g>
</g>
<g>
</g>
<g>
</g>
</svg>
