<?xml version="1.0"?>
<svg xmlns="http://www.w3.org/2000/svg" xmlns:xlink="http://www.w3.org/1999/xlink" xmlns:svgjs="http://svgjs.com/svgjs" version="1.1" width="512" height="512" x="0" y="0" viewBox="0 0 682.66669 682" style="enable-background:new 0 0 512 512" xml:space="preserve" class=""><g transform="matrix(0.92,0,0,0.92,45.59999999999991,74.02656247615806)"><path xmlns="http://www.w3.org/2000/svg" d="m0 467.832031c0 24.160157 19.589844 43.75 43.75 43.75h552.5c24.160156 0 43.75-19.589843 43.75-43.75v-31.25h-640zm0 0" fill="#039bd5" data-original="#000000" style="" class=""/><path xmlns="http://www.w3.org/2000/svg" d="m443.210938 549.082031h-246.421876l-10.503906 26.941407c-2.253906 5.765624-1.511718 12.273437 1.988282 17.390624 3.488281 5.113282 9.285156 8.167969 15.476562 8.167969h232.5c6.195312 0 11.988281-3.054687 15.484375-8.167969 3.492187-5.117187 4.238281-11.625 1.984375-17.390624zm0 0" fill="#039bd5" data-original="#000000" style="" class=""/><path xmlns="http://www.w3.org/2000/svg" d="m322.5 117.863281c-.421875-.003906-.828125-.03125-1.25-.03125-44.800781 0-81.25 36.453125-81.25 81.25 0 44.800781 36.449219 81.25 81.25 81.25.421875 0 .828125-.023437 1.25-.027343 44.222656-.675782 80-36.835938 80-81.222657 0-44.382812-35.777344-80.546875-80-81.21875zm0 0" fill="#039bd5" data-original="#000000" style="" class=""/><path xmlns="http://www.w3.org/2000/svg" d="m596.25-.917969h-552.5c-24.160156 0-43.75 19.589844-43.75 43.75v356.25h640v-356.25c0-24.160156-19.589844-43.75-43.75-43.75zm-137.5 218.75h-20.234375c-4.691406 29.453125-20.253906 55.328125-42.425781 73.375l10.152344 17.578125c5.171874 8.96875 2.101562 20.433594-6.867188 25.617188-8.964844 5.175781-20.433594 2.101562-25.609375-6.867188l-10.125-17.527344c-12.800781 4.90625-26.664063 7.644532-41.136719 7.796876-.417968.003906-.832031.027343-1.25.027343-14.929687 0-29.21875-2.777343-42.390625-7.824219l-10.121093 17.527344c-5.179688 8.96875-16.640626 12.046875-25.613282 6.867188-8.96875-5.183594-12.039062-16.648438-6.863281-25.617188l10.148437-17.578125c-22.175781-18.046875-37.734374-43.921875-42.425781-73.375h-20.238281c-10.355469 0-18.75-8.390625-18.75-18.75 0-10.355469 8.394531-18.75 18.75-18.75h20.234375c4.691406-29.453125 20.253906-55.324219 42.425781-73.371093l-10.152344-17.578126c-5.171874-8.972656-2.101562-20.4375 6.867188-25.617187 2.949219-1.703125 6.175781-2.515625 9.355469-2.515625 6.484375 0 12.785156 3.367188 16.253906 9.382812l10.125 17.527344c13.171875-5.046875 27.464844-7.828125 42.390625-7.828125.421875 0 .828125.027344 1.25.03125 14.472656.152344 28.339844 2.890625 41.136719 7.796875l10.121093-17.527344c3.472657-6.015624 9.777344-9.382812 16.257813-9.382812 3.183594 0 6.40625.8125 9.359375 2.515625 8.964844 5.179687 12.039062 16.644531 6.859375 25.617187l-10.144531 17.578126c22.171875 18.046874 37.734375 43.917968 42.421875 73.371093h20.238281c10.355469 0 18.75 8.394531 18.75 18.75 0 10.359375-8.394531 18.75-18.75 18.75zm0 0" fill="#039bd5" data-original="#000000" style="" class=""/></g></svg>
