<?xml version="1.0" encoding="UTF-8" standalone="no"?>
<!-- Created with Inkscape (http://www.inkscape.org/) -->

<svg
   xmlns:dc="http://purl.org/dc/elements/1.1/"
   xmlns:cc="http://creativecommons.org/ns#"
   xmlns:rdf="http://www.w3.org/1999/02/22-rdf-syntax-ns#"
   xmlns:svg="http://www.w3.org/2000/svg"
   xmlns="http://www.w3.org/2000/svg"
   xmlns:sodipodi="http://sodipodi.sourceforge.net/DTD/sodipodi-0.dtd"
   xmlns:inkscape="http://www.inkscape.org/namespaces/inkscape"
   id="svg4155"
   version="1.1"
   inkscape:version="0.92.3 (2405546, 2018-03-11)"
   xml:space="preserve"
   width="80"
   height="80"
   viewBox="0 0 80 80"
   sodipodi:docname="feedreader-notify.svg"
   inkscape:export-filename="C:\Users\Mustermann\Documents\GitHub\RetroShare\retroshare-gui\src\gui\icons\png\feeds.png"
   inkscape:export-xdpi="153.60001"
   inkscape:export-ydpi="153.60001"><metadata
     id="metadata4161"><rdf:RDF><cc:Work
         rdf:about=""><dc:format>image/svg+xml</dc:format><dc:type
           rdf:resource="http://purl.org/dc/dcmitype/StillImage" /><dc:title /></cc:Work></rdf:RDF></metadata><defs
     id="defs4159" /><sodipodi:namedview
     pagecolor="#ffffff"
     bordercolor="#666666"
     borderopacity="1"
     objecttolerance="10"
     gridtolerance="10"
     guidetolerance="10"
     inkscape:pageopacity="0"
     inkscape:pageshadow="2"
     inkscape:window-width="1152"
     inkscape:window-height="801"
     id="namedview4157"
     showgrid="false"
     inkscape:zoom="5.11875"
     inkscape:cx="37.765254"
     inkscape:cy="37.92194"
     inkscape:window-x="-8"
     inkscape:window-y="-8"
     inkscape:window-maximized="1"
     inkscape:current-layer="g4163"
     showguides="false"><inkscape:grid
       type="xygrid"
       id="grid4136" /></sodipodi:namedview><g
     id="g4163"
     inkscape:groupmode="layer"
     inkscape:label="ink_ext_XXXXXX"
     transform="matrix(1.25,0,0,-1.25,0,80)"><g
       id="g3"
       transform="matrix(0.10800801,0,0,-0.10800801,8.2641305,55.34536)"
       style="fill:#ff950d;fill-opacity:1"><path
         id="RSS"
         d="m 97.493,332.473 c 10.419,10.408 16.755,24.525 16.794,40.244 -0.04,15.687 -6.375,29.809 -16.755,40.17 l -0.04,0.019 c -10.398,10.352 -24.603,16.681 -40.398,16.681 -15.775,0 -29.944,-6.348 -40.34,-16.699 C 6.384,402.526 0,388.422 0,372.717 0,356.998 6.384,342.848 16.754,332.464 v 0.009 c 10.401,-10.36 24.57,-16.735 40.34,-16.735 15.796,0 29.987,6.393 40.399,16.735 z m 0,-0.009 v 0.009 c 0.019,0 0.019,0 0.019,0 z m -80.739,80.442 c 0,0 0,0 0,-0.019 -0.019,0 -0.019,0 -0.019,0 z M 0.046,146.259 v 82.129 c 53.618,0.033 104.328,21.096 142.278,59.104 37.943,37.888 58.917,88.675 59.003,142.477 h 0.028 v 0.149 h 82.467 C 283.757,351.885 251.956,281.019 200.543,229.569 149.122,178.126 78.285,146.308 0.046,146.259 Z M 0.196,0 v 82.089 c 191.661,0.14 347.464,156.184 347.594,348.028 h 82.327 C 430.061,311.546 381.869,204.123 303.985,126.185 226.073,48.274 118.721,0.051 0.196,0 Z"
         inkscape:connector-curvature="0"
         style="fill:#ff950d;fill-opacity:1" /></g></g></svg>