<?xml version="1.0" encoding="UTF-8" standalone="no"?>
<!-- Generator: Adobe Illustrator 19.0.0, SVG Export Plug-In . SVG Version: 6.00 Build 0)  -->

<svg
   xmlns:dc="http://purl.org/dc/elements/1.1/"
   xmlns:cc="http://creativecommons.org/ns#"
   xmlns:rdf="http://www.w3.org/1999/02/22-rdf-syntax-ns#"
   xmlns:svg="http://www.w3.org/2000/svg"
   xmlns="http://www.w3.org/2000/svg"
   xmlns:sodipodi="http://sodipodi.sourceforge.net/DTD/sodipodi-0.dtd"
   xmlns:inkscape="http://www.inkscape.org/namespaces/inkscape"
   version="1.1"
   id="Layer_1"
   x="0px"
   y="0px"
   viewBox="0 0 496 496"
   style="enable-background:new 0 0 496 496;"
   xml:space="preserve"
   inkscape:version="0.91 r13725"
   sodipodi:docname="folders.svg"><metadata
   id="metadata55"><rdf:RDF><cc:Work
       rdf:about=""><dc:format>image/svg+xml</dc:format><dc:type
         rdf:resource="http://purl.org/dc/dcmitype/StillImage" /></cc:Work></rdf:RDF></metadata><defs
   id="defs53" /><sodipodi:namedview
   pagecolor="#ffffff"
   bordercolor="#666666"
   borderopacity="1"
   objecttolerance="10"
   gridtolerance="10"
   guidetolerance="10"
   inkscape:pageopacity="0"
   inkscape:pageshadow="2"
   inkscape:window-width="1366"
   inkscape:window-height="706"
   id="namedview51"
   showgrid="false"
   inkscape:zoom="0.67289194"
   inkscape:cx="248"
   inkscape:cy="245.89831"
   inkscape:window-x="-8"
   inkscape:window-y="-8"
   inkscape:window-maximized="1"
   inkscape:current-layer="Layer_1" />
<path
   style="fill:#6D6D6D;"
   d="M484.8,48H287.2c-6.4,0-12,0-18.4,9.6L258.4,72H24.8C11.2,72,0,84.8,0,98.4v314.4  C0,426.4,11.2,440,24.8,440h446.4c13.6,0,24.8-13.6,24.8-27.2V169.6V99.2V57.6C496,52,491.2,48,484.8,48z"
   id="path3" />
<path
   style="fill:#565656;"
   d="M485.6,371.2c6.4-4.8,10.4-12,10.4-20V169.6V99.2V57.6c0-5.6-4.8-9.6-11.2-9.6H287.2  c-6.4,0-12,0-18.4,9.6L258.4,72H24.8C12,72,1.6,82.4,0,94.4L485.6,371.2z"
   id="path5" />
<path
   style="fill:#262523;"
   d="M16.8,104l468.8,265.6c6.4-4.8,10.4-10.4,10.4-18.4V169.6v-44.8L465.6,104H16.8z"
   id="path7" />
<rect
   x="40"
   y="104"
   style="fill:#FFFFFF;"
   width="416"
   height="304"
   id="rect9" />
<rect
   x="256"
   y="104"
   style="fill:#EFEFEF;"
   width="200"
   height="304"
   id="rect11" />
<path
   style="fill:#BF0404;"
   d="M496,424c0,13.6-11.2,24-24.8,24H24.8C11.2,448,0,437.6,0,424l8-253.6C8,156.8,19.2,144,32.8,144H464  c13.6,0,24.8,12.8,24.8,26.4L496,424z"
   id="path13" />
<path
   style="fill:#FF1010;"
   d="M492.8,436L8.8,162.4C8,165.6,8,168.8,8,172L0,424c0,13.6,11.2,24,24.8,24h446.4  C480,448,488,443.2,492.8,436z"
   id="path15" />


<g
   id="g21">
</g>
<g
   id="g23">
</g>
<g
   id="g25">
</g>
<g
   id="g27">
</g>
<g
   id="g29">
</g>
<g
   id="g31">
</g>
<g
   id="g33">
</g>
<g
   id="g35">
</g>
<g
   id="g37">
</g>
<g
   id="g39">
</g>
<g
   id="g41">
</g>
<g
   id="g43">
</g>
<g
   id="g45">
</g>
<g
   id="g47">
</g>
<g
   id="g49">
</g>
<path
   inkscape:connector-curvature="0"
   style="color:#000000;font-style:normal;font-variant:normal;font-weight:normal;font-stretch:normal;font-size:medium;line-height:normal;font-family:sans-serif;text-indent:0;text-align:start;text-decoration:none;text-decoration-line:none;text-decoration-style:solid;text-decoration-color:#000000;letter-spacing:normal;word-spacing:normal;text-transform:none;direction:ltr;block-progression:tb;writing-mode:lr-tb;baseline-shift:baseline;text-anchor:start;clip-rule:nonzero;display:inline;overflow:visible;visibility:visible;opacity:1;isolation:auto;color-interpolation:sRGB;color-interpolation-filters:linearRGB;fill:#f9f9f9;fill-opacity:1;fill-rule:nonzero;stroke:none;stroke-width:60.50111771;stroke-linecap:butt;stroke-linejoin:miter;stroke-miterlimit:4;stroke-dasharray:none;stroke-dashoffset:0;stroke-opacity:1;marker:none;color-rendering:auto;image-rendering:auto;shape-rendering:auto;text-rendering:auto;enable-background:accumulate"
   d="m 320.00534,179.14218 a 39.718685,39.718685 0 0 0 -11.80151,1.31981 39.718685,39.718685 0 0 0 -29.26595,35.25113 l -74.50771,19.96589 c 4.64934,7.5569 7.15514,16.42136 6.90601,25.56742 l 74.44629,-19.95056 a 39.718685,39.718685 0 0 0 42.9858,15.89906 39.718685,39.718685 0 0 0 28.08426,-48.6487 39.718685,39.718685 0 0 0 -36.84719,-29.40405 z"
   id="path4148" /><path
   inkscape:connector-curvature="0"
   style="color:#000000;font-style:normal;font-variant:normal;font-weight:normal;font-stretch:normal;font-size:medium;line-height:normal;font-family:sans-serif;text-indent:0;text-align:start;text-decoration:none;text-decoration-line:none;text-decoration-style:solid;text-decoration-color:#000000;letter-spacing:normal;word-spacing:normal;text-transform:none;direction:ltr;block-progression:tb;writing-mode:lr-tb;baseline-shift:baseline;text-anchor:start;clip-rule:nonzero;display:inline;overflow:visible;visibility:visible;opacity:1;isolation:auto;color-interpolation:sRGB;color-interpolation-filters:linearRGB;fill:#f9f9f9;fill-opacity:1;fill-rule:nonzero;stroke:none;stroke-width:60.50111771;stroke-linecap:butt;stroke-linejoin:miter;stroke-miterlimit:4;stroke-dasharray:none;stroke-dashoffset:0;stroke-opacity:1;marker:none;color-rendering:auto;image-rendering:auto;shape-rendering:auto;text-rendering:auto;enable-background:accumulate"
   d="m 294.20776,258.29988 -19.9506,74.431 a 39.718711,39.718685 0 0 0 -7.16684,1.19699 39.718711,39.718685 0 0 0 -28.09962,48.64869 39.718711,39.718685 0 0 0 48.6487,28.08426 39.718711,39.718685 0 0 0 28.08427,-48.64869 39.718711,39.718685 0 0 0 -15.88371,-22.42136 l 19.95055,-74.49234 c -8.86935,0.24764 -17.78652,-2.00944 -25.58275,-6.79855 z"
   id="path2987-4" /><g
   transform="matrix(7.1053965,0,0,7.1053965,5185.2128,-5988.1371)"
   id="g4159"
   style="fill:#f9f9f9;fill-opacity:1"><g
     id="g4156"
     style="fill:#f9f9f9;fill-opacity:1"><path
       inkscape:connector-curvature="0"
       style="color:#000000;font-style:normal;font-variant:normal;font-weight:normal;font-stretch:normal;font-size:medium;line-height:normal;font-family:sans-serif;text-indent:0;text-align:start;text-decoration:none;text-decoration-line:none;text-decoration-style:solid;text-decoration-color:#000000;letter-spacing:normal;word-spacing:normal;text-transform:none;direction:ltr;block-progression:tb;writing-mode:lr-tb;baseline-shift:baseline;text-anchor:start;clip-rule:nonzero;display:inline;overflow:visible;visibility:visible;opacity:1;isolation:auto;color-interpolation:sRGB;color-interpolation-filters:linearRGB;fill:#f9f9f9;fill-opacity:1;fill-rule:nonzero;stroke:none;stroke-width:60.50111771;stroke-linecap:butt;stroke-linejoin:miter;stroke-miterlimit:4;stroke-dasharray:none;stroke-dashoffset:0;stroke-opacity:1;marker:none;color-rendering:auto;image-rendering:auto;shape-rendering:auto;text-rendering:auto;enable-background:accumulate"
       d="m -706.31858,873.75753 a 5.5899322,5.5899322 0 0 0 -1.66093,0.1879 5.5899322,5.5899322 0 0 0 -3.95252,6.84456 5.5899322,5.5899322 0 0 0 6.84672,3.95468 5.5899322,5.5899322 0 0 0 0.95898,-0.35854 l 7.67394,7.67179 c 0.59392,-1.09843 1.4984,-2.02612 2.6307,-2.63933 l -7.66748,-7.66747 a 5.5899322,5.5899322 0 0 0 0.35638,-3.85317 5.5899322,5.5899322 0 0 0 -5.18579,-4.14042 z"
       id="path4146" /></g></g></svg>