<?xml version="1.0" encoding="UTF-8" standalone="no"?>
<!-- Created with Inkscape (http://www.inkscape.org/) -->

<svg
   xmlns:dc="http://purl.org/dc/elements/1.1/"
   xmlns:cc="http://creativecommons.org/ns#"
   xmlns:rdf="http://www.w3.org/1999/02/22-rdf-syntax-ns#"
   xmlns:svg="http://www.w3.org/2000/svg"
   xmlns="http://www.w3.org/2000/svg"
   xmlns:sodipodi="http://sodipodi.sourceforge.net/DTD/sodipodi-0.dtd"
   xmlns:inkscape="http://www.inkscape.org/namespaces/inkscape"
   id="svg6203"
   version="1.1"
   inkscape:version="0.91 r13725"
   xml:space="preserve"
   width="80"
   height="80"
   viewBox="0 0 80 80"
   sodipodi:docname="font.svg"><metadata
     id="metadata6209"><rdf:RDF><cc:Work
         rdf:about=""><dc:format>image/svg+xml</dc:format><dc:type
           rdf:resource="http://purl.org/dc/dcmitype/StillImage" /><dc:title /></cc:Work></rdf:RDF></metadata><defs
     id="defs6207" /><sodipodi:namedview
     pagecolor="#ffffff"
     bordercolor="#666666"
     borderopacity="1"
     objecttolerance="10"
     gridtolerance="10"
     guidetolerance="10"
     inkscape:pageopacity="0"
     inkscape:pageshadow="2"
     inkscape:window-width="1920"
     inkscape:window-height="1009"
     id="namedview6205"
     showgrid="false"
     inkscape:zoom="4.17193"
     inkscape:cx="-6.464389"
     inkscape:cy="-11.875009"
     inkscape:window-x="0"
     inkscape:window-y="0"
     inkscape:window-maximized="1"
     inkscape:current-layer="g6211" /><g
     id="g6211"
     inkscape:groupmode="layer"
     inkscape:label="ink_ext_XXXXXX"
     transform="matrix(1.25,0,0,-1.25,0,80)"><path
       inkscape:connector-curvature="0"
       id="path6215"
       style="fill:#039bd5;fill-opacity:1;fill-rule:nonzero;stroke:none"
       d="M 64,32 C 64,14.327 49.673,0 32,0 14.327,0 0,14.327 0,32 0,49.673 14.327,64 32,64 49.673,64 64,49.673 64,32" /><path
       inkscape:connector-curvature="0"
       id="path6217"
       style="fill:#000000;fill-opacity:0.15686275;fill-rule:nonzero;stroke:none"
       d="m 12.511259,17.658215 c -0.155306,0 -0.31298,0.02765 -0.46721,0.08559 -0.684885,0.256681 -1.031987,1.020628 -0.774944,1.705876 l 10.599343,28.264916 c 0.193527,0.516807 0.687986,0.859431 1.240389,0.859431 0.552402,0 1.046861,-0.342624 1.240388,-0.859431 L 34.948569,19.449681 c 0.257034,-0.685248 -0.09009,-1.449195 -0.774901,-1.705876 -0.153602,-0.05759 -0.310561,-0.08488 -0.465488,-0.08488 -0.53615,0 -1.040944,0.328138 -1.240388,0.859783 l -4.149378,11.064832 -10.419155,0 -4.149378,-11.064832 c -0.198738,-0.531292 -0.702118,-0.86049 -1.238622,-0.86049 m 10.597578,25.817617 -4.215889,-11.242459 8.431778,0 -4.215889,11.242459" /><path
       inkscape:connector-curvature="0"
       id="path6219"
       style="fill:#000000;fill-opacity:0.15686275;fill-rule:nonzero;stroke:none"
       d="m 50.490475,17.659275 -7.06623,0 c -4.140015,0 -7.507868,3.367853 -7.507868,7.507869 0,4.028192 3.227765,7.066229 7.507868,7.066229 l 5.741312,0 0,0.883278 c 0,1.402912 -0.427861,2.427603 -1.307694,3.132548 -1.204793,0.96507 -3.127337,1.249309 -4.897339,1.249309 -1.512615,0 -2.914113,-0.207305 -3.661808,-0.374686 -0.0976,-0.02208 -0.195293,-0.03242 -0.291217,-0.03242 -0.606194,0 -1.15312,0.418498 -1.291795,1.034408 -0.160404,0.713159 0.286712,1.421902 1.000225,1.582659 0.146359,0.03348 1.984285,0.437841 4.239737,0.437841 2.176487,0 4.741793,-0.376454 6.553574,-1.824854 1.530192,-1.223164 2.306153,-2.974176 2.306153,-5.204808 l 0,-14.132458 c 0,-0.731796 -0.593122,-1.324918 -1.324918,-1.324918 m -7.06623,11.924262 c -2.815097,0 -4.858032,-1.857624 -4.858032,-4.416393 0,-2.678808 2.179225,-4.858033 4.858032,-4.858033 l 5.741312,0 0,9.274426 -5.741312,0" /><path
       inkscape:connector-curvature="0"
       id="path6221"
       style="fill:#ffffff;fill-opacity:1;fill-rule:nonzero;stroke:none"
       d="m 13.750234,20.285616 9.358603,24.956773 9.358602,-24.956773 c 0.257034,-0.685159 1.020982,-1.032288 1.705876,-0.775607 0.685159,0.257034 1.032288,1.020982 0.775607,1.705876 L 24.349578,49.480801 c -0.19388,0.516807 -0.688692,0.859784 -1.240741,0.859784 -0.55205,0 -1.046862,-0.342977 -1.240742,-0.859784 L 11.269105,21.215885 c -0.257043,-0.684894 0.09006,-1.448842 0.775289,-1.705876 0.684859,-0.256681 1.448806,0.09045 1.70584,0.775607" /><path
       inkscape:connector-curvature="0"
       id="path6223"
       style="fill:#ffffff;fill-opacity:1;fill-rule:nonzero;stroke:none"
       d="m 17.809165,31.350094 10.599343,0 c 0.731797,0 1.324918,0.593122 1.324918,1.324918 0,0.731796 -0.593121,1.324918 -1.324918,1.324918 l -10.599343,0 c -0.731797,0 -1.324918,-0.593122 -1.324918,-1.324918 0,-0.731796 0.593121,-1.324918 1.324918,-1.324918" /><path
       inkscape:connector-curvature="0"
       id="path6225"
       style="fill:#ffffff;fill-opacity:1;fill-rule:nonzero;stroke:none"
       d="m 39.299776,38.890379 0.01033,0.0025 c 0.149009,0.03374 1.793144,0.37504 3.68389,0.373274 1.534344,0.0072 3.213986,-0.242195 4.336015,-0.893967 0.565829,-0.324693 0.998193,-0.72314 1.311757,-1.25664 0.311268,-0.53509 0.521753,-1.232792 0.523785,-2.23231 0,-8.832787 0,-14.132459 0,-14.132459 l 1.324918,0 0,1.324918 -7.06623,0 c -1.345586,7.07e-4 -2.55188,0.541715 -3.435159,1.422874 -0.881158,0.883278 -1.422167,2.089572 -1.422873,3.435159 0.0065,1.345587 0.520958,2.38971 1.373233,3.166995 0.854307,0.770838 2.077118,1.249045 3.484799,1.249398 l 6.182951,0 c 0.731796,0 1.324918,0.593122 1.324918,1.324918 0,0.731796 -0.593122,1.324918 -1.324918,1.324918 l -6.182951,0 c -2.007074,3.53e-4 -3.875738,-0.684894 -5.258952,-1.930759 -1.385688,-1.23977 -2.255452,-3.066302 -2.248916,-5.13547 0.0011,-4.146905 3.360964,-7.506809 7.507868,-7.507869 l 7.06623,0 c 0.348806,0 0.690105,0.141502 0.936717,0.388201 0.246699,0.2467 0.388201,0.587911 0.388201,0.936717 0,0 0,5.299672 0,14.132459 0.002,1.382154 -0.309855,2.588801 -0.886371,3.570389 -0.429891,0.736301 -0.999606,1.334899 -1.633712,1.798267 -0.953676,0.696641 -2.03949,1.102066 -3.122213,1.344261 -1.084401,0.241135 -2.17578,0.319129 -3.179097,0.319835 -2.342455,-0.002 -4.22004,-0.429185 -4.278071,-0.440579 -0.713866,-0.161463 -1.161688,-0.870913 -1.000578,-1.584425 0.161463,-0.713866 0.870912,-1.161688 1.584425,-1.000578" /></g></svg>