<?xml version="1.0" encoding="UTF-8" standalone="no"?>
<!-- Created with Inkscape (http://www.inkscape.org/) -->

<svg
   xmlns:dc="http://purl.org/dc/elements/1.1/"
   xmlns:cc="http://creativecommons.org/ns#"
   xmlns:rdf="http://www.w3.org/1999/02/22-rdf-syntax-ns#"
   xmlns:svg="http://www.w3.org/2000/svg"
   xmlns="http://www.w3.org/2000/svg"
   xmlns:sodipodi="http://sodipodi.sourceforge.net/DTD/sodipodi-0.dtd"
   xmlns:inkscape="http://www.inkscape.org/namespaces/inkscape"
   id="svg4155"
   version="1.1"
   inkscape:version="0.92.3 (2405546, 2018-03-11)"
   xml:space="preserve"
   width="128"
   height="128"
   viewBox="0 0 128 128"
   sodipodi:docname="forums-newpost.svg"
   inkscape:export-filename="C:\Users\Mustermann\Downloads\flaticons-20181108T132958Z-001\flaticons\forums-newpost.png"
   inkscape:export-xdpi="96"
   inkscape:export-ydpi="96"><metadata
     id="metadata4161"><rdf:RDF><cc:Work
         rdf:about=""><dc:format>image/svg+xml</dc:format><dc:type
           rdf:resource="http://purl.org/dc/dcmitype/StillImage" /><dc:title /></cc:Work></rdf:RDF></metadata><defs
     id="defs4159" /><sodipodi:namedview
     pagecolor="#ffffff"
     bordercolor="#666666"
     borderopacity="1"
     objecttolerance="10"
     gridtolerance="10"
     guidetolerance="10"
     inkscape:pageopacity="0"
     inkscape:pageshadow="2"
     inkscape:window-width="1024"
     inkscape:window-height="705"
     id="namedview4157"
     showgrid="false"
     inkscape:zoom="3.6195029"
     inkscape:cx="-36.573957"
     inkscape:cy="59.336233"
     inkscape:window-x="-8"
     inkscape:window-y="-8"
     inkscape:window-maximized="1"
     inkscape:current-layer="g4163" /><g
     id="g4163"
     inkscape:groupmode="layer"
     inkscape:label="ink_ext_XXXXXX"
     transform="matrix(1.25,0,0,-1.25,0,128)"><path
       inkscape:connector-curvature="0"
       id="path4167"
       style="fill:#00b400;fill-opacity:1;fill-rule:nonzero;stroke:none;stroke-width:1.60000002"
       d="M 102.4,51.2 C 102.4,22.9232 79.4768,0 51.2,0 22.9232,0 0,22.9232 0,51.2 c 0,28.2768 22.9232,51.2 51.2,51.2 28.2768,0 51.2,-22.9232 51.2,-51.2"
       inkscape:export-xdpi="144"
       inkscape:export-ydpi="144" /><g
       transform="matrix(0.7621704,0,0,-0.7621704,9.9864834,811.00486)"
       id="g4"
       style="fill:#ffffff"><path
         inkscape:connector-curvature="0"
         style="color:#000000;display:inline;overflow:visible;visibility:visible;opacity:1;fill:#ffffff;stroke:none;stroke-width:4.00000048;stroke-linecap:round;stroke-linejoin:round;stroke-miterlimit:4;stroke-dashoffset:0;stroke-opacity:1;marker:none;enable-background:accumulate"
         d="M 92,8 58,22.15625 v 37.6875 L 92,74 Z M 26,23 c -9.89251,-10e-6 -18,8.02802 -18,18 0,9.97195 8.10749,18 18,18 H 54 V 23 Z M 27.40625,63 34,82 c 1.595005,4.178 4.856818,10 13,10 6.697928,0 11,-5.3726 11,-12 0,-6.6274 -5.372583,-12 -12,-12 h -1 l -1.65625,-5 z"
         transform="translate(0,952.36218)"
         id="path6" /></g></g></svg>