<?xml version="1.0" encoding="UTF-8" standalone="no"?>
<!-- Created with Inkscape (http://www.inkscape.org/) -->

<svg
   xmlns:dc="http://purl.org/dc/elements/1.1/"
   xmlns:cc="http://creativecommons.org/ns#"
   xmlns:rdf="http://www.w3.org/1999/02/22-rdf-syntax-ns#"
   xmlns:svg="http://www.w3.org/2000/svg"
   xmlns="http://www.w3.org/2000/svg"
   xmlns:sodipodi="http://sodipodi.sourceforge.net/DTD/sodipodi-0.dtd"
   xmlns:inkscape="http://www.inkscape.org/namespaces/inkscape"
   id="svg2"
   version="1.1"
   inkscape:version="0.91 r13725"
   xml:space="preserve"
   width="80"
   height="80"
   viewBox="0 0 80 80"
   sodipodi:docname="fullscreen_arrows.svg"><metadata
     id="metadata8"><rdf:RDF><cc:Work
         rdf:about=""><dc:format>image/svg+xml</dc:format><dc:type
           rdf:resource="http://purl.org/dc/dcmitype/StillImage" /><dc:title /></cc:Work></rdf:RDF></metadata><defs
     id="defs6"><clipPath
       clipPathUnits="userSpaceOnUse"
       id="clipPath16"><path
         d="M 0,64 64,64 64,0 0,0 0,64 Z"
         id="path18"
         inkscape:connector-curvature="0" /></clipPath><clipPath
       clipPathUnits="userSpaceOnUse"
       id="clipPath28"><path
         d="m 13.5,50 37,0 0,-40 -37,0 0,40 z"
         id="path30"
         inkscape:connector-curvature="0" /></clipPath></defs><sodipodi:namedview
     pagecolor="#ffffff"
     bordercolor="#666666"
     borderopacity="1"
     objecttolerance="10"
     gridtolerance="10"
     guidetolerance="10"
     inkscape:pageopacity="0"
     inkscape:pageshadow="2"
     inkscape:window-width="1920"
     inkscape:window-height="1009"
     id="namedview4"
     showgrid="false"
     showguides="true"
     inkscape:guide-bbox="true"
     inkscape:zoom="8"
     inkscape:cx="-3.141513"
     inkscape:cy="21.853911"
     inkscape:window-x="0"
     inkscape:window-y="0"
     inkscape:window-maximized="1"
     inkscape:current-layer="layer3" /><g
     inkscape:groupmode="layer"
     id="layer3"
     inkscape:label="circle"
     style="display:inline"><g
       style="display:inline;fill:#039bd5;fill-opacity:1"
       id="g20"
       transform="matrix(1.25,0,0,-1.25,0,40)"><path
         d="M 0,0 C 0,17.673 14.327,32 32,32 49.673,32 64,17.673 64,0 64,-17.673 49.673,-32 32,-32 14.327,-32 0,-17.673 0,0"
         style="fill:#039bd5;fill-opacity:1;fill-rule:nonzero;stroke:none"
         id="path22"
         inkscape:connector-curvature="0" /></g></g><g
     inkscape:groupmode="layer"
     id="layer1"
     inkscape:label="shadows"
     style="display:inline"><g
       style="display:inline;fill:#000000;fill-opacity:0.15686275"
       id="g32"
       transform="matrix(0.35119583,0.35119583,0.35119583,-0.35119583,3.6883339,56.157056)"><g
         id="g34"
         clip-path="url(#clipPath28)"
         style="fill:#000000;fill-opacity:0.15686275"><g
           id="g36"
           transform="translate(47.8385,34)"
           style="fill:#000000;fill-opacity:0.15686275"><path
             inkscape:connector-curvature="0"
             id="path38"
             style="fill:#000000;fill-opacity:0.15686275;fill-rule:nonzero;stroke:none"
             d="m 0,0 -7.839,0 0,12 c 0,2.209 -1.79,4 -4,4 l -8,0 c -2.209,0 -4,-1.791 -4,-4 l 0,-12 -7.838,0 c -2.722,0 -3.483,-1.865 -1.69,-4.145 l 14.269,-18.145 c 1.793,-2.28 4.726,-2.28 6.519,0 L 1.69,-4.145 C 3.483,-1.865 2.722,0 0,0" /></g></g></g><path
       transform="matrix(-0.35119583,0.35119583,-0.35119583,-0.35119583,47.456564,61.01708)"
       d="m 0,0 -7.839,0 0,12 c 0,2.209 -1.79,4 -4,4 l -8,0 c -2.209,0 -4,-1.791 -4,-4 l 0,-12 -7.838,0 c -2.722,0 -3.483,-1.865 -1.69,-4.145 l 14.269,-18.145 c 1.793,-2.28 4.726,-2.28 6.519,0 L 1.69,-4.145 C 3.483,-1.865 2.722,0 0,0"
       style="display:inline;fill:#000000;fill-opacity:0.15686275;fill-rule:nonzero;stroke:none"
       id="path4458"
       inkscape:connector-curvature="0" /><g
       style="display:inline;fill:#000000;fill-opacity:0.15686275"
       id="g4281"
       transform="matrix(-0.35119583,0.35119583,0.35119583,0.35119583,26.120672,3.5623225)"><g
         id="g4283"
         style="fill:#000000;fill-opacity:0.15686275" /><g
         id="g4285"
         style="fill:#000000;fill-opacity:0.15686275"><g
           id="g4287"
           clip-path="url(#clipPath28)"
           style="fill:#000000;fill-opacity:0.15686275"><g
             id="g4289"
             transform="translate(47.8385,34)"
             style="fill:#000000;fill-opacity:0.15686275"><path
               inkscape:connector-curvature="0"
               id="path4291"
               style="fill:#000000;fill-opacity:0.15686275;fill-rule:nonzero;stroke:none"
               d="m 0,0 -7.839,0 0,12 c 0,2.209 -1.79,4 -4,4 l -8,0 c -2.209,0 -4,-1.791 -4,-4 l 0,-12 -7.838,0 c -2.722,0 -3.483,-1.865 -1.69,-4.145 l 14.269,-18.145 c 1.793,-2.28 4.726,-2.28 6.519,0 L 1.69,-4.145 C 3.483,-1.865 2.722,0 0,0" /></g></g></g></g><g
       style="display:inline;fill:#000000;fill-opacity:0.15686275"
       transform="matrix(0.35119583,0.35119583,-0.35119583,0.35119583,53.765565,3.5654637)"
       id="g4470"><g
         id="g4472"
         style="fill:#000000;fill-opacity:0.15686275" /><g
         id="g4474"
         style="fill:#000000;fill-opacity:0.15686275"><g
           clip-path="url(#clipPath28)"
           id="g4476"
           style="fill:#000000;fill-opacity:0.15686275"><g
             transform="translate(47.8385,34)"
             id="g4478"
             style="fill:#000000;fill-opacity:0.15686275"><path
               d="m 0,0 -7.839,0 0,12 c 0,2.209 -1.79,4 -4,4 l -8,0 c -2.209,0 -4,-1.791 -4,-4 l 0,-12 -7.838,0 c -2.722,0 -3.483,-1.865 -1.69,-4.145 l 14.269,-18.145 c 1.793,-2.28 4.726,-2.28 6.519,0 L 1.69,-4.145 C 3.483,-1.865 2.722,0 0,0"
               style="fill:#000000;fill-opacity:0.15686275;fill-rule:nonzero;stroke:none"
               id="path4480"
               inkscape:connector-curvature="0" /></g></g></g></g></g><g
     id="g10"
     inkscape:groupmode="layer"
     inkscape:label="Elegant_circle-icons"
     transform="matrix(1.25,0,0,-1.25,0,80)"
     style="display:inline"><g
       id="g26"
       transform="matrix(0.28095666,-0.28095666,0.28095666,0.28095666,2.9506671,19.640041)" /><path
       inkscape:connector-curvature="0"
       id="path42"
       style="fill:#ffffff;fill-opacity:1;fill-rule:nonzero;stroke:none"
       d="m 22.649217,26.170869 c 0.620633,0.620633 1.62702,0.620633 2.247653,0 l 2.247654,-2.247653 c 0.620633,-0.620634 0.620633,-1.62702 0,-2.247654 l -6.74296,-6.742959 c -0.620634,-0.620634 -1.62702,-0.620634 -2.247654,0 l -2.247653,2.247653 c -0.620633,0.620633 -0.620633,1.62702 0,2.247653 l 6.74296,6.74296 z" /><path
       inkscape:connector-curvature="0"
       id="path46"
       style="fill:#ffffff;fill-opacity:1;fill-rule:nonzero;stroke:none"
       d="m 25.975322,16.101803 c 0.764764,-0.764764 0.454588,-1.502556 -0.689749,-1.639382 l -9.106929,-1.088988 c -1.144336,-0.136826 -1.968382,0.68722 -1.831556,1.831556 l 1.088988,9.10693 c 0.136826,1.144336 0.874618,1.454512 1.639382,0.689748 l 8.899864,-8.899864 z" /><g
       transform="matrix(-0.28095666,-0.28095666,0.28095666,-0.28095666,27.073811,42.441973)"
       id="g4293"><path
         inkscape:connector-curvature="0"
         id="path4295"
         style="fill:#ffffff;fill-opacity:1;fill-rule:nonzero;stroke:none"
         d="m 0,0 c 0,2.209 1.791,4 4,4 l 8,0 c 2.209,0 4,-1.791 4,-4 l 0,-24 c 0,-2.209 -1.791,-4 -4,-4 l -8,0 c -2.209,0 -4,1.791 -4,4 L 0,0 Z" /></g><g
       transform="matrix(-0.28095666,-0.28095666,0.28095666,-0.28095666,17.004747,39.115868)"
       id="g4297"><path
         inkscape:connector-curvature="0"
         id="path4299"
         style="fill:#ffffff;fill-opacity:1;fill-rule:nonzero;stroke:none"
         d="M 0,0 C 2.722,0 3.483,-1.865 1.69,-4.145 L -12.579,-22.29 c -1.793,-2.28 -4.726,-2.28 -6.519,0 L -33.367,-4.145 C -35.16,-1.865 -34.399,0 -31.677,0 L 0,0 Z" /></g><g
       id="g4450"
       transform="matrix(-0.28095666,-0.28095666,-0.28095666,0.28095666,60.958323,19.640041)" /><path
       d="m 41.259773,26.170869 c -0.620633,0.620633 -1.62702,0.620633 -2.247653,0 l -2.247654,-2.247653 c -0.620633,-0.620634 -0.620633,-1.62702 0,-2.247654 l 6.74296,-6.742959 c 0.620634,-0.620634 1.62702,-0.620634 2.247654,0 l 2.247653,2.247653 c 0.620633,0.620633 0.620633,1.62702 0,2.247653 l -6.74296,6.74296 z"
       style="fill:#ffffff;fill-opacity:1;fill-rule:nonzero;stroke:none"
       id="path4462"
       inkscape:connector-curvature="0" /><path
       d="m 37.933668,16.101803 c -0.764764,-0.764764 -0.454588,-1.502556 0.689749,-1.639382 l 9.106929,-1.088988 c 1.144336,-0.136826 1.968382,0.68722 1.831556,1.831556 l -1.088988,9.10693 c -0.136826,1.144336 -0.874618,1.454512 -1.639382,0.689748 l -8.899864,-8.899864 z"
       style="fill:#ffffff;fill-opacity:1;fill-rule:nonzero;stroke:none"
       id="path4466"
       inkscape:connector-curvature="0" /><g
       id="g4482"
       transform="matrix(0.28095666,-0.28095666,-0.28095666,-0.28095666,36.835178,42.441973)"><path
         d="m 0,0 c 0,2.209 1.791,4 4,4 l 8,0 c 2.209,0 4,-1.791 4,-4 l 0,-24 c 0,-2.209 -1.791,-4 -4,-4 l -8,0 c -2.209,0 -4,1.791 -4,4 L 0,0 Z"
         style="fill:#ffffff;fill-opacity:1;fill-rule:nonzero;stroke:none"
         id="path4484"
         inkscape:connector-curvature="0" /></g><g
       id="g4486"
       transform="matrix(0.28095666,-0.28095666,-0.28095666,-0.28095666,46.904243,39.115868)"><path
         d="M 0,0 C 2.722,0 3.483,-1.865 1.69,-4.145 L -12.579,-22.29 c -1.793,-2.28 -4.726,-2.28 -6.519,0 L -33.367,-4.145 C -35.16,-1.865 -34.399,0 -31.677,0 L 0,0 Z"
         style="fill:#ffffff;fill-opacity:1;fill-rule:nonzero;stroke:none"
         id="path4488"
         inkscape:connector-curvature="0" /></g><g
       id="g4452"
       transform="matrix(-0.28095666,-0.28095666,-0.28095666,0.28095666,60.958323,19.074355)"><g
         clip-path="url(#clipPath28)"
         id="g4454"
         style="opacity:0.19999701"><g
           transform="translate(47.8385,34)"
           id="g4456" /></g></g></g></svg>