<?xml version="1.0" encoding="UTF-8" standalone="no"?>
<!-- Created with Inkscape (http://www.inkscape.org/) -->

<svg
   xmlns:osb="http://www.openswatchbook.org/uri/2009/osb"
   xmlns:dc="http://purl.org/dc/elements/1.1/"
   xmlns:cc="http://creativecommons.org/ns#"
   xmlns:rdf="http://www.w3.org/1999/02/22-rdf-syntax-ns#"
   xmlns:svg="http://www.w3.org/2000/svg"
   xmlns="http://www.w3.org/2000/svg"
   xmlns:sodipodi="http://sodipodi.sourceforge.net/DTD/sodipodi-0.dtd"
   xmlns:inkscape="http://www.inkscape.org/namespaces/inkscape"
   id="svg4155"
   version="1.1"
   inkscape:version="0.91 r13725"
   xml:space="preserve"
   width="80"
   height="80"
   viewBox="0 0 80 80"
   sodipodi:docname="hidden.svg"><metadata
     id="metadata4161"><rdf:RDF><cc:Work
         rdf:about=""><dc:format>image/svg+xml</dc:format><dc:type
           rdf:resource="http://purl.org/dc/dcmitype/StillImage" /><dc:title></dc:title></cc:Work></rdf:RDF></metadata><defs
     id="defs4159"><linearGradient
       id="linearGradient5584"
       osb:paint="solid"><stop
         style="stop-color:#000000;stop-opacity:1;"
         offset="0"
         id="stop5586" /></linearGradient></defs><sodipodi:namedview
     pagecolor="#ffffff"
     bordercolor="#666666"
     borderopacity="1"
     objecttolerance="10"
     gridtolerance="10"
     guidetolerance="10"
     inkscape:pageopacity="0"
     inkscape:pageshadow="2"
     inkscape:window-width="1366"
     inkscape:window-height="706"
     id="namedview4157"
     showgrid="false"
     inkscape:zoom="3.6195029"
     inkscape:cx="37.953819"
     inkscape:cy="49.057609"
     inkscape:window-x="-8"
     inkscape:window-y="-8"
     inkscape:window-maximized="1"
     inkscape:current-layer="g4163" /><g
     id="g4163"
     inkscape:groupmode="layer"
     inkscape:label="ink_ext_XXXXXX"
     transform="matrix(1.25,0,0,-1.25,0,80)"><path
       inkscape:connector-curvature="0"
       id="path4167"
       style="fill:#039bd5;fill-opacity:1;fill-rule:nonzero;stroke:none"
       d="M 64,32 C 64,14.327 49.673,0 32,0 14.327,0 0,14.327 0,32 0,49.673 14.327,64 32,64 49.673,64 64,49.673 64,32" /><g
       transform="matrix(0.47818792,0,0,-0.47818794,8.3042308,56.181608)"
       id="g3"><g
         id="g5"><path
           style="fill:#ffffff"
           inkscape:connector-curvature="0"
           d="M 69.322,44.716 49.715,64.323 C 60.438,64.072 69.071,55.438 69.322,44.716 Z"
           id="path7" /><path
           style="fill:#ffffff"
           inkscape:connector-curvature="0"
           d="M 97.204,45.789 C 96.755,45.26 90.959,38.559 81.802,32.235 l -6.2,6.2 c 5.99,3.954 10.559,8.275 13.011,10.806 -5.378,5.554 -20.913,19.728 -39.372,19.728 -1.334,0 -2.651,-0.082 -3.952,-0.222 l -7.439,7.438 c 3.639,0.91 7.449,1.451 11.391,1.451 26.426,0 47.098,-23.927 47.964,-24.946 1.701,-1.998 1.701,-4.9 -0.001,-6.901 z"
           id="path9" /><path
           style="fill:#ffffff"
           inkscape:connector-curvature="0"
           d="m 90.651,15.901 c 0,-0.266 -0.104,-0.52 -0.293,-0.707 l -7.071,-7.07 c -0.391,-0.391 -1.022,-0.391 -1.414,0 L 66.045,23.952 C 60.843,22.059 55.19,20.844 49.241,20.844 22.814,20.844 2.143,44.77 1.276,45.79 c -1.701,2 -1.701,4.902 10e-4,6.903 0.517,0.606 8.083,9.354 19.707,16.319 l -12.86,12.86 c -0.188,0.188 -0.293,0.441 -0.293,0.707 0,0.267 0.105,0.521 0.293,0.707 l 7.071,7.07 c 0.195,0.194 0.451,0.293 0.707,0.293 0.256,0 0.512,-0.099 0.707,-0.293 l 73.75,-73.75 c 0.187,-0.185 0.292,-0.439 0.292,-0.705 z M 9.869,49.241 C 13.5,45.49 21.767,37.812 32.436,33.22 c -2.081,3.166 -3.301,6.949 -3.301,11.021 0,4.665 1.601,8.945 4.27,12.352 l -6.124,6.123 C 19.129,58.196 12.89,52.361 9.869,49.241 Z"
           id="path11" /></g></g></g></svg>