<?xml version="1.0" encoding="UTF-8" standalone="no"?>
<!-- Created with Inkscape (http://www.inkscape.org/) -->

<svg
   xmlns:dc="http://purl.org/dc/elements/1.1/"
   xmlns:cc="http://creativecommons.org/ns#"
   xmlns:rdf="http://www.w3.org/1999/02/22-rdf-syntax-ns#"
   xmlns:svg="http://www.w3.org/2000/svg"
   xmlns="http://www.w3.org/2000/svg"
   xmlns:sodipodi="http://sodipodi.sourceforge.net/DTD/sodipodi-0.dtd"
   xmlns:inkscape="http://www.inkscape.org/namespaces/inkscape"
   id="svg4155"
   version="1.1"
   inkscape:version="0.92.4 (5da689c313, 2019-01-14)"
   xml:space="preserve"
   width="80"
   height="80"
   viewBox="0 0 80 80"
   sodipodi:docname="highlight.svg"><metadata
     id="metadata4161"><rdf:RDF><cc:Work
         rdf:about=""><dc:format>image/svg+xml</dc:format><dc:type
           rdf:resource="http://purl.org/dc/dcmitype/StillImage" /><dc:title /></cc:Work></rdf:RDF></metadata><defs
     id="defs4159" /><sodipodi:namedview
     pagecolor="#ffffff"
     bordercolor="#666666"
     borderopacity="1"
     objecttolerance="10"
     gridtolerance="10"
     guidetolerance="10"
     inkscape:pageopacity="0"
     inkscape:pageshadow="2"
     inkscape:window-width="1366"
     inkscape:window-height="705"
     id="namedview4157"
     showgrid="false"
     inkscape:zoom="4"
     inkscape:cx="36.287037"
     inkscape:cy="43.832174"
     inkscape:window-x="-8"
     inkscape:window-y="-8"
     inkscape:window-maximized="1"
     inkscape:current-layer="g4163" /><g
     id="g4163"
     inkscape:groupmode="layer"
     inkscape:label="ink_ext_XXXXXX"
     transform="matrix(1.25,0,0,-1.25,0,80)"><rect
       style="opacity:1;fill:#7db6d8;fill-opacity:1;stroke:none;stroke-width:2.52538538;stroke-miterlimit:4;stroke-dasharray:none;stroke-dashoffset:0;stroke-opacity:1"
       id="rect6133"
       width="41.59251"
       height="11.530078"
       x="28.414354"
       y="-6.3301339"
       transform="matrix(0.70401372,0.71018637,0.71018637,-0.70401372,0,0)"
       ry="1.444018" /><rect
       style="opacity:1;fill:#7db6d8;fill-opacity:1;stroke:none;stroke-width:2.52538538;stroke-miterlimit:4;stroke-dasharray:none;stroke-dashoffset:0;stroke-opacity:1"
       id="rect6700"
       width="40.399254"
       height="2.2466028"
       x="7.3261099"
       y="-10.385328"
       transform="scale(1,-1)"
       ry="1.1233014" /><g
       id="use6704"
       transform="matrix(0.02079413,0,0,0.02079413,5.3079594,4.1267317)"
       style="fill:#000000;fill-opacity:0.15686275;stroke:none"><path
         style="fill:#000000;fill-opacity:0.15686275"
         id="path6708"
         d="M 872.51523,639.00498 C 767.99202,553.02724 168.10038,323.38141 131.10038,279.38141 99.655615,245.36096 96.853397,228.23591 111.76852,212.8463 c 13.92096,-14.36384 20.42554,-20.16439 41.43987,-19.84206 52.92372,0.81176 155.27561,7.0021 215.71714,65.06553 14.56004,13.98717 38.5512,28.7708 57.42621,22.4754 14.11853,-4.70897 74.39937,17.6523 213.06827,75.04468 C 879.26642,454.85764 942.53887,449.38714 1039,529 c 182.987,151.02574 806,793 990,1001 345,388 431,511 431,618 -1.8807,10.2331 -6.5386,50.5991 -21.4516,44.1496 C 2267.6724,2118.2502 1295.6545,987.06701 872.51523,639.00498 Z"
         inkscape:connector-curvature="0"
         sodipodi:nodetypes="scssssssccss" /></g><g
       style="fill:#039bd5;fill-opacity:1;stroke:none"
       transform="matrix(0.02079413,0,0,0.02079413,5.3079594,6.5024647)"
       id="g4"><path
         inkscape:connector-curvature="0"
         d="m 2067,2455 c -49,-18 -114,-62 -207,-141 -41,-35 -132,-108 -201,-163 C 1389,1937 992,1562 674,1219 462,990 432,951 376,825 349,764 302,666 272,605 189,439 169,379 184,349 195,327 193,321 156,277 75,181 61,139 100,100 c 39,-39 98,-19 192,66 31,27 41,31 65,25 37,-10 55,-4 288,106 289,135 278,129 394,232 177,158 806,793 990,1001 345,388 431,511 431,618 0,51 -2,54 -79,140 -43,48 -101,108 -129,135 -47,43 -55,47 -99,46 -26,0 -65,-7 -86,-14 z m 5,-339 c 88,-75 148,-149 148,-182 0,-25 -95,-133 -380,-432 -91,-95 -190,-201 -220,-234 -87,-97 -731,-718 -744,-718 -6,0 -27,25 -46,56 -52,86 -117,153 -208,211 -69,45 -81,56 -73,71 13,24 146,167 385,415 260,270 719,700 914,858 l 73,59 37,-19 c 20,-11 72,-49 114,-85 z"
         id="path6"
         style="fill:#039bd5;fill-opacity:1" /></g></g></svg>