<?xml version="1.0" encoding="UTF-8" standalone="no"?>
<!-- Created with Inkscape (http://www.inkscape.org/) -->

<svg
   id="svg4155"
   version="1.1"
   inkscape:version="1.1.1 (3bf5ae0d25, 2021-09-20)"
   xml:space="preserve"
   width="80"
   height="80"
   viewBox="0 0 80 80"
   sodipodi:docname="invite.svg"
   inkscape:export-filename="C:\Users\ProBook\Documents\GitHub\RetroShare\retroshare-gui\src\gui\icons\png\invite.png"
   inkscape:export-xdpi="153.60001"
   inkscape:export-ydpi="153.60001"
   xmlns:inkscape="http://www.inkscape.org/namespaces/inkscape"
   xmlns:sodipodi="http://sodipodi.sourceforge.net/DTD/sodipodi-0.dtd"
   xmlns="http://www.w3.org/2000/svg"
   xmlns:svg="http://www.w3.org/2000/svg"
   xmlns:rdf="http://www.w3.org/1999/02/22-rdf-syntax-ns#"
   xmlns:cc="http://creativecommons.org/ns#"
   xmlns:dc="http://purl.org/dc/elements/1.1/"><metadata
     id="metadata4161"><rdf:RDF><cc:Work
         rdf:about=""><dc:format>image/svg+xml</dc:format><dc:type
           rdf:resource="http://purl.org/dc/dcmitype/StillImage" /></cc:Work></rdf:RDF></metadata><defs
     id="defs4159" /><sodipodi:namedview
     pagecolor="#ffffff"
     bordercolor="#666666"
     borderopacity="1"
     objecttolerance="10"
     gridtolerance="10"
     guidetolerance="10"
     inkscape:pageopacity="0"
     inkscape:pageshadow="2"
     inkscape:window-width="1366"
     inkscape:window-height="705"
     id="namedview4157"
     showgrid="false"
     inkscape:zoom="2.559375"
     inkscape:cx="34.188034"
     inkscape:cy="69.352868"
     inkscape:window-x="-8"
     inkscape:window-y="-8"
     inkscape:window-maximized="1"
     inkscape:current-layer="layer1"
     inkscape:pagecheckerboard="0" /><g
     id="g4163"
     inkscape:groupmode="layer"
     inkscape:label="ink_ext_XXXXXX"
     transform="matrix(1.25,0,0,-1.25,0,80)"
     style="display:inline"><path
       inkscape:connector-curvature="0"
       id="path4167"
       style="fill:#039bd5;fill-opacity:1;fill-rule:nonzero;stroke:none"
       d="M 64,32 C 64,14.327 49.673,0 32,0 14.327,0 0,14.327 0,32 0,49.673 14.327,64 32,64 49.673,64 64,49.673 64,32" /></g><g
     inkscape:groupmode="layer"
     id="layer1"
     inkscape:label="forground"
     style="display:inline"><path
       style="fill:#f9f9f9;stroke-width:0.115097"
       d="m 16.369227,64.730725 c -2.410081,-0.519492 -4.393567,-2.486625 -4.89547,-4.855106 -0.230292,-1.086748 -0.232509,-8.437472 -0.0031,-10.160706 0.544804,-4.091726 2.311934,-7.6619 5.240845,-10.588196 0.729631,-0.728977 1.620855,-1.524992 1.9805,-1.768921 l 0.653899,-0.443506 0.870488,0.635708 c 1.713047,1.251025 4.034249,2.2608 6.317223,2.748136 1.666706,0.355784 4.587773,0.356708 6.248914,0.0019 2.717698,-0.580353 4.507782,-1.407765 7.126351,-3.293936 0.472315,-0.340212 5.163656,4.356013 4.822871,4.827896 -1.873071,2.593626 -2.716501,4.411741 -3.283366,7.077697 -0.3636,1.710005 -0.366662,4.607965 -0.0066,6.294485 0.619445,2.901855 2.005028,5.663034 3.887193,7.746366 0.407391,0.450932 0.415297,0.475502 0.20546,0.638472 -0.545416,0.423596 -2.110246,1.093106 -2.807926,1.201366 -0.471223,0.07313 -5.349087,0.113024 -13.178634,0.107808 -10.202918,-0.0067 -12.564565,-0.03718 -13.178629,-0.169543 z m 39.420806,0.0498 c -4.989364,-0.623224 -9.270985,-4.31662 -10.693102,-9.224051 -1.670749,-5.765402 1.045758,-12.068253 6.384936,-14.81436 2.550296,-1.311698 5.092938,-1.744661 7.818632,-1.331366 2.790409,0.423106 5.148972,1.616342 7.149858,3.617227 6.209256,6.209257 4.488252,16.634919 -3.383501,20.496904 -2.348935,1.152418 -4.765258,1.569365 -7.276823,1.255646 z M 58.3181,57.212066 c 0.613555,-0.348996 0.802549,-0.844473 0.85019,-2.228919 l 0.04257,-1.237296 1.224561,-4.6e-4 c 1.026113,-3.45e-4 1.286453,-0.03817 1.60646,-0.233264 0.506112,-0.308566 0.877263,-1.129212 0.76979,-1.702082 -0.199788,-1.064967 -0.953807,-1.510795 -2.561627,-1.514613 l -1.064649,-0.0025 -0.0026,-1.064649 c -0.0038,-1.607821 -0.449645,-2.36184 -1.514612,-2.561627 -0.572871,-0.107472 -1.393515,0.263677 -1.702082,0.769789 -0.195498,0.320659 -0.232903,0.580298 -0.233265,1.619192 l -4.25e-4,1.237295 h -1.12656 c -0.940194,0 -1.211113,0.04284 -1.637501,0.258969 -0.911823,0.462175 -1.238494,1.559926 -0.71455,2.401192 0.397339,0.637989 0.639056,0.729347 2.09747,0.792756 l 1.323618,0.05755 0.05755,1.323619 c 0.06014,1.383222 0.154758,1.663359 0.68795,2.036821 0.579138,0.405644 1.239785,0.422433 1.897665,0.04823 z M 28.051598,37.042095 C 23.062233,36.418873 18.780612,32.725476 17.358495,27.818044 15.67366,22.00403 18.44977,15.656315 23.867225,12.935506 c 2.497687,-1.254414 5.02093,-1.66863 7.694839,-1.263188 2.790408,0.423107 5.148971,1.616342 7.149857,3.617228 6.209256,6.209257 4.488253,16.634919 -3.3835,20.496904 -2.348935,1.152417 -4.765259,1.569364 -7.276823,1.255645 z"
       id="path1478" /></g></svg>
