<?xml version="1.0" encoding="UTF-8" standalone="no"?>
<!-- Created with Inkscape (http://www.inkscape.org/) -->

<svg
   xmlns:dc="http://purl.org/dc/elements/1.1/"
   xmlns:cc="http://creativecommons.org/ns#"
   xmlns:rdf="http://www.w3.org/1999/02/22-rdf-syntax-ns#"
   xmlns:svg="http://www.w3.org/2000/svg"
   xmlns="http://www.w3.org/2000/svg"
   xmlns:sodipodi="http://sodipodi.sourceforge.net/DTD/sodipodi-0.dtd"
   xmlns:inkscape="http://www.inkscape.org/namespaces/inkscape"
   id="svg4823"
   version="1.1"
   inkscape:version="0.91 r13725"
   xml:space="preserve"
   width="80"
   height="80"
   viewBox="0 0 80 80"
   sodipodi:docname="invite.svg"><metadata
     id="metadata4829"><rdf:RDF><cc:Work
         rdf:about=""><dc:format>image/svg+xml</dc:format><dc:type
           rdf:resource="http://purl.org/dc/dcmitype/StillImage" /><dc:title /></cc:Work></rdf:RDF></metadata><defs
     id="defs4827" /><sodipodi:namedview
     pagecolor="#ffffff"
     bordercolor="#666666"
     borderopacity="1"
     objecttolerance="10"
     gridtolerance="10"
     guidetolerance="10"
     inkscape:pageopacity="0"
     inkscape:pageshadow="2"
     inkscape:window-width="1920"
     inkscape:window-height="1009"
     id="namedview4825"
     showgrid="false"
     showguides="true"
     inkscape:guide-bbox="true"
     inkscape:zoom="1.475"
     inkscape:cx="-155.33838"
     inkscape:cy="28.585876"
     inkscape:window-x="0"
     inkscape:window-y="0"
     inkscape:window-maximized="1"
     inkscape:current-layer="g4831" /><g
     id="g4831"
     inkscape:groupmode="layer"
     inkscape:label="ink_ext_XXXXXX"
     transform="matrix(1.25,0,0,-1.25,0,80)"><path
       inkscape:connector-curvature="0"
       id="path4835"
       style="fill:#039bd5;fill-opacity:1;fill-rule:nonzero;stroke:none"
       d="M 64,32 C 64,14.327 49.673,0 32,0 14.327,0 0,14.327 0,32 0,49.673 14.327,64 32,64 49.673,64 64,49.673 64,32" /><path
       sodipodi:nodetypes="csasccsassc"
       d="m 33.346398,27.138373 c 2.012782,2.397011 3.817716,9.137224 3.780729,13.03223 -0.04053,4.268676 -4.147427,7.833723 -7.844104,7.839587 -3.89323,0.0062 -8.134746,-3.432459 -8.287329,-8.230168 C 20.876209,36.02303 22.815244,29.25428 24.970657,27.344578 24.73295,25.80496 23.829344,23.960201 21.144182,22.793431 19.6943,22.163465 15.581718,20.946417 15.626371,18.600543 c 0.04851,-2.548391 8.793599,-4.303905 13.521842,-4.28593 4.621336,0.01757 13.160147,1.682212 13.183878,4.289387 0.01639,1.800667 -5.45021,3.369885 -6.656712,4.623374 -1.535253,1.595043 -2.168834,3.07356 -2.328981,3.910999 z"
       style="fill:#000000;fill-opacity:0.15686275;fill-rule:nonzero;stroke:none"
       id="use4155"
       inkscape:connector-curvature="0" /><path
       inkscape:connector-curvature="0"
       id="path4839"
       style="fill:#ffffff;fill-opacity:1;fill-rule:nonzero;stroke:none"
       d="m 33.346398,28.617307 c 2.012782,2.397011 3.817716,9.137224 3.780729,13.03223 -0.04053,4.268677 -4.147427,7.833723 -7.844104,7.839587 -3.89323,0.0062 -8.134746,-3.432459 -8.287329,-8.230168 -0.119485,-3.756992 1.81955,-10.525742 3.974963,-12.435444 -0.237707,-1.539618 -1.141313,-3.384377 -3.826475,-4.551147 -1.449882,-0.629966 -5.562464,-1.847014 -5.517811,-4.192888 0.04851,-2.54839 8.793599,-4.303905 13.521842,-4.28593 4.621336,0.01757 13.160147,1.682212 13.183878,4.289387 0.01639,1.800667 -5.45021,3.369885 -6.656712,4.623374 -1.535253,1.595044 -2.168834,3.07356 -2.328981,3.910999 z"
       sodipodi:nodetypes="csasccsassc" /><path
       inkscape:connector-curvature="0"
       id="path5440"
       style="fill:#000000;fill-opacity:0.15686275;fill-rule:nonzero;stroke:none"
       d="m 46.384917,23.38757 c -1.021112,0 -1.848668,0.827556 -1.848668,1.848667 l 0,3.697335 -3.697335,0 c -1.021112,0 -1.848668,0.827556 -1.848668,1.848668 0,1.021112 0.827556,1.848668 1.848668,1.848668 l 3.697335,0 0,3.697335 c 0,1.021111 0.827556,1.848668 1.848668,1.848668 1.021111,0 1.848667,-0.827557 1.848667,-1.848668 l 0,-3.697335 3.697336,0 c 1.021111,0 1.848667,-0.827556 1.848667,-1.848668 0,-1.021112 -0.827556,-1.848668 -1.848667,-1.848668 l -3.697336,0 0,-3.697335 c 0,-1.021111 -0.827556,-1.848667 -1.848667,-1.848667" /><path
       inkscape:connector-curvature="0"
       id="path5452"
       style="fill:#ffffff;fill-opacity:1;fill-rule:nonzero;stroke:none"
       d="m 53.779587,32.010539 c 0,-1.021111 -0.827556,-1.848667 -1.848667,-1.848667 l -11.092006,0 c -1.021112,0 -1.848668,0.827556 -1.848668,1.848667 0,1.021112 0.827556,1.848668 1.848668,1.848668 l 11.092006,0 c 1.021111,0 1.848667,-0.827556 1.848667,-1.848668" /><path
       inkscape:connector-curvature="0"
       id="path5456"
       style="fill:#ffffff;fill-opacity:1;fill-rule:nonzero;stroke:none"
       d="m 46.384917,24.615869 c -1.021112,0 -1.848668,0.827556 -1.848668,1.848667 l 0,11.092006 c 0,1.021112 0.827556,1.848668 1.848668,1.848668 1.021111,0 1.848667,-0.827556 1.848667,-1.848668 l 0,-11.092006 c 0,-1.021111 -0.827556,-1.848667 -1.848667,-1.848667" /></g></svg>