<?xml version="1.0" encoding="UTF-8" standalone="no"?>
<!-- Created with Inkscape (http://www.inkscape.org/) -->

<svg
   xmlns:dc="http://purl.org/dc/elements/1.1/"
   xmlns:cc="http://creativecommons.org/ns#"
   xmlns:rdf="http://www.w3.org/1999/02/22-rdf-syntax-ns#"
   xmlns:svg="http://www.w3.org/2000/svg"
   xmlns="http://www.w3.org/2000/svg"
   xmlns:sodipodi="http://sodipodi.sourceforge.net/DTD/sodipodi-0.dtd"
   xmlns:inkscape="http://www.inkscape.org/namespaces/inkscape"
   id="svg4262"
   version="1.1"
   inkscape:version="0.91 r13725"
   xml:space="preserve"
   width="80"
   height="80"
   viewBox="0 0 80 80"
   sodipodi:docname="leave.svg"><metadata
     id="metadata4268"><rdf:RDF><cc:Work
         rdf:about=""><dc:format>image/svg+xml</dc:format><dc:type
           rdf:resource="http://purl.org/dc/dcmitype/StillImage" /><dc:title></dc:title></cc:Work></rdf:RDF></metadata><defs
     id="defs4266" /><sodipodi:namedview
     pagecolor="#ffffff"
     bordercolor="#666666"
     borderopacity="1"
     objecttolerance="10"
     gridtolerance="10"
     guidetolerance="10"
     inkscape:pageopacity="0"
     inkscape:pageshadow="2"
     inkscape:window-width="1920"
     inkscape:window-height="1009"
     id="namedview4264"
     showgrid="false"
     inkscape:zoom="4.17193"
     inkscape:cx="-35.651906"
     inkscape:cy="39.990735"
     inkscape:window-x="0"
     inkscape:window-y="0"
     inkscape:window-maximized="1"
     inkscape:current-layer="g4270" /><g
     id="g4270"
     inkscape:groupmode="layer"
     inkscape:label="ink_ext_XXXXXX"
     transform="matrix(1.25,0,0,-1.25,0,80)"><path
       inkscape:connector-curvature="0"
       id="path4274"
       style="fill:#039bd5;fill-opacity:1;fill-rule:nonzero;stroke:none"
       d="m 63.8332,32 c 0,-17.673 -14.3269,-32 -32,-32 -17.673,0 -31.999997,14.327 -31.999997,32 0,17.673 14.326997,32 31.999997,32 17.6731,0 32,-14.327 32,-32" /><path
       style="fill:#000000;fill-opacity:0.15686275"
       id="use5562"
       d="m 39.90341,18.113948 -8.902692,0 c -11.061028,0.810679 -13.35404,6.127268 -13.35404,-2.225673 l 13.35404,-6.67702 0,6.67702 11.128366,0 c 0,10.606512 -2.225674,3.634632 -2.225674,2.225673 z"
       inkscape:connector-curvature="0"
       sodipodi:nodetypes="ccccccc" /><path
       inkscape:connector-curvature="0"
       d="m 39.90341,19.713948 -8.902692,0 0,20.031059 -8.902693,4.451347 17.805385,0 0,-6.67702 2.225674,0 0,8.902693 -24.482406,0 0,-28.933752 13.35404,-6.67702 0,6.67702 11.128366,0 0,11.128367 -2.225674,0 0,-8.902694 z m 13.35404,13.35404 -8.902693,6.677019 0,-4.451346 -8.902693,0 0,-4.451346 8.902693,0 0,-4.451347 8.902693,6.67702 z"
       id="path4"
       style="fill:#ffffff;fill-opacity:1" /></g></svg>