<?xml version="1.0" encoding="UTF-8" standalone="no"?>
<svg
   xmlns:dc="http://purl.org/dc/elements/1.1/"
   xmlns:cc="http://creativecommons.org/ns#"
   xmlns:rdf="http://www.w3.org/1999/02/22-rdf-syntax-ns#"
   xmlns:svg="http://www.w3.org/2000/svg"
   xmlns="http://www.w3.org/2000/svg"
   xmlns:sodipodi="http://sodipodi.sourceforge.net/DTD/sodipodi-0.dtd"
   xmlns:inkscape="http://www.inkscape.org/namespaces/inkscape"
   version="1.1"
   viewBox="0 0 44 44"
   enable-background="new 0 0 44 44"
   id="svg2"
   inkscape:version="0.91 r13725"
   sodipodi:docname="magnifying-glass.svg">
  <metadata
     id="metadata14">
    <rdf:RDF>
      <cc:Work
         rdf:about="">
        <dc:format>image/svg+xml</dc:format>
        <dc:type
           rdf:resource="http://purl.org/dc/dcmitype/StillImage" />
      </cc:Work>
    </rdf:RDF>
  </metadata>
  <defs
     id="defs12" />
  <sodipodi:namedview
     pagecolor="#ffffff"
     bordercolor="#666666"
     borderopacity="1"
     objecttolerance="10"
     gridtolerance="10"
     guidetolerance="10"
     inkscape:pageopacity="0"
     inkscape:pageshadow="2"
     inkscape:window-width="1366"
     inkscape:window-height="706"
     id="namedview10"
     showgrid="false"
     inkscape:zoom="5.3636364"
     inkscape:cx="-18.737288"
     inkscape:cy="21.627118"
     inkscape:window-x="-8"
     inkscape:window-y="-8"
     inkscape:window-maximized="1"
     inkscape:current-layer="svg2" />
  <g
     id="g4"
     style="fill:#039bd5;fill-opacity:1">
    <circle
       cx="20"
       cy="20"
       r="7"
       id="circle6"
       style="fill:#039bd5;fill-opacity:1" />
    <path
       d="m22,0c-12.2,0-22,9.8-22,22s9.8,22 22,22 22-9.8 22-22-9.8-22-22-22zm12.7,33.3l-1.4,1.4c-0.4,0.4-1,0.4-1.4,0l-5.4-5.4c-0.2-0.2-0.4-0.2-0.6-0.1-1.7,1.1-3.7,1.7-5.9,1.7-6.1,0-11-4.9-11-11s4.9-11 11-11 11,4.9 11,11c0,2.2-0.6,4.2-1.7,5.9-0.1,0.2-0.1,0.5 0.1,0.6l5.4,5.4c0.3,0.5 0.3,1.1-0.1,1.5z"
       id="path8"
       style="fill:#039bd5;fill-opacity:1" />
  </g>
</svg>
