<?xml version="1.0" encoding="UTF-8" standalone="no"?>
<!-- Created with Inkscape (http://www.inkscape.org/) -->

<svg
   xmlns:osb="http://www.openswatchbook.org/uri/2009/osb"
   xmlns:dc="http://purl.org/dc/elements/1.1/"
   xmlns:cc="http://creativecommons.org/ns#"
   xmlns:rdf="http://www.w3.org/1999/02/22-rdf-syntax-ns#"
   xmlns:svg="http://www.w3.org/2000/svg"
   xmlns="http://www.w3.org/2000/svg"
   xmlns:sodipodi="http://sodipodi.sourceforge.net/DTD/sodipodi-0.dtd"
   xmlns:inkscape="http://www.inkscape.org/namespaces/inkscape"
   id="svg4155"
   version="1.1"
   inkscape:version="0.91 r13725"
   xml:space="preserve"
   width="80"
   height="80"
   viewBox="0 0 80 80"
   sodipodi:docname="messages.svg"
   inkscape:export-filename="C:\Qt\RetroShare\RetroShare\retroshare-gui\src\gui\icons\png\messages.png"
   inkscape:export-xdpi="144"
   inkscape:export-ydpi="144"><metadata
     id="metadata4161"><rdf:RDF><cc:Work
         rdf:about=""><dc:format>image/svg+xml</dc:format><dc:type
           rdf:resource="http://purl.org/dc/dcmitype/StillImage" /><dc:title /></cc:Work></rdf:RDF></metadata><defs
     id="defs4159"><linearGradient
       id="linearGradient4148"
       osb:paint="solid"><stop
         style="stop-color:#7b2a46;stop-opacity:1;"
         offset="0"
         id="stop4150" /></linearGradient></defs><sodipodi:namedview
     pagecolor="#ffffff"
     bordercolor="#666666"
     borderopacity="1"
     objecttolerance="10"
     gridtolerance="10"
     guidetolerance="10"
     inkscape:pageopacity="0"
     inkscape:pageshadow="2"
     inkscape:window-width="1366"
     inkscape:window-height="706"
     id="namedview4157"
     showgrid="true"
     inkscape:zoom="7.2390057"
     inkscape:cx="52.250396"
     inkscape:cy="38.101518"
     inkscape:window-x="-8"
     inkscape:window-y="-8"
     inkscape:window-maximized="1"
     inkscape:current-layer="g4163"
     showguides="false"><inkscape:grid
       type="xygrid"
       id="grid4138" /></sodipodi:namedview><g
     id="g4163"
     inkscape:groupmode="layer"
     inkscape:label="ink_ext_XXXXXX"
     transform="matrix(1.25,0,0,-1.25,0,80)"><path
       inkscape:connector-curvature="0"
       id="path4167"
       style="fill:#039bd5;fill-opacity:1;fill-rule:nonzero;stroke:none"
       d="M 64,32 C 64,14.327 49.673,0 32,0 14.327,0 0,14.327 0,32 0,49.673 14.327,64 32,64 49.673,64 64,49.673 64,32"
       inkscape:export-xdpi="144"
       inkscape:export-ydpi="144" /><rect
       y="-53.716011"
       x="9.6750126"
       style="fill:none;stroke-width:1.7944;stroke-miterlimit:10;stroke-dasharray:none"
       height="44.862545"
       width="44.862545"
       id="rect3"
       transform="scale(1,-1)" /><path
       inkscape:connector-curvature="0"
       d="m 53.28268,19.122821 -12.542211,12.611696 12.576954,12.542211 0,-25.153907 -0.03474,0 z m -40.7535,-2.362523 12.64644,12.646441 2.779437,-2.744695 c 1.042289,-1.042289 2.293036,-1.737149 3.821726,-1.737149 1.528691,0 2.779438,0.69486 3.821727,1.737149 l 2.779437,2.744695 12.64644,-12.646441 -38.495207,0 0,0 z m 38.564693,30.156895 -18.0316,-18.101085 c -0.347429,-0.34743 -0.660116,-0.555887 -1.28549,-0.555887 -0.625373,0 -0.93806,0.208457 -1.28549,0.555887 l -18.031599,18.101085 38.634179,0 0,0 z M 10.270886,44.276728 22.847841,31.734517 10.270886,19.122821 l 0,25.153907 0,0 z"
       id="path8"
       style="fill:#ffffff" /></g></svg>