<?xml version="1.0" encoding="UTF-8" standalone="no"?>
<!-- Created with Inkscape (http://www.inkscape.org/) -->

<svg
   xmlns:dc="http://purl.org/dc/elements/1.1/"
   xmlns:cc="http://creativecommons.org/ns#"
   xmlns:rdf="http://www.w3.org/1999/02/22-rdf-syntax-ns#"
   xmlns:svg="http://www.w3.org/2000/svg"
   xmlns="http://www.w3.org/2000/svg"
   xmlns:sodipodi="http://sodipodi.sourceforge.net/DTD/sodipodi-0.dtd"
   xmlns:inkscape="http://www.inkscape.org/namespaces/inkscape"
   id="svg4155"
   version="1.1"
   inkscape:version="0.92.3 (2405546, 2018-03-11)"
   xml:space="preserve"
   width="128"
   height="128"
   viewBox="0 0 128 128"
   sodipodi:docname="netgraph2.svg"><metadata
     id="metadata4161"><rdf:RDF><cc:Work
         rdf:about=""><dc:format>image/svg+xml</dc:format><dc:type
           rdf:resource="http://purl.org/dc/dcmitype/StillImage" /><dc:title></dc:title></cc:Work></rdf:RDF></metadata><defs
     id="defs4159" /><sodipodi:namedview
     pagecolor="#ffffff"
     bordercolor="#666666"
     borderopacity="1"
     objecttolerance="10"
     gridtolerance="10"
     guidetolerance="10"
     inkscape:pageopacity="0"
     inkscape:pageshadow="2"
     inkscape:window-width="1152"
     inkscape:window-height="801"
     id="namedview4157"
     showgrid="false"
     inkscape:zoom="1.8097514"
     inkscape:cx="63.846549"
     inkscape:cy="58.330325"
     inkscape:window-x="-8"
     inkscape:window-y="-8"
     inkscape:window-maximized="1"
     inkscape:current-layer="g4163"
     units="in" /><g
     id="g4163"
     inkscape:groupmode="layer"
     inkscape:label="ink_ext_XXXXXX"
     transform="matrix(1.25,0,0,-1.25,0,128)"><path
       inkscape:connector-curvature="0"
       style="fill:#039bd5;fill-opacity:1;stroke-width:1.91469252"
       d="m 87.283675,52.339305 c -2.372068,0 -4.470776,-1.187702 -5.736989,-2.99843 l -5.158733,0.893867 c 0.0065,0.193773 0.01609,0.387455 0.01609,0.582848 0,2.289997 -0.454194,4.47511 -1.271842,6.47457 l 8.737195,5.271507 c 1.1757,-0.895385 2.641125,-1.428095 4.229609,-1.428095 3.858487,0 6.997575,3.139087 6.997575,6.997575 0,3.858262 -3.139088,6.997058 -6.997575,6.997058 -3.858262,0 -6.997056,-3.138796 -6.997056,-6.997058 0,-0.40997 0.0372,-0.810983 0.105442,-1.20177 l -8.69366,-5.245174 c -2.637827,3.21579 -6.418577,5.458977 -10.715697,6.103967 v 10.734103 c 3.206344,1.07263 5.525225,4.102248 5.525225,7.665087 3.3e-5,4.456963 -3.626019,8.083242 -8.08269,8.083242 -4.456477,0 -8.082238,-3.62602 -8.082238,-8.083242 0,-3.562839 2.318139,-6.592197 5.524709,-7.665087 V 67.79017 C 50.827458,66.911417 45.934189,63.062376 43.581823,57.83205 l -16.009198,4.917303 c 0.04821,0.395645 0.07571,0.79769 0.07571,1.20611 0,5.490449 -4.466442,9.957376 -9.956633,9.957376 -5.490676,0 -9.9573769,-4.466927 -9.9573769,-9.957376 0,-5.490191 4.4667009,-9.956859 9.9576379,-9.956859 3.253152,0 6.146183,1.568526 7.964322,3.988437 l 16.552158,-5.084068 c -0.08313,-0.684139 -0.131348,-1.379019 -0.131348,-2.085123 0,-4.603511 1.825545,-8.786308 4.786126,-11.871691 L 39.65233,31.271628 c -1.052413,0.469817 -2.216854,0.733246 -3.442141,0.733246 -4.674841,0 -8.477591,-3.803007 -8.477591,-8.477623 0,-4.674097 3.80275,-8.476845 8.477591,-8.476845 4.674095,0 8.477103,3.802748 8.477103,8.476845 0,1.589747 -0.440674,3.077945 -1.204845,4.350823 l 7.449502,7.928771 c 2.463619,-1.369022 5.295799,-2.151894 8.308787,-2.151894 2.878217,0 5.59148,0.715585 7.976874,1.973129 l 7.433106,-11.302363 c -1.810958,-1.804065 -2.933699,-4.298674 -2.933699,-7.050534 0,-5.490449 4.46693,-9.9573763 9.95738,-9.9573763 5.49045,0 9.957376,4.4666663 9.957376,9.9573763 0,5.490192 -4.466926,9.956861 -9.957376,9.956861 -0.894609,0 -1.761625,-0.120338 -2.58694,-0.342945 l -7.742821,11.77293 c 1.829879,1.821986 3.248527,4.054399 4.112468,6.543896 l 4.90223,-0.84935 c 0.480528,-3.393035 3.40274,-6.011415 6.926209,-6.011415 3.858522,0 6.997577,3.139085 6.997577,6.997573 -4.22e-4,3.857746 -3.139574,6.996572 -6.998095,6.996572 z M 47.190515,50.81785 c 0,6.6436 5.405014,12.048647 12.048388,12.048647 6.643858,0 12.048644,-5.405047 12.048644,-12.048647 0,-6.643375 -5.405046,-12.04813 -12.048644,-12.04813 -6.643374,0 -12.048388,5.404755 -12.048388,12.04813 z"
       id="path3" /></g></svg>