<?xml version="1.0" encoding="UTF-8" standalone="no"?>
<!-- Created with Inkscape (http://www.inkscape.org/) -->

<svg
   xmlns:dc="http://purl.org/dc/elements/1.1/"
   xmlns:cc="http://creativecommons.org/ns#"
   xmlns:rdf="http://www.w3.org/1999/02/22-rdf-syntax-ns#"
   xmlns:svg="http://www.w3.org/2000/svg"
   xmlns="http://www.w3.org/2000/svg"
   xmlns:sodipodi="http://sodipodi.sourceforge.net/DTD/sodipodi-0.dtd"
   xmlns:inkscape="http://www.inkscape.org/namespaces/inkscape"
   id="svg4155"
   version="1.1"
   inkscape:version="0.91 r13725"
   xml:space="preserve"
   width="80"
   height="80"
   viewBox="0 0 80 80"
   sodipodi:docname="netgrapgh.svg"><metadata
     id="metadata4161"><rdf:RDF><cc:Work
         rdf:about=""><dc:format>image/svg+xml</dc:format><dc:type
           rdf:resource="http://purl.org/dc/dcmitype/StillImage" /><dc:title></dc:title></cc:Work></rdf:RDF></metadata><defs
     id="defs4159" /><sodipodi:namedview
     pagecolor="#ffffff"
     bordercolor="#666666"
     borderopacity="1"
     objecttolerance="10"
     gridtolerance="10"
     guidetolerance="10"
     inkscape:pageopacity="0"
     inkscape:pageshadow="2"
     inkscape:window-width="1366"
     inkscape:window-height="706"
     id="namedview4157"
     showgrid="false"
     inkscape:zoom="1.8097514"
     inkscape:cx="53.977152"
     inkscape:cy="36.227842"
     inkscape:window-x="-8"
     inkscape:window-y="-8"
     inkscape:window-maximized="1"
     inkscape:current-layer="g4163" /><g
     id="g4163"
     inkscape:groupmode="layer"
     inkscape:label="ink_ext_XXXXXX"
     transform="matrix(1.25,0,0,-1.25,0,80)"><path
       inkscape:connector-curvature="0"
       id="path4167"
       style="fill:#039bd5;fill-opacity:1;fill-rule:nonzero;stroke:none"
       d="M 64,32 C 64,14.327 49.673,0 32,0 14.327,0 0,14.327 0,32 0,49.673 14.327,64 32,64 49.673,64 64,49.673 64,32" /><path
       inkscape:connector-curvature="0"
       style="fill:#ffffff"
       d="m 50.165226,33.471431 c -1.238877,0 -2.334984,-0.620309 -2.996298,-1.566011 l -2.694288,0.466846 c 0.0034,0.101203 0.0084,0.202359 0.0084,0.304408 0,1.196013 -0.237215,2.337248 -0.664254,3.38152 l 4.563237,2.753187 c 0.614041,-0.467639 1.379399,-0.745861 2.209028,-0.745861 2.015199,0 3.654673,1.639473 3.654673,3.654673 0,2.015082 -1.639474,3.654403 -3.654673,3.654403 -2.015082,0 -3.654402,-1.639321 -3.654402,-3.654403 0,-0.214118 0.01943,-0.423558 0.05507,-0.627657 l -4.5405,-2.739434 c -1.377676,1.679533 -3.352275,2.851098 -5.596563,3.187962 l 0,5.606176 c 1.6746,0.56021 2.885699,2.14251 2.885699,4.003299 1.7e-5,2.32777 -1.893787,4.221692 -4.221404,4.221692 -2.327516,0 -4.221168,-1.893787 -4.221168,-4.221692 0,-1.860789 1.210711,-3.442953 2.885429,-4.003299 l 0,-5.606176 C 31.124979,41.082111 28.569337,39.071845 27.34075,36.340166 l -8.361237,2.568195 c 0.02518,0.206636 0.03954,0.416615 0.03954,0.629923 0,2.867536 -2.33272,5.20051 -5.200121,5.20051 -2.867654,0 -5.2005096,-2.332974 -5.2005096,-5.20051 0,-2.867401 2.3328556,-5.200239 5.2006456,-5.200239 1.699047,0 3.210011,0.819205 4.159583,2.083069 l 8.644813,-2.655292 c -0.04342,-0.35731 -0.0686,-0.72023 -0.0686,-1.089012 0,-2.404308 0.95344,-4.588887 2.499684,-6.200312 l -3.766083,-4.008232 c -0.549651,0.245375 -1.157812,0.382958 -1.797752,0.382958 -2.441562,0 -4.427651,-1.986224 -4.427651,-4.427668 0,-2.441174 1.986089,-4.427262 4.427651,-4.427262 2.441173,0 4.427397,1.986088 4.427397,4.427262 0,0.830288 -0.230154,1.60754 -0.629263,2.272335 l 3.890704,4.141015 c 1.286692,-0.715009 2.765875,-1.123885 4.339489,-1.123885 1.503227,0 2.920302,0.373734 4.166139,1.03052 l 3.882141,-5.902965 c -0.945822,-0.942222 -1.532204,-2.245099 -1.532204,-3.682332 0,-2.867536 2.332975,-5.2005097 5.200511,-5.2005097 2.867537,0 5.20051,2.3328377 5.20051,5.2005097 0,2.867401 -2.332973,5.20024 -5.20051,5.20024 -0.467233,0 -0.920056,-0.06285 -1.351099,-0.179112 l -4.043898,6.148731 c 0.955704,0.951582 1.696631,2.11752 2.147848,3.417727 L 46.5488,29.302234 c 0.250969,-1.772104 1.777173,-3.139624 3.6174,-3.139624 2.015218,0 3.654674,1.639472 3.654674,3.654672 -2.2e-4,2.014812 -1.639727,3.654149 -3.654944,3.654149 z M 29.225487,32.67681 c 0,3.4698 2.822915,6.292732 6.292597,6.292732 3.469935,0 6.292731,-2.822932 6.292731,-6.292732 0,-3.469682 -2.822932,-6.292462 -6.292731,-6.292462 -3.469682,0 -6.292597,2.82278 -6.292597,6.292462 z"
       id="path3" /></g></svg>