<?xml version="1.0" encoding="UTF-8" standalone="no"?>
<!-- Created with Inkscape (http://www.inkscape.org/) -->

<svg
   xmlns:dc="http://purl.org/dc/elements/1.1/"
   xmlns:cc="http://creativecommons.org/ns#"
   xmlns:rdf="http://www.w3.org/1999/02/22-rdf-syntax-ns#"
   xmlns:svg="http://www.w3.org/2000/svg"
   xmlns="http://www.w3.org/2000/svg"
   xmlns:sodipodi="http://sodipodi.sourceforge.net/DTD/sodipodi-0.dtd"
   xmlns:inkscape="http://www.inkscape.org/namespaces/inkscape"
   id="svg4155"
   version="1.1"
   inkscape:version="0.91 r13725"
   xml:space="preserve"
   width="80"
   height="80"
   viewBox="0 0 80 80"
   sodipodi:docname="network-puplic.svg"><metadata
     id="metadata4161"><rdf:RDF><cc:Work
         rdf:about=""><dc:format>image/svg+xml</dc:format><dc:type
           rdf:resource="http://purl.org/dc/dcmitype/StillImage" /><dc:title></dc:title></cc:Work></rdf:RDF></metadata><defs
     id="defs4159" /><sodipodi:namedview
     pagecolor="#ffffff"
     bordercolor="#666666"
     borderopacity="1"
     objecttolerance="10"
     gridtolerance="10"
     guidetolerance="10"
     inkscape:pageopacity="0"
     inkscape:pageshadow="2"
     inkscape:window-width="1366"
     inkscape:window-height="706"
     id="namedview4157"
     showgrid="false"
     inkscape:zoom="3.6195029"
     inkscape:cx="32.25547"
     inkscape:cy="36.730796"
     inkscape:window-x="-8"
     inkscape:window-y="-8"
     inkscape:window-maximized="1"
     inkscape:current-layer="g4163" /><g
     id="g4163"
     inkscape:groupmode="layer"
     inkscape:label="ink_ext_XXXXXX"
     transform="matrix(1.25,0,0,-1.25,0,80)"><path
       inkscape:connector-curvature="0"
       id="path4167"
       style="fill:#039bd5;fill-opacity:1;fill-rule:nonzero;stroke:none"
       d="M 64,32 C 64,14.327 49.673,0 32,0 14.327,0 0,14.327 0,32 0,49.673 14.327,64 32,64 49.673,64 64,49.673 64,32" /><path
       inkscape:connector-curvature="0"
       style="fill:#ffffff"
       d="m 51.131021,19.893834 c -2.350751,4.752856 -5.490877,9.298491 -8.762646,13.357376 0.473425,1.843017 0.883961,3.593085 1.24087,5.232295 1.595336,0.146765 2.897477,1.311088 3.25568,2.836539 1.770699,0.236467 3.57667,0.40614 5.40962,0.494559 1.461413,-3.001818 2.282642,-6.370463 2.282642,-9.927293 0,-4.398725 -1.255978,-8.50895 -3.426166,-11.993476 z m -7.79791,31.601998 c -0.102848,-1.00033 -0.3335,-2.980526 -0.779786,-5.704267 -1.612074,-0.316918 -2.848078,-1.684234 -2.969972,-3.35693 -1.498303,-0.347647 -2.958254,-0.73185 -4.373683,-1.143691 -0.639371,0.655627 -1.264437,1.283137 -1.86838,1.877651 -1.299373,1.278897 -2.560561,2.467759 -3.750729,3.555211 0.198774,0.453274 0.310592,0.952718 0.310592,1.478644 0,0.627175 -0.157979,1.217951 -0.434917,1.736085 1.26833,1.662297 2.685378,3.219593 4.263653,4.61958 3.481591,-0.293194 6.742156,-1.373486 9.603222,-3.062283 z m -15.64148,0.08928 c -0.45604,0.20153 -0.958889,0.315457 -1.488562,0.315457 -0.70844,0 -1.368776,-0.203807 -1.931757,-0.55063 -0.63628,0.525434 -1.196338,0.978071 -1.66165,1.348135 2.371228,1.051858 4.954061,1.709262 7.665617,1.889993 -0.920213,-0.954994 -1.779157,-1.960692 -2.583648,-3.002955 z m -1.488562,-7.080856 c 0.629618,0 1.222347,0.158794 1.741778,0.437517 1.457519,-1.33432 3.028797,-2.828249 4.649651,-4.456735 -3.797214,-1.235837 -7.215748,-2.631428 -10.116961,-3.965592 0.930613,2.643624 2.08388,5.365579 3.508403,7.995868 0.07216,-0.0041 0.143674,-0.01107 0.217129,-0.01107 z M 17.953192,29.563413 c -0.141565,-0.608328 -0.273857,-1.208043 -0.397703,-1.798171 -0.477164,0.994003 -0.900865,1.953216 -1.278406,2.869857 0.706653,0.399971 1.456537,0.813274 2.250795,1.235347 -0.209663,-0.790197 -0.401117,-1.561691 -0.574686,-2.307033 z m 0.769712,-9.506524 c 0.130017,0.01169 0.258414,0.02955 0.384369,0.05439 2.326204,-3.555379 5.298774,-7.231347 9.088513,-10.6901851 -3.711887,0.5938571 -7.127174,2.0876171 -10.013278,4.2514681 0.03977,1.036093 0.163993,3.335149 0.540396,6.384265 z m 2.469062,1.275984 c 0.55632,0.64717 0.894862,1.486598 0.894862,2.405027 0,1.50627 -0.906398,2.80273 -2.201229,3.37871 0.132783,0.639694 0.275477,1.290278 0.429549,1.950124 0.316761,1.35724 0.694303,2.801593 1.138972,4.296169 0.180074,0.08813 0.360157,0.176178 0.543477,0.264429 3.387658,1.630439 7.643836,3.426 12.479908,4.925619 1.749085,-1.832785 3.524004,-3.804367 5.247089,-5.884352 C 37.917977,25.879645 35.261677,17.929614 31.387427,9.8320149 27.040555,13.498397 23.719702,17.487869 21.191966,21.332873 Z m 15.901682,17.98345 c 1.014644,0.278244 2.051061,0.541044 3.106491,0.784987 0.280677,-0.416383 0.645541,-0.770202 1.067615,-1.042911 -0.242647,-1.117838 -0.511138,-2.289158 -0.808553,-3.50809 -1.13019,1.322793 -2.260547,2.58203 -3.365553,3.766014 z M 50.958581,44.1558 c -1.466937,-0.09837 -2.915352,-0.245404 -4.341015,-0.434426 -0.349589,0.748912 -0.941345,1.361468 -1.675785,1.73641 0.306518,1.874393 0.513415,3.404386 0.647984,4.518174 2.109231,-1.611593 3.930154,-3.581713 5.368816,-5.820158 z M 20.25112,51.482228 c 0.535354,-0.416551 1.392022,-1.095253 2.48645,-2.001487 -0.147736,-0.398998 -0.232573,-0.828381 -0.232573,-1.278094 0,-1.096225 0.482051,-2.079649 1.242343,-2.757539 -1.843028,-3.443562 -3.239109,-7.016818 -4.29503,-10.380253 -1.472795,-0.739002 -2.827757,-1.46418 -4.055138,-2.152313 -2.025052,5.618137 -2.580724,10.010032 -2.708788,11.303067 1.921202,2.968509 4.514592,5.462432 7.562736,7.266619 z M 10.784086,40.595556 c 0.425165,-2.250807 1.177167,-5.344614 2.491983,-8.907625 -1.72861,-1.02797 -3.097388,-1.917298 -4.056923,-2.567068 -0.1106793,0.907048 -0.1687022,1.830017 -0.1687022,2.766488 0,3.083072 0.6175897,6.024277 1.7336422,8.708205 z M 9.6932293,26.513481 c 0.7983197,0.561687 2.3356327,1.605423 4.4801357,2.894563 0.429068,-1.024878 0.914522,-2.099322 1.461747,-3.210175 -0.585096,-0.654323 -0.944428,-1.514895 -0.944428,-2.459969 0,-1.289956 0.664879,-2.425993 1.66879,-3.088116 -0.255156,-2.006039 -0.403706,-3.708806 -0.489848,-4.988027 -2.979545,2.926566 -5.158671,6.664294 -6.1763967,10.851724 z M 33.768731,9.2197809 c 3.517352,7.4280021 6.0329,14.7219241 7.820985,21.1261851 3.087958,-3.973224 5.898813,-8.273453 7.942556,-12.703699 C 45.743995,12.937359 40.126026,9.7661919 33.768731,9.2197809 Z"
       id="path3" /></g></svg>