<?xml version="1.0" encoding="UTF-8" standalone="no"?>
<!-- Created with Inkscape (http://www.inkscape.org/) -->

<svg
   xmlns:dc="http://purl.org/dc/elements/1.1/"
   xmlns:cc="http://creativecommons.org/ns#"
   xmlns:rdf="http://www.w3.org/1999/02/22-rdf-syntax-ns#"
   xmlns:svg="http://www.w3.org/2000/svg"
   xmlns="http://www.w3.org/2000/svg"
   xmlns:sodipodi="http://sodipodi.sourceforge.net/DTD/sodipodi-0.dtd"
   xmlns:inkscape="http://www.inkscape.org/namespaces/inkscape"
   id="svg4155"
   version="1.1"
   inkscape:version="0.92.3 (2405546, 2018-03-11)"
   xml:space="preserve"
   width="80"
   height="80"
   viewBox="0 0 80 80"
   sodipodi:docname="network-notify.svg"
   inkscape:export-filename="C:\Users\Mustermann\Documents\GitHub\RetroShare\retroshare-gui\src\gui\icons\png\network-notify.png"
   inkscape:export-xdpi="153"
   inkscape:export-ydpi="153"><metadata
     id="metadata4161"><rdf:RDF><cc:Work
         rdf:about=""><dc:format>image/svg+xml</dc:format><dc:type
           rdf:resource="http://purl.org/dc/dcmitype/StillImage" /><dc:title></dc:title></cc:Work></rdf:RDF></metadata><defs
     id="defs4159" /><sodipodi:namedview
     pagecolor="#ffffff"
     bordercolor="#666666"
     borderopacity="1"
     objecttolerance="10"
     gridtolerance="10"
     guidetolerance="10"
     inkscape:pageopacity="0"
     inkscape:pageshadow="2"
     inkscape:window-width="1152"
     inkscape:window-height="801"
     id="namedview4157"
     showgrid="false"
     inkscape:zoom="5.11875"
     inkscape:cx="34.615553"
     inkscape:cy="50.655199"
     inkscape:window-x="-8"
     inkscape:window-y="-8"
     inkscape:window-maximized="1"
     inkscape:current-layer="g4163" /><g
     id="g4163"
     inkscape:groupmode="layer"
     inkscape:label="ink_ext_XXXXXX"
     transform="matrix(1.25,0,0,-1.25,0,80)"><path
       inkscape:connector-curvature="0"
       style="color:#000000;font-style:normal;font-variant:normal;font-weight:normal;font-stretch:normal;font-size:medium;line-height:normal;font-family:sans-serif;text-indent:0;text-align:start;text-decoration:none;text-decoration-line:none;text-decoration-style:solid;text-decoration-color:#000000;letter-spacing:normal;word-spacing:normal;text-transform:none;writing-mode:lr-tb;direction:ltr;baseline-shift:baseline;text-anchor:start;clip-rule:nonzero;display:inline;overflow:visible;visibility:visible;opacity:1;isolation:auto;color-interpolation:sRGB;color-interpolation-filters:linearRGB;fill:#ff990d;fill-opacity:1;fill-rule:nonzero;stroke:none;stroke-width:65.24856567;stroke-linecap:butt;stroke-linejoin:miter;stroke-miterlimit:4;stroke-dasharray:none;stroke-dashoffset:0;stroke-opacity:1;marker:none;color-rendering:auto;image-rendering:auto;shape-rendering:auto;text-rendering:auto;enable-background:accumulate"
       d="m 50.133343,58.745948 a 9.3542817,9.327631 0 0 1 -2.779417,-0.309946 9.3542817,9.327631 0 0 1 -6.892523,-8.278457 l -17.54756,-4.688843 c 1.09498,-1.774681 1.68513,-3.856427 1.62645,-6.004312 l 17.5331,4.685237 a 9.3542817,9.327631 0 0 1 10.123729,-3.733774 9.3542817,9.327631 0 0 1 6.614221,11.424774 9.3542817,9.327631 0 0 1 -8.678,6.905321 z"
       id="path4148" /><path
       inkscape:connector-curvature="0"
       style="color:#000000;font-style:normal;font-variant:normal;font-weight:normal;font-stretch:normal;font-size:medium;line-height:normal;font-family:sans-serif;text-indent:0;text-align:start;text-decoration:none;text-decoration-line:none;text-decoration-style:solid;text-decoration-color:#000000;letter-spacing:normal;word-spacing:normal;text-transform:none;writing-mode:lr-tb;direction:ltr;baseline-shift:baseline;text-anchor:start;clip-rule:nonzero;display:inline;overflow:visible;visibility:visible;opacity:1;isolation:auto;color-interpolation:sRGB;color-interpolation-filters:linearRGB;fill:#ff990d;fill-opacity:1;fill-rule:nonzero;stroke:none;stroke-width:65.24856567;stroke-linecap:butt;stroke-linejoin:miter;stroke-miterlimit:4;stroke-dasharray:none;stroke-dashoffset:0;stroke-opacity:1;marker:none;color-rendering:auto;image-rendering:auto;shape-rendering:auto;text-rendering:auto;enable-background:accumulate"
       d="M 44.05766,40.156364 39.359032,22.676818 a 9.3542878,9.327631 0 0 1 -1.687889,-0.281113 9.3542878,9.327631 0 0 1 -6.617834,-11.424776 9.3542878,9.327631 0 0 1 11.457416,-6.5953735 9.3542878,9.327631 0 0 1 6.614221,11.4247735 9.3542878,9.327631 0 0 1 -3.740829,5.26549 l 4.698626,17.493961 c -2.088848,-0.05811 -4.188962,0.471895 -6.025083,1.596584 z"
       id="path2987-4" /><g
       transform="matrix(1.8505356,0,0,-1.8452633,1316.5043,1667.5043)"
       id="g4159"
       style="fill:#ff990d;fill-opacity:1"><g
         id="g4156"
         style="fill:#ff990d;fill-opacity:1"><path
           inkscape:connector-curvature="0"
           style="color:#000000;font-style:normal;font-variant:normal;font-weight:normal;font-stretch:normal;font-size:medium;line-height:normal;font-family:sans-serif;text-indent:0;text-align:start;text-decoration:none;text-decoration-line:none;text-decoration-style:solid;text-decoration-color:#000000;letter-spacing:normal;word-spacing:normal;text-transform:none;writing-mode:lr-tb;direction:ltr;baseline-shift:baseline;text-anchor:start;clip-rule:nonzero;display:inline;overflow:visible;visibility:visible;opacity:1;isolation:auto;color-interpolation:sRGB;color-interpolation-filters:linearRGB;fill:#ff990d;fill-opacity:1;fill-rule:nonzero;stroke:none;stroke-width:60.50111771;stroke-linecap:butt;stroke-linejoin:miter;stroke-miterlimit:4;stroke-dasharray:none;stroke-dashoffset:0;stroke-opacity:1;marker:none;color-rendering:auto;image-rendering:auto;shape-rendering:auto;text-rendering:auto;enable-background:accumulate"
           d="M 5.2480469,7.4707031 A 5.0549051,5.0549051 0 0 0 3.7460938,7.640625 5.0549051,5.0549051 0 0 0 0.171875,13.830078 5.0549051,5.0549051 0 0 0 6.3632812,17.40625 5.0549051,5.0549051 0 0 0 7.2304688,17.082031 l 6.9394532,6.9375 c 0.53707,-0.9933 1.354986,-1.832209 2.378906,-2.386719 L 9.6152344,14.699219 A 5.0549051,5.0549051 0 0 0 9.9375,11.214844 5.0549051,5.0549051 0 0 0 5.2480469,7.4707031 Z"
           transform="translate(-709.10597,869.59315)"
           id="path4146" /></g></g></g></svg>