<?xml version="1.0" encoding="UTF-8" standalone="no"?>
<!-- Generator: Adobe Illustrator 18.1.1, SVG Export Plug-In . SVG Version: 6.00 Build 0)  -->

<svg
   xmlns:dc="http://purl.org/dc/elements/1.1/"
   xmlns:cc="http://creativecommons.org/ns#"
   xmlns:rdf="http://www.w3.org/1999/02/22-rdf-syntax-ns#"
   xmlns:svg="http://www.w3.org/2000/svg"
   xmlns="http://www.w3.org/2000/svg"
   xmlns:sodipodi="http://sodipodi.sourceforge.net/DTD/sodipodi-0.dtd"
   xmlns:inkscape="http://www.inkscape.org/namespaces/inkscape"
   version="1.1"
   id="Capa_1"
   x="0px"
   y="0px"
   viewBox="0 0 612.003 612.003"
   style="enable-background:new 0 0 612.003 612.003;"
   xml:space="preserve"
   width="512px"
   height="512px"
   sodipodi:docname="new.svg"
   inkscape:version="0.92.3 (2405546, 2018-03-11)"><metadata
   id="metadata41"><rdf:RDF><cc:Work
       rdf:about=""><dc:format>image/svg+xml</dc:format><dc:type
         rdf:resource="http://purl.org/dc/dcmitype/StillImage" /></cc:Work></rdf:RDF></metadata><defs
   id="defs39" /><sodipodi:namedview
   pagecolor="#ffffff"
   bordercolor="#666666"
   borderopacity="1"
   objecttolerance="10"
   gridtolerance="10"
   guidetolerance="10"
   inkscape:pageopacity="0"
   inkscape:pageshadow="2"
   inkscape:window-width="1024"
   inkscape:window-height="705"
   id="namedview37"
   showgrid="false"
   inkscape:zoom="0.4609375"
   inkscape:cx="256"
   inkscape:cy="256"
   inkscape:window-x="-8"
   inkscape:window-y="-8"
   inkscape:window-maximized="1"
   inkscape:current-layer="Capa_1" />
<g
   id="g4"
   style="fill:#039bd5;fill-opacity:1"
   inkscape:export-filename="C:\Users\Mustermann\Documents\GitHub\RetroShare\retroshare-gui\src\gui\icons\png\new.png"
   inkscape:export-xdpi="23.958677"
   inkscape:export-ydpi="23.958677">
	<path
   d="M608.067,333.255l-44.973-71.364c-3.563-5.658-4.764-12.49-3.352-19.022l17.854-82.442   c2.784-12.848-4.649-25.708-17.164-29.724l-80.323-25.759c-6.366-2.043-11.679-6.5-14.795-12.413l-39.315-74.627   c-6.124-11.634-20.082-16.711-32.253-11.743l-78.094,31.902c-6.188,2.522-13.122,2.522-19.31,0L218.261,6.167   c-12.171-4.968-26.129,0.109-32.259,11.743l-39.315,74.62c-3.116,5.913-8.429,10.37-14.795,12.413l-80.322,25.759   c-12.522,4.016-19.948,16.877-17.164,29.724l17.847,82.442c1.418,6.532,0.211,13.365-3.352,19.022L3.934,333.255   c-7.011,11.123-4.425,25.746,5.964,33.805l66.664,51.677c5.287,4.099,8.754,10.102,9.661,16.73l11.424,83.573   c1.775,13.026,13.16,22.573,26.289,22.062l84.288-3.263c6.679-0.262,13.192,2.114,18.154,6.602l62.462,56.677   c9.738,8.831,24.597,8.831,34.328,0l62.469-56.677c4.949-4.495,11.468-6.864,18.154-6.602l84.281,3.263   c13.141,0.511,24.514-9.042,26.295-22.062l11.424-83.573c0.907-6.628,4.374-12.63,9.655-16.73l66.664-51.677   C612.498,359.001,615.078,344.378,608.067,333.255z M235.234,407.92l-74.435-51.99l30.593,70.904l-20.389,8.799l-46.92-108.719   l21.353-9.221l75.84,53.401l-31.34-72.602l20.389-8.806l46.933,108.725L235.234,407.92z M280.468,388.393l-46.92-108.719   l80.616-34.801l7.931,18.396l-58.669,25.318l10.402,24.099l54.589-23.562l7.905,18.32l-54.589,23.556l12.771,29.59l60.738-26.212   l7.905,18.32L280.468,388.393z M464.248,309.08l-56.735-71.945l13.492,90.597L397.2,338.006l-72.871-97.512l22.464-9.706   l48.625,67.609l-12.356-83.253l26.116-11.27l51.831,67.718l-16.091-83.145l22.1-9.54l20.516,120.123L464.248,309.08z"
   fill="#006DF0"
   id="path2"
   style="fill:#039bd5;fill-opacity:1" />
</g>
<g
   id="g6">
</g>
<g
   id="g8">
</g>
<g
   id="g10">
</g>
<g
   id="g12">
</g>
<g
   id="g14">
</g>
<g
   id="g16">
</g>
<g
   id="g18">
</g>
<g
   id="g20">
</g>
<g
   id="g22">
</g>
<g
   id="g24">
</g>
<g
   id="g26">
</g>
<g
   id="g28">
</g>
<g
   id="g30">
</g>
<g
   id="g32">
</g>
<g
   id="g34">
</g>
</svg>