<?xml version="1.0" encoding="UTF-8" standalone="no"?>
<!-- Created with Inkscape (http://www.inkscape.org/) -->

<svg
   xmlns:osb="http://www.openswatchbook.org/uri/2009/osb"
   xmlns:dc="http://purl.org/dc/elements/1.1/"
   xmlns:cc="http://creativecommons.org/ns#"
   xmlns:rdf="http://www.w3.org/1999/02/22-rdf-syntax-ns#"
   xmlns:svg="http://www.w3.org/2000/svg"
   xmlns="http://www.w3.org/2000/svg"
   xmlns:sodipodi="http://sodipodi.sourceforge.net/DTD/sodipodi-0.dtd"
   xmlns:inkscape="http://www.inkscape.org/namespaces/inkscape"
   id="svg4155"
   version="1.1"
   inkscape:version="0.91 r13725"
   xml:space="preserve"
   width="80"
   height="80"
   viewBox="0 0 80 80"
   sodipodi:docname="newsfeed-notify.svg"
   inkscape:export-filename="C:\Qt\RetroShare\RetroShare\retroshare-gui\src\gui\icons\svg\newsfeed.png"
   inkscape:export-xdpi="144"
   inkscape:export-ydpi="144"><metadata
     id="metadata4161"><rdf:RDF><cc:Work
         rdf:about=""><dc:format>image/svg+xml</dc:format><dc:type
           rdf:resource="http://purl.org/dc/dcmitype/StillImage" /><dc:title /></cc:Work></rdf:RDF></metadata><defs
     id="defs4159"><linearGradient
       id="linearGradient4148"
       osb:paint="solid"><stop
         style="stop-color:#7b2a46;stop-opacity:1;"
         offset="0"
         id="stop4150" /></linearGradient></defs><sodipodi:namedview
     pagecolor="#ffffff"
     bordercolor="#666666"
     borderopacity="1"
     objecttolerance="10"
     gridtolerance="10"
     guidetolerance="10"
     inkscape:pageopacity="0"
     inkscape:pageshadow="2"
     inkscape:window-width="1366"
     inkscape:window-height="706"
     id="namedview4157"
     showgrid="false"
     inkscape:zoom="7.2390057"
     inkscape:cx="30.106419"
     inkscape:cy="39.975195"
     inkscape:window-x="-8"
     inkscape:window-y="-8"
     inkscape:window-maximized="1"
     inkscape:current-layer="g4163" /><g
     id="g4163"
     inkscape:groupmode="layer"
     inkscape:label="ink_ext_XXXXXX"
     transform="matrix(1.25,0,0,-1.25,0,80)"><path
       inkscape:connector-curvature="0"
       id="path4167"
       style="fill:#ff990d;fill-opacity:1;fill-rule:nonzero;stroke:none"
       d="M 64,32 C 64,14.327 49.673,0 32,0 14.327,0 0,14.327 0,32 0,49.673 14.327,64 32,64 49.673,64 64,49.673 64,32"
       inkscape:export-xdpi="144"
       inkscape:export-ydpi="144"
       inkscape:export-filename="C:\Qt\RetroShare\RetroShare\retroshare-gui\src\gui\icons\png\newsfeed-notify.png" /><rect
       y="-53.716011"
       x="9.6750126"
       style="fill:none;stroke-width:1.7944;stroke-miterlimit:10;stroke-dasharray:none"
       height="44.862545"
       width="44.862545"
       id="rect3"
       transform="scale(1,-1)" /><g
       transform="matrix(1.2648959,0,0,-1.2648959,12.160624,54.958208)"
       id="news_1_"
       style="fill:#ffffff"><path
         inkscape:connector-curvature="0"
         d="m 4,14 20,0 0,-2 -20,0 0,2 z m 11,12 7,0 0,-2 -7,0 0,2 z m 0,-4 9,0 0,-2 -9,0 0,2 z m 0,-4 9,0 0,-2 -9,0 0,2 z m -11,8 9,0 0,-10 -9,0 0,10 z M 28,10 28,6 0,6 0,28 c 0,0 0,4 4,4 l 25,0 c 0,0 3,-0.062 3,-4 l 0,-18 -4,0 z M 4,30 C 2,30 2,28 2,28 L 2,8 26,8 26,28 c 0,0.921 0.284,1.558 0.676,2 L 4,30 Z"
         id="path7"
         style="fill:#ffffff" /></g></g></svg>