<?xml version="1.0" encoding="UTF-8" standalone="no"?>
<!-- Created with Inkscape (http://www.inkscape.org/) -->

<svg
   xmlns:dc="http://purl.org/dc/elements/1.1/"
   xmlns:cc="http://creativecommons.org/ns#"
   xmlns:rdf="http://www.w3.org/1999/02/22-rdf-syntax-ns#"
   xmlns:svg="http://www.w3.org/2000/svg"
   xmlns="http://www.w3.org/2000/svg"
   xmlns:sodipodi="http://sodipodi.sourceforge.net/DTD/sodipodi-0.dtd"
   xmlns:inkscape="http://www.inkscape.org/namespaces/inkscape"
   id="svg4155"
   version="1.1"
   inkscape:version="0.92.3 (2405546, 2018-03-11)"
   xml:space="preserve"
   width="80"
   height="80"
   viewBox="0 0 80 80"
   sodipodi:docname="options-blank.svg"><metadata
     id="metadata4161"><rdf:RDF><cc:Work
         rdf:about=""><dc:format>image/svg+xml</dc:format><dc:type
           rdf:resource="http://purl.org/dc/dcmitype/StillImage" /><dc:title></dc:title></cc:Work></rdf:RDF></metadata><defs
     id="defs4159" /><sodipodi:namedview
     pagecolor="#ffffff"
     bordercolor="#666666"
     borderopacity="1"
     objecttolerance="10"
     gridtolerance="10"
     guidetolerance="10"
     inkscape:pageopacity="0"
     inkscape:pageshadow="2"
     inkscape:window-width="1152"
     inkscape:window-height="801"
     id="namedview4157"
     showgrid="true"
     inkscape:zoom="5.11875"
     inkscape:cx="41.764889"
     inkscape:cy="40.251477"
     inkscape:window-x="-8"
     inkscape:window-y="-8"
     inkscape:window-maximized="1"
     inkscape:current-layer="g4163"><inkscape:grid
       type="xygrid"
       id="grid4144" /></sodipodi:namedview><g
     id="g4163"
     inkscape:groupmode="layer"
     inkscape:label="ink_ext_XXXXXX"
     transform="matrix(1.25,0,0,-1.25,0,80)"><g
       id="g3"
       transform="matrix(1.03345,0,0,-1.03345,4.1240623,60.304676)"
       style="fill:#039bd5;fill-opacity:1"><path
         d="M 53.188,23.518 50.06,22.916 c -1.842,-0.354 -3.351,-1.607 -4.035,-3.354 -0.686,-1.745 -0.433,-3.69 0.677,-5.203 l 1.964,-2.679 c 0.292,-0.397 0.249,-0.949 -0.1,-1.298 L 44.324,6.14 C 43.985,5.801 43.453,5.75 43.056,6.019 l -2.638,1.786 c -0.91,0.616 -1.958,0.942 -3.033,0.942 -2.713,0 -4.98,-1.941 -5.393,-4.617 L 31.487,0.847 C 31.414,0.36 30.994,0 30.5,0 h -6 c -0.479,0 -0.892,0.341 -0.982,0.812 l -0.777,4.041 c -0.492,2.559 -2.746,4.416 -5.357,4.416 -1.075,0 -2.125,-0.325 -3.033,-0.941 L 10.944,6.02 C 10.547,5.752 10.015,5.802 9.676,6.141 l -4.243,4.242 c -0.349,0.349 -0.391,0.9 -0.1,1.299 l 1.964,2.679 c 1.109,1.512 1.362,3.457 0.677,5.203 -0.686,1.745 -2.194,2.999 -4.036,3.353 L 0.81,23.519 C 0.34,23.608 0,24.021 0,24.5 v 6 c 0,0.493 0.36,0.913 0.848,0.988 l 3.283,0.505 c 1.853,0.285 3.408,1.481 4.157,3.2 0.75,1.72 0.57,3.673 -0.482,5.226 L 6.02,43.057 c -0.269,0.396 -0.218,0.929 0.121,1.268 l 4.242,4.242 c 0.349,0.348 0.899,0.393 1.298,0.1 l 2.679,-1.964 c 0.944,-0.692 2.05,-1.059 3.197,-1.059 2.613,0 4.867,1.857 5.359,4.416 l 0.602,3.129 C 23.608,53.659 24.021,54 24.5,54 h 6 c 0.494,0 0.913,-0.36 0.988,-0.848 l 0.355,-2.309 c 0.466,-3.032 3.067,-4.618 5.396,-4.618 1.146,0 2.25,0.366 3.196,1.06 l 1.884,1.381 c 0.399,0.293 0.95,0.248 1.298,-0.1 l 4.242,-4.242 c 0.339,-0.339 0.39,-0.871 0.121,-1.268 l -1.786,-2.638 c -1.052,-1.553 -1.232,-3.506 -0.482,-5.226 0.75,-1.719 2.304,-2.915 4.157,-3.2 l 3.283,-0.505 C 53.64,31.413 54,30.993 54,30.5 v -6 c 0,-0.479 -0.34,-0.892 -0.812,-0.982 z M 36,27.5 C 36,32.187 32.187,36 27.5,36 22.813,36 19,32.187 19,27.5 19,22.813 22.813,19 27.5,19 c 4.687,0 8.5,3.813 8.5,8.5 z"
         id="path5"
         inkscape:connector-curvature="0"
         style="fill:#039bd5;fill-opacity:1" /><path
         d="M 27.5,22 C 24.467,22 22,24.468 22,27.5 22,30.532 24.467,33 27.5,33 30.533,33 33,30.532 33,27.5 33,24.468 30.533,22 27.5,22 Z"
         id="path7"
         inkscape:connector-curvature="0"
         style="fill:#039bd5;fill-opacity:1" /></g></g></svg>