<?xml version="1.0" encoding="UTF-8" standalone="no"?>
<!-- Created with Inkscape (http://www.inkscape.org/) -->

<svg
   xmlns:dc="http://purl.org/dc/elements/1.1/"
   xmlns:cc="http://creativecommons.org/ns#"
   xmlns:rdf="http://www.w3.org/1999/02/22-rdf-syntax-ns#"
   xmlns:svg="http://www.w3.org/2000/svg"
   xmlns="http://www.w3.org/2000/svg"
   xmlns:sodipodi="http://sodipodi.sourceforge.net/DTD/sodipodi-0.dtd"
   xmlns:inkscape="http://www.inkscape.org/namespaces/inkscape"
   id="svg4155"
   version="1.1"
   inkscape:version="0.91 r13725"
   xml:space="preserve"
   width="80"
   height="80"
   viewBox="0 0 80 80"
   sodipodi:docname="password.svg"><metadata
     id="metadata4161"><rdf:RDF><cc:Work
         rdf:about=""><dc:format>image/svg+xml</dc:format><dc:type
           rdf:resource="http://purl.org/dc/dcmitype/StillImage" /><dc:title></dc:title></cc:Work></rdf:RDF></metadata><defs
     id="defs4159" /><sodipodi:namedview
     pagecolor="#ffffff"
     bordercolor="#666666"
     borderopacity="1"
     objecttolerance="10"
     gridtolerance="10"
     guidetolerance="10"
     inkscape:pageopacity="0"
     inkscape:pageshadow="2"
     inkscape:window-width="1366"
     inkscape:window-height="706"
     id="namedview4157"
     showgrid="false"
     inkscape:zoom="4"
     inkscape:cx="58.388668"
     inkscape:cy="26.810287"
     inkscape:window-x="-8"
     inkscape:window-y="-8"
     inkscape:window-maximized="1"
     inkscape:current-layer="g4163" /><g
     id="g4163"
     inkscape:groupmode="layer"
     inkscape:label="ink_ext_XXXXXX"
     transform="matrix(1.25,0,0,-1.25,0,80)"><path
       inkscape:connector-curvature="0"
       id="path4167"
       style="fill:#039bd5;fill-opacity:1;fill-rule:nonzero;stroke:none"
       d="M 64,32 C 64,14.327 49.673,0 32,0 14.327,0 0,14.327 0,32 0,49.673 14.327,64 32,64 49.673,64 64,49.673 64,32" /><path
       inkscape:connector-curvature="0"
       style="fill:#ffffff"
       d="m 46.424087,35.548069 0,5.917628 c 0,7.93778 -6.457816,14.395593 -14.395592,14.395593 -7.937779,0 -14.39559,-6.457813 -14.39559,-14.395593 l 0,-5.86178 c -0.895103,-0.341509 -1.78065,-1.111894 -1.78065,-2.638029 l 0,-8.059015 c 0,-8.919624 7.256741,-16.176363 16.176363,-16.176363 8.919623,0 16.176116,7.256739 16.176116,16.176363 l 0,8.059015 c 0,1.448075 -0.863829,2.215729 -1.780647,2.582181 z M 35.103086,18.231519 c 0.05063,-0.268294 -0.131297,-0.487813 -0.404301,-0.487813 l -5.27965,0 c -0.273009,0 -0.454934,0.219519 -0.404304,0.487813 l 0.845588,4.481592 c -0.645421,0.588579 -1.050468,1.436283 -1.050468,2.378533 0,1.777558 1.440997,3.218549 3.218544,3.218549 1.777546,0 3.218544,-1.440991 3.218544,-3.218549 0,-0.916689 -0.383827,-1.743168 -0.998847,-2.329385 l 0.854894,-4.53074 z m 6.357174,17.603832 -18.863532,0 0,5.630346 c 0,5.200605 4.231043,9.431762 9.431767,9.431762 5.2006,0 9.431765,-4.231157 9.431765,-9.431762 l 0,-5.630346 z"
       id="path3" /></g></svg>