<?xml version="1.0" encoding="UTF-8" standalone="no"?>
<svg
   width="800px"
   height="800px"
   viewBox="0 0 24 24"
   version="1.1"
   id="svg9"
   sodipodi:docname="paste_image.svg"
   inkscape:version="1.1.1 (3bf5ae0d25, 2021-09-20)"
   xmlns:inkscape="http://www.inkscape.org/namespaces/inkscape"
   xmlns:sodipodi="http://sodipodi.sourceforge.net/DTD/sodipodi-0.dtd"
   xmlns="http://www.w3.org/2000/svg"
   xmlns:svg="http://www.w3.org/2000/svg"
   xmlns:rdf="http://www.w3.org/1999/02/22-rdf-syntax-ns#"
   xmlns:cc="http://creativecommons.org/ns#"
   xmlns:dc="http://purl.org/dc/elements/1.1/">
  <defs
     id="defs13" />
  <sodipodi:namedview
     id="namedview11"
     pagecolor="#ffffff"
     bordercolor="#666666"
     borderopacity="1.0"
     inkscape:pageshadow="2"
     inkscape:pageopacity="0.0"
     inkscape:pagecheckerboard="0"
     showgrid="false"
     inkscape:zoom="0.65"
     inkscape:cx="400.76923"
     inkscape:cy="400.76923"
     inkscape:window-width="1366"
     inkscape:window-height="705"
     inkscape:window-x="-8"
     inkscape:window-y="-8"
     inkscape:window-maximized="1"
     inkscape:current-layer="svg9" />
  <g
     id=""
     stroke="none"
     stroke-width="1"
     fill="none"
     fill-rule="evenodd"
     style="fill:#039bd5;fill-opacity:1"
     transform="matrix(1.0392218,0,0,1.0392218,-1.9428799,-0.49382824)">
    <g
       id=""
       fill="#212121"
       fill-rule="nonzero"
       style="fill:#039bd5;fill-opacity:1">
      <path
         id="🎨-Color"
         style="fill:#039bd5;fill-opacity:1;stroke-width:34.6407"
         transform="matrix(0.02886775,0,0,0.02886775,1.4076686,0.47519042)"
         d="m 306.18945,52.820312 c -40.0879,10e-7 -73.09816,30.310784 -77.36133,69.263668 l -61.08593,0.0176 -5.33594,0.17969 c -40.5569,2.74231 -72.605469,36.50942 -72.605469,77.76172 v 467.80859 l 0.179688,5.33594 c 2.742299,40.55688 36.509321,72.60547 77.761721,72.60547 h 52.125 l 3.52539,-0.23633 c 12.68112,-1.72033 22.45508,-12.58924 22.45508,-25.74219 0,-14.34857 -11.63181,-25.98242 -25.98047,-25.98242 h -52.125 l -3.52539,-0.23633 C 151.53568,691.8754 141.76172,681.00453 141.76172,667.85158 V 200.04297 l 0.23633,-3.52539 c 1.72034,-12.68112 12.5912,-22.45508 25.74414,-22.45508 l 73.84375,-0.006 c 13.97689,20.75897 37.69587,34.41602 64.60351,34.41602 h 121.47461 c 26.90774,0 50.62476,-13.65705 64.60156,-34.41602 l 73.84376,0.006 3.52539,0.23828 c 12.681,1.72034 22.45507,12.58925 22.45507,25.74219 v 51.87305 l 0.23828,3.52539 c 1.72033,12.68102 12.5912,22.45507 25.74415,22.45507 14.34857,0 25.98046,-11.6319 25.98046,-25.98046 v -51.87305 l -0.18164,-5.33594 c -2.74229,-40.5569 -36.50942,-72.60547 -77.76171,-72.60547 l -61.08594,-0.0176 C 500.76027,83.131296 467.75208,52.820313 427.66406,52.820312 Z m 0,51.960938 h 121.47461 c 14.28463,0 25.86328,11.58073 25.86328,25.86523 0,14.28461 -11.57865,25.86329 -25.86328,25.86329 H 306.18945 c -14.2845,0 -25.86523,-11.57868 -25.86523,-25.86329 0,-14.2845 11.58073,-25.86523 25.86523,-25.86523 z m 104.03711,225.16602 c -0.33514,0 -0.66945,0.003 -1.0039,0.006 0.0913,0.10704 0.17843,0.24832 0.26953,0.35743 0.6531,-0.11675 1.30303,-0.25154 1.95703,-0.36328 z m 171.90039,104.82031 c 0.14437,0.15262 0.28921,0.30435 0.4336,0.45703 -0.005,-0.10958 -0.0139,-0.21866 -0.0195,-0.32813 -0.14235,-0.0328 -0.27106,-0.0979 -0.41407,-0.1289 z M 409.08203,623.94336 c -0.34384,0.18716 -0.46718,0.25312 -0.68555,0.37109 8.7e-4,0.001 8e-4,0.003 0.002,0.004 0.16412,-0.0872 0.10477,-0.0549 0.64453,-0.3418 0.0129,-0.011 0.0261,-0.0221 0.0391,-0.0332 z m 209.33789,74.14844 c -0.31273,0.21286 -0.62794,0.42235 -0.94336,0.63086 0.55318,0.008 1.09907,-0.028 1.63477,-0.14258 -0.2314,-0.16229 -0.46355,-0.32441 -0.69141,-0.48828 z" />
    </g>
  </g>
  <g
     transform="matrix(0.03347274,0,0,0.03347274,6.3883953,6.7648694)"
     id="g14">
    <g
       id="g6">
      <g
         id="g4">
        <path
           d="M 426.667,68.267 H 51.2 C 22.923,68.267 0,91.19 0,119.467 V 358.4 c 0,28.277 22.923,51.2 51.2,51.2 h 375.467 c 28.277,0 51.2,-22.923 51.2,-51.2 V 119.467 c 0,-28.277 -22.923,-51.2 -51.2,-51.2 z m 17.066,197.734 -107.4,-107.4 c -6.664,-6.663 -17.468,-6.663 -24.132,0 L 170.667,300.134 114.466,243.933 c -6.664,-6.663 -17.468,-6.663 -24.132,0 L 34.133,300.134 V 119.467 c 0,-9.426 7.641,-17.067 17.067,-17.067 h 375.467 c 9.426,0 17.067,7.641 17.067,17.067 v 146.534 z"
           data-original="#000000"
           class="active-path"
           data-old_color="#000000"
           fill="#039bd5"
           id="path2-3" />
      </g>
    </g>
    <g
       id="g12">
      <g
         id="g10">
        <circle
           cx="153.60001"
           cy="187.733"
           r="51.200001"
           data-original="#000000"
           class="active-path"
           data-old_color="#000000"
           fill="#039bd5"
           id="circle8" />
      </g>
    </g>
  </g>
</svg>
