<?xml version="1.0" encoding="UTF-8" standalone="no"?>
<!-- Created with Inkscape (http://www.inkscape.org/) -->

<svg
   xmlns:dc="http://purl.org/dc/elements/1.1/"
   xmlns:cc="http://creativecommons.org/ns#"
   xmlns:rdf="http://www.w3.org/1999/02/22-rdf-syntax-ns#"
   xmlns:svg="http://www.w3.org/2000/svg"
   xmlns="http://www.w3.org/2000/svg"
   xmlns:sodipodi="http://sodipodi.sourceforge.net/DTD/sodipodi-0.dtd"
   xmlns:inkscape="http://www.inkscape.org/namespaces/inkscape"
   id="svg4155"
   version="1.1"
   inkscape:version="0.91 r13725"
   xml:space="preserve"
   width="80"
   height="80"
   viewBox="0 0 80 80"
   sodipodi:docname="paste.svg"><metadata
     id="metadata4161"><rdf:RDF><cc:Work
         rdf:about=""><dc:format>image/svg+xml</dc:format><dc:type
           rdf:resource="http://purl.org/dc/dcmitype/StillImage" /><dc:title /></cc:Work></rdf:RDF></metadata><defs
     id="defs4159" /><sodipodi:namedview
     pagecolor="#ffffff"
     bordercolor="#666666"
     borderopacity="1"
     objecttolerance="10"
     gridtolerance="10"
     guidetolerance="10"
     inkscape:pageopacity="0"
     inkscape:pageshadow="2"
     inkscape:window-width="1366"
     inkscape:window-height="706"
     id="namedview4157"
     showgrid="true"
     inkscape:zoom="5.11875"
     inkscape:cx="18.247631"
     inkscape:cy="50.207249"
     inkscape:window-x="-8"
     inkscape:window-y="-8"
     inkscape:window-maximized="1"
     inkscape:current-layer="g4163"
     showguides="false"><inkscape:grid
       type="xygrid"
       id="grid4142" /></sodipodi:namedview><g
     id="g4163"
     inkscape:groupmode="layer"
     inkscape:label="ink_ext_XXXXXX"
     transform="matrix(1.25,0,0,-1.25,0,80)"><path
       inkscape:connector-curvature="0"
       id="path4167"
       style="fill:#039bd5;fill-opacity:1;fill-rule:nonzero;stroke:none"
       d="M 64,32 C 64,14.327 49.673,0 32,0 14.327,0 0,14.327 0,32 0,49.673 14.327,64 32,64 49.673,64 64,49.673 64,32" /><g
       id="g3"
       style="fill:#ffffff;fill-opacity:1"
       transform="matrix(0.14477231,0,0,-0.14477231,11.273682,52.969371)"><path
         inkscape:connector-curvature="0"
         style="fill:#ffffff;fill-opacity:1"
         d="m 130.21376,204.922 c 10.62,10.62 16.672,11.031 27.72,0 l 81.212,-83.242 c 7.625,-12.846 1.386,-23.349 -13.856,-23.349 l -36.517,0 0,-80.453 C 188.77476,8.01 180.76476,0 170.89676,0 l -53.635,0 c -9.869,0 -17.877999,8.01 -17.877999,17.878 l 0,80.453 -36.526001,0 c -15.241,0 -21.481,10.512 -13.856,23.349 l 81.212,83.242 z m 139.014,36.436 -250.298,0 c -9.8680005,0 -17.8780005,8.009 -17.8780005,17.878 l 0,8.939 c 0,9.878 8.01,17.878 17.8780005,17.878 l 250.297,0 c 9.869,0 17.878,-8.001 17.878,-17.878 l 0,-8.939 c 10e-4,-9.869 -8.009,-17.878 -17.877,-17.878 z"
         id="path5" /></g><g
       id="g7"
       transform="matrix(0.14859684,0,0,-0.14859684,10.175642,54.063388)" /><g
       id="g9"
       transform="matrix(0.14859684,0,0,-0.14859684,10.175642,54.063388)" /><g
       id="g11"
       transform="matrix(0.14859684,0,0,-0.14859684,10.175642,54.063388)" /><g
       id="g13"
       transform="matrix(0.14859684,0,0,-0.14859684,10.175642,54.063388)" /><g
       id="g15"
       transform="matrix(0.14859684,0,0,-0.14859684,10.175642,54.063388)" /><g
       id="g17"
       transform="matrix(0.14859684,0,0,-0.14859684,10.175642,54.063388)" /><g
       id="g19"
       transform="matrix(0.14859684,0,0,-0.14859684,10.175642,54.063388)" /><g
       id="g21"
       transform="matrix(0.14859684,0,0,-0.14859684,10.175642,54.063388)" /><g
       id="g23"
       transform="matrix(0.14859684,0,0,-0.14859684,10.175642,54.063388)" /><g
       id="g25"
       transform="matrix(0.14859684,0,0,-0.14859684,10.175642,54.063388)" /><g
       id="g27"
       transform="matrix(0.14859684,0,0,-0.14859684,10.175642,54.063388)" /><g
       id="g29"
       transform="matrix(0.14859684,0,0,-0.14859684,10.175642,54.063388)" /><g
       id="g31"
       transform="matrix(0.14859684,0,0,-0.14859684,10.175642,54.063388)" /><g
       id="g33"
       transform="matrix(0.14859684,0,0,-0.14859684,10.175642,54.063388)" /><g
       id="g35"
       transform="matrix(0.14859684,0,0,-0.14859684,10.175642,54.063388)" /></g></svg>