<?xml version="1.0" encoding="UTF-8" standalone="no"?>
<!-- Created with Inkscape (http://www.inkscape.org/) -->

<svg
   xmlns:dc="http://purl.org/dc/elements/1.1/"
   xmlns:cc="http://creativecommons.org/ns#"
   xmlns:rdf="http://www.w3.org/1999/02/22-rdf-syntax-ns#"
   xmlns:svg="http://www.w3.org/2000/svg"
   xmlns="http://www.w3.org/2000/svg"
   xmlns:sodipodi="http://sodipodi.sourceforge.net/DTD/sodipodi-0.dtd"
   xmlns:inkscape="http://www.inkscape.org/namespaces/inkscape"
   id="svg4155"
   version="1.1"
   inkscape:version="0.92.3 (2405546, 2018-03-11)"
   xml:space="preserve"
   width="80"
   height="80"
   viewBox="0 0 80 80"
   sodipodi:docname="people-notify.svg"
   inkscape:export-filename="C:\Users\Mustermann\Documents\GitHub\RetroShare\retroshare-gui\src\gui\icons\png\people-notify.png"
   inkscape:export-xdpi="153.60001"
   inkscape:export-ydpi="153.60001"><metadata
     id="metadata4161"><rdf:RDF><cc:Work
         rdf:about=""><dc:format>image/svg+xml</dc:format><dc:type
           rdf:resource="http://purl.org/dc/dcmitype/StillImage" /><dc:title></dc:title></cc:Work></rdf:RDF></metadata><defs
     id="defs4159" /><sodipodi:namedview
     pagecolor="#ffffff"
     bordercolor="#666666"
     borderopacity="1"
     objecttolerance="10"
     gridtolerance="10"
     guidetolerance="10"
     inkscape:pageopacity="0"
     inkscape:pageshadow="2"
     inkscape:window-width="1152"
     inkscape:window-height="801"
     id="namedview4157"
     showgrid="false"
     inkscape:zoom="5.11875"
     inkscape:cx="27.545788"
     inkscape:cy="41.257386"
     inkscape:window-x="-8"
     inkscape:window-y="-8"
     inkscape:window-maximized="1"
     inkscape:current-layer="g4163" /><g
     id="g4163"
     inkscape:groupmode="layer"
     inkscape:label="ink_ext_XXXXXX"
     transform="matrix(1.25,0,0,-1.25,0,80)"><g
       transform="matrix(0.73469753,0,0,-0.73469753,2.5571465,60.826386)"
       id="g4"
       style="fill:#ff990d;fill-opacity:1"><path
         inkscape:connector-curvature="0"
         d="m 48.355,17.922 c 3.705,2.323 6.303,6.254 6.776,10.817 1.511,0.706 3.188,1.112 4.966,1.112 6.491,0 11.752,-5.261 11.752,-11.751 0,-6.491 -5.261,-11.752 -11.752,-11.752 -6.429,0.002 -11.644,5.169 -11.742,11.574 z m -7.699,24.062 c 6.491,0 11.752,-5.262 11.752,-11.752 0,-6.49 -5.262,-11.751 -11.752,-11.751 -6.49,0 -11.754,5.262 -11.754,11.752 0,6.49 5.264,11.751 11.754,11.751 z m 4.985,0.801 h -9.972 c -8.297,0 -15.047,6.751 -15.047,15.048 v 12.195 l 0.031,0.191 0.84,0.263 c 7.918,2.474 14.797,3.299 20.459,3.299 11.059,0 17.469,-3.153 17.864,-3.354 l 0.785,-0.397 h 0.084 V 57.833 C 60.688,49.536 53.938,42.785 45.641,42.785 Z M 65.084,30.653 h -9.895 c -0.107,3.959 -1.797,7.524 -4.47,10.088 7.375,2.193 12.771,9.032 12.771,17.11 v 3.758 c 9.77,-0.358 15.4,-3.127 15.771,-3.313 l 0.785,-0.398 H 80.13 V 45.699 c 0,-8.296 -6.75,-15.046 -15.046,-15.046 z m -45.049,-0.8 c 2.299,0 4.438,-0.671 6.25,-1.814 0.576,-3.757 2.59,-7.04 5.467,-9.276 0.012,-0.22 0.033,-0.438 0.033,-0.66 0,-6.491 -5.262,-11.752 -11.75,-11.752 -6.492,0 -11.752,5.261 -11.752,11.752 0,6.488 5.26,11.75 11.752,11.75 z M 30.589,40.741 C 27.929,38.19 26.245,34.644 26.122,30.709 25.755,30.682 25.392,30.653 25.018,30.653 H 15.047 C 6.75,30.653 0,37.403 0,45.699 v 12.197 l 0.031,0.188 0.84,0.265 c 6.352,1.983 12.021,2.897 16.945,3.185 v -3.683 c 0.002,-8.078 5.396,-14.915 12.773,-17.11 z"
         id="path2"
         style="fill:#ff990d;fill-opacity:1" /></g></g></svg>