<?xml version="1.0" encoding="UTF-8" standalone="no"?>
<!-- Created with Inkscape (http://www.inkscape.org/) -->

<svg
   xmlns:dc="http://purl.org/dc/elements/1.1/"
   xmlns:cc="http://creativecommons.org/ns#"
   xmlns:rdf="http://www.w3.org/1999/02/22-rdf-syntax-ns#"
   xmlns:svg="http://www.w3.org/2000/svg"
   xmlns="http://www.w3.org/2000/svg"
   xmlns:sodipodi="http://sodipodi.sourceforge.net/DTD/sodipodi-0.dtd"
   xmlns:inkscape="http://www.inkscape.org/namespaces/inkscape"
   id="svg2"
   version="1.1"
   inkscape:version="0.91 r13725"
   xml:space="preserve"
   width="80"
   height="80"
   viewBox="0 0 80 80"
   sodipodi:docname="phone_hangup.svg"><metadata
     id="metadata8"><rdf:RDF><cc:Work
         rdf:about=""><dc:format>image/svg+xml</dc:format><dc:type
           rdf:resource="http://purl.org/dc/dcmitype/StillImage" /><dc:title /></cc:Work></rdf:RDF></metadata><defs
     id="defs6"><clipPath
       clipPathUnits="userSpaceOnUse"
       id="clipPath16"><path
         d="M 0,64 64,64 64,0 0,0 0,64 Z"
         id="path18"
         inkscape:connector-curvature="0" /></clipPath><clipPath
       clipPathUnits="userSpaceOnUse"
       id="clipPath28"><path
         d="m 15.9898,46 32.0204,0 0,-32 -32.0204,0 0,32 z"
         id="path30"
         inkscape:connector-curvature="0" /></clipPath></defs><sodipodi:namedview
     pagecolor="#ffffff"
     bordercolor="#666666"
     borderopacity="1"
     objecttolerance="10"
     gridtolerance="10"
     guidetolerance="10"
     inkscape:pageopacity="0"
     inkscape:pageshadow="2"
     inkscape:window-width="1920"
     inkscape:window-height="1009"
     id="namedview4"
     showgrid="false"
     inkscape:zoom="11.8"
     inkscape:cx="28.811939"
     inkscape:cy="30.729412"
     inkscape:window-x="0"
     inkscape:window-y="0"
     inkscape:window-maximized="1"
     inkscape:current-layer="g10" /><g
     id="g10"
     inkscape:groupmode="layer"
     inkscape:label="Elegant_circle-icons"
     transform="matrix(1.25,0,0,-1.25,0,80)"><path
       inkscape:connector-curvature="0"
       id="path22"
       style="fill:#e32f00;fill-opacity:1;fill-rule:nonzero;stroke:none"
       d="M 64,32 C 64,14.327 49.673,0 32,0 14.327,0 0,14.327 0,32 0,49.673 14.327,64 32,64 49.673,64 64,49.673 64,32" /><g
       id="g24"
       transform="matrix(-0.71598783,-0.69811276,0.69811276,-0.71598783,34.693812,72.75533)"
       style="fill:#000000;fill-opacity:0.15686275"><g
         id="g26"
         style="fill:#000000;fill-opacity:0.15686275" /><g
         id="g32"
         style="fill:#000000;fill-opacity:0.15686275"><g
           clip-path="url(#clipPath28)"
           id="g34"
           style="fill:#000000;fill-opacity:0.15686275"><g
             transform="translate(28.9623,38.657)"
             id="g36"
             style="fill:#000000;fill-opacity:0.15686275"><path
               d="M -0.16661494,-0.03893236 C -0.67627756,4.7461036 -5.7218415,7.0009183 -5.935659,7.0927992 c -0.1997813,0.090152 -0.4232813,0.1138329 -0.6365255,0.0727 -5.7533865,-1.0695003 -6.5572245,-4.4456824 -6.5895095,-4.5863333 -0.0442,-0.1968919 -0.03127,-0.3996798 0.03339,-0.5884642 7.2990396,-21.2287717 21.6849875,-24.9121627 26.413295,-26.1229197 0.363886,-0.09398 0.664377,-0.168179 0.892786,-0.238773 0.109695,-0.03488 0.223964,-0.04768 0.336943,-0.04549 0.154971,0.003 0.309303,0.03899 0.450019,0.106726 0.142697,0.06877 3.511089,1.735247 4.240874,6.974346 0.0326,0.227673 -0.009,0.462913 -0.117903,0.665843 -0.07677,0.142542 -1.919903,3.491513 -6.874117,4.591879 -0.346657,0.08231 -0.69783,-0.0155 -0.959389,-0.247606 -1.5299993,-1.358852 -3.6512044,-2.81616 -4.5762063,-2.980085 -6.27362673,2.918182 -9.8578173,8.6829238 -10.0101885,9.7861826 -0.088018,0.6204134 1.2944651,2.8315716 2.89780155,4.63892656 0.20360842,0.22898168 0.30166934,0.53693632 0.26777431,0.84133758"
               style="fill:#000000;fill-opacity:0.15686275;fill-rule:nonzero;stroke:none"
               id="path38"
               inkscape:connector-curvature="0" /></g></g></g></g><g
       id="g40"
       transform="matrix(-0.70234875,-0.71183301,0.71183301,-0.70234875,41.036155,26.377592)"><path
         d="M 0,0 C -0.417,4.794 -5.418,7.146 -5.63,7.242 -5.828,7.336 -6.051,7.364 -6.265,7.327 -12.038,6.369 -12.907,3.009 -12.942,2.869 -12.99,2.673 -12.981,2.47 -12.92,2.28 c 6.887,-21.366 21.199,-25.327 25.903,-26.629 0.362,-0.101 0.661,-0.181 0.888,-0.256 0.109,-0.037 0.223,-0.052 0.336,-0.052 0.155,0 0.31,0.033 0.452,0.098 0.144,0.066 3.544,1.667 4.375,6.891 0.037,0.227 0,0.463 -0.105,0.668 -0.074,0.144 -1.852,3.528 -6.784,4.724 -0.345,0.089 -0.698,-0.002 -0.964,-0.229 -1.556,-1.329 -3.705,-2.745 -4.633,-2.891 -6.216,3.039 -9.688,8.872 -9.819,9.978 -0.076,0.622 1.349,2.806 2.987,4.582 C -0.076,-0.611 0.028,-0.305 0,0"
         style="fill:#ffffff;fill-opacity:1;fill-rule:nonzero;stroke:none"
         id="path42"
         inkscape:connector-curvature="0" /></g></g></svg>