<?xml version="1.0" encoding="UTF-8" standalone="no"?>
<!-- Created with Inkscape (http://www.inkscape.org/) -->

<svg
   xmlns:dc="http://purl.org/dc/elements/1.1/"
   xmlns:cc="http://creativecommons.org/ns#"
   xmlns:rdf="http://www.w3.org/1999/02/22-rdf-syntax-ns#"
   xmlns:svg="http://www.w3.org/2000/svg"
   xmlns="http://www.w3.org/2000/svg"
   xmlns:sodipodi="http://sodipodi.sourceforge.net/DTD/sodipodi-0.dtd"
   xmlns:inkscape="http://www.inkscape.org/namespaces/inkscape"
   id="svg2"
   version="1.1"
   inkscape:version="0.91 r13725"
   xml:space="preserve"
   width="80"
   height="80"
   viewBox="0 0 80 80"
   sodipodi:docname="phone.svg"><metadata
     id="metadata8"><rdf:RDF><cc:Work
         rdf:about=""><dc:format>image/svg+xml</dc:format><dc:type
           rdf:resource="http://purl.org/dc/dcmitype/StillImage" /><dc:title /></cc:Work></rdf:RDF></metadata><defs
     id="defs6"><clipPath
       clipPathUnits="userSpaceOnUse"
       id="clipPath16"><path
         d="M 0,64 64,64 64,0 0,0 0,64 Z"
         id="path18"
         inkscape:connector-curvature="0" /></clipPath><clipPath
       clipPathUnits="userSpaceOnUse"
       id="clipPath28"><path
         d="m 15.9898,46 32.0204,0 0,-32 -32.0204,0 0,32 z"
         id="path30"
         inkscape:connector-curvature="0" /></clipPath></defs><sodipodi:namedview
     pagecolor="#ffffff"
     bordercolor="#666666"
     borderopacity="1"
     objecttolerance="10"
     gridtolerance="10"
     guidetolerance="10"
     inkscape:pageopacity="0"
     inkscape:pageshadow="2"
     inkscape:window-width="1920"
     inkscape:window-height="1009"
     id="namedview4"
     showgrid="false"
     inkscape:zoom="5.9"
     inkscape:cx="-57.969525"
     inkscape:cy="65.072052"
     inkscape:window-x="0"
     inkscape:window-y="0"
     inkscape:window-maximized="1"
     inkscape:current-layer="g10" /><g
     id="g10"
     inkscape:groupmode="layer"
     inkscape:label="Elegant_circle-icons"
     transform="matrix(1.25,0,0,-1.25,0,80)"><path
       inkscape:connector-curvature="0"
       id="path22"
       style="fill:#039bd5;fill-opacity:1;fill-rule:nonzero;stroke:none"
       d="M 64,32 C 64,14.327 49.673,0 32,0 14.327,0 0,14.327 0,32 0,49.673 14.327,64 32,64 49.673,64 64,49.673 64,32" /><g
       id="g24"
       style="fill:#000000;fill-opacity:0.15686275"><g
         id="g26"
         style="fill:#000000;fill-opacity:0.15686275" /><g
         id="g32"
         style="fill:#000000;fill-opacity:0.15686275"><g
           clip-path="url(#clipPath28)"
           id="g34"
           style="fill:#000000;fill-opacity:0.15686275"><g
             transform="translate(28.9623,38.657)"
             id="g36"
             style="fill:#000000;fill-opacity:0.15686275"><path
               d="M 0,0 C -0.417,4.794 -5.418,7.146 -5.63,7.242 -5.828,7.336 -6.051,7.364 -6.265,7.327 -12.038,6.369 -12.907,3.009 -12.942,2.869 -12.99,2.673 -12.981,2.47 -12.92,2.28 c 6.887,-21.366 21.199,-25.327 25.903,-26.629 0.362,-0.101 0.661,-0.181 0.888,-0.256 0.109,-0.037 0.223,-0.052 0.336,-0.052 0.155,0 0.31,0.033 0.452,0.098 0.144,0.066 3.544,1.667 4.375,6.891 0.037,0.227 0,0.463 -0.105,0.668 -0.074,0.144 -1.852,3.528 -6.784,4.724 -0.345,0.089 -0.698,-0.002 -0.964,-0.229 -1.556,-1.329 -3.705,-2.745 -4.633,-2.891 -6.216,3.039 -9.688,8.872 -9.819,9.978 -0.076,0.622 1.349,2.806 2.987,4.582 C -0.076,-0.611 0.028,-0.305 0,0"
               style="fill:#000000;fill-opacity:0.15686275;fill-rule:nonzero;stroke:none"
               id="path38"
               inkscape:connector-curvature="0" /></g></g></g></g><g
       id="g40"
       transform="translate(28.9623,40.657)"><path
         d="M 0,0 C -0.417,4.794 -5.418,7.146 -5.63,7.242 -5.828,7.336 -6.051,7.364 -6.265,7.327 -12.038,6.369 -12.907,3.009 -12.942,2.869 -12.99,2.673 -12.981,2.47 -12.92,2.28 c 6.887,-21.366 21.199,-25.327 25.903,-26.629 0.362,-0.101 0.661,-0.181 0.888,-0.256 0.109,-0.037 0.223,-0.052 0.336,-0.052 0.155,0 0.31,0.033 0.452,0.098 0.144,0.066 3.544,1.667 4.375,6.891 0.037,0.227 0,0.463 -0.105,0.668 -0.074,0.144 -1.852,3.528 -6.784,4.724 -0.345,0.089 -0.698,-0.002 -0.964,-0.229 -1.556,-1.329 -3.705,-2.745 -4.633,-2.891 -6.216,3.039 -9.688,8.872 -9.819,9.978 -0.076,0.622 1.349,2.806 2.987,4.582 C -0.076,-0.611 0.028,-0.305 0,0"
         style="fill:#ffffff;fill-opacity:1;fill-rule:nonzero;stroke:none"
         id="path42"
         inkscape:connector-curvature="0" /></g></g></svg>