<?xml version="1.0" encoding="UTF-8" standalone="no"?>
<svg
   xmlns:dc="http://purl.org/dc/elements/1.1/"
   xmlns:cc="http://creativecommons.org/ns#"
   xmlns:rdf="http://www.w3.org/1999/02/22-rdf-syntax-ns#"
   xmlns:svg="http://www.w3.org/2000/svg"
   xmlns="http://www.w3.org/2000/svg"
   xmlns:sodipodi="http://sodipodi.sourceforge.net/DTD/sodipodi-0.dtd"
   xmlns:inkscape="http://www.inkscape.org/namespaces/inkscape"
   enable-background="new 0 0 64 64"
   height="64px"
   version="1.1"
   viewBox="0 0 64 64"
   width="64px"
   xml:space="preserve"
   id="svg2"
   inkscape:version="0.92.3 (2405546, 2018-03-11)"
   sodipodi:docname="postedlinks.svg"
   inkscape:export-filename="C:\Users\Mustermann\Documents\GitHub\RetroShare\retroshare-gui\src\gui\icons\png\postedlinks.png"
   inkscape:export-xdpi="192"
   inkscape:export-ydpi="192"><metadata
     id="metadata34"><rdf:RDF><cc:Work
         rdf:about=""><dc:format>image/svg+xml</dc:format><dc:type
           rdf:resource="http://purl.org/dc/dcmitype/StillImage" /><dc:title></dc:title></cc:Work></rdf:RDF></metadata><defs
     id="defs32" /><sodipodi:namedview
     pagecolor="#ffffff"
     bordercolor="#666666"
     borderopacity="1"
     objecttolerance="10"
     gridtolerance="10"
     guidetolerance="10"
     inkscape:pageopacity="0"
     inkscape:pageshadow="2"
     inkscape:window-width="1152"
     inkscape:window-height="801"
     id="namedview30"
     showgrid="false"
     inkscape:zoom="5.2149125"
     inkscape:cx="34.647847"
     inkscape:cy="37.811922"
     inkscape:window-x="-8"
     inkscape:window-y="-8"
     inkscape:window-maximized="1"
     inkscape:current-layer="svg2" /><g
     style="opacity:0.2"
     id="g9"
     transform="matrix(1.2929069,0,0,1.2929069,-8.743574,-10.129018)"><g
       id="g11"><path
         style="fill:#231f20"
         inkscape:connector-curvature="0"
         id="path13"
         d="m 32,11.914 c -12.15,0 -22,9.85 -22,22 0,12.15 9.85,22 22,22 12.15,0 22,-9.85 22,-22 0,-12.15 -9.85,-22 -22,-22 z M 14.053,24.72 c 0.21,0.844 -0.21,2.36 -0.534,4.538 -0.378,2.54 1.647,1.991 1.579,4.393 -0.068,2.402 1.785,3.398 1.544,3.638 -0.24,0.24 -1.201,0.583 0.24,3.707 1.441,3.123 2.677,4.05 2.849,5.731 0.172,1.682 2.025,4.153 2.025,4.153 l 0.103,0.462 c -5.994,-3.501 -10.032,-10 -10.032,-17.428 0,-3.311 0.807,-6.435 2.226,-9.194 z m 9.968,27.086 c -0.103,-0.446 0.103,-2.849 2.986,-3.809 2.883,-0.961 2.402,-2.231 3.26,-3.466 0.858,-1.235 1.03,-2.162 -0.618,-2.54 -1.647,-0.378 -3.363,-0.652 -4.839,-2.986 -1.476,-2.334 -3.535,-2.402 -4.633,-3.123 -1.098,-0.721 -1.991,-0.583 -3.329,-0.755 -1.338,-0.172 -0.892,-3.912 -0.824,-4.736 0.069,-0.824 -0.824,0.275 -1.476,-0.296 -0.652,-0.571 0.618,-3.239 1.888,-3.136 1.27,0.103 0.961,0.721 1.201,2.128 0.24,1.407 0.686,1.064 0.789,0.618 0.103,-0.446 0.172,-2.334 0.618,-2.917 0.446,-0.583 0.549,-2.162 1.991,-2.094 1.441,0.069 1.407,-1.304 2.471,-0.858 1.064,0.446 1.819,0.103 1.133,-0.48 -0.686,-0.583 -0.309,-1.167 0.858,-0.789 1.167,0.378 1.235,-1.682 1.03,-2.746 -0.206,-1.064 -1.064,-1.373 -2.128,-0.721 -1.064,0.652 -1.853,0.378 -1.304,-0.721 0.549,-1.098 2.711,-0.172 4.015,0.378 1.304,0.549 1.647,-1.441 0.927,-2.402 -0.721,-0.961 -0.755,-0.515 -2.814,-0.378 -0.82,0.055 -0.736,-0.386 -0.338,-0.936 2.214,-0.838 4.612,-1.3 7.116,-1.3 2.535,0 4.96,0.474 7.197,1.332 0.282,0.394 0.396,0.704 0.2,0.835 -0.824,0.549 -1.544,0.059 -1.304,1.591 0.24,1.532 1.373,3.352 2.265,2.751 0.892,-0.601 2.437,0.154 1.098,0.978 -1.338,0.824 -1.716,0.755 -2.334,1.304 -0.618,0.549 -0.343,0.275 0.275,0.961 0.618,0.686 0.549,0.824 -0.309,1.167 -0.858,0.343 -1.373,1.098 -0.549,1.956 0.824,0.858 1.373,1.579 2.299,0 0.927,-1.579 1.098,-2.951 1.888,-2.54 0.789,0.412 1.682,1.682 2.265,0.961 0.583,-0.721 0.48,-1.201 1.27,-0.652 0.789,0.549 3.707,0.583 1.75,2.025 -1.956,1.441 -1.613,2.059 -2.54,1.888 -0.927,-0.172 -5.114,-1.064 -6.075,1.27 -0.961,2.334 -4.462,4.187 -2.643,6.452 1.819,2.265 1.407,3.912 4.015,4.256 2.608,0.343 3.947,-0.824 4.599,0.378 0.652,1.202 0.137,1.339 0.172,3.157 0.017,0.902 0.498,2.601 0.978,4.089 -3.672,3.81 -8.821,6.188 -14.518,6.188 -2.868,0 -5.597,-0.606 -8.07,-1.69 0.074,-0.285 0.112,-0.501 0.091,-0.592 z" /></g><g
       id="g15"><path
         style="fill:#231f20"
         inkscape:connector-curvature="0"
         id="path17"
         d="m 32.086,18.207 c 0.632,-0.38 0.686,0.137 1.235,-1.613 0.549,-1.75 -2.059,-1.991 -3.295,-1.785 -1.235,0.206 -0.686,0.721 -0.686,0.721 0.412,0.652 0.684,3.054 -0.053,3.947 -0.736,0.892 0.602,1.064 1.185,0.24 0.585,-0.824 0.93,-1.099 1.614,-1.51 z" /></g></g><g
     id="g19"
     transform="matrix(1.2929069,0,0,1.2929069,-8.743574,-10.129018)"
     style="fill:#039bd5;fill-opacity:1"><g
       id="g21"
       style="fill:#039bd5;fill-opacity:1"><path
         style="fill:#039bd5;fill-opacity:1"
         inkscape:connector-curvature="0"
         id="path23"
         d="m 32,10.087 c -12.15,0 -22,9.85 -22,22 0,12.15 9.85,22 22,22 12.15,0 22,-9.85 22,-22 0,-12.15 -9.85,-22 -22,-22 z M 14.053,22.893 c 0.21,0.844 -0.21,2.36 -0.534,4.538 -0.378,2.54 1.647,1.991 1.579,4.393 -0.068,2.402 1.785,3.398 1.544,3.638 -0.24,0.24 -1.201,0.583 0.24,3.707 1.441,3.123 2.677,4.05 2.849,5.731 0.172,1.682 2.025,4.153 2.025,4.153 l 0.103,0.462 c -5.994,-3.501 -10.032,-10 -10.032,-17.428 0,-3.311 0.807,-6.435 2.226,-9.194 z m 9.968,27.086 c -0.103,-0.446 0.103,-2.849 2.986,-3.809 2.883,-0.961 2.402,-2.231 3.26,-3.466 0.858,-1.235 1.03,-2.162 -0.618,-2.54 C 28.002,39.786 26.286,39.512 24.81,37.178 23.334,34.844 21.275,34.776 20.177,34.055 19.079,33.334 18.186,33.472 16.848,33.3 15.51,33.128 15.956,29.388 16.024,28.564 16.093,27.74 15.2,28.839 14.548,28.268 c -0.652,-0.571 0.618,-3.239 1.888,-3.136 1.27,0.103 0.961,0.721 1.201,2.128 0.24,1.407 0.686,1.064 0.789,0.618 0.103,-0.446 0.172,-2.334 0.618,-2.917 0.446,-0.583 0.549,-2.162 1.991,-2.093 1.441,0.069 1.407,-1.304 2.471,-0.858 1.064,0.446 1.819,0.103 1.133,-0.48 -0.686,-0.583 -0.309,-1.167 0.858,-0.789 1.167,0.378 1.235,-1.682 1.03,-2.746 -0.206,-1.064 -1.064,-1.373 -2.128,-0.721 -1.064,0.652 -1.853,0.378 -1.304,-0.721 0.549,-1.098 2.711,-0.172 4.015,0.378 1.304,0.549 1.647,-1.441 0.927,-2.402 -0.721,-0.961 -0.755,-0.515 -2.814,-0.378 -0.82,0.055 -0.736,-0.386 -0.338,-0.936 2.214,-0.838 4.612,-1.3 7.116,-1.3 2.535,0 4.96,0.474 7.197,1.332 0.282,0.394 0.396,0.704 0.2,0.835 -0.824,0.549 -1.544,0.059 -1.304,1.591 0.24,1.532 1.373,3.352 2.265,2.751 0.892,-0.601 2.437,0.154 1.098,0.978 -1.338,0.824 -1.716,0.755 -2.334,1.304 -0.618,0.549 -0.343,0.275 0.275,0.961 0.618,0.686 0.549,0.824 -0.309,1.167 -0.858,0.343 -1.373,1.098 -0.549,1.956 0.824,0.858 1.373,1.579 2.299,0 0.927,-1.579 1.098,-2.951 1.888,-2.54 0.789,0.412 1.682,1.682 2.265,0.961 0.583,-0.721 0.48,-1.201 1.27,-0.652 0.789,0.549 3.707,0.583 1.75,2.025 -1.956,1.441 -1.613,2.059 -2.54,1.888 -0.927,-0.172 -5.114,-1.064 -6.075,1.27 -0.961,2.334 -4.462,4.187 -2.643,6.452 1.819,2.265 1.407,3.912 4.015,4.256 2.608,0.343 3.947,-0.824 4.599,0.378 0.652,1.201 0.137,1.339 0.172,3.157 0.017,0.902 0.498,2.601 0.978,4.089 -3.672,3.81 -8.821,6.188 -14.518,6.188 -2.868,0 -5.597,-0.606 -8.07,-1.69 0.074,-0.286 0.112,-0.502 0.091,-0.593 z" /></g><g
       id="g25"
       style="fill:#039bd5;fill-opacity:1"><path
         style="fill:#039bd5;fill-opacity:1"
         inkscape:connector-curvature="0"
         id="path27"
         d="m 32.086,16.38 c 0.632,-0.38 0.686,0.137 1.235,-1.613 0.549,-1.75 -2.059,-1.991 -3.295,-1.785 -1.235,0.206 -0.686,0.721 -0.686,0.721 0.412,0.652 0.684,3.054 -0.053,3.947 -0.736,0.892 0.602,1.064 1.185,0.24 0.583,-0.824 0.93,-1.099 1.614,-1.51 z" /></g></g><g
     id="Layer_2"
     transform="matrix(1.2929069,0,0,1.2929069,-9.79543,-9.7783992)" /></svg>