<?xml version="1.0" encoding="UTF-8" standalone="no"?>
<!-- Created with Inkscape (http://www.inkscape.org/) -->

<svg
   xmlns:dc="http://purl.org/dc/elements/1.1/"
   xmlns:cc="http://creativecommons.org/ns#"
   xmlns:rdf="http://www.w3.org/1999/02/22-rdf-syntax-ns#"
   xmlns:svg="http://www.w3.org/2000/svg"
   xmlns="http://www.w3.org/2000/svg"
   xmlns:sodipodi="http://sodipodi.sourceforge.net/DTD/sodipodi-0.dtd"
   xmlns:inkscape="http://www.inkscape.org/namespaces/inkscape"
   id="svg4155"
   version="1.1"
   inkscape:version="0.91 r13725"
   xml:space="preserve"
   width="80"
   height="80"
   viewBox="0 0 80 80"
   sodipodi:docname="profile.svg"><metadata
     id="metadata4161"><rdf:RDF><cc:Work
         rdf:about=""><dc:format>image/svg+xml</dc:format><dc:type
           rdf:resource="http://purl.org/dc/dcmitype/StillImage" /><dc:title></dc:title></cc:Work></rdf:RDF></metadata><defs
     id="defs4159" /><sodipodi:namedview
     pagecolor="#ffffff"
     bordercolor="#666666"
     borderopacity="1"
     objecttolerance="10"
     gridtolerance="10"
     guidetolerance="10"
     inkscape:pageopacity="0"
     inkscape:pageshadow="2"
     inkscape:window-width="1366"
     inkscape:window-height="706"
     id="namedview4157"
     showgrid="false"
     inkscape:zoom="7.2390057"
     inkscape:cx="21.406376"
     inkscape:cy="40.981104"
     inkscape:window-x="-8"
     inkscape:window-y="-8"
     inkscape:window-maximized="1"
     inkscape:current-layer="g4163" /><g
     id="g4163"
     inkscape:groupmode="layer"
     inkscape:label="ink_ext_XXXXXX"
     transform="matrix(1.25,0,0,-1.25,0,80)"><path
       inkscape:connector-curvature="0"
       id="path4167"
       style="fill:#039bd5;fill-opacity:1;fill-rule:nonzero;stroke:none"
       d="M 64,32 C 64,14.327 49.673,0 32,0 14.327,0 0,14.327 0,32 0,49.673 14.327,64 32,64 49.673,64 64,49.673 64,32" /><g
       transform="matrix(0.11606694,0,0,-0.11606694,7.5674886,58.025781)"
       id="g3"><g
         id="g5"><path
           style="fill:#ffffff"
           inkscape:connector-curvature="0"
           d="m 382.93,100.232 -94.965,0 0,-0.833 c 0,-13.808 -11.193,-25 -25,-25 l -17.775,0 c -0.524,-13.343 -11.504,-24 -24.975,-24 l -17.5,0 c -13.471,0 -24.449,10.657 -24.975,24 l -17.775,0 c -13.807,0 -25,11.192 -25,25 l 0,0.833 -94.965,0 c -22.056,0 -40,17.944 -40,40 L 0,332.53 c 0,22.057 17.944,40 40,40 l 342.93,0 c 22.055,0 40,-17.943 40,-40 l 0,-192.298 c 0,-22.056 -17.946,-40 -40,-40 z M 211.465,74.714 c 8.422,0 15.25,6.827 15.25,15.25 0,8.423 -6.828,15.25 -15.25,15.25 -8.422,0 -15.25,-6.827 -15.25,-15.25 0,-8.423 6.828,-15.25 15.25,-15.25 z M 392.93,332.529 c 0,5.515 -4.486,10 -10,10 l -342.93,0 c -5.514,0 -10,-4.485 -10,-10 l 0,-192.297 c 0,-5.514 4.486,-10 10,-10 l 95.518,0 0,0.065 c 0,13.808 11.193,25 25,25 l 101.895,0 c 13.807,0 25,-11.192 25,-25 l 0,-0.065 95.518,0 c 5.515,0 10,4.486 10,10 l -10e-4,192.297 0,0 z"
           id="path7" /><path
           style="fill:#ffffff"
           inkscape:connector-curvature="0"
           d="m 353.165,184.131 -138.066,0 c -5.522,0 -10,4.477 -10,10 0,5.523 4.478,10 10,10 l 138.066,0 c 5.521,0 10,-4.477 10,-10 0,-5.523 -4.477,-10 -10,-10 z"
           id="path9" /><path
           style="fill:#ffffff"
           inkscape:connector-curvature="0"
           d="m 353.165,234.132 -138.066,0 c -5.522,0 -10,4.477 -10,10 0,5.522 4.478,10 10,10 l 138.066,0 c 5.521,0 10,-4.478 10,-10 0,-5.524 -4.477,-10 -10,-10 z"
           id="path11" /><path
           style="fill:#ffffff"
           inkscape:connector-curvature="0"
           d="m 353.165,284.132 -138.066,0 c -5.522,0 -10,4.477 -10,10 0,5.522 4.478,10 10,10 l 138.066,0 c 5.521,0 10,-4.478 10,-10 0,-5.524 -4.477,-10 -10,-10 z"
           id="path13" /><path
           style="fill:#ffffff"
           inkscape:connector-curvature="0"
           d="m 154.844,264.318 -17.537,-8.074 -8.424,-7.104 -13.059,12.988 6.01,40.172 c 0.021,0.146 -0.016,0.297 -0.104,0.418 l -6.716,9.189 c -0.106,0.146 -0.276,0.232 -0.458,0.232 -0.182,0 -0.352,-0.086 -0.459,-0.232 l -6.715,-9.189 c -0.088,-0.121 -0.125,-0.271 -0.104,-0.418 l 6.01,-40.174 -13.057,-12.986 -8.424,7.104 -17.538,8.074 c -2.595,1.063 -5.655,3.222 -6.441,5.496 0,0 -19.063,45.383 -8.724,45.383 l 110.903,0 c 10.339,0 -8.723,-45.383 -8.723,-45.383 -1.128,-2.701 -3.845,-4.43 -6.44,-5.496 z"
           id="path15" /><path
           style="fill:#ffffff"
           inkscape:connector-curvature="0"
           d="m 114.557,248.884 c 17.937,0 31.32,-16.711 31.625,-44.734 0.195,-19.447 -9.066,-31.084 -31.625,-31.084 -22.559,0 -31.822,11.637 -31.625,31.084 0.304,28.023 13.689,44.734 31.625,44.734 z"
           id="path17" /></g></g></g></svg>