<?xml version="1.0" encoding="UTF-8" standalone="no"?>
<!-- Created with Inkscape (http://www.inkscape.org/) -->

<svg
   xmlns:dc="http://purl.org/dc/elements/1.1/"
   xmlns:cc="http://creativecommons.org/ns#"
   xmlns:rdf="http://www.w3.org/1999/02/22-rdf-syntax-ns#"
   xmlns:svg="http://www.w3.org/2000/svg"
   xmlns="http://www.w3.org/2000/svg"
   xmlns:sodipodi="http://sodipodi.sourceforge.net/DTD/sodipodi-0.dtd"
   xmlns:inkscape="http://www.inkscape.org/namespaces/inkscape"
   id="svg4155"
   version="1.1"
   inkscape:version="0.91 r13725"
   xml:space="preserve"
   width="80"
   height="80"
   viewBox="0 0 80 80"
   sodipodi:docname="randomness.svg"><metadata
     id="metadata4161"><rdf:RDF><cc:Work
         rdf:about=""><dc:format>image/svg+xml</dc:format><dc:type
           rdf:resource="http://purl.org/dc/dcmitype/StillImage" /><dc:title></dc:title></cc:Work></rdf:RDF></metadata><defs
     id="defs4159" /><sodipodi:namedview
     pagecolor="#ffffff"
     bordercolor="#666666"
     borderopacity="1"
     objecttolerance="10"
     gridtolerance="10"
     guidetolerance="10"
     inkscape:pageopacity="0"
     inkscape:pageshadow="2"
     inkscape:window-width="1366"
     inkscape:window-height="706"
     id="namedview4157"
     showgrid="false"
     inkscape:zoom="5.11875"
     inkscape:cx="54.735476"
     inkscape:cy="40.772004"
     inkscape:window-x="-8"
     inkscape:window-y="-8"
     inkscape:window-maximized="1"
     inkscape:current-layer="g4163" /><g
     id="g4163"
     inkscape:groupmode="layer"
     inkscape:label="ink_ext_XXXXXX"
     transform="matrix(1.25,0,0,-1.25,0,80)"><path
       inkscape:connector-curvature="0"
       id="path4167"
       style="fill:#039bd5;fill-opacity:1;fill-rule:nonzero;stroke:none"
       d="M 64,32 C 64,14.327 49.673,0 32,0 14.327,0 0,14.327 0,32 0,49.673 14.327,64 32,64 49.673,64 64,49.673 64,32" /><g
       transform="matrix(1.4341283,-0.03685349,-0.03685349,-1.4341283,6.7291558,58.393566)"
       id="g3"><g
         id="g5"><polygon
           style="fill:#ffffff"
           points="11.78,8.598 7.526,6.141 7.526,11.054 "
           id="polygon7" /><polygon
           style="fill:#ffffff"
           points="11.78,14.738 7.526,12.282 7.526,17.193 "
           id="polygon9" /><polygon
           style="fill:#ffffff"
           points="11.78,27.02 7.526,24.562 7.526,29.475 "
           id="polygon11" /><polygon
           style="fill:#ffffff"
           points="12.135,27.635 7.881,30.09 12.135,32.546 "
           id="polygon13" /><polygon
           style="fill:#ffffff"
           points="12.135,15.352 7.881,17.809 12.135,20.266 "
           id="polygon15" /><polygon
           style="fill:#ffffff"
           points="12.135,9.211 7.881,11.668 12.135,14.124 "
           id="polygon17" /><polygon
           style="fill:#ffffff"
           points="12.135,3.071 7.881,5.527 12.135,7.983 "
           id="polygon19" /><polygon
           style="fill:#ffffff"
           points="17.099,5.527 12.844,3.071 12.844,7.983 "
           id="polygon21" /><polygon
           style="fill:#ffffff"
           points="17.099,11.668 12.844,9.211 12.844,14.124 "
           id="polygon23" /><polygon
           style="fill:#ffffff"
           points="17.099,17.809 12.844,15.352 12.844,20.266 "
           id="polygon25" /><polygon
           style="fill:#ffffff"
           points="17.099,23.949 12.844,21.493 12.844,26.405 "
           id="polygon27" /><polygon
           style="fill:#ffffff"
           points="17.099,30.09 12.844,27.635 12.844,32.546 "
           id="polygon29" /><polygon
           style="fill:#ffffff"
           points="17.453,30.704 13.199,33.16 17.453,35.616 "
           id="polygon31" /><polygon
           style="fill:#ffffff"
           points="17.453,24.562 13.199,27.02 17.453,29.475 "
           id="polygon33" /><polygon
           style="fill:#ffffff"
           points="17.453,18.422 13.199,20.879 17.453,23.335 "
           id="polygon35" /><polygon
           style="fill:#ffffff"
           points="17.453,12.282 13.199,14.738 17.453,17.193 "
           id="polygon37" /><polygon
           style="fill:#ffffff"
           points="17.453,0 13.199,2.456 17.453,4.913 "
           id="polygon39" /><polygon
           style="fill:#ffffff"
           points="6.462,11.668 2.208,9.211 2.208,14.124 "
           id="polygon41" /><polygon
           style="fill:#ffffff"
           points="6.462,17.809 2.208,15.352 2.208,20.266 "
           id="polygon43" /><polygon
           style="fill:#ffffff"
           points="6.462,23.949 2.208,21.493 2.208,26.405 "
           id="polygon45" /><polygon
           style="fill:#ffffff"
           points="6.817,24.562 2.562,27.02 6.817,29.475 "
           id="polygon47" /><polygon
           style="fill:#ffffff"
           points="6.817,18.422 2.562,20.879 6.817,23.335 "
           id="polygon49" /><polygon
           style="fill:#ffffff"
           points="6.817,12.282 2.562,14.738 6.817,17.193 "
           id="polygon51" /><polygon
           style="fill:#ffffff"
           points="6.817,6.141 2.562,8.598 6.817,11.054 "
           id="polygon53" /><polygon
           style="fill:#ffffff"
           points="22.416,2.456 18.162,0 18.162,4.913 "
           id="polygon55" /><polygon
           style="fill:#ffffff"
           points="22.416,14.738 18.162,12.282 18.162,17.193 "
           id="polygon57" /><polygon
           style="fill:#ffffff"
           points="22.416,20.879 18.162,18.422 18.162,23.335 "
           id="polygon59" /><polygon
           style="fill:#ffffff"
           points="22.416,27.02 18.162,24.562 18.162,29.475 "
           id="polygon61" /><polygon
           style="fill:#ffffff"
           points="22.416,33.16 18.162,30.704 18.162,35.616 "
           id="polygon63" /><polygon
           style="fill:#ffffff"
           points="22.771,27.635 18.517,30.09 22.771,32.546 "
           id="polygon65" /><polygon
           style="fill:#ffffff"
           points="22.771,21.493 18.517,23.949 22.771,26.405 "
           id="polygon67" /><polygon
           style="fill:#ffffff"
           points="22.771,15.352 18.517,17.809 22.771,20.266 "
           id="polygon69" /><polygon
           style="fill:#ffffff"
           points="22.771,9.211 18.517,11.668 22.771,14.124 "
           id="polygon71" /><polygon
           style="fill:#ffffff"
           points="22.771,3.071 18.517,5.527 22.771,7.983 "
           id="polygon73" /><polygon
           style="fill:#ffffff"
           points="27.735,5.527 23.479,3.071 23.479,7.983 "
           id="polygon75" /><polygon
           style="fill:#ffffff"
           points="27.735,11.668 23.479,9.211 23.479,14.124 "
           id="polygon77" /><polygon
           style="fill:#ffffff"
           points="27.735,17.809 23.479,15.352 23.479,20.266 "
           id="polygon79" /><polygon
           style="fill:#ffffff"
           points="27.735,30.09 23.479,27.635 23.479,32.546 "
           id="polygon81" /><polygon
           style="fill:#ffffff"
           points="28.089,24.562 23.835,27.02 28.089,29.475 "
           id="polygon83" /><polygon
           style="fill:#ffffff"
           points="28.089,12.282 23.835,14.738 28.089,17.193 "
           id="polygon85" /><polygon
           style="fill:#ffffff"
           points="28.089,6.141 23.835,8.598 28.089,11.054 "
           id="polygon87" /><polygon
           style="fill:#ffffff"
           points="33.052,8.598 28.798,6.141 28.798,11.054 "
           id="polygon89" /><polygon
           style="fill:#ffffff"
           points="33.052,14.738 28.798,12.282 28.798,17.193 "
           id="polygon91" /><polygon
           style="fill:#ffffff"
           points="33.052,20.879 28.798,18.422 28.798,23.335 "
           id="polygon93" /><polygon
           style="fill:#ffffff"
           points="33.052,27.02 28.798,24.562 28.798,29.475 "
           id="polygon95" /><polygon
           style="fill:#ffffff"
           points="33.408,21.493 29.153,23.949 33.408,26.405 "
           id="polygon97" /><polygon
           style="fill:#ffffff"
           points="33.408,15.352 29.153,17.809 33.408,20.266 "
           id="polygon99" /><polygon
           style="fill:#ffffff"
           points="33.408,9.211 29.153,11.668 33.408,14.124 "
           id="polygon101" /></g></g></g></svg>