<?xml version="1.0"?>
<svg xmlns="http://www.w3.org/2000/svg" xmlns:xlink="http://www.w3.org/1999/xlink" version="1.1" id="Capa_1" x="0px" y="0px" viewBox="0 0 512 512" style="enable-background:new 0 0 512 512;" xml:space="preserve" width="512" height="512" class="hovered-paths"><g transform="matrix(0.922745 0 0 0.922745 19.7773 19.7773)"><g>
	<g>
		<g>
			<path d="M0,64v384h512V64H0z M480,416H32V96h448V416z" data-original="#000000" class="hovered-path active-path" style="fill:#039BD5" data-old_color="#000000"/>
			<polygon points="96,160 160,160 160,128 64,128 64,224 96,224    " data-original="#000000" class="hovered-path active-path" style="fill:#039BD5" data-old_color="#000000"/>
			<polygon points="448,288 416,288 416,352 352,352 352,384 448,384    " data-original="#000000" class="hovered-path active-path" style="fill:#039BD5" data-old_color="#000000"/>
			<rect x="192" y="128" width="32" height="32" data-original="#000000" class="hovered-path active-path" style="fill:#039BD5" data-old_color="#000000"/>
			<rect x="64" y="256" width="32" height="32" data-original="#000000" class="hovered-path active-path" style="fill:#039BD5" data-old_color="#000000"/>
			<rect x="416" y="224" width="32" height="32" data-original="#000000" class="hovered-path active-path" style="fill:#039BD5" data-old_color="#000000"/>
			<rect x="288" y="352" width="32" height="32" data-original="#000000" class="hovered-path active-path" style="fill:#039BD5" data-old_color="#000000"/>
		</g>
	</g>
</g></g> </svg>
