<?xml version="1.0"?>
<svg xmlns="http://www.w3.org/2000/svg" height="512" viewBox="0 -64 512 512" width="512"><g transform="matrix(0.922745 0 0 0.922745 19.7773 14.833)"><path d="m390.398438 209.066406h-32c-21.332032 0-38.398438-17.066406-38.398438-38.398437v-25.601563c0-10.667968 6.398438-17.066406 17.066406-17.066406 10.667969 0 17.066406 6.398438 17.066406 17.066406v25.601563c0 2.132812 2.132813 6.398437 6.402344 6.398437h32c8.53125 0 17.066406 6.398438 17.066406 17.066406 0 10.667969-10.667968 14.933594-19.203124 14.933594zm0 0" data-original="#000000" class="active-path" data-old_color="#000000" style="fill:#039BD5"/><path d="m390.398438 256c-8.53125 0-17.066407-6.398438-17.066407-17.066406v-93.867188c0-8.53125 6.402344-17.066406 17.066407-17.066406 10.667968 0 14.933593 6.398438 14.933593 17.066406v96c0 8.535156-6.398437 14.933594-14.933593 14.933594zm0 0" data-original="#000000" class="active-path" data-old_color="#000000" style="fill:#039BD5"/><path d="m177.066406 209.066406h-53.332031c-10.667969 0-17.066406-8.53125-17.066406-17.066406s6.398437-17.066406 17.066406-17.066406h53.332031c8.535156 2.132812 14.933594 8.53125 14.933594 17.066406s-6.398438 17.066406-14.933594 17.066406zm0 0" data-original="#000000" class="active-path" data-old_color="#000000" style="fill:#039BD5"/><path d="m155.734375 256h-32c-10.667969 0-17.066406-6.398438-17.066406-14.933594 0-8.53125 6.398437-17.066406 17.066406-17.066406h32c2.132813 0 6.398437-2.132812 6.398437-6.398438v-53.335937c0-2.132813-2.132812-6.398437-6.398437-6.398437h-32c-10.667969 2.132812-17.066406-4.265626-17.066406-12.800782 0-8.53125 6.398437-17.066406 17.066406-17.066406h32c19.199219 0 36.265625 17.066406 36.265625 38.398438v53.335937c0 19.199219-17.066406 36.265625-36.265625 36.265625zm0 0" data-original="#000000" class="active-path" data-old_color="#000000" style="fill:#039BD5"/><path d="m277.332031 149.332031c0 11.785157-9.550781 21.335938-21.332031 21.335938s-21.332031-9.550781-21.332031-21.335938c0-11.78125 9.550781-21.332031 21.332031-21.332031s21.332031 9.550781 21.332031 21.332031zm0 0" data-original="#000000" class="active-path" data-old_color="#000000" style="fill:#039BD5"/><path d="m277.332031 234.667969c0 11.78125-9.550781 21.332031-21.332031 21.332031s-21.332031-9.550781-21.332031-21.332031c0-11.785157 9.550781-21.335938 21.332031-21.335938s21.332031 9.550781 21.332031 21.335938zm0 0" data-original="#000000" class="active-path" data-old_color="#000000" style="fill:#039BD5"/><path d="m454.398438 384h-394.664063c-34.132813 0-59.734375-25.601562-59.734375-57.601562v-266.664063c0-34.132813 25.601562-59.734375 59.734375-59.734375h394.664063c32 0 57.601562 25.601562 57.601562 59.734375v266.664063c0 32-25.601562 57.601562-57.601562 57.601562zm-394.664063-352c-14.933594 0-27.734375 12.800781-27.734375 27.734375v266.664063c0 14.933593 12.800781 27.734374 27.734375 27.734374h394.664063c14.933593 0 27.734374-12.800781 27.734374-27.734374v-266.664063c0-14.933594-12.800781-27.734375-27.734374-27.734375zm0 0" data-original="#000000" class="active-path" data-old_color="#000000" style="fill:#039BD5"/></g> </svg>
