<?xml version="1.0"?>
<svg xmlns="http://www.w3.org/2000/svg" height="512" viewBox="0 -64 512 512" width="512" class=""><g transform="matrix(0.932065 0 0 0.932065 17.3913 13.0434)"><path d="m454.398438 384h-394.664063c-34.132813 0-59.734375-25.601562-59.734375-57.601562v-266.664063c0-34.132813 25.601562-59.734375 59.734375-59.734375h394.664063c32 0 57.601562 25.601562 57.601562 59.734375v266.664063c0 32-25.601562 57.601562-57.601562 57.601562zm-394.664063-352c-14.933594 0-27.734375 12.800781-27.734375 27.734375v266.664063c0 14.933593 12.800781 27.734374 27.734375 27.734374h394.664063c14.933593 0 27.734374-12.800781 27.734374-27.734374v-266.664063c0-14.933594-12.800781-27.734375-27.734374-27.734375zm0 0" data-original="#000000" class="active-path" style="fill:#039BD5" data-old_color="#000000"/><path d="m177.066406 256h-10.667968c-21.332032 0-38.398438-17.066406-38.398438-38.398438v-53.335937c0-19.199219 17.066406-36.265625 38.398438-36.265625h32c8.535156 0 14.933593 6.398438 14.933593 17.066406 0 10.667969-6.398437 17.066406-17.066406 17.066406h-29.867187c-2.132813 0-6.398438 2.132813-6.398438 6.402344v10.664063h17.066406c21.332032 0 38.398438 17.066406 38.398438 38.402343v6.398438c-2.132813 14.933594-19.199219 32-38.398438 32zm-17.066406-46.933594v10.667969c0 2.132813 2.132812 6.398437 6.398438 6.398437h10.667968c2.132813 0 6.398438-2.132812 6.398438-6.398437v-6.402344c0-2.132812-2.132813-6.398437-6.398438-6.398437h-17.066406zm0 0" data-original="#000000" class="active-path" style="fill:#039BD5" data-old_color="#000000"/><path d="m390.398438 256h-32c-8.53125 0-17.066407-6.398438-17.066407-17.066406 0-10.667969 6.402344-17.066406 17.066407-17.066406h32c2.136718 0 6.402343-2.132813 6.402343-6.402344v-10.664063h-17.066406c-21.335937 0-38.402344-17.066406-38.402344-38.402343v-6.398438c0-21.332031 17.066407-38.398438 38.402344-38.398438h10.664063c21.335937 0 38.402343 17.066407 38.402343 38.398438v53.332031c-2.132812 25.601563-19.199219 42.667969-38.402343 42.667969zm-10.664063-96c-2.132813 0-6.402344 2.132812-6.402344 6.398438v4.269531c0 2.132812 2.132813 6.398437 6.402344 6.398437h17.066406v-10.667968c0-2.132813-2.132812-6.398438-6.402343-6.398438zm0 0" data-original="#000000" class="active-path" style="fill:#039BD5" data-old_color="#000000"/><path d="m91.734375 256c-8.535156 0-17.066406-6.398438-17.066406-17.066406v-93.867188c0-10.667968 6.398437-17.066406 17.066406-17.066406 10.664063 0 14.933594 6.398438 14.933594 17.066406v96c0 8.535156-6.402344 14.933594-14.933594 14.933594zm0 0" data-original="#000000" class="active-path" style="fill:#039BD5" data-old_color="#000000"/><path d="m298.667969 149.332031c0 11.785157-9.550781 21.335938-21.335938 21.335938-11.78125 0-21.332031-9.550781-21.332031-21.335938 0-11.78125 9.550781-21.332031 21.332031-21.332031 11.785157 0 21.335938 9.550781 21.335938 21.332031zm0 0" data-original="#000000" class="active-path" style="fill:#039BD5" data-old_color="#000000"/><path d="m298.667969 234.667969c0 11.78125-9.550781 21.332031-21.335938 21.332031-11.78125 0-21.332031-9.550781-21.332031-21.332031 0-11.785157 9.550781-21.335938 21.332031-21.335938 11.785157 0 21.335938 9.550781 21.335938 21.335938zm0 0" data-original="#000000" class="active-path" style="fill:#039BD5" data-old_color="#000000"/></g> </svg>
