<?xml version="1.0" encoding="UTF-8" standalone="no"?>
<!-- Created with Inkscape (http://www.inkscape.org/) -->

<svg
   xmlns:dc="http://purl.org/dc/elements/1.1/"
   xmlns:cc="http://creativecommons.org/ns#"
   xmlns:rdf="http://www.w3.org/1999/02/22-rdf-syntax-ns#"
   xmlns:svg="http://www.w3.org/2000/svg"
   xmlns="http://www.w3.org/2000/svg"
   xmlns:sodipodi="http://sodipodi.sourceforge.net/DTD/sodipodi-0.dtd"
   xmlns:inkscape="http://www.inkscape.org/namespaces/inkscape"
   width="31.607157"
   height="31.875002"
   id="svg6043"
   version="1.1"
   inkscape:version="0.48+devel_64bit r13443"
   viewBox="0 0 31.607157 31.875003"
   sodipodi:docname="retroshare-symbol_black_bg.svg">
  <defs
     id="defs6045" />
  <sodipodi:namedview
     id="base"
     pagecolor="#ffffff"
     bordercolor="#666666"
     borderopacity="1.0"
     inkscape:pageopacity="0.0"
     inkscape:pageshadow="2"
     inkscape:zoom="11.2"
     inkscape:cx="-16.501683"
     inkscape:cy="-4.9969993"
     inkscape:document-units="px"
     inkscape:current-layer="layer1"
     showgrid="false"
     fit-margin-top="0"
     fit-margin-left="0"
     fit-margin-right="0"
     fit-margin-bottom="0"
     inkscape:window-width="1920"
     inkscape:window-height="1033"
     inkscape:window-x="-4"
     inkscape:window-y="-4"
     inkscape:window-maximized="1" />
  <metadata
     id="metadata6048">
    <rdf:RDF>
      <cc:Work
         rdf:about="">
        <dc:format>image/svg+xml</dc:format>
        <dc:type
           rdf:resource="http://purl.org/dc/dcmitype/StillImage" />
        <dc:title></dc:title>
      </cc:Work>
    </rdf:RDF>
  </metadata>
  <g
     inkscape:groupmode="layer"
     id="layer2"
     inkscape:label="black_circle"
     transform="translate(1.1058697e-5,2.2345076)">
    <circle
       style="opacity:1;fill:#000000;fill-opacity:1;stroke:none;stroke-width:2.29999995;stroke-miterlimit:4;stroke-dasharray:none;stroke-opacity:1"
       id="path4140"
       cx="16.250002"
       cy="13.122637"
       r="15.357144"
       d="M 31.607146,13.122637 A 15.357144,15.357144 0 0 1 16.250002,28.479781 15.357144,15.357144 0 0 1 0.89285755,13.122637 15.357144,15.357144 0 0 1 16.250002,-2.2345076 15.357144,15.357144 0 0 1 31.607146,13.122637 Z" />
  </g>
  <g
     inkscape:label="symbol"
     inkscape:groupmode="layer"
     id="layer1"
     transform="translate(709.10597,-869.59315)">
    <g
       id="g4143">
      <path
         sodipodi:nodetypes="cccccccccccccccc"
         inkscape:connector-curvature="0"
         id="path2987-4"
         d="m -682.1375,874.49961 -16.8976,4.52769 c 0.59171,0.96175 0.91053,2.08944 0.87882,3.25344 l 11.25282,-3.01517 c 2.80881,-0.77208 3.98408,-1.84789 4.76596,-4.76596 z m -25.16869,6.74395 12.36991,12.36991 c 0.53707,-0.9933 1.35425,-1.83328 2.37817,-2.38779 l -8.23778,-8.23765 c -2.05937,-2.11607 -4.41902,-2.30483 -6.5103,-1.74447 z m 19.69544,0.66148 -3.01504,11.25296 c -0.86496,2.79559 0.16313,4.92909 1.74434,6.5103 l 0.75534,-2.8189 3.77235,-14.0787 c -1.12878,0.0315 -2.26478,-0.25616 -3.25699,-0.86566 z"
         style="color:#000000;font-style:normal;font-variant:normal;font-weight:normal;font-stretch:normal;font-size:medium;line-height:normal;font-family:sans-serif;text-indent:0;text-align:start;text-decoration:none;text-decoration-line:none;text-decoration-style:solid;text-decoration-color:#000000;letter-spacing:normal;word-spacing:normal;text-transform:none;direction:ltr;block-progression:tb;writing-mode:lr-tb;baseline-shift:baseline;text-anchor:start;clip-rule:nonzero;display:inline;overflow:visible;visibility:visible;opacity:1;isolation:auto;color-interpolation:sRGB;color-interpolation-filters:linearRGB;fill:#5eb9e5;fill-opacity:1;fill-rule:nonzero;stroke:none;stroke-width:60.50111771;stroke-linecap:butt;stroke-linejoin:miter;stroke-miterlimit:4;stroke-dasharray:none;stroke-dashoffset:0;stroke-opacity:1;marker:none;color-rendering:auto;image-rendering:auto;shape-rendering:auto;text-rendering:auto;enable-background:accumulate" />
      <ellipse
         ry="5.0549088"
         rx="5.0549054"
         cy="-687.34729"
         cx="898.2597"
         transform="matrix(-0.96592581,0.25881909,-0.25881909,-0.96592581,0,0)"
         id="path2985-8"
         style="color:#000000;display:inline;overflow:visible;visibility:visible;opacity:1;fill:#5eb9e5;fill-opacity:1;fill-rule:evenodd;stroke:none;stroke-width:1.25;marker:none;enable-background:accumulate"
         d="m 903.31461,-687.34729 a 5.0549054,5.0549088 0 0 1 -5.05491,5.05491 5.0549054,5.0549088 0 0 1 -5.0549,-5.05491 5.0549054,5.0549088 0 0 1 5.0549,-5.05491 5.0549054,5.0549088 0 0 1 5.05491,5.05491 z" />
      <circle
         r="5.0549054"
         cy="-669.83655"
         cx="888.1499"
         transform="matrix(-0.96592581,0.25881909,-0.25881909,-0.96592581,0,0)"
         id="path2985-1-2"
         style="color:#000000;display:inline;overflow:visible;visibility:visible;opacity:1;fill:#5eb9e5;fill-opacity:1;fill-rule:evenodd;stroke:none;stroke-width:1.25;marker:none;enable-background:accumulate"
         d="m 893.20481,-669.83655 a 5.0549054,5.0549054 0 0 1 -5.05491,5.05491 5.0549054,5.0549054 0 0 1 -5.0549,-5.05491 5.0549054,5.0549054 0 0 1 5.0549,-5.0549 5.0549054,5.0549054 0 0 1 5.05491,5.0549 z" />
      <circle
         r="5.0549054"
         cy="-669.83655"
         cx="908.36951"
         transform="matrix(-0.96592581,0.25881909,-0.25881909,-0.96592581,0,0)"
         id="path2985-7-4"
         style="color:#000000;display:inline;overflow:visible;visibility:visible;opacity:1;fill:#5eb9e5;fill-opacity:1;fill-rule:evenodd;stroke:none;stroke-width:1.25;marker:none;enable-background:accumulate"
         d="m 913.42441,-669.83655 a 5.0549054,5.0549054 0 0 1 -5.0549,5.05491 5.0549054,5.0549054 0 0 1 -5.05491,-5.05491 5.0549054,5.0549054 0 0 1 5.05491,-5.0549 5.0549054,5.0549054 0 0 1 5.0549,5.0549 z" />
    </g>
  </g>
</svg>
