<?xml version="1.0" encoding="UTF-8" standalone="no"?>
<!-- Created with Inkscape (http://www.inkscape.org/) -->

<svg
   xmlns:dc="http://purl.org/dc/elements/1.1/"
   xmlns:cc="http://creativecommons.org/ns#"
   xmlns:rdf="http://www.w3.org/1999/02/22-rdf-syntax-ns#"
   xmlns:svg="http://www.w3.org/2000/svg"
   xmlns="http://www.w3.org/2000/svg"
   xmlns:sodipodi="http://sodipodi.sourceforge.net/DTD/sodipodi-0.dtd"
   xmlns:inkscape="http://www.inkscape.org/namespaces/inkscape"
   id="svg4925"
   version="1.1"
   inkscape:version="0.92.4 (5da689c313, 2019-01-14)"
   xml:space="preserve"
   width="80"
   height="80"
   viewBox="0 0 80 80"
   sodipodi:docname="search.svg"
   inkscape:export-filename="C:\Users\ProBook\Documents\GitHub\RetroShare\retroshare-gui\src\gui\icons\png\search.png"
   inkscape:export-xdpi="153.60001"
   inkscape:export-ydpi="153.60001"><metadata
     id="metadata4931"><rdf:RDF><cc:Work
         rdf:about=""><dc:format>image/svg+xml</dc:format><dc:type
           rdf:resource="http://purl.org/dc/dcmitype/StillImage" /><dc:title /></cc:Work></rdf:RDF></metadata><defs
     id="defs4929" /><sodipodi:namedview
     pagecolor="#ffffff"
     bordercolor="#666666"
     borderopacity="1"
     objecttolerance="10"
     gridtolerance="10"
     guidetolerance="10"
     inkscape:pageopacity="0"
     inkscape:pageshadow="2"
     inkscape:window-width="1366"
     inkscape:window-height="705"
     id="namedview4927"
     showgrid="false"
     inkscape:zoom="5.9"
     inkscape:cx="29.491525"
     inkscape:cy="41.249684"
     inkscape:window-x="-8"
     inkscape:window-y="-8"
     inkscape:window-maximized="1"
     inkscape:current-layer="g4933" /><g
     id="g4933"
     inkscape:groupmode="layer"
     inkscape:label="ink_ext_XXXXXX"
     transform="matrix(1.25,0,0,-1.25,0,80)"><path
       inkscape:connector-curvature="0"
       id="path4939"
       style="fill:#000000;fill-opacity:0.15686275;fill-rule:nonzero;stroke:none;stroke-width:1.43466902"
       d="m 54.804592,3.9067797 c -0.91747,0 -1.835946,0.350203 -2.535922,1.050752 L 38.691538,18.534808 c 0.554213,0.391665 1.091066,0.811448 1.609411,1.25921 L 52.26867,7.8268693 c 0.699976,-0.7005489 1.618452,-1.050752 2.535922,-1.050752 0.917471,0 1.835945,0.3502031 2.53592,1.050752 0.327248,0.3272473 0.577742,0.7016964 0.752054,1.1012519 0.572721,-1.3124356 0.321653,-2.89674 -0.752054,-3.9705895 -0.699975,-0.700549 -1.618449,-1.050752 -2.53592,-1.050752 M 34.606606,22.715577 c -0.508304,0.758796 -0.696677,1.668807 -0.563251,2.539221 0.189375,0.105304 0.377747,0.215773 0.563251,0.330117 0.128259,-0.191097 0.27689,-0.372727 0.446038,-0.542018 l 1.175281,-1.175138 c -0.520067,-0.423658 -1.062086,-0.807576 -1.621319,-1.152182" /><path
       inkscape:connector-curvature="0"
       id="path4941"
       style="fill:#495672;fill-opacity:1;fill-rule:nonzero;stroke:none;stroke-width:1.43466902"
       d="m 54.804592,6.7761173 c -0.91747,0 -1.835946,0.3502031 -2.535922,1.050752 L 35.052644,25.042897 c -1.400955,1.401097 -1.400955,3.670743 0,5.071841 1.399375,1.400955 3.672465,1.400955 5.071842,0 L 57.340512,12.898711 c 1.400954,-1.401097 1.400954,-3.6707434 0,-5.0718417 -0.699975,-0.7005489 -1.618449,-1.050752 -2.53592,-1.050752" /><path
       inkscape:connector-curvature="0"
       id="path4943"
       style="fill:#7db6d8;fill-opacity:1;fill-rule:nonzero;stroke:none;stroke-width:1.43466902"
       d="m 37.384554,49.22209 c 5.920879,-5.920162 5.920879,-15.518958 0,-21.439263 -5.92016,-5.920879 -15.5191,-5.920879 -21.439261,0 -5.920879,5.920305 -5.920879,15.519101 0,21.439263 5.920161,5.920878 15.519101,5.920878 21.439261,0" /><path
       inkscape:connector-curvature="0"
       id="path4945"
       style="fill:#000000;fill-opacity:0.15686275;fill-rule:nonzero;stroke:none;stroke-width:1.43466902"
       d="m 26.664851,14.734082 c -5.582296,0 -10.830601,2.173812 -14.777662,6.121447 -8.1483473,8.148488 -8.1483473,21.406839 0,29.555328 3.947061,3.946917 9.195366,6.121444 14.777662,6.121444 5.582441,0 10.830747,-2.174527 14.777665,-6.121444 6.773214,-6.773215 7.916503,-17.0783 3.429289,-25.042864 l -4.275457,4.275457 c 1.011585,2.354291 1.398228,4.913167 1.161221,7.424412 0.410171,4.342598 -1.046878,8.828808 -4.373015,12.154228 -2.960152,2.960153 -6.839927,4.440874 -10.719703,4.440874 -3.879774,0 -7.75955,-1.480721 -10.719558,-4.440874 -3.325563,-3.32542 -4.783187,-7.81163 -4.373015,-12.154228 -0.410172,-4.343317 1.047452,-8.828809 4.373015,-12.154373 2.960008,-2.960726 6.839784,-4.44073 10.719558,-4.44073 2.757291,0 5.514582,0.747605 7.941755,2.242818 0.128259,-0.191099 0.27689,-0.372726 0.446038,-0.542018 l 3.638894,-3.638751 C 35.195536,16.065025 31.032845,14.734082 26.664851,14.734082" /><path
       inkscape:connector-curvature="0"
       id="path4947"
       style="fill:#000000;fill-opacity:0.15686275;fill-rule:nonzero;stroke:none;stroke-width:1.43466902"
       d="m 38.691538,18.534808 -3.638894,3.638751 c -0.169148,0.169292 -0.317779,0.350919 -0.446038,0.542018 0.559233,0.344606 1.101252,0.728524 1.621319,1.152182 l 4.073024,-4.073741 c -0.518345,-0.447762 -1.055198,-0.867545 -1.609411,-1.25921" /><path
       inkscape:connector-curvature="0"
       id="path4951"
       style="fill:#000000;fill-opacity:0.15686275;fill-rule:nonzero;stroke:none;stroke-width:1.43466902"
       d="m 11.572278,37.067862 c -0.410172,4.342598 1.047452,8.828808 4.373015,12.154228 2.960008,2.960153 6.839784,4.440874 10.719558,4.440874 3.879776,0 7.759551,-1.480721 10.719703,-4.440874 3.326137,-3.32542 4.783186,-7.81163 4.373015,-12.154228 -0.320649,3.38883 -1.777698,6.690147 -4.373015,9.28489 -2.960152,2.960152 -6.839927,4.440874 -10.719703,4.440874 -3.879774,0 -7.75955,-1.480722 -10.719558,-4.440874 -2.594743,-2.594743 -4.052366,-5.89606 -4.373015,-9.28489" /><path
       inkscape:connector-curvature="0"
       id="path4953"
       style="fill:#039bd5;fill-opacity:1;fill-rule:nonzero;stroke:none;stroke-width:1.43466902"
       d="m 26.664851,59.401639 c -5.582296,0 -10.830601,-2.174527 -14.777662,-6.121445 -8.1483473,-8.148489 -8.1483473,-21.406839 0,-29.555327 3.947061,-3.947635 9.195366,-6.121446 14.777662,-6.121446 5.582441,0 10.830747,2.173811 14.777665,6.121446 8.148488,8.148488 8.148488,21.406838 0,29.555327 -3.946918,3.946918 -9.195224,6.121445 -14.777665,6.121445 z m 0,-5.738675 c 3.879776,0 7.759551,-1.480721 10.719703,-4.440874 5.920879,-5.920162 5.920879,-15.518958 0,-21.439263 -2.960152,-2.960726 -6.839927,-4.440731 -10.719703,-4.440731 -3.879774,0 -7.75955,1.480005 -10.719558,4.440731 -5.920879,5.920305 -5.920879,15.519101 0,21.439263 2.960008,2.960153 6.839784,4.440874 10.719558,4.440874" /></g></svg>