<?xml version="1.0" encoding="UTF-8" standalone="no"?>
<!-- Created with Inkscape (http://www.inkscape.org/) -->

<svg
   xmlns:dc="http://purl.org/dc/elements/1.1/"
   xmlns:cc="http://creativecommons.org/ns#"
   xmlns:rdf="http://www.w3.org/1999/02/22-rdf-syntax-ns#"
   xmlns:svg="http://www.w3.org/2000/svg"
   xmlns="http://www.w3.org/2000/svg"
   xmlns:sodipodi="http://sodipodi.sourceforge.net/DTD/sodipodi-0.dtd"
   xmlns:inkscape="http://www.inkscape.org/namespaces/inkscape"
   id="svg5574"
   version="1.1"
   inkscape:version="0.91 r13725"
   xml:space="preserve"
   width="80"
   height="80"
   viewBox="0 0 80 80"
   sodipodi:docname="settings.svg"><metadata
     id="metadata5580"><rdf:RDF><cc:Work
         rdf:about=""><dc:format>image/svg+xml</dc:format><dc:type
           rdf:resource="http://purl.org/dc/dcmitype/StillImage" /><dc:title /></cc:Work></rdf:RDF></metadata><defs
     id="defs5578" /><sodipodi:namedview
     pagecolor="#ffffff"
     bordercolor="#666666"
     borderopacity="1"
     objecttolerance="10"
     gridtolerance="10"
     guidetolerance="10"
     inkscape:pageopacity="0"
     inkscape:pageshadow="2"
     inkscape:window-width="1920"
     inkscape:window-height="1009"
     id="namedview5576"
     showgrid="false"
     inkscape:zoom="2.95"
     inkscape:cx="-146.02807"
     inkscape:cy="55.51391"
     inkscape:window-x="0"
     inkscape:window-y="0"
     inkscape:window-maximized="1"
     inkscape:current-layer="g5582" /><g
     id="g5582"
     inkscape:groupmode="layer"
     inkscape:label="ink_ext_XXXXXX"
     transform="matrix(1.25,0,0,-1.25,0,80)"><path
       inkscape:connector-curvature="0"
       id="path5586"
       style="fill:#039bd5;fill-opacity:1;fill-rule:nonzero;stroke:none"
       d="M 64,32 C 64,14.327 49.673,0 32,0 14.327,0 0,14.327 0,32 0,49.673 14.327,64 32,64 49.673,64 64,49.673 64,32" /><path
       inkscape:connector-curvature="0"
       id="path5598"
       style="fill:#000000;fill-opacity:0.15686275;fill-rule:nonzero;stroke:none"
       d="m 38.08259,31 -2.649403,2.649403 c -0.713793,0.713519 -1.648979,1.070416 -2.584439,1.070416 -0.301982,0 -0.603873,-0.0371 -0.898728,-0.111748 l -0.300155,0.296592 2.813598,2.813598 c -0.405506,1.033684 -0.636036,2.155084 -0.636036,3.332586 0,5.04644 4.090969,9.137135 9.137134,9.137135 1.177502,0 2.298903,-0.23053 3.332587,-0.636036 l -5.917026,-5.91666 c -1.427311,-1.427312 -1.427311,-3.741565 0,-5.168877 0.713793,-0.713519 1.648979,-1.070415 2.584439,-1.070415 0.93546,0 1.870645,0.356896 2.584438,1.070415 l 5.91666,5.917025 c 0.405506,-1.033684 0.636036,-2.155084 0.636036,-3.332587 0,-5.046165 -4.090969,-9.137134 -9.137134,-9.137134 -1.177503,0 -2.298903,0.23053 -3.332587,0.636036 L 38.08259,31" /><path
       inkscape:connector-curvature="0"
       id="path5600"
       style="fill:#404a5f;fill-opacity:1;fill-rule:nonzero;stroke:none"
       d="m 29.317429,32.009745 -0.283069,0.279779 0.716717,0.716717 C 29.55472,32.693202 29.410171,32.357047 29.317429,32.009745 m 1.590044,2.152891 0.742392,0.742027 0.300155,-0.296592 c -0.363293,-0.09174 -0.71562,-0.240215 -1.042547,-0.445435" /><path
       inkscape:connector-curvature="0"
       id="path5594"
       style="fill:#000000;fill-opacity:0.15686275;fill-rule:nonzero;stroke:none"
       d="m 21.035439,9.9845917 c -1.177502,0 -2.298903,0.2305663 -3.332587,0.6360263 l 5.917026,5.916669 c 1.427311,1.427312 1.427311,3.741565 0,5.168877 -0.713793,0.713519 -1.648979,1.070415 -2.584439,1.070415 -0.93546,0 -1.870645,-0.356896 -2.584438,-1.070415 l -5.91666,-5.917025 c -0.405506,1.033684 -0.636036,2.155084 -0.636036,3.332587 0,5.046165 4.090969,9.137134 9.137134,9.137134 1.177503,0 2.298903,-0.23053 3.332587,-0.636036 2.085581,-2.505358 2.735809,-1.523089 5.168511,-5.168511 0.405506,-1.033684 0.636036,-2.155085 0.636036,-3.332587 0,-5.046439 -4.090969,-9.1371343 -9.137134,-9.1371343"
       sodipodi:nodetypes="ccccsccssccsc" /><path
       inkscape:connector-curvature="0"
       id="path5602"
       style="fill:#000000;fill-opacity:0.15686275;fill-rule:nonzero;stroke:none"
       d="m 27.166976,25.259299 c -0.471111,0.471477 2.310718,4.260211 2.150453,4.860886 -0.0071,0.0275 -0.01435,0.05537 -0.02111,0.08315 -0.143087,0.593549 -0.136326,1.215696 0.02111,1.806412 0.09274,0.347302 0.237291,0.683457 0.433648,0.996496 l 1.156396,1.156395 c 0.326927,0.20522 0.679254,0.353699 1.042547,0.445435 0.294855,0.07465 0.596746,0.111748 0.898728,0.111748 0.93546,0 1.870646,-0.356897 2.584439,-1.070416 L 38.08259,31 29.785406,22.703182 Z"
       sodipodi:nodetypes="cccccccscccc" /><path
       inkscape:connector-curvature="0"
       id="path5604"
       style="fill:#ffffff;fill-opacity:1;fill-rule:nonzero;stroke:none"
       d="M 40.121359,34.86647 29.047609,23.792355 23.878641,28.961323 34.952756,40.035072 40.121359,34.86647" /><path
       inkscape:connector-curvature="0"
       id="path5608"
       style="fill:#ffffff;fill-opacity:1;fill-rule:nonzero;stroke:none"
       d="m 45.548999,40.293836 c -1.427311,-1.427312 -3.741565,-1.427312 -5.168877,0 -1.427311,1.427312 -1.427311,3.741565 0,5.168877 l 5.917026,5.916659 c -1.033684,0.405506 -2.155085,0.636036 -3.332587,0.636036 -5.046165,0 -9.137134,-4.090695 -9.137134,-9.137134 0,-5.046165 4.090969,-9.137134 9.137134,-9.137134 5.046165,0 9.137134,4.090969 9.137134,9.137134 0,1.177503 -0.23053,2.298903 -0.636036,3.332587 l -5.91666,-5.917025" /><path
       inkscape:connector-curvature="0"
       id="path5610"
       style="fill:#ffffff;fill-opacity:1;fill-rule:nonzero;stroke:none"
       d="m 18.451001,23.533591 c 1.427311,1.427312 3.741565,1.427312 5.168877,0 1.427311,-1.427312 1.427311,-3.741565 0,-5.168877 l -5.917026,-5.91666 c 1.033684,-0.405506 2.155085,-0.636036 3.332587,-0.636036 5.046165,0 9.137134,4.090695 9.137134,9.137135 0,5.046165 -4.090969,9.137134 -9.137134,9.137134 -5.046165,0 -9.137134,-4.090969 -9.137134,-9.137134 0,-1.177503 0.23053,-2.298903 0.636036,-3.332587 l 5.91666,5.917025" /></g></svg>