<?xml version="1.0" encoding="UTF-8" standalone="no"?>
<!-- Created with Inkscape (http://www.inkscape.org/) -->

<svg
   xmlns:dc="http://purl.org/dc/elements/1.1/"
   xmlns:cc="http://creativecommons.org/ns#"
   xmlns:rdf="http://www.w3.org/1999/02/22-rdf-syntax-ns#"
   xmlns:svg="http://www.w3.org/2000/svg"
   xmlns="http://www.w3.org/2000/svg"
   xmlns:sodipodi="http://sodipodi.sourceforge.net/DTD/sodipodi-0.dtd"
   xmlns:inkscape="http://www.inkscape.org/namespaces/inkscape"
   id="svg2"
   version="1.1"
   inkscape:version="0.91 r13725"
   xml:space="preserve"
   width="80"
   height="80"
   viewBox="0 0 80 80"
   sodipodi:docname="speaker_mute.svg"><metadata
     id="metadata8"><rdf:RDF><cc:Work
         rdf:about=""><dc:format>image/svg+xml</dc:format><dc:type
           rdf:resource="http://purl.org/dc/dcmitype/StillImage" /><dc:title /></cc:Work></rdf:RDF></metadata><defs
     id="defs6"><clipPath
       clipPathUnits="userSpaceOnUse"
       id="clipPath16"><path
         d="M 0,64 64,64 64,0 0,0 0,64 Z"
         id="path18"
         inkscape:connector-curvature="0" /></clipPath><clipPath
       clipPathUnits="userSpaceOnUse"
       id="clipPath28"><path
         d="m 10,52.0001 44.5,0 L 54.5,8 10,8 10,52.0001 Z"
         id="path30"
         inkscape:connector-curvature="0" /></clipPath><clipPath
       clipPathUnits="userSpaceOnUse"
       id="clipPath48"><path
         d="m 23.4994,49.0008 17.0012,0 0,-38.0013 -17.0012,0 0,38.0013 z"
         id="path50-3"
         inkscape:connector-curvature="0" /></clipPath></defs><sodipodi:namedview
     pagecolor="#ffffff"
     bordercolor="#666666"
     borderopacity="1"
     objecttolerance="10"
     gridtolerance="10"
     guidetolerance="10"
     inkscape:pageopacity="0"
     inkscape:pageshadow="2"
     inkscape:window-width="1920"
     inkscape:window-height="1009"
     id="namedview4"
     showgrid="false"
     inkscape:zoom="8.34386"
     inkscape:cx="-38.214907"
     inkscape:cy="31.460071"
     inkscape:window-x="0"
     inkscape:window-y="0"
     inkscape:window-maximized="1"
     inkscape:current-layer="g10"
     showguides="true"
     inkscape:guide-bbox="true" /><g
     id="g10"
     inkscape:groupmode="layer"
     inkscape:label="Elegant_circle-icons_3"
     transform="matrix(1.25,0,0,-1.25,0,80)"><path
       inkscape:connector-curvature="0"
       id="path22"
       style="fill:#039bd5;fill-opacity:1;fill-rule:nonzero;stroke:none"
       d="M 64,32 C 64,14.327 49.673,0 32,0 14.327,0 0,14.327 0,32 0,49.673 14.327,64 32,64 49.673,64 64,49.673 64,32" /><g
       id="g24"
       style="fill:#000000;fill-opacity:0.15686275"><g
         id="g26"
         style="fill:#000000;fill-opacity:0.15686275" /><g
         id="g32"
         style="fill:#000000;fill-opacity:0.15686275"><g
           clip-path="url(#clipPath28)"
           id="g34"
           style="fill:#000000;fill-opacity:0.15686275"><g
             transform="translate(33.8664,51.8026)"
             id="g36"
             style="fill:#000000;fill-opacity:0.15686275"><path
               d="m 0,0 c -0.276,0.133 -0.572,0.198 -0.866,0.198 -0.446,0 -0.888,-0.149 -1.25,-0.439 l -14.452,-11.562 -5.298,0 c -1.105,0 -2,-0.895 -2,-2 l 0,-16 c 0,-1.104 0.895,-2 2,-2 l 5.298,0 14.452,-11.561 c 0.362,-0.29 0.804,-0.439 1.25,-0.439 0.294,0 0.59,0.065 0.866,0.198 0.693,0.333 1.134,1.034 1.134,1.802 l 0,40 C 1.134,-1.034 0.693,-0.333 0,0"
               style="fill:#000000;fill-opacity:0.15686275;fill-rule:nonzero;stroke:none"
               id="path38"
               inkscape:connector-curvature="0" /></g><g
             transform="translate(38.0356,27.1675)"
             id="g40"
             style="fill:#000000;fill-opacity:0.15686275"><path
               d="m 0,0 c -0.672,-0.485 -0.824,-1.422 -0.339,-2.094 0.293,-0.407 0.752,-0.623 1.218,-0.623 0.304,0 0.61,0.092 0.876,0.283 1.697,1.224 2.709,3.193 2.709,5.267 0,2.073 -1.012,4.042 -2.709,5.266 C 1.083,8.583 0.146,8.43 -0.339,7.759 -0.824,7.087 -0.672,6.15 0,5.665 0.931,4.994 1.464,3.961 1.464,2.833 1.464,1.704 0.931,0.671 0,0"
               style="fill:#000000;fill-opacity:0.15686275;fill-rule:nonzero;stroke:none"
               id="path42"
               inkscape:connector-curvature="0" /></g><g
             transform="translate(38.5161,20.8486)"
             id="g44"
             style="fill:#000000;fill-opacity:0.15686275"><path
               d="m 0,0 c -0.799,-0.219 -1.269,-1.044 -1.049,-1.843 0.182,-0.666 0.786,-1.104 1.445,-1.104 0.131,0 0.265,0.018 0.398,0.054 5.411,1.485 9.19,6.438 9.19,12.044 0,5.607 -3.779,10.559 -9.19,12.044 -0.797,0.219 -1.624,-0.25 -1.843,-1.049 C -1.269,19.347 -0.799,18.522 0,18.303 4.112,17.174 6.984,13.411 6.984,9.151 6.984,4.892 4.112,1.129 0,0"
               style="fill:#000000;fill-opacity:0.15686275;fill-rule:nonzero;stroke:none"
               id="path46"
               inkscape:connector-curvature="0" /></g><g
             transform="translate(39.1689,48.2109)"
             id="g48"
             style="fill:#000000;fill-opacity:0.15686275"><path
               d="m 0,0 c -0.821,0.145 -1.593,-0.406 -1.734,-1.222 -0.141,-0.816 0.406,-1.593 1.222,-1.734 7.442,-1.288 12.843,-7.703 12.843,-15.255 0,-7.552 -5.401,-13.967 -12.843,-15.255 -0.816,-0.141 -1.363,-0.917 -1.222,-1.734 0.127,-0.729 0.76,-1.244 1.476,-1.244 0.085,0 0.172,0.007 0.258,0.022 8.883,1.537 15.331,9.196 15.331,18.211 C 15.331,-9.196 8.883,-1.537 0,0"
               style="fill:#000000;fill-opacity:0.15686275;fill-rule:nonzero;stroke:none"
               id="path50"
               inkscape:connector-curvature="0" /></g></g></g></g><g
       id="g52"
       transform="translate(31,24)"
       style="fill:#036ea7;fill-opacity:1"><path
         d="m 0,0 c 0,-1.105 -0.895,-2 -2,-2 l -17,0 c -1.105,0 -2,0.895 -2,2 l 0,16 c 0,1.105 0.895,2 2,2 l 17,0 c 1.105,0 2,-0.895 2,-2 L 0,0 Z"
         style="fill:#036ea7;fill-opacity:1;fill-rule:nonzero;stroke:none"
         id="path54"
         inkscape:connector-curvature="0" /></g><g
       id="g56"
       transform="translate(33,11)"
       style="fill:#036ea7;fill-opacity:1"><path
         d="m 0,0 c -0.223,0 -0.444,0.075 -0.625,0.219 l -15,12 C -15.862,12.409 -16,12.696 -16,13 l 0,16 c 0,0.304 0.138,0.591 0.375,0.781 l 15,12 C -0.444,41.925 -0.223,42 0,42 0.147,42 0.295,41.967 0.433,41.901 0.78,41.735 1,41.384 1,41 L 1,1 C 1,0.616 0.78,0.265 0.433,0.099 0.295,0.033 0.147,0 0,0"
         style="fill:#036ea7;fill-opacity:1;fill-rule:nonzero;stroke:none"
         id="path58"
         inkscape:connector-curvature="0" /></g><g
       id="g60"
       transform="translate(33.0003,54)"
       style="fill:#036ea7;fill-opacity:1"><path
         d="m 0,0 c -0.446,0 -0.888,-0.149 -1.25,-0.438 l -15,-12 C -16.724,-12.818 -17,-13.393 -17,-14 l 0,-16 c 0,-0.607 0.276,-1.182 0.75,-1.562 l 15,-12 C -0.888,-43.851 -0.446,-44 0,-44 c 0.294,0 0.59,0.065 0.866,0.197 C 1.559,-43.469 2,-42.769 2,-42 L 2,-2 C 2,-1.231 1.559,-0.531 0.866,-0.197 0.59,-0.065 0.294,0 0,0 m 0,-2 0,-40 -15,12 0,16 15,12"
         style="fill:#036ea7;fill-opacity:1;fill-rule:nonzero;stroke:none"
         id="path62"
         inkscape:connector-curvature="0" /></g><g
       id="g64"
       transform="translate(38.913,27.9509)"><path
         d="M 0,0 C 1.259,0.908 2.087,2.378 2.087,4.049 2.087,5.72 1.259,7.19 0,8.098"
         style="fill:none;stroke:#ffffff;stroke-width:3;stroke-linecap:round;stroke-linejoin:miter;stroke-miterlimit:10;stroke-dasharray:none;stroke-opacity:1"
         id="path66"
         inkscape:connector-curvature="0" /></g><g
       id="g68"
       transform="translate(38.913,21.4025)"><path
         d="M 0,0 C 4.659,1.279 8.087,5.533 8.087,10.598 8.087,15.663 4.659,19.917 0,21.195"
         style="fill:none;stroke:#e0e0d1;stroke-width:3;stroke-linecap:round;stroke-linejoin:miter;stroke-miterlimit:10;stroke-dasharray:none;stroke-opacity:1"
         id="path70"
         inkscape:connector-curvature="0" /></g><g
       id="g72"
       transform="translate(38.913,15.2671)"
       style="fill:none;fill-opacity:1;stroke:#036290;stroke-opacity:1"><path
         d="M 0,0 C 7.998,1.384 14.087,8.339 14.087,16.733 14.087,25.126 7.998,32.082 0,33.466"
         style="fill:none;stroke:#036290;stroke-width:3;stroke-linecap:round;stroke-linejoin:miter;stroke-miterlimit:10;stroke-dasharray:none;stroke-opacity:1;fill-opacity:1"
         id="path74"
         inkscape:connector-curvature="0" /></g></g><g
     inkscape:groupmode="layer"
     id="layer1"
     inkscape:label="strike"
     style="display:inline"><g
       id="g4750"><path
         d="m 15.772882,66.54618 c -0.270445,-0.120927 -0.524656,-0.293474 -0.746896,-0.516083 -0.976599,-0.976171 -0.975066,-2.559731 5.96e-4,-3.535189 L 58.523101,19.01632 c 0.976795,-0.974955 2.560753,-0.977346 3.536331,0.0011 0.976599,0.976172 0.975065,2.559732 -5.96e-4,3.53519 l -43.49652,43.478587 c -0.754705,0.753848 -1.870833,0.925722 -2.789434,0.514976"
         style="fill:#000000;fill-opacity:0.15686275;fill-rule:nonzero;stroke:none"
         id="path4748"
         inkscape:connector-curvature="0"
         sodipodi:nodetypes="cccccccc" /><path
         sodipodi:nodetypes="cccccccc"
         inkscape:connector-curvature="0"
         id="path70-5"
         style="fill:#ffffff;fill-opacity:1;fill-rule:nonzero;stroke:none"
         d="m 15.772882,64.388905 c -0.270445,-0.120927 -0.524656,-0.293474 -0.746896,-0.516083 -0.976599,-0.976171 -0.975066,-2.559731 5.96e-4,-3.535189 L 58.523101,16.859045 c 0.976795,-0.974955 2.560753,-0.977346 3.536331,0.0011 0.976599,0.976172 0.975065,2.559732 -5.96e-4,3.53519 l -43.49652,43.478587 c -0.754705,0.753848 -1.870833,0.925722 -2.789434,0.514976" /></g></g></svg>