<?xml version="1.0" encoding="UTF-8" standalone="no"?>
<!-- Created with Inkscape (http://www.inkscape.org/) -->

<svg
   xmlns:dc="http://purl.org/dc/elements/1.1/"
   xmlns:cc="http://creativecommons.org/ns#"
   xmlns:rdf="http://www.w3.org/1999/02/22-rdf-syntax-ns#"
   xmlns:svg="http://www.w3.org/2000/svg"
   xmlns="http://www.w3.org/2000/svg"
   xmlns:sodipodi="http://sodipodi.sourceforge.net/DTD/sodipodi-0.dtd"
   xmlns:inkscape="http://www.inkscape.org/namespaces/inkscape"
   id="svg4155"
   version="1.1"
   inkscape:version="0.91 r13725"
   xml:space="preserve"
   width="80"
   height="80"
   viewBox="0 0 80 80"
   sodipodi:docname="thumbs-down.svg"><metadata
     id="metadata4161"><rdf:RDF><cc:Work
         rdf:about=""><dc:format>image/svg+xml</dc:format><dc:type
           rdf:resource="http://purl.org/dc/dcmitype/StillImage" /><dc:title /></cc:Work></rdf:RDF></metadata><defs
     id="defs4159" /><sodipodi:namedview
     pagecolor="#ffffff"
     bordercolor="#666666"
     borderopacity="1"
     objecttolerance="10"
     gridtolerance="10"
     guidetolerance="10"
     inkscape:pageopacity="0"
     inkscape:pageshadow="2"
     inkscape:window-width="1366"
     inkscape:window-height="706"
     id="namedview4157"
     showgrid="true"
     inkscape:zoom="5.11875"
     inkscape:cx="-4.5693267"
     inkscape:cy="43.576798"
     inkscape:window-x="-8"
     inkscape:window-y="-8"
     inkscape:window-maximized="1"
     inkscape:current-layer="g4163"><inkscape:grid
       type="xygrid"
       id="grid4144" /></sodipodi:namedview><g
     id="g4163"
     inkscape:groupmode="layer"
     inkscape:label="ink_ext_XXXXXX"
     transform="matrix(1.25,0,0,-1.25,0,80)"><path
       inkscape:connector-curvature="0"
       id="path4167"
       style="fill:#e32f00;fill-opacity:1;fill-rule:nonzero;stroke:none"
       d="M 64,32 C 64,14.327 49.673,0 32,0 14.327,0 0,14.327 0,32 0,49.673 14.327,64 32,64 49.673,64 64,49.673 64,32" /><g
       transform="matrix(0.07773268,-8.2262106e-4,-8.2262106e-4,-0.07773268,8.1591344,50.311757)"
       id="g3"><g
         id="thumb-down"><path
           style="fill:#ffffff"
           inkscape:connector-curvature="0"
           d="m 357,25.5 -229.5,0 c -20.4,0 -38.25,12.75 -45.9,30.6 L 5.1,237.15 C 2.55,242.25 0,247.35 0,255 l 0,48.45 0,0 0,2.55 c 0,28.05 22.95,51 51,51 l 160.65,0 -25.5,117.3 c 0,2.55 0,5.101 0,7.65 0,10.2 5.1,20.399 10.2,28.05 L 224.4,535.5 392.7,367.2 C 402.9,357 408,344.25 408,331.5 l 0,-255 c 0,-28.05 -22.95,-51 -51,-51 z m 102,0 0,306 102,0 0,-306 -102,0 z"
           id="path6" /></g></g></g></svg>