<?xml version="1.0" encoding="UTF-8" standalone="no"?>
<!-- Created with Inkscape (http://www.inkscape.org/) -->

<svg
   xmlns:dc="http://purl.org/dc/elements/1.1/"
   xmlns:cc="http://creativecommons.org/ns#"
   xmlns:rdf="http://www.w3.org/1999/02/22-rdf-syntax-ns#"
   xmlns:svg="http://www.w3.org/2000/svg"
   xmlns="http://www.w3.org/2000/svg"
   xmlns:sodipodi="http://sodipodi.sourceforge.net/DTD/sodipodi-0.dtd"
   xmlns:inkscape="http://www.inkscape.org/namespaces/inkscape"
   id="svg4823"
   version="1.1"
   inkscape:version="0.92.5 (2060ec1f9f, 2020-04-08)"
   xml:space="preserve"
   width="80"
   height="80"
   viewBox="0 0 80 80"
   sodipodi:docname="undock.svg"
   inkscape:export-filename="/home/phenom/GIT/RetroShare/trunk/retroshare-gui/src/gui/icons/png/undock.png"
   inkscape:export-xdpi="153.60001"
   inkscape:export-ydpi="153.60001"><metadata
     id="metadata4829"><rdf:RDF><cc:Work
         rdf:about=""><dc:format>image/svg+xml</dc:format><dc:type
           rdf:resource="http://purl.org/dc/dcmitype/StillImage" /><dc:title /></cc:Work></rdf:RDF></metadata><defs
     id="defs4827" /><sodipodi:namedview
     pagecolor="#ffffff"
     bordercolor="#666666"
     borderopacity="1"
     objecttolerance="10"
     gridtolerance="10"
     guidetolerance="10"
     inkscape:pageopacity="0"
     inkscape:pageshadow="2"
     inkscape:window-width="1920"
     inkscape:window-height="1015"
     id="namedview4825"
     showgrid="false"
     showguides="true"
     inkscape:guide-bbox="true"
     inkscape:zoom="8.34386"
     inkscape:cx="-8.1326614"
     inkscape:cy="38.591301"
     inkscape:window-x="0"
     inkscape:window-y="0"
     inkscape:window-maximized="1"
     inkscape:current-layer="g4831" /><g
     id="g4831"
     inkscape:groupmode="layer"
     inkscape:label="ink_ext_XXXXXX"
     transform="matrix(1.25,0,0,-1.25,0,80)"><path
       inkscape:connector-curvature="0"
       id="path4835"
       style="fill:#039bd5;fill-opacity:1;fill-rule:nonzero;stroke:none"
       d="M 64,32 C 64,14.327 49.673,0 32,0 14.327,0 0,14.327 0,32 0,49.673 14.327,64 32,64 49.673,64 64,49.673 64,32" /><path
       inkscape:connector-curvature="0"
       id="path5452-3"
       style="fill:#000000;fill-opacity:0.15686275;fill-rule:nonzero;stroke:none;stroke-width:2.16372085"
       d="M 48,17.599999 C 48,15.3906 46.2094,13.6 44.000001,13.6 h -24 C 17.7906,13.6 16,15.3906 16,17.599999 16,19.809401 17.7906,21.6 20.000001,21.6 h 24 C 46.2094,21.6 48,19.809401 48,17.599999" /><path
       inkscape:connector-curvature="0"
       id="path5452"
       style="fill:#ffffff;fill-opacity:1;fill-rule:nonzero;stroke:none;stroke-width:2.16372061"
       d="M 48,19.999999 C 48,17.7906 46.2094,16 44.000001,16 h -24 C 17.7906,16 16,17.7906 16,19.999999 16,22.209401 17.7906,24 20.000001,24 h 24 C 46.2094,24 48,22.209401 48,19.999999" /><path
       sodipodi:type="star"
       style="fill:#000000;fill-opacity:0.15686275;stroke-width:0.80000001"
       id="path4575-7"
       sodipodi:sides="3"
       sodipodi:cx="32.203388"
       sodipodi:cy="-39.322033"
       sodipodi:r1="18.807909"
       sodipodi:r2="9.4039545"
       sodipodi:arg1="2.6179939"
       sodipodi:arg2="3.6651914"
       inkscape:flatsided="false"
       inkscape:rounded="0"
       inkscape:randomized="0"
       d="m 15.915261,-29.918079 8.144064,-14.105931 8.144064,-14.105932 8.144063,14.105932 8.144063,14.105932 -16.288127,0 z"
       transform="matrix(0.98231064,0,0,-0.85070592,0.36626977,4.1485139)"
       inkscape:transform-center-y="-5.0000005" /><path
       sodipodi:type="star"
       style="fill:#ffffff;fill-opacity:1;stroke-width:0.80000001"
       id="path4575"
       sodipodi:sides="3"
       sodipodi:cx="32.203388"
       sodipodi:cy="-39.322033"
       sodipodi:r1="18.807909"
       sodipodi:r2="9.4039545"
       sodipodi:arg1="2.6179939"
       sodipodi:arg2="3.6651914"
       inkscape:flatsided="false"
       inkscape:rounded="0"
       inkscape:randomized="0"
       d="m 15.915261,-29.918079 8.144064,-14.105931 8.144064,-14.105932 8.144063,14.105932 8.144063,14.105932 -16.288127,0 z"
       transform="matrix(0.98231061,0,0,-0.85070593,0.36627025,6.5485136)"
       inkscape:transform-center-y="-5.0000005" /></g></svg>