<?xml version="1.0" encoding="UTF-8" standalone="no"?>
<!-- Created with Inkscape (http://www.inkscape.org/) -->

<svg
   xmlns:dc="http://purl.org/dc/elements/1.1/"
   xmlns:cc="http://creativecommons.org/ns#"
   xmlns:rdf="http://www.w3.org/1999/02/22-rdf-syntax-ns#"
   xmlns:svg="http://www.w3.org/2000/svg"
   xmlns="http://www.w3.org/2000/svg"
   xmlns:sodipodi="http://sodipodi.sourceforge.net/DTD/sodipodi-0.dtd"
   xmlns:inkscape="http://www.inkscape.org/namespaces/inkscape"
   id="svg2"
   version="1.1"
   inkscape:version="0.91 r13725"
   xml:space="preserve"
   width="80"
   height="80"
   viewBox="0 0 80 80"
   sodipodi:docname="filmcam_v3.svg"><metadata
     id="metadata8"><rdf:RDF><cc:Work
         rdf:about=""><dc:format>image/svg+xml</dc:format><dc:type
           rdf:resource="http://purl.org/dc/dcmitype/StillImage" /><dc:title /></cc:Work></rdf:RDF></metadata><defs
     id="defs6"><clipPath
       clipPathUnits="userSpaceOnUse"
       id="clipPath16"><path
         d="M 0,64 64,64 64,0 0,0 0,64 Z"
         id="path18"
         inkscape:connector-curvature="0" /></clipPath><clipPath
       clipPathUnits="userSpaceOnUse"
       id="clipPath28"><path
         d="M 9,34 57,34 57,12 9,12 9,34 Z"
         id="path30"
         inkscape:connector-curvature="0" /></clipPath><clipPath
       clipPathUnits="userSpaceOnUse"
       id="clipPath60"><path
         d="m 11,52 20,0 0,-20 -20,0 0,20 z"
         id="path62"
         inkscape:connector-curvature="0" /></clipPath><clipPath
       clipPathUnits="userSpaceOnUse"
       id="clipPath76"><path
         d="m 31,48 16,0 0,-16 -16,0 0,16 z"
         id="path78"
         inkscape:connector-curvature="0" /></clipPath></defs><sodipodi:namedview
     pagecolor="#ffffff"
     bordercolor="#666666"
     borderopacity="1"
     objecttolerance="10"
     gridtolerance="10"
     guidetolerance="10"
     inkscape:pageopacity="0"
     inkscape:pageshadow="2"
     inkscape:window-width="1920"
     inkscape:window-height="1009"
     id="namedview4"
     showgrid="false"
     inkscape:zoom="5.9"
     inkscape:cx="-49.323746"
     inkscape:cy="23.72109"
     inkscape:window-x="0"
     inkscape:window-y="0"
     inkscape:window-maximized="1"
     inkscape:current-layer="g10"
     showguides="true"
     inkscape:guide-bbox="true" /><g
     id="g10"
     inkscape:groupmode="layer"
     inkscape:label="Elegant_circle-icons_3"
     transform="matrix(1.25,0,0,-1.25,0,80)"><path
       inkscape:connector-curvature="0"
       id="path22"
       style="fill:#039bd5;fill-opacity:1;fill-rule:nonzero;stroke:none"
       d="M 64,32 C 64,14.327 49.673,0 32,0 14.327,0 0,14.327 0,32 0,49.673 14.327,64 32,64 49.673,64 64,49.673 64,32" /></g><g
     inkscape:groupmode="layer"
     id="layer2"
     inkscape:label="Elegant_circle-icons_5"
     style="display:inline"><path
       sodipodi:nodetypes="ccsssssscaaccssssscccc"
       inkscape:connector-curvature="0"
       id="path4510"
       d="m 25.314715,56.149608 c -3.029874,-0.413361 -5.949669,-0.944746 -8.839562,-2.453804 -0.181499,-0.217709 -0.04759,-5.408875 -0.03138,-11.394262 0.03355,-12.386656 -0.07546,-11.066014 0.951438,-11.526859 1.734492,-0.778394 5.083095,-1.321156 9.454562,-1.532453 2.638948,-0.127556 11.916552,-0.05612 13.84578,0.106605 4.409189,0.371909 7.724983,1.223468 8.387659,2.15411 0.185735,0.260841 0.19006,0.51759 0.19006,11.282523 l 0,11.015609 c -2.962649,1.938416 -6.132576,1.959702 -9.308775,2.354498 -4.845969,0.602345 -9.811342,0.654135 -14.649782,-0.006 z m 38.801919,-0.0392 c -0.504515,-0.219351 -9.090937,-5.661855 -12.258168,-7.769842 -1.228203,-0.817445 -1.197809,-0.706101 -1.27216,-4.660228 -0.06777,-3.604285 0.0184,-5.164935 0.313528,-5.678381 0.218651,-0.380391 1.624795,-1.331561 7.861064,-5.317528 5.434901,-3.473764 5.444392,-3.478991 6.31777,-3.478991 1.128655,0 1.00888,0.068 1.00888,13.560236 0,12.966048 -0.0035,13.21469 -0.18921,13.350466 -0.246068,0.179931 -1.362937,0.176337 -1.781704,-0.0057 z"
       style="fill:#000000;fill-opacity:0.15686275" /><path
       style="fill:#ffffff;fill-opacity:1"
       d="m 25.314715,53.430516 c -3.029874,-0.413361 -5.949669,-0.944746 -8.839562,-2.453804 -0.181499,-0.217709 -0.04759,-5.408875 -0.03138,-11.394262 0.03355,-12.386656 -0.07546,-11.066014 0.951438,-11.526859 1.734492,-0.778394 5.083095,-1.321156 9.454562,-1.532453 2.638948,-0.127556 11.916552,-0.05612 13.84578,0.106605 4.409189,0.371909 7.724983,1.223468 8.387659,2.15411 0.185735,0.260841 0.19006,0.51759 0.19006,11.282523 l 0,11.015609 c -2.962649,1.938416 -6.132576,1.959702 -9.308775,2.354498 -4.845969,0.602345 -9.811342,0.654135 -14.649782,-0.006 z m 38.801919,-0.0392 c -0.504515,-0.219351 -9.090937,-5.661855 -12.258168,-7.769842 -1.228203,-0.817445 -1.197809,-0.706101 -1.27216,-4.660228 -0.06777,-3.604285 0.0184,-5.164935 0.313528,-5.678381 0.218651,-0.380391 1.624795,-1.331561 7.861064,-5.317528 5.434901,-3.473764 5.444392,-3.478991 6.31777,-3.478991 1.128655,0 1.00888,0.068 1.00888,13.560236 0,12.966048 -0.0035,13.21469 -0.18921,13.350466 -0.246068,0.179931 -1.362937,0.176337 -1.781704,-0.0057 z"
       id="path4506"
       inkscape:connector-curvature="0"
       sodipodi:nodetypes="ccsssssscaaccssssscccc" /></g></svg>