<?xml version="1.0" encoding="UTF-8" standalone="no"?>
<svg
   xmlns:dc="http://purl.org/dc/elements/1.1/"
   xmlns:cc="http://creativecommons.org/ns#"
   xmlns:rdf="http://www.w3.org/1999/02/22-rdf-syntax-ns#"
   xmlns:svg="http://www.w3.org/2000/svg"
   xmlns="http://www.w3.org/2000/svg"
   xmlns:sodipodi="http://sodipodi.sourceforge.net/DTD/sodipodi-0.dtd"
   xmlns:inkscape="http://www.inkscape.org/namespaces/inkscape"
   height="512px"
   viewBox="0 -16 512 512"
   width="512px"
   class=""
   version="1.1"
   id="svg18"
   sodipodi:docname="video-camera.svg"
   inkscape:export-filename="C:\Users\Mustermann\Documents\GitHub\RetroShare\retroshare-gui\src\gui\icons\png\video-camera.png"
   inkscape:export-xdpi="24"
   inkscape:export-ydpi="24"
   inkscape:version="0.92.3 (2405546, 2018-03-11)">
  <metadata
     id="metadata24">
    <rdf:RDF>
      <cc:Work
         rdf:about="">
        <dc:format>image/svg+xml</dc:format>
        <dc:type
           rdf:resource="http://purl.org/dc/dcmitype/StillImage" />
      </cc:Work>
    </rdf:RDF>
  </metadata>
  <defs
     id="defs22" />
  <sodipodi:namedview
     pagecolor="#ffffff"
     bordercolor="#666666"
     borderopacity="1"
     objecttolerance="10"
     gridtolerance="10"
     guidetolerance="10"
     inkscape:pageopacity="0"
     inkscape:pageshadow="2"
     inkscape:window-width="1152"
     inkscape:window-height="801"
     id="namedview20"
     showgrid="false"
     inkscape:zoom="0.4609375"
     inkscape:cx="256"
     inkscape:cy="256"
     inkscape:window-x="-8"
     inkscape:window-y="-8"
     inkscape:window-maximized="1"
     inkscape:current-layer="svg18" />
  <g
     id="g16"
     transform="matrix(0.91525424,0,0,0.91525424,23.864407,21.694915)">
    <path
       d="M 91,210 H 0 V 480 H 391 V 210 Z m 60,223.02344 V 256.97656 L 283.03906,345 Z m 0,0"
       data-original="#000000"
       class="active-path"
       data-old_color="#000000"
       id="path2"
       inkscape:connector-curvature="0"
       style="fill:#039bd5" />
    <path
       d="m 181,313.02344 v 63.95312 L 228.96094,345 Z m 0,0"
       data-original="#000000"
       class="active-path"
       data-old_color="#000000"
       id="path4"
       inkscape:connector-curvature="0"
       style="fill:#039bd5" />
    <path
       d="m 271,75 c -16.53906,0 -30,13.460938 -30,30 0,16.53906 13.46094,30 30,30 16.53906,0 30,-13.46094 30,-30 0,-16.539062 -13.46094,-30 -30,-30 z m 0,0"
       data-original="#000000"
       class="active-path"
       data-old_color="#000000"
       id="path6"
       inkscape:connector-curvature="0"
       style="fill:#039bd5" />
    <path
       d="M 376,105 C 376,47.109375 328.89062,0 271,0 213.10937,0 166,47.109375 166,105 c 0,57.89062 47.10937,105 105,105 57.89062,0 105,-47.10938 105,-105 z m -105,60 c -33.08984,0 -60,-26.91016 -60,-60 0,-33.089844 26.91016,-60 60,-60 33.08984,0 60,26.910156 60,60 0,33.08984 -26.91016,60 -60,60 z m 0,0"
       data-original="#000000"
       class="active-path"
       data-old_color="#000000"
       id="path8"
       inkscape:connector-curvature="0"
       style="fill:#039bd5" />
    <path
       d="m 91,150 0.01563,-15 c -0.01563,0 -0.03125,0 -0.03125,0.0156 z m 0,0"
       data-original="#000000"
       class="active-path"
       data-old_color="#000000"
       id="path10"
       inkscape:connector-curvature="0"
       style="fill:#039bd5" />
    <path
       d="M 166,135 C 166,93.648438 132.35156,60 91,60 49.648438,60 16,93.648438 16,135 c 0,41.35156 33.648438,75 75,75 41.35156,0 75,-33.64844 75,-75 z m -75,30 c -16.539062,0 -30,-13.46094 -30,-30 0,-16.53906 13.460938,-30 30,-30 16.53906,0 30,13.46094 30,30 0,16.53906 -13.46094,30 -30,30 z m 0,0"
       data-original="#000000"
       class="active-path"
       data-old_color="#000000"
       id="path12"
       inkscape:connector-curvature="0"
       style="fill:#039bd5" />
    <path
       d="m 421,275.72656 v 138.54688 l 91,45 V 230.72656 Z m 0,0"
       data-original="#000000"
       class="active-path"
       data-old_color="#000000"
       id="path14"
       inkscape:connector-curvature="0"
       style="fill:#039bd5" />
  </g>
</svg>
