<?xml version="1.0"?>
<svg xmlns="http://www.w3.org/2000/svg" xmlns:xlink="http://www.w3.org/1999/xlink" version="1.1" id="Capa_1" x="0px" y="0px" viewBox="0 0 512 512" style="enable-background:new 0 0 512 512;" xml:space="preserve" width="512px" height="512px" class=""><g transform="matrix(0.895338 0 0 0.895338 26.7934 26.7934)"><g>
	<g>
		<path d="M467,0H361v120h151V45C512,20.186,491.814,0,467,0z" data-original="#000000" class="active-path" data-old_color="#000000" fill="#039BD5"/>
	</g>
</g><g>
	<g>
		<path d="M45,0C20.186,0,0,20.186,0,45v75h331V0H45z M106,90H76c-8.291,0-15-6.709-15-15s6.709-15,15-15h30c8.291,0,15,6.709,15,15    S114.291,90,106,90z M196,90h-30c-8.291,0-15-6.709-15-15s6.709-15,15-15h30c8.291,0,15,6.709,15,15S204.291,90,196,90z M286,90    h-30c-8.291,0-15-6.709-15-15s6.709-15,15-15h30c8.291,0,15,6.709,15,15S294.291,90,286,90z" data-original="#000000" class="active-path" data-old_color="#000000" fill="#039BD5"/>
	</g>
</g><g>
	<g>
		<path d="M0,150v317c0,24.814,20.186,45,45,45h422c24.814,0,45-20.186,45-45V150H0z M406,240h-19.195l-56.581,170.746    C328.188,416.869,322.46,421,316,421c-6.46,0-12.188-4.131-14.224-10.254L256,272.432l-45.776,138.314    c-4.072,12.246-24.375,12.246-28.447,0L125.195,240H106c-8.291,0-15-6.709-15-15s6.709-15,15-15h60c8.291,0,15,6.709,15,15    s-6.709,15-15,15h-9.194L196,358.568L235.194,240H226c-8.291,0-15-6.709-15-15s6.709-15,15-15h60c8.291,0,15,6.709,15,15    s-6.709,15-15,15h-9.194L316,358.568L355.194,240H346c-8.291,0-15-6.709-15-15s6.709-15,15-15h60c8.291,0,15,6.709,15,15    S414.291,240,406,240z" data-original="#000000" class="active-path" data-old_color="#000000" fill="#039BD5"/>
	</g>
</g></g> </svg>
