<?xml version="1.0" encoding="UTF-8" standalone="no"?>
<svg xmlns:xhtml="http://www.w3.org/1999/xhtml" xmlns:dc="http://purl.org/dc/elements/1.1/" xmlns:cc="http://creativecommons.org/ns#" xmlns:rdf="http://www.w3.org/1999/02/22-rdf-syntax-ns#" xmlns:svg="http://www.w3.org/2000/svg" xmlns="http://www.w3.org/2000/svg" xmlns:xlink="http://www.w3.org/1999/xlink" xmlns:sodipodi="http://sodipodi.sourceforge.net/DTD/sodipodi-0.dtd" xmlns:inkscape="http://www.inkscape.org/namespaces/inkscape" width="744.09448819" height="1052.3622047" id="svg2" version="1.1" inkscape:version="1.0.2 (e86c870879, 2021-01-15)" sodipodi:docname="img.svg">
  <xhtml:link rel="stylesheet" href="colors.css" type="text/css"/>
  <defs id="defs4">
    <linearGradient id="borderColor">
      <stop stop-color="#17cd1d" id="brdLGStop1"/>
    </linearGradient>
    <linearGradient id="intRaisedColor">
      <stop stop-color="#8fff47" id="intRLGStop1"/>
    </linearGradient>
    <linearGradient id="intTickColor">
      <stop stop-color="#b8fc66" id="intTLGStop1"/>
    </linearGradient>
    <linearGradient id="intTickSideColor">
      <stop stop-color="#82ea2e" id="intTSLGStop1"/>
    </linearGradient>
    <linearGradient id="intLinearGradientStops">
      <stop stop-color="#c2ff6f" style="stop-opacity:1;" offset="0" id="intLGStop1"/>
      <stop stop-color="#82ea2e" style="stop-opacity:1;" offset="1" id="intLGStop2"/>
    </linearGradient>
    <linearGradient inkscape:collect="always" xlink:href="#intLinearGradientStops" id="intLinearGradient" gradientUnits="userSpaceOnUse" x1="90" y1="152.36218" x2="90" y2="147.36218"/>
    <linearGradient id="reflectionLinearGradientStops">
      <stop style="stop-color:#ffffff;stop-opacity:1;" offset="0" id="refLGStop1"/>
      <stop style="stop-color:#ffffff;stop-opacity:0;" offset="1" id="refLGStop2"/>
    </linearGradient>
    <linearGradient inkscape:collect="always" xlink:href="#reflectionLinearGradientStops" id="reflectionLinearGradient" gradientUnits="userSpaceOnUse" gradientTransform="matrix(0.91428568,0,0,0.50000012,7.2857173,53.181079)" x1="90.46875" y1="113.36218" x2="90.46875" y2="140.36218"/>
    <filter inkscape:collect="always" id="shadowFilter">
      <feGaussianBlur inkscape:collect="always" stdDeviation="0.78" id="shadowFilterGB"/>
    </filter>
    <filter inkscape:collect="always" id="intRaiseFilter" x="-0.072" width="1.144" y="-0.216" height="1.432">
      <feGaussianBlur inkscape:collect="always" stdDeviation="1.8" id="intRaiseFilterGB"/>
    </filter>
  </defs>
  <sodipodi:namedview id="base" pagecolor="#ffffff" bordercolor="#666666" borderopacity="1.0" inkscape:pageopacity="0.0" inkscape:pageshadow="2" inkscape:zoom="1" inkscape:cx="100" inkscape:cy="100" inkscape:document-units="px" showgrid="true" inkscape:window-width="800" inkscape:window-height="600" inkscape:window-x="0" inkscape:window-y="0" inkscape:window-maximized="0" inkscape:snap-global="true" showguides="true" inkscape:guide-bbox="true" inkscape:document-rotation="0" inkscape:current-layer="shadowLayer">
    <inkscape:grid type="xygrid" id="mainGrid" empspacing="10" visible="true" enabled="true" snapvisiblegridlinesonly="true"/>
    <sodipodi:guide orientation="1,0" position="44,943" id="leftGuide"/>
    <sodipodi:guide orientation="0,1" position="126,943" id="topGuide"/>
    <sodipodi:guide orientation="1,0" position="126,894" id="rightGuide"/>
    <sodipodi:guide orientation="0,1" position="44,894" id="botGuide"/>
  </sodipodi:namedview>
  <metadata id="metadata7">
    <rdf:RDF>
      <cc:Work rdf:about="">
        <dc:format>image/svg+xml</dc:format>
        <dc:type rdf:resource="http://purl.org/dc/dcmitype/StillImage"/>
        <dc:title/>
      </cc:Work>
    </rdf:RDF>
  </metadata>
  <g inkscape:groupmode="layer" id="shadowLayer" style="display:inline;opacity:0.823" sodipodi:insensitive="true">
    <path style="display:inline;fill:#000000;fill-rule:evenodd;stroke:none;filter:url(#shadowFilter)" d="m 60,113.36218 h 50 c 5.54,0 10,4.46 10,10 l 4.8733,4.07566 -4.8733,4.06109 v 11.86325 c 0,5.54 -4.46,10 -10,10 H 69 l -4,4 -3.032602,-4 H 60 c -5.54,0 -10,-4.46 -10,-10 v -13 l -4,-3 4,-4 c 0.205341,-0.20534 0.01225,-0.57782 0.03628,-0.8618 0.434258,-5.13351 4.714119,-9.1382 9.96372,-9.1382 z" id="shadowPath" inkscape:connector-curvature="0" sodipodi:nodetypes="sssccsscccssccsss"/>
  </g>
  <g id="baseLayer" style="display:inline" sodipodi:insensitive="true" inkscape:groupmode="layer">
    <path style="display:inline;fill:url(#borderColor);fill-opacity:1;fill-rule:evenodd;stroke:none" d="m 60,112.36218 h 50 c 5.54,0 10,4.46 10,10 v 20 c 0,5.54 -4.46,10 -10,10 H 60 c -5.54,0 -10,-4.46 -10,-10 v -20 c 0,-5.54 4.46,-10 10,-10 z" id="border" inkscape:connector-curvature="0" sodipodi:nodetypes="sssssssss"/>
    <path style="display:inline;fill:url(#intLinearGradient);fill-opacity:1;fill-rule:evenodd;stroke:none" d="m 60.714286,113.36251 h 48.571424 c 5.38172,0 9.71429,4.16267 9.71429,9.33334 v 19.333 c 0,5.17067 -4.33257,9.33333 -9.71429,9.33333 H 60.714286 C 55.332571,151.36218 51,147.19952 51,142.02885 v -19.333 c 0,-5.17067 4.332571,-9.33334 9.714286,-9.33334 z" id="internal" inkscape:connector-curvature="0" sodipodi:nodetypes="sssssssss"/>
    <path style="display:inline;fill:url(#intRaisedColor);fill-opacity:1;fill-rule:evenodd;stroke:none;filter:url(#intRaiseFilter)" d="m 60,117.36218 h 50 c 2.77,0 5,2.23 5,5 v 20 c 0,2.77 -2.23,5 -5,5 H 60 c -2.77,0 -5,-2.23 -5,-5 v -20 c 0,-2.77 2.23,-5 5,-5 z" id="internal_raised" inkscape:connector-curvature="0" sodipodi:nodetypes="sssssssss"/>
    <path style="display:inline;fill:url(#borderColor);fill-opacity:1;stroke:none" d="m 60,152.36218 4.5,5 4.5,-5 z" id="brd_tick" inkscape:connector-curvature="0" sodipodi:nodetypes="cccc"/>
    <path style="display:inline;fill:url(#borderColor);fill-opacity:1;stroke:none" d="m 120,131.23718 5,-4.5 -5,-4.5 z" id="brd_tick-right" inkscape:connector-curvature="0" sodipodi:nodetypes="cccc"/>
    <path style="display:inline;fill:url(#borderColor);fill-opacity:1;stroke:none" d="m 50,122.23718 -5,4.5 5,4.5 z" id="brd_tick-left" inkscape:connector-curvature="0" sodipodi:nodetypes="cccc"/>
    <path style="display:inline;fill:url(#intTickColor);fill-opacity:1;stroke:none" d="m 61.125,151.36218 3.375,4 3.375,-4 z" id="int_tick" inkscape:connector-curvature="0" sodipodi:nodetypes="cccc"/>
    <path style="display:inline;fill:url(#intTickSideColor);fill-opacity:1;stroke:none" d="m 51,123.36218 -4,3.375 4,3.375 z" id="int_tick-left" inkscape:connector-curvature="0" sodipodi:nodetypes="cccc"/>
    <path style="display:inline;fill:url(#intTickSideColor);fill-opacity:1;stroke:none" d="m 118.96622,130.11218 4.03378,-3.375 -4.03378,-3.375 z" id="int_tick-right" inkscape:connector-curvature="0" sodipodi:nodetypes="cccc"/>
  </g>
  <g inkscape:groupmode="layer" id="reflectionLayer" style="display:inline;opacity:0.910156" sodipodi:insensitive="true">
    <path style="display:inline;fill:url(#reflectionLinearGradient);fill-opacity:1;fill-rule:evenodd;stroke:none" d="M 60.643,114.36218 H 110 c 4.23422,0 6,2.25 6,4.5 0,1.5 0,1.5 -6,1.5 H 60 c -6,0 -6,0 -6.189189,-1.5 0.189189,-2.25 2.597967,-4.5 6.832189,-4.5 z" id="reflectionPath" inkscape:connector-curvature="0" sodipodi:nodetypes="ssccccs"/>
  </g>
  <g inkscape:groupmode="layer" id="exportLayer" style="display:inline;opacity:0" sodipodi:insensitive="true">
    <rect style="opacity:0.492188;fill:#ff0000;fill-opacity:1;stroke:none" id="rect_TL" width="16" height="13" x="44" y="109.36218" inkscape:export-filename="img/bubble_TL.png" inkscape:export-xdpi="96" inkscape:export-ydpi="96"/>
    <rect style="opacity:0.492188;fill:#ff0000;fill-opacity:1;stroke:none" id="rect_TC" width="20" height="13" x="70" y="109.36218" inkscape:export-filename="img/bubble_TC.png" inkscape:export-xdpi="96" inkscape:export-ydpi="96"/>
    <rect style="opacity:0.492188;fill:#ff0000;fill-opacity:1;stroke:none" id="rect_TR" width="16" height="13" x="110" y="109.36218" inkscape:export-filename="img/bubble_TR.png" inkscape:export-xdpi="96" inkscape:export-ydpi="96"/>
    <rect style="opacity:0.492188;fill:#ff0000;fill-opacity:1;stroke:none" id="rect_CL" width="16" height="10" x="44" y="132.36218" inkscape:export-filename="img/bubble_CL.png" inkscape:export-xdpi="96" inkscape:export-ydpi="96"/>
    <rect style="opacity:0.492188;fill:#ff0000;fill-opacity:1;stroke:none" id="rect_CC" width="20" height="10" x="70" y="132.36218" inkscape:export-filename="img/bubble_CC.png" inkscape:export-xdpi="96" inkscape:export-ydpi="96"/>
    <rect style="opacity:0.492188;fill:#ff0000;fill-opacity:1;stroke:none" id="rect_CR" width="16" height="10" x="110" y="132.36218" inkscape:export-filename="img/bubble_CR.png" inkscape:export-xdpi="96" inkscape:export-ydpi="96"/>
    <rect style="opacity:0.492188;fill:#ff0000;fill-opacity:1;stroke:none" id="rect_BL" width="16" height="16" x="44" y="142.36218" inkscape:export-filename="img/bubble_BL.png" inkscape:export-xdpi="96" inkscape:export-ydpi="96"/>
    <rect style="opacity:0.492188;fill:#ff0000;fill-opacity:1;stroke:none" id="rect_BC" width="20" height="16" x="70" y="142.36218" inkscape:export-filename="img/bubble_BC.png" inkscape:export-xdpi="96" inkscape:export-ydpi="96"/>
    <rect style="opacity:0.492188;fill:#ff0000;fill-opacity:1;stroke:none" id="rect_BR" width="16" height="16" y="142.36218" x="110" inkscape:export-filename="img/bubble_BR.png" inkscape:export-xdpi="96" inkscape:export-ydpi="96"/>
    <rect style="opacity:0.492188;fill:#ff0000;fill-opacity:1;stroke:none" id="rect_tick" width="10" height="16" x="60" y="142.36218" inkscape:export-filename="img/bubble_tick.png" inkscape:export-xdpi="96" inkscape:export-ydpi="96"/>
    <rect style="opacity:0.492188;fill:#ff0000;fill-opacity:1;stroke:none" id="rect_tick-left" width="16" height="10" x="44" y="122.36218" inkscape:export-filename="img/bubble_tick-left.png" inkscape:export-xdpi="96" inkscape:export-ydpi="96"/>
    <rect style="opacity:0.492188;fill:#ff0000;fill-opacity:1;stroke:none" id="rect_tick-right" width="16" height="10" x="110" y="122.36218" inkscape:export-filename="img/bubble_tick-right.png" inkscape:export-xdpi="96" inkscape:export-ydpi="96"/>
  </g>
</svg>
