<?xml version="1.0" encoding="UTF-8" standalone="no"?>
<!-- Created with Inkscape (http://www.inkscape.org/) -->

<svg
   xmlns:dc="http://purl.org/dc/elements/1.1/"
   xmlns:cc="http://creativecommons.org/ns#"
   xmlns:rdf="http://www.w3.org/1999/02/22-rdf-syntax-ns#"
   xmlns:svg="http://www.w3.org/2000/svg"
   xmlns="http://www.w3.org/2000/svg"
   xmlns:xlink="http://www.w3.org/1999/xlink"
   xmlns:sodipodi="http://sodipodi.sourceforge.net/DTD/sodipodi-0.dtd"
   xmlns:inkscape="http://www.inkscape.org/namespaces/inkscape"
   width="744.09448819"
   height="1052.3622047"
   id="svg2"
   version="1.1"
   inkscape:version="0.48.2 r9819"
   sodipodi:docname="img.svg">
  <defs
     id="defs4">
    <pattern
       inkscape:collect="always"
       xlink:href="#Strips1_1.5white"
       id="pattern5370"
       patternTransform="matrix(3.9597979,3.9597979,-9.899496,9.899496,0,0)" />
    <pattern
       inkscape:stockid="Stripes 1:1.5 white"
       id="Strips1_1.5white"
       patternTransform="translate(0,0) scale(10,10)"
       height="1"
       width="2.5"
       patternUnits="userSpaceOnUse"
       inkscape:collect="always">
      <rect
         id="rect4654"
         height="2"
         width="1"
         y="-0.5"
         x="0"
         style="fill:white;stroke:none" />
    </pattern>
    <linearGradient
       id="linearGradient4159">
      <stop
         style="stop-color:#c6f9ff;stop-opacity:1;"
         offset="0"
         id="stop4161" />
      <stop
         style="stop-color:#5bbfee;stop-opacity:1;"
         offset="1"
         id="stop4163" />
    </linearGradient>
    <linearGradient
       id="linearGradient3968">
      <stop
         id="stop3970"
         offset="0"
         style="stop-color:#c2ff6f;stop-opacity:1;" />
      <stop
         id="stop3972"
         offset="1"
         style="stop-color:#82ea2e;stop-opacity:1;" />
    </linearGradient>
    <linearGradient
       id="linearGradient3877">
      <stop
         style="stop-color:#ff9133;stop-opacity:1;"
         offset="0"
         id="stop3879" />
      <stop
         style="stop-color:#ffcf47;stop-opacity:1;"
         offset="1"
         id="stop3881" />
    </linearGradient>
    <radialGradient
       inkscape:collect="always"
       xlink:href="#linearGradient3832-1"
       id="radialGradient3838-6"
       cx="85"
       cy="137.36218"
       fx="85"
       fy="137.36218"
       r="35"
       gradientTransform="matrix(1,0,0,0.42857143,0,78.492676)"
       gradientUnits="userSpaceOnUse" />
    <linearGradient
       id="linearGradient3832-1">
      <stop
         style="stop-color:#ffffff;stop-opacity:1;"
         offset="0"
         id="stop3834-4" />
      <stop
         style="stop-color:#ffffff;stop-opacity:0;"
         offset="1"
         id="stop3836-5" />
    </linearGradient>
    <filter
       inkscape:collect="always"
       id="filter3989">
      <feGaussianBlur
         inkscape:collect="always"
         stdDeviation="0.78"
         id="feGaussianBlur3991" />
    </filter>
    <linearGradient
       inkscape:collect="always"
       xlink:href="#linearGradient3877"
       id="linearGradient3996"
       gradientUnits="userSpaceOnUse"
       x1="90"
       y1="152.36218"
       x2="90"
       y2="147.36218" />
    <filter
       inkscape:collect="always"
       id="filter4038"
       x="-0.072"
       width="1.144"
       y="-0.216"
       height="1.432">
      <feGaussianBlur
         inkscape:collect="always"
         stdDeviation="1.8"
         id="feGaussianBlur4040" />
    </filter>
    <linearGradient
       inkscape:collect="always"
       xlink:href="#linearGradient3832-1"
       id="linearGradient4042"
       gradientUnits="userSpaceOnUse"
       gradientTransform="matrix(0.91428568,0,0,0.50000012,7.03572,115.68108)"
       x1="90.46875"
       y1="113.36218"
       x2="90.46875"
       y2="140.36218" />
    <linearGradient
       id="linearGradient3877-9">
      <stop
         style="stop-color:#ff9133;stop-opacity:1;"
         offset="0"
         id="stop3879-9" />
      <stop
         style="stop-color:#ffcf47;stop-opacity:1;"
         offset="1"
         id="stop3881-4" />
    </linearGradient>
    <filter
       color-interpolation-filters="sRGB"
       inkscape:collect="always"
       id="filter4038-5-3"
       x="-0.071999997"
       width="1.1440001"
       y="-0.21600001"
       height="1.432">
      <feGaussianBlur
         inkscape:collect="always"
         stdDeviation="1.8"
         id="feGaussianBlur4040-0-1" />
    </filter>
    <linearGradient
       gradientTransform="translate(209.60155,62.500003)"
       inkscape:collect="always"
       xlink:href="#linearGradient4159"
       id="linearGradient3996-4-1"
       gradientUnits="userSpaceOnUse"
       x1="90"
       y1="152.36218"
       x2="90"
       y2="142.36218" />
    <linearGradient
       id="linearGradient3968-9">
      <stop
         id="stop3970-8"
         offset="0"
         style="stop-color:#c2ff6f;stop-opacity:1;" />
      <stop
         id="stop3972-0"
         offset="1"
         style="stop-color:#82ea2e;stop-opacity:1;" />
    </linearGradient>
    <linearGradient
       inkscape:collect="always"
       xlink:href="#linearGradient3832-1"
       id="linearGradient4107"
       gradientUnits="userSpaceOnUse"
       gradientTransform="matrix(0.91428568,0,0,0.50000012,7.2857173,53.181079)"
       x1="90.46875"
       y1="113.36218"
       x2="90.46875"
       y2="140.36218" />
    <linearGradient
       inkscape:collect="always"
       xlink:href="#linearGradient3968-9"
       id="linearGradient4115"
       gradientUnits="userSpaceOnUse"
       gradientTransform="translate(100,2.6171875e-6)"
       x1="90"
       y1="152.36218"
       x2="90"
       y2="142.36218" />
    <linearGradient
       inkscape:collect="always"
       xlink:href="#linearGradient3832-1"
       id="linearGradient4133"
       gradientUnits="userSpaceOnUse"
       gradientTransform="matrix(0.91428568,0,0,0.50000012,107.53572,53.181079)"
       x1="90.46875"
       y1="113.36218"
       x2="90.46875"
       y2="140.36218" />
    <linearGradient
       inkscape:collect="always"
       xlink:href="#linearGradient4159"
       id="linearGradient3880"
       gradientUnits="userSpaceOnUse"
       gradientTransform="translate(100,62.500003)"
       x1="90"
       y1="152.36218"
       x2="90"
       y2="142.36218" />
    <linearGradient
       inkscape:collect="always"
       xlink:href="#linearGradient3832-1"
       id="linearGradient3898"
       gradientUnits="userSpaceOnUse"
       gradientTransform="matrix(0.91428568,0,0,0.50000012,107.53572,115.68108)"
       x1="90.46875"
       y1="113.36218"
       x2="90.46875"
       y2="140.36218" />
    <linearGradient
       inkscape:collect="always"
       xlink:href="#linearGradient4159"
       id="linearGradient5364"
       gradientUnits="userSpaceOnUse"
       gradientTransform="translate(-0.5,62.500003)"
       x1="90"
       y1="152.36218"
       x2="90"
       y2="142.36218" />
  </defs>
  <sodipodi:namedview
     id="base"
     pagecolor="#ffffff"
     bordercolor="#666666"
     borderopacity="1.0"
     inkscape:pageopacity="0.0"
     inkscape:pageshadow="2"
     inkscape:zoom="2.8284271"
     inkscape:cx="105.47012"
     inkscape:cy="848.91022"
     inkscape:document-units="px"
     inkscape:current-layer="layer2"
     showgrid="true"
     inkscape:window-width="1237"
     inkscape:window-height="722"
     inkscape:window-x="380"
     inkscape:window-y="1080"
     inkscape:window-maximized="0"
     inkscape:snap-global="false"
     showguides="true"
     inkscape:guide-bbox="true">
    <inkscape:grid
       type="xygrid"
       id="grid3775"
       empspacing="10"
       visible="true"
       enabled="true"
       snapvisiblegridlinesonly="true" />
    <sodipodi:guide
       orientation="0,1"
       position="51,932"
       id="guide3947" />
    <sodipodi:guide
       orientation="1,0"
       position="47,933"
       id="guide3949" />
    <sodipodi:guide
       orientation="0,1"
       position="47,894"
       id="guide3951" />
    <sodipodi:guide
       orientation="1,0"
       position="123,914"
       id="guide3953" />
  </sodipodi:namedview>
  <metadata
     id="metadata7">
    <rdf:RDF>
      <cc:Work
         rdf:about="">
        <dc:format>image/svg+xml</dc:format>
        <dc:type
           rdf:resource="http://purl.org/dc/dcmitype/StillImage" />
        <dc:title></dc:title>
      </cc:Work>
    </rdf:RDF>
  </metadata>
  <g
     inkscape:groupmode="layer"
     id="layer6"
     inkscape:label="bg-shower"
     style="display:none"
     sodipodi:insensitive="true">
    <rect
       style="fill:#00ff00;fill-opacity:1;stroke:none"
       id="rect4045"
       width="160"
       height="90"
       x="10"
       y="92.362183" />
  </g>
  <g
     inkscape:groupmode="layer"
     id="layer5"
     inkscape:label="background"
     sodipodi:insensitive="true">
    <rect
       inkscape:export-ydpi="90"
       inkscape:export-xdpi="90"
       inkscape:export-filename="img/bubble_tick.png"
       y="142.36218"
       x="60"
       height="16"
       width="10"
       id="rect4066"
       style="fill:#ffffff;fill-opacity:1;stroke:none;display:inline" />
    <rect
       inkscape:export-ydpi="90"
       inkscape:export-xdpi="90"
       inkscape:export-filename="img/bubble_tick.png"
       y="122.36218"
       x="44"
       height="10"
       width="16"
       id="rect4068"
       style="fill:#ffffff;fill-opacity:1;stroke:none;display:inline" />
    <rect
       style="fill:#ffffff;fill-opacity:1;stroke:none;display:inline"
       id="rect3941-5"
       width="16"
       height="10"
       x="110"
       y="122.36218"
       inkscape:export-filename="img/bubble_tick.png"
       inkscape:export-xdpi="90"
       inkscape:export-ydpi="90" />
  </g>
  <g
     inkscape:groupmode="layer"
     id="layer3"
     inkscape:label="ombre"
     style="opacity:0.82300002;display:inline"
     sodipodi:insensitive="true">
    <path
       sodipodi:nodetypes="sssccsscccssccsss"
       inkscape:connector-curvature="0"
       id="path4103"
       d="m 60,113.36218 50,0 c 5.54,0 10,4.46 10,10 l 4.8733,4.07566 -4.8733,4.06109 0,11.86325 c 0,5.54 -4.46,10 -10,10 l -41,0 -4,4 -3.032602,-4 -1.967398,0 c -5.54,0 -10,-4.46 -10,-10 l 0,-13 -4,-3 4,-4 c 0.205341,-0.20534 0.01225,-0.57782 0.03628,-0.8618 0.434258,-5.13351 4.714119,-9.1382 9.96372,-9.1382 z"
       style="fill:#000000;fill-rule:evenodd;stroke:none;display:inline;filter:url(#filter3989)" />
    <path
       sodipodi:nodetypes="sssccsscccssccsss"
       inkscape:connector-curvature="0"
       id="path4109"
       d="m 160.25,113.36218 50,0 c 5.54,0 10,4.46 10,10 l 4.8733,4.07566 -4.8733,4.06109 0,11.86325 c 0,5.54 -4.46,10 -10,10 l -41,0 -4,4 -3.0326,-4 -1.9674,0 c -5.54,0 -10,-4.46 -10,-10 l 0,-13 -4,-3 4,-4 c 0.20534,-0.20534 0.0122,-0.57782 0.0363,-0.8618 0.43426,-5.13351 4.71412,-9.1382 9.96372,-9.1382 z"
       style="fill:#000000;fill-rule:evenodd;stroke:none;display:inline;filter:url(#filter3989)" />
    <path
       sodipodi:nodetypes="sssccsscccssccsss"
       inkscape:connector-curvature="0"
       id="path3874"
       d="m 160.25,175.86218 50,0 c 5.54,0 10,4.46 10,10 l 4.8733,4.07566 -4.8733,4.06109 0,11.86325 c 0,5.54 -4.46,10 -10,10 l -41,0 -4,4 -3.0326,-4 -1.9674,0 c -5.54,0 -10,-4.46 -10,-10 l 0,-13 -4,-3 4,-4 c 0.20534,-0.20534 0.0122,-0.57782 0.0363,-0.8618 0.43426,-5.13351 4.71412,-9.1382 9.96372,-9.1382 z"
       style="fill:#000000;fill-rule:evenodd;stroke:none;display:inline;filter:url(#filter3989)" />
    <path
       style="fill:#000000;fill-rule:evenodd;stroke:none;display:inline;filter:url(#filter3989)"
       d="m 59.75,175.86218 50,0 c 5.54,0 10,4.46 10,10 l 4.8733,4.07566 -4.8733,4.06109 0,11.86325 c 0,5.54 -4.46,10 -10,10 l -41,0 -4,4 -3.0326,-4 -1.9674,0 c -5.54,0 -10,-4.46 -10,-10 l 0,-13 -4,-3 4,-4 c 0.20534,-0.20534 0.0122,-0.57782 0.0363,-0.8618 0.43426,-5.13351 4.71412,-9.1382 9.96372,-9.1382 z"
       id="rect3773-4"
       inkscape:connector-curvature="0"
       sodipodi:nodetypes="sssccsscccssccsss" />
  </g>
  <g
     inkscape:label="base"
     inkscape:groupmode="layer"
     id="layer1"
     style="display:inline"
     sodipodi:insensitive="true">
    <path
       style="fill:#ff9600;fill-opacity:1;fill-rule:evenodd;stroke:none;display:inline"
       d="m 60,112.36218 50,0 c 5.54,0 10,4.46 10,10 l 0,20 c 0,5.54 -4.46,10 -10,10 l -50,0 c -5.54,0 -10,-4.46 -10,-10 l 0,-20 c 0,-5.54 4.46,-10 10,-10 z"
       id="rect3773"
       inkscape:connector-curvature="0"
       sodipodi:nodetypes="sssssssss" />
    <path
       style="fill:url(#linearGradient3996);fill-opacity:1;fill-rule:evenodd;stroke:none;display:inline"
       d="m 60.714286,113.36251 48.571424,0 c 5.38172,0 9.71429,4.16267 9.71429,9.33334 l 0,19.333 c 0,5.17067 -4.33257,9.33333 -9.71429,9.33333 l -48.571424,0 C 55.332571,151.36218 51,147.19952 51,142.02885 l 0,-19.333 c 0,-5.17067 4.332571,-9.33334 9.714286,-9.33334 z"
       id="rect3994"
       inkscape:connector-curvature="0"
       sodipodi:nodetypes="sssssssss" />
    <path
       style="fill:#ffef56;fill-opacity:1;fill-rule:evenodd;stroke:none;display:inline;filter:url(#filter4038)"
       d="m 60,117.36218 50,0 c 2.77,0 5,2.23 5,5 l 0,20 c 0,2.77 -2.23,5 -5,5 l -50,0 c -2.77,0 -5,-2.23 -5,-5 l 0,-20 c 0,-2.77 2.23,-5 5,-5 z"
       id="rect3773-49"
       inkscape:connector-curvature="0"
       sodipodi:nodetypes="sssssssss" />
    <path
       style="fill:#ff9600;fill-opacity:1;stroke:none"
       d="m 60,152.36218 4.5,5 4.5,-5 z"
       id="path4058"
       inkscape:connector-curvature="0"
       sodipodi:nodetypes="cccc" />
    <path
       style="fill:#ff9600;fill-opacity:1;stroke:none"
       d="m 120,131.23718 5,-4.5 -5,-4.5 z"
       id="path4062"
       inkscape:connector-curvature="0"
       sodipodi:nodetypes="cccc" />
    <path
       sodipodi:nodetypes="cccc"
       inkscape:connector-curvature="0"
       id="path3984"
       d="m 50,122.23718 -5,4.5 5,4.5 z"
       style="fill:#ff9600;fill-opacity:1;stroke:none" />
    <path
       style="fill:#ff9e37;fill-opacity:1;stroke:none"
       d="m 61.125,151.36218 3.375,4 3.375,-4 z"
       id="path4060"
       inkscape:connector-curvature="0"
       sodipodi:nodetypes="cccc" />
    <path
       style="fill:#ffd047;fill-opacity:1;stroke:none"
       d="m 118.96622,130.11218 4.03378,-3.375 -4.03378,-3.375 z"
       id="path4064"
       inkscape:connector-curvature="0"
       sodipodi:nodetypes="cccc" />
    <path
       sodipodi:nodetypes="cccc"
       inkscape:connector-curvature="0"
       id="path3986"
       d="m 51,123.36218 -4,3.375 4,3.375 z"
       style="fill:#ffd147;fill-opacity:1;stroke:none" />
    <path
       sodipodi:nodetypes="sssssssss"
       inkscape:connector-curvature="0"
       id="path4111"
       d="m 160,112.36218 50,0 c 5.54,0 10,4.46 10,10 l 0,20 c 0,5.54 -4.46,10 -10,10 l -50,0 c -5.54,0 -10,-4.46 -10,-10 l 0,-20 c 0,-5.54 4.46,-10 10,-10 z"
       style="fill:#17cd1d;fill-opacity:1;fill-rule:evenodd;stroke:none;display:inline" />
    <path
       style="fill:#1789cd;fill-opacity:1;fill-rule:evenodd;stroke:none;display:inline"
       d="m 160,174.86218 50,0 c 5.54,0 10,4.46 10,10 l 0,20 c 0,5.54 -4.46,10 -10,10 l -50,0 c -5.54,0 -10,-4.46 -10,-10 l 0,-20 c 0,-5.54 4.46,-10 10,-10 z"
       id="path3876"
       inkscape:connector-curvature="0"
       sodipodi:nodetypes="sssssssss" />
    <path
       sodipodi:nodetypes="sssssssss"
       inkscape:connector-curvature="0"
       id="path4165"
       d="m 59.5,174.86218 50,0 c 5.54,0 10,4.46 10,10 l 0,20 c 0,5.54 -4.46,10 -10,10 l -50,0 c -5.54,0 -10,-4.46 -10,-10 l 0,-20 c 0,-5.54 4.46,-10 10,-10 z"
       style="fill:#1789cd;fill-opacity:1;fill-rule:evenodd;stroke:none;display:inline" />
    <path
       style="fill:#1789cd;fill-opacity:1;fill-rule:evenodd;stroke:none;display:inline"
       d="m 269.60155,174.86218 50,0 c 5.54,0 10,4.46 10,10 l 0,20 c 0,5.54 -4.46,10 -10,10 l -50,0 c -5.54,0 -10,-4.46 -10,-10 l 0,-20 c 0,-5.54 4.46,-10 10,-10 z"
       id="rect3773-6"
       inkscape:connector-curvature="0"
       sodipodi:nodetypes="sssssssss" />
    <path
       sodipodi:nodetypes="sssssssss"
       inkscape:connector-curvature="0"
       id="path4113"
       d="m 160.71429,113.36251 48.57142,0 c 5.38172,0 9.71429,4.16267 9.71429,9.33334 l 0,19.333 c 0,5.17067 -4.33257,9.33333 -9.71429,9.33333 l -48.57142,0 c -5.38172,0 -9.71429,-4.16266 -9.71429,-9.33333 l 0,-19.333 c 0,-5.17067 4.33257,-9.33334 9.71429,-9.33334 z"
       style="fill:url(#linearGradient4115);fill-opacity:1;fill-rule:evenodd;stroke:none;display:inline" />
    <path
       style="fill:url(#linearGradient3880);fill-opacity:1;fill-rule:evenodd;stroke:none;display:inline"
       d="m 160.71429,175.86251 48.57142,0 c 5.38172,0 9.71429,4.16267 9.71429,9.33334 l 0,19.333 c 0,5.17067 -4.33257,9.33333 -9.71429,9.33333 l -48.57142,0 c -5.38172,0 -9.71429,-4.16266 -9.71429,-9.33333 l 0,-19.333 c 0,-5.17067 4.33257,-9.33334 9.71429,-9.33334 z"
       id="path3878"
       inkscape:connector-curvature="0"
       sodipodi:nodetypes="sssssssss" />
    <path
       style="fill:url(#linearGradient5364);fill-opacity:1;fill-rule:evenodd;stroke:none;display:inline"
       d="m 60.21429,175.86251 48.57142,0 c 5.38172,0 9.71429,4.16267 9.71429,9.33334 l 0,19.333 c 0,5.17067 -4.33257,9.33333 -9.71429,9.33333 l -48.57142,0 c -5.38172,0 -9.71429,-4.16266 -9.71429,-9.33333 l 0,-19.333 c 0,-5.17067 4.33257,-9.33334 9.71429,-9.33334 z"
       id="path5362"
       inkscape:connector-curvature="0"
       sodipodi:nodetypes="sssssssss" />
    <path
       style="fill:url(#linearGradient3996-4-1);fill-opacity:1;fill-rule:evenodd;stroke:none;display:inline"
       d="m 270.31584,175.86251 48.57142,0 c 5.38172,0 9.71429,4.16267 9.71429,9.33334 l 0,19.333 c 0,5.17067 -4.33257,9.33333 -9.71429,9.33333 l -48.57142,0 c -5.38172,0 -9.71429,-4.16266 -9.71429,-9.33333 l 0,-19.333 c 0,-5.17067 4.33257,-9.33334 9.71429,-9.33334 z"
       id="rect3994-9"
       inkscape:connector-curvature="0"
       sodipodi:nodetypes="sssssssss" />
    <path
       sodipodi:nodetypes="sssssssss"
       inkscape:connector-curvature="0"
       id="path4117"
       d="m 160,117.36218 50,0 c 2.77,0 5,2.23 5,5 l 0,20 c 0,2.77 -2.23,5 -5,5 l -50,0 c -2.77,0 -5,-2.23 -5,-5 l 0,-20 c 0,-2.77 2.23,-5 5,-5 z"
       style="fill:#8fff47;fill-opacity:1;fill-rule:evenodd;stroke:none;display:inline;filter:url(#filter4038-5-3)" />
    <path
       style="fill:#80cdee;fill-opacity:1;fill-rule:evenodd;stroke:none;display:inline;filter:url(#filter4038-5-3)"
       d="m 160,179.86218 50,0 c 2.77,0 5,2.23 5,5 l 0,20 c 0,2.77 -2.23,5 -5,5 l -50,0 c -2.77,0 -5,-2.23 -5,-5 l 0,-20 c 0,-2.77 2.23,-5 5,-5 z"
       id="path3882"
       inkscape:connector-curvature="0"
       sodipodi:nodetypes="sssssssss" />
    <path
       style="fill:#80cdee;fill-opacity:1;fill-rule:evenodd;stroke:none;display:inline;filter:url(#filter4038-5-3)"
       d="m 59.5,179.86218 50,0 c 2.77,0 5,2.23 5,5 l 0,20 c 0,2.77 -2.23,5 -5,5 l -50,0 c -2.77,0 -5,-2.23 -5,-5 l 0,-20 c 0,-2.77 2.23,-5 5,-5 z"
       id="path3924"
       inkscape:connector-curvature="0"
       sodipodi:nodetypes="sssssssss" />
    <path
       sodipodi:nodetypes="sssssssss"
       inkscape:connector-curvature="0"
       id="path4171"
       d="m 59.5,179.86218 50,0 c 2.77,0 5,2.23 5,5 l 0,20 c 0,2.77 -2.23,5 -5,5 l -50,0 c -2.77,0 -5,-2.23 -5,-5 l 0,-20 c 0,-2.77 2.23,-5 5,-5 z"
       style="fill:#80cdee;fill-opacity:1;fill-rule:evenodd;stroke:none;display:inline;filter:url(#filter4038-5-3)" />
    <path
       style="fill:#85eaff;fill-opacity:1;fill-rule:evenodd;stroke:none;display:inline;filter:url(#filter4038-5-3)"
       d="m 269.60155,179.86218 50,0 c 2.77,0 5,2.23 5,5 l 0,20 c 0,2.77 -2.23,5 -5,5 l -50,0 c -2.77,0 -5,-2.23 -5,-5 l 0,-20 c 0,-2.77 2.23,-5 5,-5 z"
       id="rect3773-49-0"
       inkscape:connector-curvature="0"
       sodipodi:nodetypes="sssssssss" />
    <path
       sodipodi:nodetypes="cccc"
       inkscape:connector-curvature="0"
       id="path4119"
       d="m 160,152.36218 4.5,5 4.5,-5 z"
       style="fill:#18cd1d;fill-opacity:1;stroke:none;display:inline" />
    <path
       style="fill:#1889cc;fill-opacity:1;stroke:none;display:inline"
       d="m 160,214.86218 4.5,5 4.5,-5 z"
       id="path3884"
       inkscape:connector-curvature="0"
       sodipodi:nodetypes="cccc" />
    <path
       sodipodi:nodetypes="cccc"
       inkscape:connector-curvature="0"
       id="path4173"
       d="m 59.5,214.86218 4.5,5 4.5,-5 z"
       style="fill:#1889cc;fill-opacity:1;stroke:none;display:inline" />
    <path
       style="fill:#1889cc;fill-opacity:1;stroke:none;display:inline"
       d="m 269.60155,214.86218 4.5,5 4.5,-5 z"
       id="path4058-8"
       inkscape:connector-curvature="0"
       sodipodi:nodetypes="cccc" />
    <path
       sodipodi:nodetypes="cccc"
       inkscape:connector-curvature="0"
       id="path4121"
       d="m 220,131.23718 5,-4.5 -5,-4.5 z"
       style="fill:#18cd1d;fill-opacity:1;stroke:none;display:inline" />
    <path
       style="fill:#1889cc;fill-opacity:1;stroke:none;display:inline"
       d="m 220,193.73718 5,-4.5 -5,-4.5 z"
       id="path3886"
       inkscape:connector-curvature="0"
       sodipodi:nodetypes="cccc" />
    <path
       sodipodi:nodetypes="cccc"
       inkscape:connector-curvature="0"
       id="path4175"
       d="m 119.5,193.73718 5,-4.5 -5,-4.5 z"
       style="fill:#1889cc;fill-opacity:1;stroke:none;display:inline" />
    <path
       style="fill:#1889cc;fill-opacity:1;stroke:none;display:inline"
       d="m 329.60155,193.73718 5,-4.5 -5,-4.5 z"
       id="path4062-8"
       inkscape:connector-curvature="0"
       sodipodi:nodetypes="cccc" />
    <path
       style="fill:#18cd1d;fill-opacity:1;stroke:none;display:inline"
       d="m 150,122.23718 -5,4.5 5,4.5 z"
       id="path4123"
       inkscape:connector-curvature="0"
       sodipodi:nodetypes="cccc" />
    <path
       sodipodi:nodetypes="cccc"
       inkscape:connector-curvature="0"
       id="path3888"
       d="m 150,184.73718 -5,4.5 5,4.5 z"
       style="fill:#1889cc;fill-opacity:1;stroke:none;display:inline" />
    <path
       style="fill:#1889cc;fill-opacity:1;stroke:none;display:inline"
       d="m 49.5,184.73718 -5,4.5 5,4.5 z"
       id="path4177"
       inkscape:connector-curvature="0"
       sodipodi:nodetypes="cccc" />
    <path
       sodipodi:nodetypes="cccc"
       inkscape:connector-curvature="0"
       id="path3984-2"
       d="m 259.60155,184.73718 -5,4.5 5,4.5 z"
       style="fill:#1889cc;fill-opacity:1;stroke:none;display:inline" />
    <path
       sodipodi:nodetypes="cccc"
       inkscape:connector-curvature="0"
       id="path4125"
       d="m 161.125,151.36218 3.375,4 3.375,-4 z"
       style="fill:#b8fc66;fill-opacity:1;stroke:none;display:inline" />
    <path
       style="fill:#b0f4ff;fill-opacity:1;stroke:none;display:inline"
       d="m 161.125,213.86218 3.375,4 3.375,-4 z"
       id="path3890"
       inkscape:connector-curvature="0"
       sodipodi:nodetypes="cccc" />
    <path
       sodipodi:nodetypes="cccc"
       inkscape:connector-curvature="0"
       id="path4179"
       d="m 60.625,213.86218 3.375,4 3.375,-4 z"
       style="fill:#b0f4ff;fill-opacity:1;stroke:none;display:inline" />
    <path
       style="fill:#b0f4ff;fill-opacity:1;stroke:none;display:inline"
       d="m 270.72655,213.86218 3.375,4 3.375,-4 z"
       id="path4060-8"
       inkscape:connector-curvature="0"
       sodipodi:nodetypes="cccc" />
    <path
       sodipodi:nodetypes="cccc"
       inkscape:connector-curvature="0"
       id="path4127"
       d="m 218.96622,130.11218 4.03378,-3.375 -4.03378,-3.375 z"
       style="fill:#82ea2e;fill-opacity:1;stroke:none;display:inline" />
    <path
       style="fill:#5ac4f0;fill-opacity:1;stroke:none;display:inline"
       d="m 218.96622,192.61218 4.03378,-3.375 -4.03378,-3.375 z"
       id="path3892"
       inkscape:connector-curvature="0"
       sodipodi:nodetypes="cccc" />
    <path
       sodipodi:nodetypes="cccc"
       inkscape:connector-curvature="0"
       id="path4181"
       d="m 118.46622,192.61218 4.03378,-3.375 -4.03378,-3.375 z"
       style="fill:#5ac4f0;fill-opacity:1;stroke:none;display:inline" />
    <path
       style="fill:#4de3ff;fill-opacity:1;stroke:none;display:inline"
       d="m 328.56777,192.61218 4.03378,-3.375 -4.03378,-3.375 z"
       id="path4064-0"
       inkscape:connector-curvature="0"
       sodipodi:nodetypes="cccc" />
    <path
       style="fill:#82eb2f;fill-opacity:1;stroke:none;display:inline"
       d="m 151,123.36218 -4,3.375 4,3.375 z"
       id="path4129"
       inkscape:connector-curvature="0"
       sodipodi:nodetypes="cccc" />
    <path
       sodipodi:nodetypes="cccc"
       inkscape:connector-curvature="0"
       id="path3894"
       d="m 151,185.86218 -4,3.375 4,3.375 z"
       style="fill:#5dc0ee;fill-opacity:1;stroke:none;display:inline" />
    <path
       style="fill:#5dc0ee;fill-opacity:1;stroke:none;display:inline"
       d="m 50.5,185.86218 -4,3.375 4,3.375 z"
       id="path4183"
       inkscape:connector-curvature="0"
       sodipodi:nodetypes="cccc" />
    <path
       sodipodi:nodetypes="cccc"
       inkscape:connector-curvature="0"
       id="path3986-2"
       d="m 260.60155,185.86218 -4,3.375 4,3.375 z"
       style="fill:#4de3ff;fill-opacity:1;stroke:none;display:inline" />
    <path
       sodipodi:nodetypes="sssssssss"
       inkscape:connector-curvature="0"
       id="path4167"
       d="m 60.21429,175.86251 48.57142,0 c 5.38172,0 9.71429,4.16267 9.71429,9.33334 l 0,19.333 c 0,5.17067 -4.33257,9.33333 -9.71429,9.33333 l -48.57142,0 c -5.38172,0 -9.71429,-4.16266 -9.71429,-9.33333 l 0,-19.333 c 0,-5.17067 4.33257,-9.33334 9.71429,-9.33334 z"
       style="opacity:0.49193552;fill:url(#pattern5370);fill-opacity:1;fill-rule:evenodd;stroke:none;display:inline" />
  </g>
  <g
     inkscape:groupmode="layer"
     id="layer4"
     inkscape:label="reflet"
     style="opacity:0.91015625;display:inline"
     sodipodi:insensitive="true">
    <path
       sodipodi:nodetypes="ssccccs"
       inkscape:connector-curvature="0"
       id="path4105"
       d="m 60.643,114.36218 49.357,0 c 4.23422,0 6,2.25 6,4.5 0,1.5 0,1.5 -6,1.5 l -50,0 c -6,0 -6,0 -6.189189,-1.5 0.189189,-2.25 2.597967,-4.5 6.832189,-4.5 z"
       style="fill:url(#linearGradient4107);fill-opacity:1;fill-rule:evenodd;stroke:none;display:inline" />
    <path
       sodipodi:nodetypes="ssccccs"
       inkscape:connector-curvature="0"
       id="path4131"
       d="m 160.893,114.36218 49.357,0 c 4.23422,0 6,2.25 6,4.5 0,1.5 0,1.5 -6,1.5 l -50,0 c -6,0 -6,0 -6.18919,-1.5 0.18919,-2.25 2.59797,-4.5 6.83219,-4.5 z"
       style="fill:url(#linearGradient4133);fill-opacity:1;fill-rule:evenodd;stroke:none;display:inline" />
    <path
       sodipodi:nodetypes="ssccccs"
       inkscape:connector-curvature="0"
       id="path3896"
       d="m 160.893,176.86218 49.357,0 c 4.23422,0 6,2.25 6,4.5 0,1.5 0,1.5 -6,1.5 l -50,0 c -6,0 -6,0 -6.18919,-1.5 0.18919,-2.25 2.59797,-4.5 6.83219,-4.5 z"
       style="fill:url(#linearGradient3898);fill-opacity:1;fill-rule:evenodd;stroke:none;display:inline" />
    <path
       style="fill:url(#linearGradient4042);fill-opacity:1;fill-rule:evenodd;stroke:none;display:inline"
       d="m 60.393,176.86218 49.357,0 c 4.23422,0 6,2.25 6,4.5 0,1.5 0,1.5 -6,1.5 l -50,0 c -6,0 -6,0 -6.18919,-1.5 0.18919,-2.25 2.59797,-4.5 6.83219,-4.5 z"
       id="rect3773-8"
       inkscape:connector-curvature="0"
       sodipodi:nodetypes="ssccccs" />
  </g>
  <g
     inkscape:groupmode="layer"
     id="layer2"
     inkscape:label="export"
     style="opacity:0;display:inline">
    <rect
       style="opacity:0.4921875;fill:#ff0000;fill-opacity:1;stroke:none"
       id="rect4079"
       width="16"
       height="13"
       x="44"
       y="109.36218"
       inkscape:export-filename="img/bubble-orange/bubble_TL.png"
       inkscape:export-xdpi="90"
       inkscape:export-ydpi="90" />
    <rect
       style="opacity:0.4921875;fill:#ff0000;fill-opacity:1;stroke:none"
       id="rect4135"
       width="16"
       height="13"
       x="144"
       y="109.36218"
       inkscape:export-filename="img/bubble-green/bubble_TL.png"
       inkscape:export-xdpi="90"
       inkscape:export-ydpi="90" />
    <rect
       style="opacity:0.4921875;fill:#ff0000;fill-opacity:1;stroke:none"
       id="rect3900"
       width="16"
       height="13"
       x="144"
       y="171.86218"
       inkscape:export-filename="img/bubble-blue/bubble_TL.png"
       inkscape:export-xdpi="90"
       inkscape:export-ydpi="90" />
    <rect
       inkscape:export-ydpi="90"
       inkscape:export-xdpi="90"
       inkscape:export-filename="img/bubble-orange/bubble_BL.png"
       y="142.36218"
       x="44"
       height="16"
       width="16"
       id="rect4081"
       style="opacity:0.4921875;fill:#ff0000;fill-opacity:1;stroke:none" />
    <rect
       inkscape:export-ydpi="90"
       inkscape:export-xdpi="90"
       inkscape:export-filename="img/bubble-green/bubble_BL.png"
       y="142.36218"
       x="144"
       height="16"
       width="16"
       id="rect4137"
       style="opacity:0.4921875;fill:#ff0000;fill-opacity:1;stroke:none" />
    <rect
       inkscape:export-ydpi="90"
       inkscape:export-xdpi="90"
       inkscape:export-filename="img/bubble-blue/bubble_BL.png"
       y="204.86218"
       x="144"
       height="16"
       width="16"
       id="rect3902"
       style="opacity:0.4921875;fill:#ff0000;fill-opacity:1;stroke:none" />
    <rect
       style="fill:#00d1ff;fill-opacity:0.61637932;stroke:none"
       id="rect4083"
       width="10"
       height="16"
       x="60"
       y="142.36218"
       inkscape:export-filename="img/bubble-orange/bubble_tick.png"
       inkscape:export-xdpi="90"
       inkscape:export-ydpi="90" />
    <rect
       style="fill:#00d1ff;fill-opacity:0.61637932;stroke:none"
       id="rect4139"
       width="10"
       height="16"
       x="160"
       y="142.36218"
       inkscape:export-filename="img/bubble-green/bubble_tick.png"
       inkscape:export-xdpi="90"
       inkscape:export-ydpi="90" />
    <rect
       style="fill:#00d1ff;fill-opacity:0.61637932;stroke:none"
       id="rect3904"
       width="10"
       height="16"
       x="160"
       y="204.86218"
       inkscape:export-filename="img/bubble-blue/bubble_tick.png"
       inkscape:export-xdpi="90"
       inkscape:export-ydpi="90" />
    <rect
       inkscape:export-ydpi="90"
       inkscape:export-xdpi="90"
       inkscape:export-filename="img/bubble-orange/bubble_CL.png"
       style="opacity:0.4921875;fill:#00ff12;fill-opacity:1;stroke:none"
       id="rect4085"
       width="16"
       height="10"
       x="44"
       y="132.36218" />
    <rect
       inkscape:export-ydpi="90"
       inkscape:export-xdpi="90"
       inkscape:export-filename="img/bubble-green/bubble_CL.png"
       style="opacity:0.4921875;fill:#00ff12;fill-opacity:1;stroke:none"
       id="rect4141"
       width="16"
       height="10"
       x="144"
       y="132.36218" />
    <rect
       inkscape:export-ydpi="90"
       inkscape:export-xdpi="90"
       inkscape:export-filename="img/bubble-blue/bubble_CL.png"
       style="opacity:0.4921875;fill:#00ff12;fill-opacity:1;stroke:none"
       id="rect3906"
       width="16"
       height="10"
       x="144"
       y="194.86218" />
    <rect
       y="122.36218"
       x="44"
       height="10"
       width="16"
       id="rect4087"
       style="opacity:0.4921875;fill:#d800ff;fill-opacity:1;stroke:none"
       inkscape:export-filename="img/bubble-orange/bubble_tick-left.png"
       inkscape:export-xdpi="90"
       inkscape:export-ydpi="90" />
    <rect
       y="122.36218"
       x="144"
       height="10"
       width="16"
       id="rect4143"
       style="opacity:0.4921875;fill:#d800ff;fill-opacity:1;stroke:none"
       inkscape:export-filename="img/bubble-green/bubble_tick-left.png"
       inkscape:export-xdpi="90"
       inkscape:export-ydpi="90" />
    <rect
       y="184.86218"
       x="144"
       height="10"
       width="16"
       id="rect3908"
       style="opacity:0.4921875;fill:#d800ff;fill-opacity:1;stroke:none"
       inkscape:export-filename="img/bubble-blue/bubble_tick-left.png"
       inkscape:export-xdpi="90"
       inkscape:export-ydpi="90" />
    <rect
       style="opacity:0.4921875;fill:#ff0000;fill-opacity:1;stroke:none"
       id="rect4089"
       width="20"
       height="13"
       x="70"
       y="109.36218"
       inkscape:export-filename="img/bubble-orange/bubble_TC.png"
       inkscape:export-xdpi="90"
       inkscape:export-ydpi="90" />
    <rect
       style="opacity:0.4921875;fill:#ff0000;fill-opacity:1;stroke:none"
       id="rect4145"
       width="20"
       height="13"
       x="170"
       y="109.36218"
       inkscape:export-filename="img/bubble-green/bubble_TC.png"
       inkscape:export-xdpi="90"
       inkscape:export-ydpi="90" />
    <rect
       style="opacity:0.4921875;fill:#ff0000;fill-opacity:1;stroke:none"
       id="rect3910"
       width="20"
       height="13"
       x="170"
       y="171.86218"
       inkscape:export-filename="img/bubble-blue/bubble_TC.png"
       inkscape:export-xdpi="90"
       inkscape:export-ydpi="90" />
    <rect
       style="opacity:0.4921875;fill:#ff0000;fill-opacity:1;stroke:none"
       id="rect4091"
       width="20"
       height="16"
       x="70"
       y="142.36218"
       inkscape:export-filename="img/bubble-orange/bubble_BC.png"
       inkscape:export-xdpi="90"
       inkscape:export-ydpi="90" />
    <rect
       style="opacity:0.4921875;fill:#ff0000;fill-opacity:1;stroke:none"
       id="rect4147"
       width="20"
       height="16"
       x="170"
       y="142.36218"
       inkscape:export-filename="img/bubble-green/bubble_BC.png"
       inkscape:export-xdpi="90"
       inkscape:export-ydpi="90" />
    <rect
       style="opacity:0.4921875;fill:#ff0000;fill-opacity:1;stroke:none"
       id="rect3912"
       width="20"
       height="16"
       x="170"
       y="204.86218"
       inkscape:export-filename="img/bubble-blue/bubble_BC.png"
       inkscape:export-xdpi="90"
       inkscape:export-ydpi="90" />
    <rect
       y="132.36218"
       x="70"
       height="10"
       width="20"
       id="rect4093"
       style="opacity:0.4921875;fill:#00ff12;fill-opacity:1;stroke:none"
       inkscape:export-filename="img/bubble-orange/bubble_CC.png"
       inkscape:export-xdpi="90"
       inkscape:export-ydpi="90" />
    <rect
       y="132.36218"
       x="170"
       height="10"
       width="20"
       id="rect4149"
       style="opacity:0.4921875;fill:#00ff12;fill-opacity:1;stroke:none"
       inkscape:export-filename="img/bubble-green/bubble_CC.png"
       inkscape:export-xdpi="90"
       inkscape:export-ydpi="90" />
    <rect
       y="194.86218"
       x="170"
       height="10"
       width="20"
       id="rect3914"
       style="opacity:0.4921875;fill:#00ff12;fill-opacity:1;stroke:none"
       inkscape:export-filename="img/bubble-blue/bubble_CC.png"
       inkscape:export-xdpi="90"
       inkscape:export-ydpi="90" />
    <rect
       y="109.36218"
       x="110"
       height="13"
       width="16"
       id="rect4095"
       style="opacity:0.4921875;fill:#ff0000;fill-opacity:1;stroke:none"
       inkscape:export-filename="img/bubble-orange/bubble_TR.png"
       inkscape:export-xdpi="90"
       inkscape:export-ydpi="90" />
    <rect
       y="109.36218"
       x="210"
       height="13"
       width="16"
       id="rect4151"
       style="opacity:0.4921875;fill:#ff0000;fill-opacity:1;stroke:none"
       inkscape:export-filename="img/bubble-green/bubble_TR.png"
       inkscape:export-xdpi="90"
       inkscape:export-ydpi="90" />
    <rect
       y="171.86218"
       x="210"
       height="13"
       width="16"
       id="rect3916"
       style="opacity:0.4921875;fill:#ff0000;fill-opacity:1;stroke:none"
       inkscape:export-filename="img/bubble-blue/bubble_TR.png"
       inkscape:export-xdpi="90"
       inkscape:export-ydpi="90" />
    <rect
       y="142.36218"
       x="110"
       height="16"
       width="16"
       id="rect4097"
       style="opacity:0.4921875;fill:#ff0000;fill-opacity:1;stroke:none"
       inkscape:export-filename="img/bubble-orange/bubble_BR.png"
       inkscape:export-xdpi="90"
       inkscape:export-ydpi="90" />
    <rect
       y="142.36218"
       x="210"
       height="16"
       width="16"
       id="rect4153"
       style="opacity:0.4921875;fill:#ff0000;fill-opacity:1;stroke:none"
       inkscape:export-filename="img/bubble-green/bubble_BR.png"
       inkscape:export-xdpi="90"
       inkscape:export-ydpi="90" />
    <rect
       y="204.86218"
       x="210"
       height="16"
       width="16"
       id="rect3918"
       style="opacity:0.4921875;fill:#ff0000;fill-opacity:1;stroke:none"
       inkscape:export-filename="img/bubble-blue/bubble_BR.png"
       inkscape:export-xdpi="90"
       inkscape:export-ydpi="90" />
    <rect
       inkscape:export-ydpi="90"
       inkscape:export-xdpi="90"
       inkscape:export-filename="img/bubble-orange/bubble_CR.png"
       y="132.36218"
       x="110"
       height="10"
       width="16"
       id="rect4099"
       style="opacity:0.4921875;fill:#00ff12;fill-opacity:1;stroke:none" />
    <rect
       inkscape:export-ydpi="90"
       inkscape:export-xdpi="90"
       inkscape:export-filename="img/bubble-green/bubble_CR.png"
       y="132.36218"
       x="210"
       height="10"
       width="16"
       id="rect4155"
       style="opacity:0.4921875;fill:#00ff12;fill-opacity:1;stroke:none" />
    <rect
       inkscape:export-ydpi="90"
       inkscape:export-xdpi="90"
       inkscape:export-filename="img/bubble-blue/bubble_CR.png"
       y="194.86218"
       x="210"
       height="10"
       width="16"
       id="rect3920"
       style="opacity:0.4921875;fill:#00ff12;fill-opacity:1;stroke:none" />
    <rect
       style="opacity:0.4921875;fill:#d800ff;fill-opacity:1;stroke:none"
       id="rect4101"
       width="16"
       height="10"
       x="110"
       y="122.36218"
       inkscape:export-filename="img/bubble-orange/bubble_tick-right.png"
       inkscape:export-xdpi="90"
       inkscape:export-ydpi="90" />
    <rect
       style="opacity:0.4921875;fill:#d800ff;fill-opacity:1;stroke:none"
       id="rect4157"
       width="16"
       height="10"
       x="210"
       y="122.36218"
       inkscape:export-filename="img/bubble-green/bubble_tick-right.png"
       inkscape:export-xdpi="90"
       inkscape:export-ydpi="90" />
    <rect
       style="opacity:0.4921875;fill:#d800ff;fill-opacity:1;stroke:none"
       id="rect3922"
       width="16"
       height="10"
       x="210"
       y="184.86218"
       inkscape:export-filename="img/bubble-blue/bubble_tick-right.png"
       inkscape:export-xdpi="90"
       inkscape:export-ydpi="90" />
  </g>
</svg>
