<?xml version="1.0" encoding="UTF-8" standalone="no"?>
<!-- Generator: Adobe Illustrator 19.0.0, SVG Export Plug-In . SVG Version: 6.00 Build 0)  -->

<svg
   xmlns:dc="http://purl.org/dc/elements/1.1/"
   xmlns:cc="http://creativecommons.org/ns#"
   xmlns:rdf="http://www.w3.org/1999/02/22-rdf-syntax-ns#"
   xmlns:svg="http://www.w3.org/2000/svg"
   xmlns="http://www.w3.org/2000/svg"
   xmlns:sodipodi="http://sodipodi.sourceforge.net/DTD/sodipodi-0.dtd"
   xmlns:inkscape="http://www.inkscape.org/namespaces/inkscape"
   version="1.1"
   id="Layer_1"
   x="0px"
   y="0px"
   viewBox="0 0 512 512"
   style="enable-background:new 0 0 512 512;"
   xml:space="preserve"
   inkscape:version="0.91 r13725"
   sodipodi:docname="star0.svg"
   inkscape:export-filename="C:\Qt\RetroShare\RetroShare\retroshare-gui\src\gui\icons\star0.png"
   inkscape:export-xdpi="45"
   inkscape:export-ydpi="45"><metadata
   id="metadata113"><rdf:RDF><cc:Work
       rdf:about=""><dc:format>image/svg+xml</dc:format><dc:type
         rdf:resource="http://purl.org/dc/dcmitype/StillImage" /><dc:title /></cc:Work></rdf:RDF></metadata><defs
   id="defs111" /><sodipodi:namedview
   pagecolor="#ffffff"
   bordercolor="#666666"
   borderopacity="1"
   objecttolerance="10"
   gridtolerance="10"
   guidetolerance="10"
   inkscape:pageopacity="0"
   inkscape:pageshadow="2"
   inkscape:window-width="1366"
   inkscape:window-height="706"
   id="namedview109"
   showgrid="false"
   inkscape:zoom="0.75097656"
   inkscape:cx="256"
   inkscape:cy="206.03082"
   inkscape:window-x="-8"
   inkscape:window-y="-8"
   inkscape:window-maximized="1"
   inkscape:current-layer="Layer_1"><inkscape:grid
     type="xygrid"
     id="grid4241" /></sodipodi:namedview>
<path
   style="fill:#E4EAF6;"
   d="M494.345,185.379H17.655C7.904,185.379,0,193.284,0,203.034v105.931  c0,9.75,7.904,17.655,17.655,17.655h476.69c9.751,0,17.655-7.905,17.655-17.655V203.034  C512,193.284,504.096,185.379,494.345,185.379z M116.572,250.997l-15.249,14.863l3.599,20.988c0.473,2.76-2.423,4.864-4.902,3.561  L81.173,280.5l-18.848,9.909c-2.168,1.14-4.657-0.329-4.928-2.562c-0.019-0.16-0.028-0.323-0.023-0.49  c0.001-0.062,0.013-0.125,0.019-0.188c0.009-0.107,0.013-0.213,0.032-0.321l0.408-2.38l3.191-18.607l-15.249-14.863  c-0.337-0.328-0.577-0.698-0.746-1.086c-0.207-0.48-0.299-0.989-0.274-1.49c0.008-0.151,0.025-0.301,0.053-0.449  c0.028-0.148,0.065-0.295,0.111-0.437c0.093-0.287,0.224-0.561,0.388-0.814c0.083-0.127,0.173-0.248,0.273-0.364  c0.497-0.576,1.199-0.995,2.066-1.121L63,243.005l5.719-0.831l5.101-10.335l4.323-8.76c0.465-0.941,1.258-1.529,2.134-1.766  c0.292-0.078,0.594-0.118,0.895-0.118c1.205,0,2.41,0.628,3.029,1.884l9.425,19.095l21.074,3.062  C117.471,245.638,118.577,249.043,116.572,250.997z M203.986,250.997l-15.249,14.863l3.599,20.988  c0.473,2.76-2.423,4.864-4.902,3.561l-18.848-9.909l-18.848,9.909c-2.168,1.14-4.657-0.329-4.928-2.562  c-0.02-0.16-0.028-0.323-0.023-0.49c0.001-0.062,0.013-0.125,0.019-0.188c0.009-0.107,0.013-0.213,0.032-0.321l0.408-2.38  l3.191-18.607l-15.249-14.863c-0.337-0.328-0.577-0.698-0.746-1.086c-0.207-0.48-0.3-0.989-0.274-1.49  c0.008-0.151,0.025-0.301,0.053-0.449c0.083-0.445,0.253-0.872,0.5-1.252c0.164-0.254,0.364-0.487,0.595-0.69  c0.462-0.406,1.05-0.694,1.743-0.796l15.192-2.207l5.881-0.855l6.036-12.23l3.389-6.866c0.465-0.941,1.259-1.529,2.135-1.766  c0.292-0.078,0.594-0.118,0.895-0.118c1.205,0,2.41,0.628,3.029,1.884l9.425,19.095l21.074,3.062  C204.884,245.638,205.99,249.043,203.986,250.997z M291.399,250.997L276.15,265.86l3.599,20.988c0.473,2.76-2.423,4.864-4.902,3.561  L256,280.501l-18.848,9.909c-2.168,1.14-4.657-0.329-4.928-2.562c-0.02-0.16-0.028-0.323-0.023-0.49  c0.001-0.062,0.013-0.125,0.019-0.188c0.009-0.107,0.013-0.213,0.032-0.321l0.408-2.38l3.191-18.607l-15.249-14.863  c-0.337-0.328-0.577-0.698-0.746-1.086c-0.207-0.48-0.299-0.989-0.274-1.49c0.008-0.151,0.025-0.301,0.053-0.449  c0.055-0.297,0.149-0.585,0.278-0.857c0.13-0.273,0.296-0.527,0.494-0.758c0.497-0.576,1.199-0.995,2.066-1.121l15.353-2.231  l5.719-0.831l6.036-12.23l3.389-6.866c0.419-0.849,1.113-1.386,1.886-1.661c0.371-0.131,0.753-0.222,1.143-0.222  c1.205,0,2.41,0.628,3.029,1.884l9.425,19.095l21.074,3.062C292.297,245.638,293.404,249.043,291.399,250.997z M378.812,250.997  l-15.249,14.863l3.599,20.988c0.473,2.76-2.423,4.864-4.901,3.561l-18.848-9.909l-18.848,9.909c-2.168,1.14-4.657-0.329-4.928-2.562  c-0.02-0.16-0.028-0.323-0.023-0.49c0.001-0.062,0.013-0.125,0.019-0.188c0.009-0.107,0.013-0.213,0.032-0.321l0.408-2.38  l3.191-18.607l-15.249-14.863c-0.337-0.328-0.577-0.698-0.746-1.086c-0.207-0.48-0.3-0.989-0.274-1.49  c0.008-0.151,0.025-0.301,0.053-0.449c0.028-0.148,0.065-0.295,0.111-0.437c0.093-0.287,0.224-0.561,0.388-0.814  c0.083-0.127,0.173-0.248,0.273-0.364c0.497-0.576,1.199-0.995,2.066-1.121l15.353-2.231l5.719-0.831l5.101-10.335l4.323-8.76  c0.465-0.941,1.259-1.529,2.135-1.766c0.292-0.078,0.594-0.118,0.895-0.118c1.205,0,2.41,0.628,3.029,1.884l9.425,19.095  l21.073,3.062C379.71,245.638,380.817,249.043,378.812,250.997z M466.225,250.997l-15.249,14.865l3.599,20.989  c0.374,2.183-1.361,3.956-3.329,3.956c-0.52,0-1.055-0.124-1.572-0.395l-18.849-9.909l-18.848,9.909  c-0.518,0.271-1.053,0.395-1.572,0.395c-1.969,0-3.703-1.772-3.329-3.956l3.599-20.989l-15.249-14.865  c-2.005-1.954-0.898-5.358,1.873-5.762l21.074-3.061l9.425-19.096c0.619-1.256,1.824-1.884,3.029-1.884  c1.205,0,2.41,0.628,3.029,1.884l9.425,19.096l21.073,3.061C467.124,245.638,468.23,249.043,466.225,250.997z"
   id="path3" />








<polygon
   style="fill:#FFFFFF;"
   points="437.418,250.242 435.364,246.08 430.827,236.887 426.29,246.08 424.235,250.242   419.642,250.91 409.497,252.384 416.839,259.54 420.162,262.78 419.378,267.353 417.644,277.457 426.719,272.686 430.827,270.527   434.934,272.686 444.009,277.457 442.275,267.353 441.491,262.78 444.814,259.54 452.156,252.384 442.01,250.91 "
   id="polygon75" />
<path
   style="fill:#ffc864"
   d="m 463.0214,244.5718 -21.073,-3.061 -9.425,-19.096 c -0.619,-1.256 -1.824,-1.884 -3.029,-1.884 -1.205,0 -2.41,0.628 -3.029,1.884 l -9.425,19.096 -21.074,3.061 c -2.771,0.403 -3.876,3.808 -1.873,5.762 l 15.249,14.865 -3.599,20.989 c -0.374,2.184 1.361,3.956 3.329,3.956 0.52,0 1.055,-0.124 1.572,-0.395 l 18.848,-9.909 18.849,9.909 c 0.517,0.271 1.053,0.395 1.572,0.395 1.969,0 3.703,-1.773 3.329,-3.956 l -3.599,-20.989 15.249,-14.865 c 2.006,-1.954 0.9,-5.359 -1.871,-5.762 z m -19.539,14.305 -3.324,3.24 0.785,4.575 1.734,10.103 -9.075,-4.77 -4.108,-2.159 -4.108,2.159 -9.074,4.77 1.734,-10.103 0.785,-4.575 -3.324,-3.24 -7.341,-7.156 10.145,-1.474 4.593,-0.666 2.053,-4.162 4.537,-9.193 4.537,9.193 2.054,4.162 4.593,0.666 10.145,1.474 -7.341,7.156 z"
   id="path77"
   inkscape:connector-curvature="0" />
<g
   id="g79">
</g>
<g
   id="g81">
</g>
<g
   id="g83">
</g>
<g
   id="g85">
</g>
<g
   id="g87">
</g>
<g
   id="g89">
</g>
<g
   id="g91">
</g>
<g
   id="g93">
</g>
<g
   id="g95">
</g>
<g
   id="g97">
</g>
<g
   id="g99">
</g>
<g
   id="g101">
</g>
<g
   id="g103">
</g>
<g
   id="g105">
</g>
<g
   id="g107">
</g>
<path
   inkscape:connector-curvature="0"
   style="fill:#ffc864"
   d="m 375.40492,245.235 -21.073,-3.061 -9.425,-19.096 c -0.619,-1.256 -1.824,-1.884 -3.029,-1.884 -1.205,0 -2.41,0.628 -3.029,1.884 l -9.425,19.096 -21.074,3.061 c -2.771,0.403 -3.876,3.808 -1.873,5.762 l 15.249,14.865 -3.599,20.989 c -0.374,2.184 1.361,3.956 3.329,3.956 0.52,0 1.055,-0.124 1.572,-0.395 l 18.848,-9.909 18.849,9.909 c 0.517,0.271 1.053,0.395 1.572,0.395 1.969,0 3.703,-1.773 3.329,-3.956 l -3.599,-20.989 15.249,-14.865 c 2.006,-1.954 0.9,-5.359 -1.871,-5.762 z m -19.539,14.305 -3.324,3.24 0.785,4.575 1.734,10.103 -9.075,-4.77 -4.108,-2.159 -4.108,2.159 -9.074,4.77 1.734,-10.103 0.785,-4.575 -3.324,-3.24 -7.341,-7.156 10.145,-1.474 4.593,-0.666 2.053,-4.162 4.537,-9.193 4.537,9.193 2.054,4.162 4.593,0.666 10.145,1.474 -7.341,7.156 z"
   id="path77-0" /><path
   inkscape:connector-curvature="0"
   style="fill:#ffc864"
   d="m 289.20245,245.235 -21.073,-3.061 -9.425,-19.096 c -0.619,-1.256 -1.824,-1.884 -3.029,-1.884 -1.205,0 -2.41,0.628 -3.029,1.884 l -9.425,19.096 -21.074,3.061 c -2.771,0.403 -3.876,3.808 -1.873,5.762 l 15.249,14.865 -3.599,20.989 c -0.374,2.184 1.361,3.956 3.329,3.956 0.52,0 1.055,-0.124 1.572,-0.395 l 18.848,-9.909 18.849,9.909 c 0.517,0.271 1.053,0.395 1.572,0.395 1.969,0 3.703,-1.773 3.329,-3.956 l -3.599,-20.989 15.249,-14.865 c 2.006,-1.954 0.9,-5.359 -1.871,-5.762 z m -19.539,14.305 -3.324,3.24 0.785,4.575 1.734,10.103 -9.075,-4.77 -4.108,-2.159 -4.108,2.159 -9.074,4.77 1.734,-10.103 0.785,-4.575 -3.324,-3.24 -7.341,-7.156 10.145,-1.474 4.593,-0.666 2.053,-4.162 4.537,-9.193 4.537,9.193 2.054,4.162 4.593,0.666 10.145,1.474 -7.341,7.156 z"
   id="path77-08" /><path
   inkscape:connector-curvature="0"
   style="fill:#ffc864"
   d="m 202.12003,244.85148 -21.073,-3.061 -9.425,-19.096 c -0.619,-1.256 -1.824,-1.884 -3.029,-1.884 -1.205,0 -2.41,0.628 -3.029,1.884 l -9.425,19.096 -21.074,3.061 c -2.771,0.403 -3.876,3.808 -1.873,5.762 l 15.249,14.865 -3.599,20.989 c -0.374,2.184 1.361,3.956 3.329,3.956 0.52,0 1.055,-0.124 1.572,-0.395 l 18.848,-9.909 18.849,9.909 c 0.517,0.271 1.053,0.395 1.572,0.395 1.969,0 3.703,-1.773 3.329,-3.956 l -3.599,-20.989 15.249,-14.865 c 2.006,-1.954 0.9,-5.359 -1.871,-5.762 z m -19.539,14.305 -3.324,3.24 0.785,4.575 1.734,10.103 -9.075,-4.77 -4.108,-2.159 -4.108,2.159 -9.074,4.77 1.734,-10.103 0.785,-4.575 -3.324,-3.24 -7.341,-7.156 10.145,-1.474 4.593,-0.666 2.053,-4.162 4.537,-9.193 4.537,9.193 2.054,4.162 4.593,0.666 10.145,1.474 -7.341,7.156 z"
   id="path77-2" /><path
   inkscape:connector-curvature="0"
   style="fill:#ffc864"
   d="m 114.47832,245.36368 -21.073005,-3.061 -9.425,-19.096 c -0.619,-1.256 -1.824,-1.884 -3.029,-1.884 -1.205,0 -2.41,0.628 -3.029,1.884 l -9.425,19.096 -21.074,3.061 c -2.771,0.403 -3.876,3.808 -1.873,5.762 l 15.249,14.865 -3.599,20.989 c -0.374,2.184 1.361,3.956 3.329,3.956 0.52,0 1.055,-0.124 1.572,-0.395 l 18.848,-9.909 18.849,9.909 c 0.517005,0.271 1.053005,0.395 1.572005,0.395 1.969,0 3.703,-1.773 3.329,-3.956 l -3.599,-20.989 15.249,-14.865 c 2.006,-1.954 0.9,-5.359 -1.871,-5.762 z m -19.539005,14.305 -3.324,3.24 0.785,4.575 1.734,10.103 -9.075,-4.77 -4.108,-2.159 -4.108,2.159 -9.074,4.77 1.734,-10.103 0.785,-4.575 -3.324,-3.24 -7.341,-7.156 10.145,-1.474 4.593,-0.666 2.053,-4.162 4.537,-9.193 4.537,9.193 2.054,4.162 4.593,0.666 10.145005,1.474 -7.341005,7.156 z"
   id="path77-2-3" /></svg>