/* XPM */
static char * colorcode32_xpm[] = {
"32 32 597 2",
"  	c None",
". 	c #727272",
"+ 	c #574E49",
"@ 	c #52575C",
"# 	c #54606B",
"$ 	c #616D78",
"% 	c #757779",
"& 	c #86807B",
"* 	c #8B8B8B",
"= 	c #929292",
"- 	c #939393",
"; 	c #8F8F8E",
"> 	c #6D6E71",
", 	c #4D4D53",
"' 	c #656155",
") 	c #746E5D",
"! 	c #7C776D",
"~ 	c #737478",
"{ 	c #6D6E74",
"] 	c #4A4542",
"^ 	c #1E4C60",
"/ 	c #27ACDC",
"( 	c #20BDF8",
"_ 	c #1AB6F9",
": 	c #17A8F4",
"< 	c #1B97EA",
"[ 	c #338BD0",
"} 	c #768897",
"| 	c #8D8A88",
"1 	c #9A9A9A",
"2 	c #999999",
"3 	c #848484",
"4 	c #2E2D2F",
"5 	c #9C954A",
"6 	c #F5EA6B",
"7 	c #FFF467",
"8 	c #FFF15D",
"9 	c #FDE855",
"0 	c #F2D954",
"a 	c #C8B567",
"b 	c #838182",
"c 	c #322C2A",
"d 	c #23A1C1",
"e 	c #28DEFF",
"f 	c #25CCF8",
"g 	c #22C2F5",
"h 	c #20B7F2",
"i 	c #1EACEF",
"j 	c #1C9FEB",
"k 	c #1992E7",
"l 	c #1183E7",
"m 	c #568ABA",
"n 	c #94918D",
"o 	c #A0A0A0",
"p 	c #838383",
"q 	c #363520",
"r 	c #F9F67F",
"s 	c #FEFA80",
"t 	c #FBF474",
"u 	c #FAF06C",
"v 	c #F8EB62",
"w 	c #F8E65B",
"x 	c #F6E053",
"y 	c #F7DB4A",
"z 	c #F1D148",
"A 	c #9B9584",
"B 	c #4A4441",
"C 	c #23A0C1",
"D 	c #29DEFE",
"E 	c #27D5FB",
"F 	c #26CEF8",
"G 	c #23C4F6",
"H 	c #21B9F3",
"I 	c #1EAFF0",
"J 	c #1CA3EC",
"K 	c #1A96E9",
"L 	c #1789E4",
"M 	c #0F77E2",
"N 	c #5E89B5",
"O 	c #9D9C9B",
"P 	c #A5A5A5",
"Q 	c #A2A2A1",
"R 	c #2E2C21",
"S 	c #FFFF88",
"T 	c #FDFA85",
"U 	c #FDF87E",
"V 	c #FCF476",
"W 	c #FAF16D",
"X 	c #F9ED65",
"Y 	c #F8E75E",
"Z 	c #F7E156",
"` 	c #F5DC4E",
" .	c #F4D547",
"..	c #F3CE3F",
"+.	c #8E8C83",
"@.	c #737272",
"#.	c #1E4C61",
"$.	c #26D1F9",
"%.	c #25CBF8",
"&.	c #22C3F5",
"*.	c #1FAFF0",
"=.	c #1A98E9",
"-.	c #188BE6",
";.	c #177EE1",
">.	c #0D6CDE",
",.	c #8C949A",
"'.	c #ADADAD",
").	c #505158",
"!.	c #CCC764",
"~.	c #FDFA81",
"{.	c #FDF980",
"].	c #FCF77A",
"^.	c #F9ED64",
"/.	c #F9E85E",
"(.	c #F7E257",
"_.	c #F5DD50",
":.	c #F4D649",
"<.	c #F3CF40",
"[.	c #E0C055",
"}.	c #72757E",
"|.	c #564E49",
"1.	c #26ACDB",
"2.	c #26CDF8",
"3.	c #24C6F7",
"4.	c #22BFF5",
"5.	c #20B7F3",
"6.	c #1EADF0",
"7.	c #1CA2ED",
"8.	c #1A97E9",
"9.	c #167EE1",
"0.	c #146FDD",
"a.	c #517FBA",
"b.	c #AAA9A8",
"c.	c #AEAEAE",
"d.	c #4F4C3C",
"e.	c #FFFF78",
"f.	c #FCF678",
"g.	c #FBF36F",
"h.	c #FAEF6B",
"i.	c #F9EB63",
"j.	c #F6E256",
"k.	c #F6DC4F",
"l.	c #F4D749",
"m.	c #F2CF42",
"n.	c #F4C831",
"o.	c #948F82",
"p.	c #52565B",
"q.	c #20BCF8",
"r.	c #22BEF5",
"s.	c #21BAF3",
"t.	c #1FB2F1",
"u.	c #1EA8EE",
"v.	c #1BA0EB",
"w.	c #1A95E8",
"x.	c #1788E4",
"y.	c #157CE1",
"z.	c #1570DC",
"A.	c #256FCF",
"B.	c #ABA8A3",
"C.	c #9B9B9C",
"D.	c #978F51",
"E.	c #FDF26C",
"F.	c #FAF270",
"G.	c #FBF270",
"H.	c #FBF16D",
"I.	c #FAF06B",
"J.	c #F9E960",
"K.	c #F8E55A",
"L.	c #F6E054",
"M.	c #F3CE40",
"N.	c #F3C838",
"O.	c #B4A06A",
"P.	c #53606B",
"Q.	c #1AB7F9",
"R.	c #1FB1F1",
"S.	c #1EACF0",
"T.	c #1DA3ED",
"U.	c #1A9AEA",
"V.	c #1990E7",
"W.	c #1786E4",
"X.	c #1678DF",
"Y.	c #146EDC",
"Z.	c #1161D4",
"`.	c #B2AEA7",
" +	c #8F8F91",
".+	c #B3A95C",
"++	c #F9EC64",
"@+	c #F9EE67",
"#+	c #FAEF69",
"$+	c #FAEE67",
"%+	c #F9EC65",
"&+	c #F9EB61",
"*+	c #F8E65C",
"=+	c #F7E357",
"-+	c #F6DE51",
";+	c #F5DA4C",
">+	c #F4D446",
",+	c #F2CD40",
"'+	c #F1C639",
")+	c #C8AD60",
"!+	c #626E78",
"~+	c #1FADF0",
"{+	c #1EA9EE",
"]+	c #1B9CEB",
"^+	c #1A93E8",
"/+	c #188BE5",
"(+	c #167FE2",
"_+	c #1575DE",
":+	c #136ADB",
"<+	c #125FD1",
"[+	c #B5B0AA",
"}+	c #9C9C9D",
"|+	c #B7AC61",
"1+	c #F9E75C",
"2+	c #F8E95F",
"3+	c #F9E95F",
"4+	c #F8E85F",
"5+	c #F7DF52",
"6+	c #F5DB4D",
"7+	c #F3D143",
"8+	c #F2CB3D",
"9+	c #F1C537",
"0+	c #C0A65E",
"a+	c #1783E3",
"b+	c #167AE0",
"c+	c #146FDC",
"d+	c #1265D9",
"e+	c #2D6BC5",
"f+	c #B9B6B2",
"g+	c #B2B2B2",
"h+	c #A89B6A",
"i+	c #F9E353",
"j+	c #F7E457",
"k+	c #F7E459",
"l+	c #F7E458",
"m+	c #F7E254",
"n+	c #F6DF52",
"o+	c #F4D849",
"p+	c #F4D345",
"q+	c #F2CE40",
"r+	c #F1C73A",
"s+	c #F3C231",
"t+	c #A9996C",
"u+	c #857F7B",
"v+	c #338CD0",
"w+	c #1991E8",
"x+	c #1A94E8",
"y+	c #1782E3",
"z+	c #167CE1",
"A+	c #1573DD",
"B+	c #0F5ED8",
"C+	c #5B7CAD",
"D+	c #C7C7C7",
"E+	c #C8C8C8",
"F+	c #8C8A84",
"G+	c #FADE4A",
"H+	c #F6DE50",
"I+	c #F6DF51",
"J+	c #F6DE52",
"K+	c #F6DD4F",
"L+	c #F5D849",
"M+	c #F3D346",
"N+	c #F3D041",
"O+	c #F2CA3D",
"P+	c #F1C538",
"Q+	c #EFBB2D",
"R+	c #8D8C89",
"S+	c #8C8C8D",
"T+	c #758796",
"U+	c #1182E7",
"V+	c #136ADA",
"W+	c #1263D8",
"X+	c #1158CC",
"Y+	c #B2B1AE",
"Z+	c #C9C9C9",
"`+	c #A5A7AB",
" @	c #CEB865",
".@	c #F5D846",
"+@	c #F5D94B",
"@@	c #F4D84A",
"#@	c #F3D447",
"$@	c #F3D244",
"%@	c #F3CE41",
"&@	c #F1C638",
"*@	c #F1C133",
"=@	c #C1A457",
"-@	c #8B8B8D",
";@	c #5689BB",
">@	c #0F78E2",
",@	c #1574DE",
"'@	c #0753D3",
")@	c #8493A8",
"!@	c #CBCBCB",
"~@	c #CACACA",
"{@	c #989899",
"]@	c #EAC84D",
"^@	c #F3D142",
"/@	c #F3D243",
"(@	c #F3D042",
"_@	c #F2CF41",
":@	c #F2CC3F",
"<@	c #F2C93B",
"[@	c #F1C539",
"}@	c #F1C234",
"|@	c #DCB13D",
"1@	c #8E8E91",
"2@	c #95918D",
"3@	c #1365D9",
"4@	c #1058CB",
"5@	c #8493A7",
"6@	c #CCCCCC",
"7@	c #9C9B9B",
"8@	c #DEBF55",
"9@	c #F5CB36",
"0@	c #F1C83B",
"a@	c #F0C338",
"b@	c #F2BE2C",
"c@	c #D1AB49",
"d@	c #949393",
"e@	c #9D9C9A",
"f@	c #527FBA",
"g@	c #1161D5",
"h@	c #1260D1",
"i@	c #2D6AC4",
"j@	c #5B7BAC",
"k@	c #B3B1AE",
"l@	c #CDCDCD",
"m@	c #CECECE",
"n@	c #CCCCCB",
"o@	c #AAABB0",
"p@	c #AFA382",
"q@	c #D5B65B",
"r@	c #E9BE3E",
"s@	c #EEBF33",
"t@	c #E6BB3B",
"u@	c #CFAD54",
"v@	c #A79B7E",
"w@	c #9A9CA0",
"x@	c #B3AEA7",
"y@	c #B5B0AB",
"z@	c #B8B6B2",
"A@	c #B1B2B5",
"B@	c #A9ABB2",
"C@	c #A6A9B1",
"D@	c #A3A5AB",
"E@	c #A8A9AB",
"F@	c #9B9C9C",
"G@	c #8F9191",
"H@	c #9C9E9E",
"I@	c #C8C7C7",
"J@	c #B4B4B4",
"K@	c #8F8F8F",
"L@	c #ABABAB",
"M@	c #A2A1A1",
"N@	c #515B5C",
"O@	c #4B3836",
"P@	c #8D362D",
"Q@	c #A63A30",
"R@	c #A83F38",
"S@	c #985652",
"T@	c #898080",
"U@	c #A7ACAC",
"V@	c #9F9F9F",
"W@	c #484848",
"X@	c #595959",
"Y@	c #A3A3A3",
"Z@	c #9C9C9C",
"`@	c #818181",
" #	c #7B7B7B",
".#	c #9B9B9B",
"+#	c #838484",
"@#	c #2D201E",
"##	c #C6260C",
"$#	c #FC2303",
"%#	c #F02007",
"&#	c #E8200B",
"*#	c #E21D0D",
"=#	c #DD170C",
"-#	c #D5150E",
";#	c #B24544",
">#	c #979999",
",#	c #616161",
"'#	c #4D4D4D",
")#	c #D7D7D7",
"!#	c #F5F5F5",
"~#	c #EFEFEF",
"{#	c #EDEDED",
"]#	c #EBEBEB",
"^#	c #EAEAEA",
"/#	c #D6D6D6",
"(#	c #959595",
"_#	c #888888",
":#	c #351612",
"<#	c #FF2A02",
"[#	c #F92703",
"}#	c #F52605",
"|#	c #F02208",
"1#	c #EA200A",
"2#	c #E41F0C",
"3#	c #DD1C0F",
"4#	c #D61A11",
"5#	c #CD1412",
"6#	c #BF2526",
"7#	c #9C9999",
"8#	c #626262",
"9#	c #717171",
"0#	c #F3F3EF",
"a#	c #F6F6EF",
"b#	c #F6F6F0",
"c#	c #F3F3F0",
"d#	c #F0F0EF",
"e#	c #E9E9E9",
"f#	c #E3E3E3",
"g#	c #868686",
"h#	c #909090",
"i#	c #2C2F30",
"j#	c #F62904",
"k#	c #FA2902",
"l#	c #F82704",
"m#	c #F52506",
"n#	c #F12308",
"o#	c #EA210A",
"p#	c #E51F0D",
"q#	c #DE1C0E",
"r#	c #D81A10",
"s#	c #CF1714",
"t#	c #C71415",
"u#	c #B53439",
"v#	c #ABB2B2",
"w#	c #4E4E4E",
"x#	c #F5F5F0",
"y#	c #F9F9F2",
"z#	c #F9F9F5",
"A#	c #F9F9F4",
"B#	c #F8F8F2",
"C#	c #F7F7F0",
"D#	c #F1F1F0",
"E#	c #E8E8E8",
"F#	c #E1E1E1",
"G#	c #8C8C8C",
"H#	c #6D7272",
"I#	c #932112",
"J#	c #F92603",
"K#	c #F72605",
"L#	c #F22406",
"M#	c #EF2209",
"N#	c #E41E0D",
"O#	c #DE1C0F",
"P#	c #D01814",
"Q#	c #C71615",
"R#	c #BF0C10",
"S#	c #A07679",
"T#	c #F2F2EF",
"U#	c #FCFCF9",
"V#	c #FDFDFB",
"W#	c #FAFAF6",
"X#	c #F4F4EF",
"Y#	c #EEEEEF",
"Z#	c #E4E4E4",
"`#	c #D3D3D3",
" $	c #4E5556",
".$	c #E7250C",
"+$	c #F22407",
"@$	c #F22506",
"#$	c #F02307",
"$$	c #EC2109",
"%$	c #E9200B",
"&$	c #D81A11",
"*$	c #BF1518",
"=$	c #AC4046",
"-$	c #B2B5B5",
";$	c #B5B5B5",
">$	c #FDFDFD",
",$	c #FBFBF6",
"'$	c #F8F8F0",
")$	c #F0F0F0",
"!$	c #E0E0E0",
"~$	c #615150",
"{$	c #F01E08",
"]$	c #EC2209",
"^$	c #EE2309",
"/$	c #EE2208",
"($	c #EC210A",
"_$	c #E61E0C",
":$	c #E11E0D",
"<$	c #DC1B10",
"[$	c #D61911",
"}$	c #CE1715",
"|$	c #C61516",
"1$	c #BE1419",
"2$	c #B11A23",
"3$	c #ACB3B3",
"4$	c #FCFCF8",
"5$	c #FAFAF5",
"6$	c #F2F2F0",
"7$	c #A8A8A8",
"8$	c #6D5856",
"9$	c #EC1806",
"0$	c #E71F0B",
"a$	c #E7200B",
"b$	c #E51E0D",
"c$	c #D21912",
"d$	c #CA1615",
"e$	c #C41616",
"f$	c #BB1419",
"g$	c #B00F19",
"h$	c #A9B3B2",
"i$	c #F9F9F3",
"j$	c #DFDFDF",
"k$	c #B1B1B1",
"l$	c #766866",
"m$	c #E2170A",
"n$	c #E11E0E",
"o$	c #E31E0D",
"p$	c #E21E0D",
"q$	c #E01D0E",
"r$	c #D91A10",
"s$	c #D41912",
"t$	c #CD1814",
"u$	c #C11517",
"v$	c #B8131A",
"w$	c #AC1824",
"x$	c #A6AEAD",
"y$	c #F8F8F1",
"z$	c #F7F7EF",
"A$	c #A4A4A4",
"B$	c #74797A",
"C$	c #D12019",
"D$	c #D91B11",
"E$	c #DB1B0F",
"F$	c #DC1B0F",
"G$	c #D71A11",
"H$	c #D31912",
"I$	c #CE1714",
"J$	c #C91615",
"K$	c #C31517",
"L$	c #BB1418",
"M$	c #B4121B",
"N$	c #A33D46",
"O$	c #A9ACAB",
"P$	c #828282",
"Q$	c #F4F4F0",
"R$	c #DEDEDE",
"S$	c #8D8D8D",
"T$	c #6F7777",
"U$	c #AF4A48",
"V$	c #D21610",
"W$	c #D51911",
"X$	c #D51912",
"Y$	c #D11813",
"Z$	c #CC1815",
"`$	c #BE1418",
" %	c #B7131A",
".%	c #AE0914",
"+%	c #977478",
"@%	c #F1F1EF",
"#%	c #EEEEEE",
"$%	c #737373",
"%%	c #828181",
"&%	c #C71A1A",
"*%	c #CA1715",
"=%	c #CB1615",
"-%	c #BD1418",
";%	c #B1101B",
">%	c #A12F3A",
",%	c #9DA1A1",
"'%	c #949494",
")%	c #E2E2E2",
"!%	c #DCDCDC",
"~%	c #937C7C",
"{%	c #C21416",
"]%	c #C41515",
"^%	c #BA1319",
"/%	c #B6131A",
"(%	c #B10F19",
"_%	c #A3202C",
":%	c #939293",
"<%	c #898989",
"[%	c #A2A2A2",
"}%	c #8A7F80",
"|%	c #B6353A",
"1%	c #BA0A10",
"2%	c #B91016",
"3%	c #B91319",
"4%	c #B6121A",
"5%	c #B30C16",
"6%	c #AB0915",
"7%	c #9B434C",
"8%	c #CFCFCF",
"9%	c #758180",
"0%	c #8E7D7E",
"a%	c #9B595E",
"b%	c #A44D53",
"c%	c #9E4C52",
"d%	c #945E64",
"e%	c #8B8889",
"f%	c #8B8E8D",
"        . + @ # $ % & * = = - - - - = = ; > , ' ) ! ~ {         ",
"      ] ^ / ( _ : < [ } | 1 2 2 2 2 1 3 4 5 6 7 8 9 0 a b       ",
"    c d e f g h i j k l m n o o o o p q r s t u v w x y z A     ",
"  B C D E F G H I J K L M N O P P Q R S T U V W X Y Z `  ...+.  ",
"@.#.e E $.%.&.H *.J =.-.;.>.,.'.'.).!.~.{.].t W ^./.(._.:.<.[.}.",
"|.1.f 2.%.3.4.5.6.7.8.-.9.0.a.b.c.d.e.f.f.t g.h.i.Y j.k.l.m.n.o.",
"p.q.g G &.r.s.t.u.v.w.x.y.z.A.B.C.D.E.F.G.H.I.X J.K.L.`  .M.N.O.",
"P.Q.h H H 5.R.S.T.U.V.W.X.Y.Z.`. +.+++@+#+$+%+&+*+=+-+;+>+,+'+)+",
"!+: i I *.~+{+T.]+^+/+(+_+:+<+[+}+|+1+2+J.3+4+w =+5+6+l.7+8+9+0+",
"% < j J J 7.v.U.^+-.a+b+c+d+e+f+g+h+i+j+k+l+j+m+n+` o+p+q+r+s+t+",
"u+v+w+K =.8.x+V./+y+z+A+:+B+C+D+E+F+G+H+I+n+J+K+6+L+M+N+O+P+Q+R+",
"S+T+U+L -.-.x.W.(+b+A+V+W+X+Y+Z+Z+`+ @.@o++@@@l.#@$@%@8+&@*@=@-@",
"= | ;@>@9.9.y.X.,@c+:+W+'@)@!@~@~@!@{@]@^@/@$@(@_@:@<@[@}@|@1@= ",
"= 1 2@N >.0.z.Y.V+3@B+4@5@Z+!@6@6@!@Z+7@8@9@8+O+0@'+a@b@c@d@1 = ",
"- 2 o e@,.f@A.g@h@i@j@k@!@!@l@m@m@l@!@n@o@p@q@r@s@t@u@v@w@o 2 - ",
"- 2 o P '.b.B.x@y@z@D+Z+~@6@m@m@m@m@6@~@Z+D+A@B@C@D@E@'.P o 2 - ",
"- 2 o P '.c.F@G@H@g+I@Z+~@6@m@m@m@m@6@~@Z+Z+J@2 K@1 L@'.P o 2 - ",
"- 2 o M@N@O@P@Q@R@S@T@U@6@!@l@m@m@l@!@6@V@W@X@K@Y@Z@`@ #.#o 2 - ",
"= 1 +#@###$#%#&#*#=#-#;#>#Z+!@6@6@!@6@,#'#)#!#~#{#]#^#/#(#_#1 = ",
"= p :#<#[#}#|#1#2#3#4#5#6#7#!@~@~@6@8#9#!#0#a#b#a#c#d#e#f#L@g#= ",
"h#i#j#k#l#m#n#o#p#q#r#s#t#u#v#Z+Z+o w#!#x#y#z#A#B#C#c#D#E#F#1 G#",
"H#I#J#K#m#L#M#o#N#O#r#P#Q#R#S#D+Z+W@)#T#y#U#V#U#W#y#C#X#Y#Z#`#`@",
" $.$+$@$L##$$$%$N#3#&$s#Q#*$=$-$;$X@!#a#z#V#>$U#,$A#'$x#)$E#!$= ",
"~${$]$^$/$($%$_$:$<$[$}$|$1$2$3$2 K@~#b#A#U#U#4$5$A#C#x#6$^#!$7$",
"8$9$0$%$%$a$b$*#3#r#c$d$e$f$g$h$K@Y@{#a#B#W#,$5$5$i$C#x#D#^#j$k$",
"l$m$n$o$o$p$q$3#r$s$t$Q#u$v$w$x$1 Z@]#c#C#y#A#A#i$y$z$0#)$E#j$A$",
"B$C$D$E$E$F$r$G$H$I$J$K$L$M$N$O$L@P$^#d#Q$C#'$C#C#z$c#6${#Z#R$S$",
"T$U$V$s$W$X$H$Y$Z$J$e$`$ %.%+%'.'. #/#e#@%Q$x#x#x#c#D##%E#j$l@$%",
"  %%&%*%Z$Z$=%J$|$K$-%v$;%>%,%P P .#'%f#E##%)$6$D#d#{#E#)%!%h#  ",
"    ~%{%]%e$e$u$*$^%/%(%_%:%o o o o <%L@F#Z#E#^#^#E#Z#j$!%[%    ",
"      }%|%1%2%3%4%5%6%7%G@1 2 2 2 2 1 g#1 `#!$!$j$j$R$8%K@      ",
"        9%0%a%b%c%d%e%f%= = - - - - = = * `@= 7$k$P S$.         "};
