<?xml version="1.0" encoding="UTF-8" standalone="no"?>
<!-- Created with Inkscape (http://www.inkscape.org/) -->

<svg
   version="1.1"
   id="svg9"
   width="128"
   height="128"
   viewBox="0 0 128 128"
   sodipodi:docname="apk.svg"
   inkscape:version="1.1.1 (3bf5ae0d25, 2021-09-20)"
   xmlns:inkscape="http://www.inkscape.org/namespaces/inkscape"
   xmlns:sodipodi="http://sodipodi.sourceforge.net/DTD/sodipodi-0.dtd"
   xmlns="http://www.w3.org/2000/svg"
   xmlns:svg="http://www.w3.org/2000/svg">
  <defs
     id="defs13" />
  <sodipodi:namedview
     id="namedview11"
     pagecolor="#ffffff"
     bordercolor="#666666"
     borderopacity="1.0"
     inkscape:pageshadow="2"
     inkscape:pageopacity="0.0"
     inkscape:pagecheckerboard="0"
     showgrid="true"
     inkscape:zoom="2.745563"
     inkscape:cx="60.279075"
     inkscape:cy="80.311396"
     inkscape:window-width="1366"
     inkscape:window-height="705"
     inkscape:window-x="-8"
     inkscape:window-y="-8"
     inkscape:window-maximized="1"
     inkscape:current-layer="g15">
    <inkscape:grid
       type="xygrid"
       id="grid381" />
  </sodipodi:namedview>
  <g
     inkscape:groupmode="layer"
     inkscape:label="Image"
     id="g15">
    <path
       style="fill:#000000"
       id="path117"
       d="" />
    <path
       d="m 36.059795,95.235288 c 0,3.044541 2.015919,4.918112 4.703841,4.918112 h 4.703859 v 17.33045 c 0,3.98133 3.359889,7.49422 7.167769,7.49422 3.807875,0 7.167779,-3.51289 7.167779,-7.49422 V 100.1534 h 9.631681 v 17.33045 c 0,3.98133 3.359908,7.49422 7.16778,7.49422 3.807882,0 7.16778,-3.51289 7.16778,-7.49422 V 100.1534 h 4.703848 c 2.911906,0 4.703843,-2.10775 4.703843,-4.918112 V 45.585873 H 36.059795 Z M 24.188166,45.585873 c -3.807876,0 -7.167778,3.512916 -7.167778,7.494248 v 34.895116 c 0,3.981328 3.359902,7.49425 7.167778,7.49425 3.807878,0 7.167762,-3.512922 7.167762,-7.49425 V 53.080121 c 0,-3.981332 -3.359884,-7.494248 -7.167762,-7.494248 z m 81.085474,0 c -3.80791,0 -7.167818,3.512916 -7.167818,7.494248 v 34.895116 c 0,3.981328 3.359908,7.49425 7.167818,7.49425 3.80786,0 7.16775,-3.512922 7.16775,-7.49425 V 53.080121 c 0,-3.981332 -3.35989,-7.494248 -7.16775,-7.494248 z M 81.306347,16.545633 87.578156,9.9881594 c 0.895976,-0.9367732 0.895976,-2.5761551 0,-3.5129319 -0.895977,-0.936774 -2.463922,-0.936774 -3.359897,0 L 77.050498,13.96949 c -3.359909,-2.341959 -7.615774,-3.278735 -12.319614,-3.278735 -4.703856,0 -8.959713,0.936776 -12.767604,3.044537 L 45.243493,6.2410426 c -0.895968,-0.4684031 -2.911905,-0.4684031 -3.807875,0 -0.447982,0.9367768 -0.447982,3.0445324 0,3.9813224 l 6.271805,6.557466 C 40.987636,22.166319 36.283777,30.831559 36.283777,40.667759 h 57.118196 c 0,-10.070408 -4.927841,-18.969827 -12.095626,-24.122126 z M 55.099176,30.597351 h -4.703833 v -4.918099 h 4.703833 z m 23.967248,0 h -4.703848 v -4.918099 h 4.703848 z"
       fill="#a4ca39"
       id="path6"
       style="stroke-width:2.29037" />
  </g>
</svg>
