<?xml version="1.0" encoding="UTF-8" standalone="no"?>
<!-- Created with Inkscape (http://www.inkscape.org/) -->

<svg
   version="1.1"
   id="svg9"
   width="128"
   height="128"
   viewBox="0 0 128 128"
   sodipodi:docname="archive.svg"
   inkscape:version="1.1.1 (3bf5ae0d25, 2021-09-20)"
   xmlns:inkscape="http://www.inkscape.org/namespaces/inkscape"
   xmlns:sodipodi="http://sodipodi.sourceforge.net/DTD/sodipodi-0.dtd"
   xmlns="http://www.w3.org/2000/svg"
   xmlns:svg="http://www.w3.org/2000/svg">
  <defs
     id="defs13" />
  <sodipodi:namedview
     id="namedview11"
     pagecolor="#ffffff"
     bordercolor="#666666"
     borderopacity="1.0"
     inkscape:pageshadow="2"
     inkscape:pageopacity="0.0"
     inkscape:pagecheckerboard="0"
     showgrid="true"
     inkscape:zoom="2.745563"
     inkscape:cx="81.039844"
     inkscape:cy="73.39114"
     inkscape:window-width="1366"
     inkscape:window-height="705"
     inkscape:window-x="-8"
     inkscape:window-y="-8"
     inkscape:window-maximized="1"
     inkscape:current-layer="g15">
    <inkscape:grid
       type="xygrid"
       id="grid381" />
  </sodipodi:namedview>
  <g
     inkscape:groupmode="layer"
     inkscape:label="Image"
     id="g15">
    <path
       style="fill:#000000"
       id="path117"
       d="" />
    <path
       class="st1"
       d="M 106.76021,40.31375 H 89.770456 V 23.862311 Z M 60.952413,23.862311 v 59.97487 H 106.97526 V 44.270425 H 85.684311 V 23.654066 H 60.952413 Z m 7.096972,-15.8267 H 17.295194 V 19.697388 H 37.29579 L 24.607237,29.068466 V 39.06427 L 43.10241,25.320034 V 19.697388 H 107.8355 V 14.907723 Z M 43.317472,33.233389 24.822301,46.977628 v 9.99581 L 43.317472,43.229195 Z M 24.607237,74.882609 43.10241,61.138354 v -9.9958 L 24.607237,64.886795 Z m 18.710235,4.164907 V 69.051718 L 24.822301,82.795957 v 5.414404 H 17.510258 V 99.87213 h 11.398191 v 7.91335 H 22.02652 c -1.290365,-2.08246 -3.440963,-3.33194 -6.021687,-3.33194 -3.87107,0 -6.881916,2.91546 -6.881916,6.66389 0,3.74841 3.010846,6.66386 6.881916,6.66386 2.580724,0 4.731322,-1.24948 6.021687,-3.33194 h 6.666866 v 6.03914 h 10.322879 v -6.03914 h 6.666869 c 1.290359,2.08246 3.440959,3.33194 6.021677,3.33194 3.87109,0 6.881924,-2.91545 6.881924,-6.66386 0,-3.74843 -3.010834,-6.66389 -6.881924,-6.66389 -2.580718,0 -4.731318,1.24948 -6.021677,3.33194 h -6.666869 v -7.91335 h 29.03312 L 107.8355,93 V 88.210361 H 30.843983 Z"
       id="path8"
       style="fill:#ff6600;fill-opacity:1;stroke-width:2.11626" />
  </g>
</svg>
