<?xml version="1.0" encoding="UTF-8" standalone="no"?>
<!-- Created with Inkscape (http://www.inkscape.org/) -->

<svg
   version="1.1"
   id="svg9"
   width="512"
   height="512"
   viewBox="0 0 512 512"
   sodipodi:docname="archive.svg"
   inkscape:version="1.1.1 (3bf5ae0d25, 2021-09-20)"
   xmlns:inkscape="http://www.inkscape.org/namespaces/inkscape"
   xmlns:sodipodi="http://sodipodi.sourceforge.net/DTD/sodipodi-0.dtd"
   xmlns="http://www.w3.org/2000/svg"
   xmlns:svg="http://www.w3.org/2000/svg">
  <defs
     id="defs13" />
  <sodipodi:namedview
     id="namedview11"
     pagecolor="#ffffff"
     bordercolor="#666666"
     borderopacity="1.0"
     inkscape:pageshadow="2"
     inkscape:pageopacity="0.0"
     inkscape:pagecheckerboard="0"
     showgrid="true"
     inkscape:zoom="0.97070312"
     inkscape:cx="234.3662"
     inkscape:cy="254.96982"
     inkscape:window-width="1366"
     inkscape:window-height="705"
     inkscape:window-x="-8"
     inkscape:window-y="-8"
     inkscape:window-maximized="1"
     inkscape:current-layer="g15">
    <inkscape:grid
       type="xygrid"
       id="grid381" />
  </sodipodi:namedview>
  <g
     inkscape:groupmode="layer"
     inkscape:label="Image"
     id="g15">
    <path
       style="fill:#000000"
       id="path117"
       d="" />
    <path
       class="st1"
       d="M 437.01264,162.69226 H 371.38029 V 99.13943 Z M 260.05457,99.13943 v 231.6863 H 437.84343 V 177.97712 H 355.59528 V 98.33497 H 260.05457 Z M 287.47059,38 H 91.404298 V 83.050099 H 168.66772 L 119.65113,119.2511 v 38.61435 L 191.09902,104.7707 V 83.050099 H 441.16658 V 64.547355 Z m -95.54077,97.34043 -71.44789,53.09477 v 38.61436 l 71.44789,-53.09477 z m -72.27869,160.89328 71.44789,-53.09483 v -38.61434 l -71.44789,53.09476 z m 72.27869,16.08927 v -38.61434 l -71.44789,53.09476 v 20.91613 H 92.235099 v 45.0501 h 44.031851 v 30.56973 h -26.58528 c -4.98475,-8.04466 -13.292629,-12.87147 -23.262111,-12.87147 -14.954162,0 -26.585228,11.26254 -26.585228,25.74295 0,14.48035 11.631066,25.74288 26.585228,25.74288 9.969482,0 18.277361,-4.82679 23.262111,-12.87147 h 25.75448 v 23.32954 h 39.87786 v -23.32954 h 25.75448 c 4.98475,8.04468 13.29263,12.87147 23.26209,12.87147 14.95423,0 26.58525,-11.26253 26.58525,-25.74288 0,-14.48041 -11.63102,-25.74295 -26.58525,-25.74295 -9.96946,0 -18.27734,4.82681 -23.26209,12.87147 H 175.31401 V 392.76963 H 287.47059 L 441.16658,366.22221 V 347.71953 H 143.74403 Z"
       id="path8"
       style="fill:#ff6600;fill-opacity:1;stroke-width:8.17523" />
  </g>
</svg>
