<?xml version="1.0" encoding="UTF-8" standalone="no"?>
<!-- Created with Inkscape (http://www.inkscape.org/) -->

<svg
   version="1.1"
   id="svg9"
   width="128"
   height="128"
   viewBox="0 0 128 128"
   sodipodi:docname="audio.svg"
   inkscape:version="1.1.1 (3bf5ae0d25, 2021-09-20)"
   xmlns:inkscape="http://www.inkscape.org/namespaces/inkscape"
   xmlns:sodipodi="http://sodipodi.sourceforge.net/DTD/sodipodi-0.dtd"
   xmlns="http://www.w3.org/2000/svg"
   xmlns:svg="http://www.w3.org/2000/svg">
  <defs
     id="defs13" />
  <sodipodi:namedview
     id="namedview11"
     pagecolor="#ffffff"
     bordercolor="#666666"
     borderopacity="1.0"
     inkscape:pageshadow="2"
     inkscape:pageopacity="0.0"
     inkscape:pagecheckerboard="0"
     showgrid="true"
     inkscape:zoom="2.745563"
     inkscape:cx="61.007523"
     inkscape:cy="51.173475"
     inkscape:window-width="1366"
     inkscape:window-height="705"
     inkscape:window-x="-8"
     inkscape:window-y="-8"
     inkscape:window-maximized="1"
     inkscape:current-layer="g15">
    <inkscape:grid
       type="xygrid"
       id="grid381" />
  </sodipodi:namedview>
  <g
     inkscape:groupmode="layer"
     inkscape:label="Image"
     id="g15">
    <path
       style="fill:#000000"
       id="path117"
       d="" />
    <path
       class="st0"
       d="M 100.44582,66.403654 C 90.770451,62.551405 79.534554,67.366707 75.477139,77.318346 71.731848,87.26999 76.413472,98.82672 86.088819,103 c 1.872649,0.96306 4.057407,1.28409 6.242165,1.28409 10.923806,0.32102 19.974936,-8.346543 19.974936,-19.261258 V 8.298914 c -0.62421,0 -0.93631,0.321024 -1.56054,0.321024 -21.223353,6.099392 -42.134631,12.519807 -63.357983,18.619197 -1.872658,0.642036 -1.872658,1.605095 -1.872658,3.210203 V 84.38079 c -1.56055,-0.642023 -2.184748,-0.963044 -3.433188,-1.284074 -7.802708,-2.889185 -14.669094,-1.284081 -20.287039,4.494286 -5.617959,5.457359 -7.178504,13.803878 -4.057423,21.187358 4.057423,9.95165 15.293313,14.76696 24.968676,10.91471 7.178481,-3.21022 11.860122,-10.27267 11.860122,-18.29819 V 51.315678 c 0,-2.247141 0.624216,-2.889191 2.808975,-3.531225 10.299562,-2.889189 20.599143,-6.099393 31.210832,-8.988585 L 103.5669,34.301589 v 33.386148 c -1.56055,-0.642051 -2.18476,-0.963063 -3.12108,-1.284083 z"
       id="path10-7"
       style="fill:#d40000;fill-opacity:1;stroke-width:3.16534" />
  </g>
</svg>
