<?xml version="1.0" encoding="UTF-8" standalone="no"?>
<!-- Created with Inkscape (http://www.inkscape.org/) -->

<svg
   version="1.1"
   id="svg9"
   width="512"
   height="512"
   viewBox="0 0 512 512"
   sodipodi:docname="cpp.svg"
   inkscape:version="1.1.1 (3bf5ae0d25, 2021-09-20)"
   xmlns:inkscape="http://www.inkscape.org/namespaces/inkscape"
   xmlns:sodipodi="http://sodipodi.sourceforge.net/DTD/sodipodi-0.dtd"
   xmlns="http://www.w3.org/2000/svg"
   xmlns:svg="http://www.w3.org/2000/svg">
  <defs
     id="defs13" />
  <sodipodi:namedview
     id="namedview11"
     pagecolor="#ffffff"
     bordercolor="#666666"
     borderopacity="1.0"
     inkscape:pageshadow="2"
     inkscape:pageopacity="0.0"
     inkscape:pagecheckerboard="0"
     showgrid="true"
     inkscape:zoom="0.97070312"
     inkscape:cx="234.3662"
     inkscape:cy="172.55533"
     inkscape:window-width="1366"
     inkscape:window-height="705"
     inkscape:window-x="-8"
     inkscape:window-y="-8"
     inkscape:window-maximized="1"
     inkscape:current-layer="g15">
    <inkscape:grid
       type="xygrid"
       id="grid381" />
  </sodipodi:namedview>
  <g
     inkscape:groupmode="layer"
     inkscape:label="Image"
     id="g15">
    <path
       style="fill:#000000"
       id="path117"
       d="" />
    <path
       class="st2"
       d="m 221.19222,436.58489 c -100.744,0 -182.801605,-83.76926 -182.801605,-186.61466 0,-102.84543 82.057605,-186.614635 182.801605,-186.614635 57.68406,0 110.49339,27.370153 145.42881,73.816435 L 300,176.98318 c -20.31128,-22.39374 -48.74709,-35.66417 -78.80778,-35.66417 -58.49654,0 -106.43115,48.93454 -106.43115,108.65122 0,59.7167 47.93461,108.6512 106.43115,108.6512 30.06069,0 58.4965,-13.27036 78.80778,-35.66413 l 66.62103,39.81116 c -34.12295,46.4463 -87.74475,73.81643 -145.42881,73.81643 z"
       id="path8"
       style="fill:#215997;stroke-width:8.20882" />
    <path
       class="st2"
       d="m 374.84254,265.72883 h -26.54922 v 30.68775 h -27.2668 v -30.68775 h -26.54926 v -31.51717 h 26.54926 v -30.68774 h 27.2668 v 30.68774 h 26.54922 z m 94.71621,0 h -27.26676 v 30.68775 h -26.54928 v -30.68775 h -27.26679 v -31.51717 h 27.26679 v -30.68774 h 26.54928 v 30.68774 h 27.26676 z"
       id="path10"
       style="fill:#215997;stroke-width:7.71446" />
  </g>
</svg>
