<?xml version="1.0" encoding="UTF-8" standalone="no"?>
<!-- Created with Inkscape (http://www.inkscape.org/) -->

<svg
   version="1.1"
   id="svg9"
   width="128"
   height="128"
   viewBox="0 0 128 128"
   sodipodi:docname="cpp.svg"
   inkscape:version="1.1.1 (3bf5ae0d25, 2021-09-20)"
   xmlns:inkscape="http://www.inkscape.org/namespaces/inkscape"
   xmlns:sodipodi="http://sodipodi.sourceforge.net/DTD/sodipodi-0.dtd"
   xmlns="http://www.w3.org/2000/svg"
   xmlns:svg="http://www.w3.org/2000/svg">
  <defs
     id="defs13" />
  <sodipodi:namedview
     id="namedview11"
     pagecolor="#ffffff"
     bordercolor="#666666"
     borderopacity="1.0"
     inkscape:pageshadow="2"
     inkscape:pageopacity="0.0"
     inkscape:pagecheckerboard="0"
     showgrid="true"
     inkscape:zoom="2.745563"
     inkscape:cx="90.145445"
     inkscape:cy="77.397604"
     inkscape:window-width="1366"
     inkscape:window-height="705"
     inkscape:window-x="-8"
     inkscape:window-y="-8"
     inkscape:window-maximized="1"
     inkscape:current-layer="g15">
    <inkscape:grid
       type="xygrid"
       id="grid381" />
  </sodipodi:namedview>
  <g
     inkscape:groupmode="layer"
     inkscape:label="Image"
     id="g15">
    <path
       style="fill:#000000"
       id="path117"
       d="" />
    <path
       class="st2"
       d="M 55,114.14089 C 27.847871,114.14089 5.7320296,91.563711 5.7320296,63.845229 5.7320296,36.126738 27.847871,13.549592 55,13.549592 c 15.546779,0 29.779734,7.376696 39.195412,19.894715 L 76.239963,44.174051 C 70.765747,38.13858 63.101839,34.561986 55,34.561986 c -15.765757,0 -28.684907,13.188643 -28.684907,29.283243 0,16.094612 12.91915,29.283246 28.684907,29.283246 8.101839,0 15.765747,-3.576581 21.239963,-9.612053 L 94.195412,94.246164 C 84.998711,106.76419 70.546779,114.14089 55,114.14089 Z"
       id="path8"
       style="fill:#215997;stroke-width:2.21239" />
    <path
       class="st2"
       d="m 96.411222,68.092434 h -7.155418 v 8.270828 H 81.90695 v -8.270828 h -7.155454 v -8.494376 h 7.155454 v -8.270851 h 7.348854 v 8.270851 h 7.155418 z m 25.527548,0 h -7.34882 v 8.270828 h -7.15546 v -8.270828 h -7.34885 v -8.494376 h 7.34885 v -8.270851 h 7.15546 v 8.270851 h 7.34882 z"
       id="path10"
       style="fill:#215997;stroke-width:2.07918" />
  </g>
</svg>
