<?xml version="1.0" encoding="UTF-8" standalone="no"?>
<!-- Created with Inkscape (http://www.inkscape.org/) -->

<svg
   version="1.1"
   id="svg9"
   width="128"
   height="128"
   viewBox="0 0 128 128"
   sodipodi:docname="document.svg"
   inkscape:version="1.1.1 (3bf5ae0d25, 2021-09-20)"
   xmlns:inkscape="http://www.inkscape.org/namespaces/inkscape"
   xmlns:sodipodi="http://sodipodi.sourceforge.net/DTD/sodipodi-0.dtd"
   xmlns="http://www.w3.org/2000/svg"
   xmlns:svg="http://www.w3.org/2000/svg">
  <defs
     id="defs13" />
  <sodipodi:namedview
     id="namedview11"
     pagecolor="#ffffff"
     bordercolor="#666666"
     borderopacity="1.0"
     inkscape:pageshadow="2"
     inkscape:pageopacity="0.0"
     inkscape:pagecheckerboard="0"
     showgrid="true"
     inkscape:zoom="2.745563"
     inkscape:cx="90.145445"
     inkscape:cy="80.311396"
     inkscape:window-width="1366"
     inkscape:window-height="705"
     inkscape:window-x="-8"
     inkscape:window-y="-8"
     inkscape:window-maximized="1"
     inkscape:current-layer="g15">
    <inkscape:grid
       type="xygrid"
       id="grid381" />
  </sodipodi:namedview>
  <g
     inkscape:groupmode="layer"
     inkscape:label="Image"
     id="g15">
    <path
       style="fill:#000000"
       id="path117"
       d="" />
    <path
       d="M 45.394871,50.374088 H 79.37407 v 8.38448 H 45.394871 Z m 0,16.9896 H 79.37407 v 8.38446 H 45.394871 Z m 0,16.98959 H 79.37407 v 8.38448 H 45.394871 Z M 104.74813,8.010412 H 37.010391 C 27.743349,8.010412 20.020805,15.512308 20.020805,25 v 76.34289 H 3.031198 c 0,9.26704 7.501896,16.98958 16.989607,16.98958 H 87.97919 c 9.26704,0 16.98959,-7.50189 16.98959,-16.98958 V 33.384477 h 16.98961 V 25 C 121.73774,15.512308 114.23584,8.010412 104.74813,8.010412 Z m -8.38446,91.787966 c 0,5.516082 -4.41289,9.928972 -9.92899,9.928972 H 24.213042 c 4.192223,-2.86838 4.192223,-8.38446 4.192223,-8.38446 V 25 c 0,-4.633523 3.750955,-8.384479 8.384477,-8.384479 4.633537,0 8.384478,3.750956 8.384478,8.384479 v 8.384477 h 50.9688 V 99.798378 Z M 54,25 v -8.384479 h 50.96878 c 7.72254,0 8.38448,4.854169 8.38448,8.384479 z"
       fill="#999999"
       stroke="#999999"
       stroke-width="1.65181"
       stroke-miterlimit="10"
       id="path6" />
  </g>
</svg>
