<?xml version="1.0" encoding="UTF-8" standalone="no"?>
<!-- Created with Inkscape (http://www.inkscape.org/) -->

<svg
   version="1.1"
   id="svg9"
   width="128"
   height="128"
   viewBox="0 0 128 128"
   sodipodi:docname="img.svg"
   inkscape:version="1.1.1 (3bf5ae0d25, 2021-09-20)"
   xmlns:inkscape="http://www.inkscape.org/namespaces/inkscape"
   xmlns:sodipodi="http://sodipodi.sourceforge.net/DTD/sodipodi-0.dtd"
   xmlns="http://www.w3.org/2000/svg"
   xmlns:svg="http://www.w3.org/2000/svg">
  <defs
     id="defs13" />
  <sodipodi:namedview
     id="namedview11"
     pagecolor="#ffffff"
     bordercolor="#666666"
     borderopacity="1.0"
     inkscape:pageshadow="2"
     inkscape:pageopacity="0.0"
     inkscape:pagecheckerboard="0"
     showgrid="true"
     inkscape:zoom="2.745563"
     inkscape:cx="89.052772"
     inkscape:cy="80.311396"
     inkscape:window-width="1366"
     inkscape:window-height="705"
     inkscape:window-x="-8"
     inkscape:window-y="-8"
     inkscape:window-maximized="1"
     inkscape:current-layer="g15">
    <inkscape:grid
       type="xygrid"
       id="grid381" />
  </sodipodi:namedview>
  <g
     inkscape:groupmode="layer"
     inkscape:label="Image"
     id="g15">
    <path
       style="fill:#000000"
       id="path117"
       d="" />
    <path
       class="st1"
       d="m 22.499421,22.004523 c -23.5720773,23.296455 -23.5720773,60.856102 0,84.152577 23.572061,23.29647 61.576005,23.29647 85.148079,0 23.57205,-23.296475 23.57205,-60.856122 0,-84.152577 -23.572074,-23.0587582 -61.576018,-23.0587582 -85.148079,0 z m 88.996569,67.036804 c -2.16477,4.041214 -5.05114,7.607003 -8.4186,10.935082 -3.367422,3.328061 -7.215926,6.180691 -11.064423,8.320161 L 78.062148,81.909761 c 0,0 1.202652,-0.475457 3.848505,-2.852642 2.645844,-2.614914 3.126884,-3.803527 3.126884,-3.803527 z M 75.656835,53.621166 c 2.886373,2.852623 4.329566,6.656139 4.329566,10.459646 0,3.803486 -1.443193,7.607012 -4.329566,10.459635 -5.772749,5.705254 -15.394012,5.705254 -21.166751,0 C 51.6037,71.687824 50.16052,67.884298 50.16052,64.080812 c 0,-3.803507 1.44318,-7.607023 4.329564,-10.459646 a 14.672411,14.500868 0 0 1 21.166751,0 z M 55.211665,43.161511 c 0,0 -2.886364,1.664031 -5.291677,4.278955 -2.164793,2.377195 -2.405322,2.852623 -3.126914,4.041213 L 20.334637,37.456259 c 2.164784,-4.041225 5.051148,-7.607011 8.418592,-10.935082 3.367443,-3.328065 7.215931,-6.180709 11.064448,-8.320176 z"
       id="path10"
       style="fill:#cc9966;stroke-width:2.3912" />
  </g>
</svg>
