<?xml version="1.0" encoding="UTF-8" standalone="no"?>
<!-- Created with Inkscape (http://www.inkscape.org/) -->

<svg
   version="1.1"
   id="svg9"
   width="512"
   height="512"
   viewBox="0 0 512 512"
   sodipodi:docname="patch.svg"
   inkscape:version="1.1.1 (3bf5ae0d25, 2021-09-20)"
   xmlns:inkscape="http://www.inkscape.org/namespaces/inkscape"
   xmlns:sodipodi="http://sodipodi.sourceforge.net/DTD/sodipodi-0.dtd"
   xmlns="http://www.w3.org/2000/svg"
   xmlns:svg="http://www.w3.org/2000/svg">
  <defs
     id="defs13" />
  <sodipodi:namedview
     id="namedview11"
     pagecolor="#ffffff"
     bordercolor="#666666"
     borderopacity="1.0"
     inkscape:pageshadow="2"
     inkscape:pageopacity="0.0"
     inkscape:pagecheckerboard="0"
     showgrid="true"
     inkscape:zoom="0.97070312"
     inkscape:cx="251.87928"
     inkscape:cy="225.09457"
     inkscape:window-width="1366"
     inkscape:window-height="705"
     inkscape:window-x="-8"
     inkscape:window-y="-8"
     inkscape:window-maximized="1"
     inkscape:current-layer="g15">
    <inkscape:grid
       type="xygrid"
       id="grid381" />
  </sodipodi:namedview>
  <g
     inkscape:groupmode="layer"
     inkscape:label="Image"
     id="g15">
    <path
       style="fill:#000000"
       id="path117"
       d="" />
    <g
       id="g30"
       transform="matrix(0.89249979,0,0,0.89249979,30.096296,27.413883)"
       style="fill:#c83737;fill-opacity:1">
      <path
         d="m 338.294,304.354 -67.881,67.881 c -2.929,2.929 -2.929,7.678 0,10.606 1.464,1.464 3.384,2.197 5.303,2.197 1.919,0 3.839,-0.732 5.303,-2.197 L 348.9,314.96 c 2.929,-2.929 2.929,-7.678 0,-10.606 -2.928,-2.929 -7.677,-2.929 -10.606,0 z"
         id="path2"
         style="fill:#c83737;fill-opacity:1" />
      <path
         d="m 372.235,270.412 -11.313,11.313 c -2.929,2.929 -2.929,7.678 0,10.606 1.464,1.464 3.384,2.197 5.303,2.197 1.919,0 3.839,-0.732 5.303,-2.197 l 11.313,-11.313 c 2.929,-2.929 2.929,-7.678 0,-10.606 -2.928,-2.929 -7.677,-2.929 -10.606,0 z"
         id="path4"
         style="fill:#c83737;fill-opacity:1" />
      <path
         d="m 219.144,147.454 c 1.919,0 3.839,-0.732 5.303,-2.197 l 11.317,-11.317 c 2.929,-2.929 2.929,-7.678 0,-10.606 -2.929,-2.929 -7.678,-2.929 -10.606,0 l -11.317,11.317 c -2.929,2.929 -2.929,7.678 0,10.606 1.464,1.464 3.384,2.197 5.303,2.197 z"
         id="path6"
         style="fill:#c83737;fill-opacity:1" />
      <path
         d="m 201.82,157.277 c -2.929,-2.929 -7.678,-2.929 -10.606,0 l -67.88,67.881 c -2.929,2.929 -2.929,7.678 0,10.606 1.464,1.464 3.384,2.197 5.303,2.197 1.919,0 3.839,-0.732 5.303,-2.197 l 67.88,-67.881 c 2.929,-2.928 2.929,-7.677 0,-10.606 z"
         id="path8"
         style="fill:#c83737;fill-opacity:1" />
      <path
         d="m 410.772,253.088 90.863,-90.863 c 2.928,-2.928 4.541,-6.82 4.541,-10.96 0,-4.14 -1.612,-8.033 -4.54,-10.96 L 365.872,4.54 C 362.944,1.612 359.052,0 354.912,0 c -4.141,0 -8.033,1.612 -10.96,4.54 L 253.089,95.403 162.225,4.541 C 159.297,1.612 155.405,0 151.265,0 c -4.14,0 -8.033,1.612 -10.96,4.54 L 4.54,140.304 c -2.928,2.928 -4.54,6.82 -4.54,10.96 0,4.141 1.612,8.033 4.54,10.96 L 95.403,253.087 4.541,343.951 C 1.612,346.878 0,350.771 0,354.911 c 0,4.14 1.612,8.033 4.54,10.96 l 135.764,135.764 c 2.928,2.928 6.82,4.54 10.96,4.54 4.141,0 8.033,-1.612 10.96,-4.54 l 90.863,-90.863 90.863,90.863 c 0,0 0,0 0,0 2.927,2.928 6.82,4.54 10.96,4.54 4.14,0 8.033,-1.612 10.96,-4.54 L 501.634,365.871 c 2.928,-2.928 4.54,-6.82 4.54,-10.96 0,-4.141 -1.612,-8.033 -4.54,-10.96 z M 354.558,15.146 C 354.594,15.11 354.704,15 354.911,15 c 0.207,0 0.318,0.11 0.354,0.146 L 491.029,150.91 c 0.036,0.036 0.146,0.147 0.146,0.354 0,0.207 -0.11,0.317 -0.146,0.354 L 400.166,242.481 263.694,106.01 Z M 151.618,491.03 c -0.036,0.036 -0.146,0.146 -0.353,0.146 -0.207,0 -0.318,-0.11 -0.354,-0.146 L 15.146,355.265 C 15.11,355.229 15,355.118 15,354.911 c 0,-0.207 0.11,-0.317 0.146,-0.354 l 90.863,-90.863 136.472,136.472 z M 491.029,355.265 355.265,491.029 c -0.036,0.036 -0.147,0.146 -0.354,0.146 -0.207,0 -0.317,-0.11 -0.353,-0.146 0,0 0,0 0,0 L 15.146,151.618 C 15.11,151.582 15,151.471 15,151.265 c 0,-0.207 0.11,-0.318 0.146,-0.354 L 150.911,15.146 C 150.947,15.11 151.058,15 151.265,15 c 0.207,0 0.317,0.11 0.354,0.146 L 491.03,354.558 c 0.036,0.036 0.146,0.146 0.146,0.353 0,0.207 -0.111,0.318 -0.147,0.354 z"
         id="path10"
         style="fill:#c83737;fill-opacity:1" />
      <path
         d="m 236.471,190.509 c 4.438,4.438 10.34,6.883 16.617,6.883 6.277,0 12.179,-2.445 16.617,-6.883 9.163,-9.163 9.163,-24.071 0,-33.234 -4.438,-4.438 -10.34,-6.883 -16.617,-6.883 -6.277,0 -12.179,2.445 -16.617,6.883 -9.162,9.163 -9.162,24.071 0,33.234 z m 10.607,-22.628 c 1.605,-1.605 3.739,-2.49 6.01,-2.49 2.271,0 4.405,0.884 6.01,2.49 3.314,3.314 3.314,8.707 0,12.021 v 0 c -1.605,1.605 -3.739,2.49 -6.01,2.49 -2.271,0 -4.405,-0.884 -6.01,-2.49 -3.314,-3.314 -3.314,-8.706 0,-12.021 z"
         id="path12"
         style="fill:#c83737;fill-opacity:1" />
      <path
         d="m 276.069,230.107 c 4.581,4.582 10.599,6.872 16.617,6.872 6.018,0 12.036,-2.291 16.617,-6.872 9.163,-9.163 9.163,-24.071 0,-33.234 -9.162,-9.163 -24.072,-9.162 -33.234,0 -9.163,9.163 -9.163,24.071 0,33.234 z m 10.606,-22.628 c 1.657,-1.657 3.834,-2.485 6.01,-2.485 2.177,0 4.354,0.828 6.011,2.485 3.314,3.314 3.314,8.707 0,12.021 -3.314,3.314 -8.706,3.315 -12.021,0 -3.314,-3.314 -3.314,-8.706 0,-12.021 z"
         id="path14"
         style="fill:#c83737;fill-opacity:1" />
      <path
         d="m 315.667,236.471 c -4.438,4.438 -6.883,10.34 -6.883,16.617 0,6.277 2.445,12.179 6.883,16.617 4.581,4.582 10.599,6.872 16.617,6.872 6.018,0 12.036,-2.291 16.617,-6.872 4.438,-4.438 6.883,-10.34 6.883,-16.617 0,-6.277 -2.445,-12.179 -6.883,-16.617 -9.164,-9.163 -24.072,-9.163 -33.234,0 z m 22.627,22.627 v 0 c -3.314,3.315 -8.707,3.314 -12.021,0 -1.605,-1.605 -2.49,-3.739 -2.49,-6.01 0,-2.271 0.884,-4.405 2.49,-6.01 1.657,-1.657 3.833,-2.485 6.01,-2.485 2.177,0 4.354,0.829 6.011,2.486 1.605,1.605 2.49,3.739 2.49,6.01 0,2.271 -0.884,4.404 -2.49,6.009 z"
         id="path16"
         style="fill:#c83737;fill-opacity:1" />
      <path
         d="m 230.107,196.873 c -9.162,-9.162 -24.071,-9.163 -33.234,0 -9.163,9.163 -9.163,24.071 0,33.234 4.581,4.582 10.599,6.872 16.617,6.872 6.018,0 12.036,-2.291 16.617,-6.872 9.163,-9.163 9.163,-24.071 0,-33.234 z M 219.5,219.5 c -3.314,3.315 -8.707,3.314 -12.021,0 -3.314,-3.314 -3.314,-8.707 0,-12.021 1.657,-1.657 3.834,-2.485 6.011,-2.485 2.176,0 4.353,0.828 6.01,2.485 3.314,3.315 3.314,8.707 0,12.021 z"
         id="path18"
         style="fill:#c83737;fill-opacity:1" />
      <path
         d="m 253.088,276.588 c 6.277,0 12.178,-2.445 16.617,-6.883 v 0 c 4.438,-4.438 6.883,-10.34 6.883,-16.617 0,-6.277 -2.445,-12.179 -6.883,-16.617 -4.438,-4.438 -10.34,-6.883 -16.617,-6.883 -6.277,0 -12.179,2.445 -16.617,6.883 -4.438,4.438 -6.883,10.34 -6.883,16.617 0,6.277 2.445,12.179 6.883,16.617 4.438,4.438 10.34,6.883 16.617,6.883 z m -6.01,-29.51 c 1.605,-1.605 3.739,-2.49 6.01,-2.49 2.271,0 4.405,0.884 6.01,2.49 1.605,1.605 2.49,3.739 2.49,6.01 0,2.271 -0.884,4.405 -2.49,6.01 v 0 c -1.605,1.605 -3.739,2.49 -6.01,2.49 -2.271,0 -4.405,-0.884 -6.01,-2.49 -1.605,-1.605 -2.49,-3.739 -2.49,-6.01 0,-2.271 0.884,-4.405 2.49,-6.01 z"
         id="path20"
         style="fill:#c83737;fill-opacity:1" />
      <path
         d="m 292.686,316.175 c 6.018,0 12.036,-2.291 16.617,-6.872 9.163,-9.163 9.163,-24.071 0,-33.234 -9.162,-9.163 -24.072,-9.162 -33.234,0 -9.163,9.163 -9.163,24.071 0,33.234 4.581,4.581 10.599,6.872 16.617,6.872 z m -6.011,-29.5 c 1.657,-1.657 3.834,-2.485 6.01,-2.485 2.177,0 4.354,0.828 6.011,2.485 3.314,3.314 3.314,8.707 0,12.021 -3.314,3.314 -8.706,3.315 -12.021,0 -3.314,-3.314 -3.314,-8.706 0,-12.021 z"
         id="path22"
         style="fill:#c83737;fill-opacity:1" />
      <path
         d="m 197.392,253.088 c 0,-6.277 -2.445,-12.179 -6.883,-16.617 -9.163,-9.164 -24.072,-9.163 -33.234,0 -4.438,4.438 -6.883,10.34 -6.883,16.617 0,6.277 2.445,12.179 6.883,16.617 4.581,4.582 10.599,6.872 16.617,6.872 6.018,0 12.036,-2.291 16.617,-6.872 4.438,-4.438 6.883,-10.34 6.883,-16.617 z m -17.49,6.01 v 0 c -3.314,3.315 -8.707,3.314 -12.021,0 -1.605,-1.605 -2.49,-3.739 -2.49,-6.01 0,-2.271 0.884,-4.405 2.49,-6.01 1.657,-1.657 3.833,-2.485 6.01,-2.485 2.177,0 4.354,0.829 6.011,2.486 1.605,1.605 2.49,3.739 2.49,6.01 0,2.271 -0.884,4.404 -2.49,6.009 z"
         id="path24"
         style="fill:#c83737;fill-opacity:1" />
      <path
         d="m 230.107,276.069 c -9.162,-9.162 -24.071,-9.163 -33.234,0 -9.163,9.163 -9.163,24.071 0,33.234 4.581,4.582 10.599,6.872 16.617,6.872 6.018,0 12.036,-2.291 16.617,-6.872 9.163,-9.163 9.163,-24.072 0,-33.234 z M 219.5,298.696 c -3.314,3.315 -8.707,3.314 -12.021,0 -3.314,-3.314 -3.314,-8.707 0,-12.021 1.657,-1.657 3.834,-2.485 6.011,-2.485 2.176,0 4.353,0.828 6.01,2.485 3.314,3.315 3.314,8.707 0,12.021 z"
         id="path26"
         style="fill:#c83737;fill-opacity:1" />
      <path
         d="m 269.705,315.667 c -4.438,-4.438 -10.34,-6.883 -16.617,-6.883 -6.277,0 -12.179,2.445 -16.617,6.883 -9.163,9.163 -9.163,24.071 0,33.234 4.438,4.438 10.34,6.883 16.617,6.883 6.277,0 12.179,-2.445 16.617,-6.883 9.162,-9.163 9.162,-24.071 0,-33.234 z m -10.607,22.627 v 0 c -1.605,1.605 -3.74,2.49 -6.01,2.49 -2.27,0 -4.405,-0.884 -6.01,-2.49 -3.314,-3.314 -3.314,-8.707 0,-12.021 1.605,-1.605 3.739,-2.49 6.01,-2.49 2.271,0 4.405,0.884 6.01,2.49 3.314,3.315 3.314,8.707 0,12.021 z"
         id="path28"
         style="fill:#c83737;fill-opacity:1" />
    </g>
  </g>
</svg>
