<?xml version="1.0" encoding="UTF-8" standalone="no"?>
<!-- Created with Inkscape (http://www.inkscape.org/) -->

<svg
   version="1.1"
   id="svg9"
   width="512"
   height="512"
   viewBox="0 0 512 512"
   sodipodi:docname="pdf.svg"
   inkscape:version="1.1.1 (3bf5ae0d25, 2021-09-20)"
   xmlns:inkscape="http://www.inkscape.org/namespaces/inkscape"
   xmlns:sodipodi="http://sodipodi.sourceforge.net/DTD/sodipodi-0.dtd"
   xmlns="http://www.w3.org/2000/svg"
   xmlns:svg="http://www.w3.org/2000/svg">
  <defs
     id="defs13" />
  <sodipodi:namedview
     id="namedview11"
     pagecolor="#ffffff"
     bordercolor="#666666"
     borderopacity="1.0"
     inkscape:pageshadow="2"
     inkscape:pageopacity="0.0"
     inkscape:pagecheckerboard="0"
     showgrid="true"
     inkscape:zoom="0.97070312"
     inkscape:cx="234.3662"
     inkscape:cy="291.02616"
     inkscape:window-width="1366"
     inkscape:window-height="705"
     inkscape:window-x="-8"
     inkscape:window-y="-8"
     inkscape:window-maximized="1"
     inkscape:current-layer="g15">
    <inkscape:grid
       type="xygrid"
       id="grid381" />
  </sodipodi:namedview>
  <g
     inkscape:groupmode="layer"
     inkscape:label="Image"
     id="g15">
    <path
       style="fill:#000000"
       id="path117"
       d="" />
    <path
       d="m 227.61799,66.533138 c -23.92774,0 -43.06997,19.825488 -43.06997,43.069922 0,29.39662 16.40766,65.63132 33.49885,100.49658 -13.67352,41.70357 -28.03019,86.82315 -47.85547,124.42422 -39.65254,15.72489 -75.202442,27.34695 -95.710916,45.12129 l -1.368222,1.3679 c -7.519857,8.20316 -12.305417,18.45754 -12.305417,30.07964 0,23.92779 19.82549,43.06992 43.069925,43.06992 11.62232,0 23.2447,-4.10063 30.08125,-12.30542 0,0 1.3664,0 1.3664,-1.36633 15.72479,-18.45894 34.18372,-53.32591 51.27464,-83.40562 37.59978,-14.35661 78.62005,-30.08119 115.53652,-39.65231 28.03021,23.2447 69.04892,37.60133 102.54778,37.60133 23.92768,0 43.06992,-19.82705 43.06992,-43.06992 0,-23.92797 -19.82544,-43.07021 -43.06992,-43.07021 -27.34696,0 -65.63138,9.57112 -95.02798,19.8255 -23.92768,-23.24449 -45.80418,-51.27309 -62.89515,-81.35434 10.93747,-36.91646 24.61083,-71.10018 24.61083,-98.44532 -1.3664,-23.927741 -19.82526,-42.386832 -43.75307,-42.386832 z m 0,24.611048 c 9.57112,0 16.40767,7.519805 16.40767,16.407674 0,12.30557 -7.51986,36.23332 -14.35657,61.52906 -10.25582,-25.29574 -19.82694,-49.22349 -19.82694,-61.52906 0.68471,-8.202954 8.20472,-16.407674 17.77584,-16.407674 z m 7.51993,146.985664 c 12.30535,21.19317 28.02998,39.6507 45.12111,56.05865 -25.29569,7.51986 -49.90668,15.72452 -75.20243,25.29569 12.30702,-25.97894 21.19345,-54.00905 30.08132,-81.35434 z M 404,293.50525 c 9.57117,0 16.40799,7.5198 16.40799,16.40783 0,9.57111 -7.52147,16.40788 -16.40799,16.40788 -19.82684,0 -47.17219,-8.20477 -69.04866,-21.19345 25.29414,-4.78555 53.32414,-11.62226 69.04866,-11.62226 z m -255.6853,76.56873 c -12.30536,21.87652 -23.92774,41.70357 -32.13246,51.95794 -3.41739,3.41739 -6.1519,4.1023 -11.62216,4.1023 -9.571122,0 -16.407834,-7.52146 -16.407834,-16.40793 0,-4.1022 2.051153,-9.57107 4.102198,-11.62205 8.887976,-8.20483 30.764506,-17.77589 56.060256,-28.03026 z"
       fill="#c11e07"
       stroke="#c11e07"
       stroke-width="8.54576"
       stroke-miterlimit="10"
       id="path6" />
  </g>
</svg>
