<?xml version="1.0" encoding="UTF-8" standalone="no"?>
<!-- Created with Inkscape (http://www.inkscape.org/) -->

<svg
   version="1.1"
   id="svg9"
   width="128"
   height="128"
   viewBox="0 0 128 128"
   sodipodi:docname="pdf.svg"
   inkscape:version="1.1.1 (3bf5ae0d25, 2021-09-20)"
   xmlns:inkscape="http://www.inkscape.org/namespaces/inkscape"
   xmlns:sodipodi="http://sodipodi.sourceforge.net/DTD/sodipodi-0.dtd"
   xmlns="http://www.w3.org/2000/svg"
   xmlns:svg="http://www.w3.org/2000/svg">
  <defs
     id="defs13" />
  <sodipodi:namedview
     id="namedview11"
     pagecolor="#ffffff"
     bordercolor="#666666"
     borderopacity="1.0"
     inkscape:pageshadow="2"
     inkscape:pageopacity="0.0"
     inkscape:pagecheckerboard="0"
     showgrid="true"
     inkscape:zoom="2.745563"
     inkscape:cx="89.416996"
     inkscape:cy="84.682084"
     inkscape:window-width="1366"
     inkscape:window-height="705"
     inkscape:window-x="-8"
     inkscape:window-y="-8"
     inkscape:window-maximized="1"
     inkscape:current-layer="g15">
    <inkscape:grid
       type="xygrid"
       id="grid381" />
  </sodipodi:namedview>
  <g
     inkscape:groupmode="layer"
     inkscape:label="Image"
     id="g15">
    <path
       style="fill:#000000"
       id="path117"
       d="" />
    <path
       d="m 56.37511,5.757443 c -7.28991,0 -13.121847,6.040101 -13.121847,13.121829 0,8.956075 4.998817,19.995462 10.205877,30.617633 -4.16582,12.70555 -8.539776,26.45183 -14.579814,37.9075 -12.080678,4.7908 -22.911432,8.33162 -29.159613,13.746805 l -0.416848,0.41675 c -2.291025,2.4992 -3.74901,5.62334 -3.74901,9.16417 0,7.28992 6.040101,13.12182 13.12183,13.12182 3.540896,0 7.08181,-1.24931 9.164656,-3.74901 0,0 0.416292,0 0.416292,-0.41627 4.790769,-5.62376 10.414529,-16.24645 15.621507,-25.410635 11.45528,-4.37393 23.95265,-9.16464 35.19975,-12.08061 8.53978,7.08181 21.03668,11.45575 31.24256,11.45575 7.28988,0 13.12182,-6.04057 13.12182,-13.12183 0,-7.28997 -6.04008,-13.12191 -13.12182,-13.12191 -8.33162,0 -19.99548,2.91597 -28.95155,6.0401 C 74.07901,66.367795 67.41404,57.828505 62.20705,48.663845 65.53929,37.416752 69.70507,27.002223 69.70507,18.67116 69.28877,11.381253 63.66504,5.757443 56.37511,5.757443 Z m 0,7.498086 c 2.91597,0 4.99881,2.291009 4.99881,4.998818 C 61.37392,22.003404 59.0829,29.293314 57,37 53.87543,29.293314 50.95946,22.003404 50.95946,18.254347 c 0.20861,-2.49914 2.49968,-4.998818 5.41565,-4.998818 z m 2.29104,44.781156 c 3.74899,6.45678 8.53971,12.08011 13.74676,17.07902 -7.70668,2.29102 -15.20474,4.79068 -22.91143,7.70667 3.7495,-7.91483 6.45687,-16.45458 9.16467,-24.78569 z m 51.4461,16.87086 c 2.91599,0 4.99892,2.291 4.99892,4.99886 0,2.91597 -2.29152,4.99888 -4.99892,4.99888 -6.04051,0 -14.37164,-2.49969 -21.0366,-6.45687 7.7062,-1.45798 16.24592,-3.54087 21.0366,-3.54087 z m -77.897954,23.32769 c -3.748992,6.664975 -7.289906,12.705555 -9.789584,15.829685 -1.041154,1.04115 -1.874259,1.24982 -3.540847,1.24982 -2.915971,0 -4.998867,-2.29151 -4.998867,-4.9989 0,-1.24979 0.624911,-2.91595 1.24979,-3.54081 2.707841,-2.49971 9.372819,-5.41567 17.079508,-8.539795 z"
       fill="#c11e07"
       stroke="#c11e07"
       stroke-width="2.60358"
       stroke-miterlimit="10"
       id="path6" />
  </g>
</svg>
