<?xml version="1.0" encoding="UTF-8" standalone="no"?>
<!-- Created with Inkscape (http://www.inkscape.org/) -->

<svg
   xmlns:dc="http://purl.org/dc/elements/1.1/"
   xmlns:cc="http://creativecommons.org/ns#"
   xmlns:rdf="http://www.w3.org/1999/02/22-rdf-syntax-ns#"
   xmlns:svg="http://www.w3.org/2000/svg"
   xmlns="http://www.w3.org/2000/svg"
   xmlns:sodipodi="http://sodipodi.sourceforge.net/DTD/sodipodi-0.dtd"
   xmlns:inkscape="http://www.inkscape.org/namespaces/inkscape"
   id="svg4155"
   version="1.1"
   inkscape:version="0.91 r13725"
   xml:space="preserve"
   width="80"
   height="80"
   viewBox="0 0 80 80"
   sodipodi:docname="appearance.svg"><metadata
     id="metadata4161"><rdf:RDF><cc:Work
         rdf:about=""><dc:format>image/svg+xml</dc:format><dc:type
           rdf:resource="http://purl.org/dc/dcmitype/StillImage" /><dc:title></dc:title></cc:Work></rdf:RDF></metadata><defs
     id="defs4159" /><sodipodi:namedview
     pagecolor="#ffffff"
     bordercolor="#666666"
     borderopacity="1"
     objecttolerance="10"
     gridtolerance="10"
     guidetolerance="10"
     inkscape:pageopacity="0"
     inkscape:pageshadow="2"
     inkscape:window-width="1366"
     inkscape:window-height="706"
     id="namedview4157"
     showgrid="false"
     inkscape:zoom="5.11875"
     inkscape:cx="51.928718"
     inkscape:cy="40.754432"
     inkscape:window-x="-8"
     inkscape:window-y="-8"
     inkscape:window-maximized="1"
     inkscape:current-layer="g4163"><inkscape:grid
       type="xygrid"
       id="grid4172" /></sodipodi:namedview><g
     id="g4163"
     inkscape:groupmode="layer"
     inkscape:label="ink_ext_XXXXXX"
     transform="matrix(1.25,0,0,-1.25,0,80)"><path
       inkscape:connector-curvature="0"
       id="path4167"
       style="fill:#c90080;fill-opacity:1;fill-rule:nonzero;stroke:none"
       d="M 64,32 C 64,14.327 49.673,0 32,0 14.327,0 0,14.327 0,32 0,49.673 14.327,64 32,64 49.673,64 64,49.673 64,32" /><g
       transform="matrix(0.09241082,0,0,-0.09241082,5.3582888,57.949396)"
       id="g3"><g
         id="g5"><path
           style="fill:#ffffff"
           inkscape:connector-curvature="0"
           d="m 287.028,204.41 c 11.832,0 23.052,2.142 33.66,6.426 10.605,4.284 19.789,10.2 27.541,17.748 7.752,7.548 13.871,16.32 18.357,26.316 4.488,9.996 6.732,20.706 6.732,32.13 0,11.424 -2.244,22.133 -6.732,32.129 -4.486,9.996 -10.605,18.771 -18.357,26.316 -7.752,7.547 -16.936,13.465 -27.541,17.748 -10.607,4.281 -21.828,6.426 -33.66,6.426 -11.832,0 -23.052,-2.145 -33.66,-6.426 -10.608,-4.283 -19.788,-10.199 -27.54,-17.748 -7.752,-7.547 -13.872,-16.32 -18.36,-26.316 -4.488,-9.996 -6.732,-20.705 -6.732,-32.129 0,-11.424 2.244,-22.134 6.732,-32.13 4.488,-9.996 10.608,-18.768 18.36,-26.316 7.752,-7.548 16.932,-13.464 27.54,-17.748 10.608,-4.284 21.828,-6.426 33.66,-6.426 z m 0,211.752 c 18.767,0 36.312,-3.365 52.632,-10.098 16.32,-6.733 30.602,-15.912 42.84,-27.539 12.24,-11.629 21.932,-25.297 29.07,-41.004 7.137,-15.709 10.709,-32.539 10.709,-50.491 0,-17.952 -3.57,-34.782 -10.709,-50.49 -7.141,-15.708 -16.83,-29.376 -29.07,-41.004 -12.238,-11.628 -26.52,-20.808 -42.84,-27.54 -16.32,-6.732 -33.865,-10.098 -52.632,-10.098 -18.768,0 -36.312,3.366 -52.632,10.098 -16.32,6.732 -30.6,15.912 -42.84,27.54 -12.24,11.628 -21.93,25.296 -29.07,41.004 -7.14,15.708 -10.71,32.538 -10.71,50.49 0,17.952 3.57,34.782 10.71,50.491 7.14,15.707 16.83,29.375 29.07,41.004 12.24,11.627 26.52,20.807 42.84,27.539 16.32,6.732 33.864,10.098 52.632,10.098 z m 0,-301.104 c 27.744,0 54.162,3.264 79.253,9.792 25.092,6.528 48.246,14.994 69.463,25.398 21.215,10.404 40.395,22.134 57.527,35.19 17.137,13.056 31.723,25.908 43.758,38.556 12.037,12.648 21.217,24.582 27.541,35.802 6.324,11.22 9.486,20.298 9.486,27.234 0,6.936 -3.162,16.014 -9.486,27.235 -6.324,11.219 -15.504,23.15 -27.541,35.801 -12.035,12.646 -26.621,25.5 -43.758,38.557 -17.135,13.059 -36.313,24.785 -57.527,35.189 -21.217,10.402 -44.371,18.871 -69.463,25.396 -25.092,6.527 -51.51,9.791 -79.253,9.791 -28.152,0 -54.672,-3.264 -79.56,-9.791 -24.888,-6.525 -47.94,-14.994 -69.156,-25.396 C 117.096,413.408 97.92,401.679 80.784,388.623 63.648,375.566 49.062,362.715 37.026,350.066 24.99,337.417 15.81,325.484 9.486,314.265 3.162,303.042 0,293.964 0,287.03 c 0,-6.936 3.162,-16.014 9.486,-27.234 6.324,-11.22 15.504,-23.154 27.54,-35.802 12.036,-12.648 26.622,-25.5 43.758,-38.556 17.136,-13.056 36.312,-24.786 57.528,-35.19 21.216,-10.404 44.268,-18.87 69.156,-25.398 24.888,-6.528 51.408,-9.792 79.56,-9.792 z"
           id="path7" /></g></g></g></svg>