<?xml version="1.0" encoding="UTF-8" standalone="no"?>
<!-- Created with Inkscape (http://www.inkscape.org/) -->

<svg
   xmlns:dc="http://purl.org/dc/elements/1.1/"
   xmlns:cc="http://creativecommons.org/ns#"
   xmlns:rdf="http://www.w3.org/1999/02/22-rdf-syntax-ns#"
   xmlns:svg="http://www.w3.org/2000/svg"
   xmlns="http://www.w3.org/2000/svg"
   xmlns:sodipodi="http://sodipodi.sourceforge.net/DTD/sodipodi-0.dtd"
   xmlns:inkscape="http://www.inkscape.org/namespaces/inkscape"
   id="svg4155"
   version="1.1"
   inkscape:version="0.91 r13725"
   xml:space="preserve"
   width="80"
   height="80"
   viewBox="0 0 80 80"
   sodipodi:docname="filesharing.svg"><metadata
     id="metadata4161"><rdf:RDF><cc:Work
         rdf:about=""><dc:format>image/svg+xml</dc:format><dc:type
           rdf:resource="http://purl.org/dc/dcmitype/StillImage" /><dc:title /></cc:Work></rdf:RDF></metadata><defs
     id="defs4159" /><sodipodi:namedview
     pagecolor="#ffffff"
     bordercolor="#666666"
     borderopacity="1"
     objecttolerance="10"
     gridtolerance="10"
     guidetolerance="10"
     inkscape:pageopacity="0"
     inkscape:pageshadow="2"
     inkscape:window-width="1366"
     inkscape:window-height="706"
     id="namedview4157"
     showgrid="true"
     inkscape:zoom="5.11875"
     inkscape:cx="-7.7302347"
     inkscape:cy="40.32228"
     inkscape:window-x="-8"
     inkscape:window-y="-8"
     inkscape:window-maximized="1"
     inkscape:current-layer="g4163"><inkscape:grid
       type="xygrid"
       id="grid4206" /></sodipodi:namedview><g
     id="g4163"
     inkscape:groupmode="layer"
     inkscape:label="ink_ext_XXXXXX"
     transform="matrix(1.25,0,0,-1.25,0,80)"><path
       inkscape:connector-curvature="0"
       id="path4167"
       style="fill:#008080;fill-opacity:1;fill-rule:nonzero;stroke:none"
       d="M 64,32 C 64,14.327 49.673,0 32,0 14.327,0 0,14.327 0,32 0,49.673 14.327,64 32,64 49.673,64 64,49.673 64,32" /><g
       transform="matrix(0.08434988,0,0,-0.08434988,12.235817,52.282065)"
       id="g3"><g
         id="g5"><path
           style="fill:#ffffff"
           inkscape:connector-curvature="0"
           d="m 387.196,459.652 c -5.63,11.368 -20.6,20.708 -33.284,20.708 l -331.888,0 c -12.705,0 -18.486,-9.34 -12.899,-20.708 l 89.26,-180.828 c 5.587,-11.368 20.579,-20.686 33.284,-20.686 l 331.888,0 c 12.727,0 18.465,9.319 12.899,20.686 l -89.26,180.828 z"
           id="path7" /><polygon
           style="fill:#ffffff"
           points="367.307,235.057 328.803,196.575 233.223,196.575 233.223,235.057 "
           id="polygon9" /><path
           style="fill:#ffffff"
           inkscape:connector-curvature="0"
           d="M 0,180.871 0,425.98 77.676,268.621 c 2.955,-5.91 7.507,-11.152 12.619,-15.876 l 0,-101.016 -61.131,0 C 13.137,151.729 0,164.844 0,180.871 Z"
           id="path11" /><path
           style="fill:#ffffff"
           inkscape:connector-curvature="0"
           d="m 161.781,10.354 -102.008,102.008 57.119,0 0,106.495 89.756,0 0,-106.495 57.119,0 L 161.781,10.354 Z"
           id="path13" /><path
           style="fill:#ffffff"
           inkscape:connector-curvature="0"
           d="m 385.491,215.665 -102.008,-102.009 57.098,0 0,-106.538 89.734,0 0,106.517 57.163,0 -101.987,102.03 z"
           id="path15" /></g><g
         id="g17" /><g
         id="g19" /><g
         id="g21" /><g
         id="g23" /><g
         id="g25" /><g
         id="g27" /><g
         id="g29" /><g
         id="g31" /><g
         id="g33" /><g
         id="g35" /><g
         id="g37" /><g
         id="g39" /><g
         id="g41" /><g
         id="g43" /><g
         id="g45" /></g></g></svg>