<?xml version="1.0" encoding="UTF-8" standalone="no"?>
<!-- Created with Inkscape (http://www.inkscape.org/) -->

<svg
   xmlns:osb="http://www.openswatchbook.org/uri/2009/osb"
   xmlns:dc="http://purl.org/dc/elements/1.1/"
   xmlns:cc="http://creativecommons.org/ns#"
   xmlns:rdf="http://www.w3.org/1999/02/22-rdf-syntax-ns#"
   xmlns:svg="http://www.w3.org/2000/svg"
   xmlns="http://www.w3.org/2000/svg"
   xmlns:sodipodi="http://sodipodi.sourceforge.net/DTD/sodipodi-0.dtd"
   xmlns:inkscape="http://www.inkscape.org/namespaces/inkscape"
   id="svg4155"
   version="1.1"
   inkscape:version="0.91 r13725"
   xml:space="preserve"
   width="80"
   height="80"
   viewBox="0 0 80 80"
   sodipodi:docname="notify.svg"
   inkscape:export-filename="C:\Qt\RetroShare\RetroShare\retroshare-gui\src\gui\icons\png\messages.png"
   inkscape:export-xdpi="144"
   inkscape:export-ydpi="144"><metadata
     id="metadata4161"><rdf:RDF><cc:Work
         rdf:about=""><dc:format>image/svg+xml</dc:format><dc:type
           rdf:resource="http://purl.org/dc/dcmitype/StillImage" /><dc:title /></cc:Work></rdf:RDF></metadata><defs
     id="defs4159"><linearGradient
       id="linearGradient4148"
       osb:paint="solid"><stop
         style="stop-color:#7b2a46;stop-opacity:1;"
         offset="0"
         id="stop4150" /></linearGradient></defs><sodipodi:namedview
     pagecolor="#ffffff"
     bordercolor="#666666"
     borderopacity="1"
     objecttolerance="10"
     gridtolerance="10"
     guidetolerance="10"
     inkscape:pageopacity="0"
     inkscape:pageshadow="2"
     inkscape:window-width="1366"
     inkscape:window-height="706"
     id="namedview4157"
     showgrid="false"
     inkscape:zoom="5.11875"
     inkscape:cx="9.7079549"
     inkscape:cy="43.803471"
     inkscape:window-x="-8"
     inkscape:window-y="-8"
     inkscape:window-maximized="1"
     inkscape:current-layer="g4163"
     showguides="false"><inkscape:grid
       type="xygrid"
       id="grid4138" /></sodipodi:namedview><g
     id="g4163"
     inkscape:groupmode="layer"
     inkscape:label="ink_ext_XXXXXX"
     transform="matrix(1.25,0,0,-1.25,0,80)"><path
       inkscape:connector-curvature="0"
       id="path4167"
       style="fill:#ff990d;fill-opacity:1;fill-rule:nonzero;stroke:none"
       d="M 64,32 C 64,14.327 49.673,0 32,0 14.327,0 0,14.327 0,32 0,49.673 14.327,64 32,64 49.673,64 64,49.673 64,32"
       inkscape:export-xdpi="144"
       inkscape:export-ydpi="144"
       inkscape:export-filename="C:\Qt\RetroShare\RetroShare\retroshare-gui\src\gui\icons\png\messages-notify.png" /><rect
       y="-53.716011"
       x="9.6750126"
       style="fill:none;stroke-width:1.7944;stroke-miterlimit:10;stroke-dasharray:none"
       height="44.862545"
       width="44.862545"
       id="rect3"
       transform="scale(1,-1)" /><g
       transform="matrix(0.11337623,0,0,-0.10730887,4.2108507,58.021979)"
       id="g3"><path
         style="fill:#ffffff"
         inkscape:connector-curvature="0"
         d="m 244.709,389.496 c 18.736,0 34.332,-14.355 35.91,-33.026 L 304.978,65.543 C 306.396,48.67 300.675,31.99 289.222,19.532 277.783,7.09 261.629,0 244.709,0 227.789,0 211.635,7.09 200.195,19.532 188.74,31.99 183.022,48.67 184.44,65.543 l 24.359,290.927 c 1.578,18.671 17.174,33.026 35.91,33.026 z"
         id="path5" /><path
         style="fill:#ffffff"
         inkscape:connector-curvature="0"
         d="m 244.709,410.908 c -21.684,0 -39.256,17.571 -39.256,39.256 0,21.683 17.572,39.254 39.256,39.254 21.684,0 39.256,-17.571 39.256,-39.254 0,-21.685 -17.572,-39.256 -39.256,-39.256 z"
         id="path7" /></g></g></svg>