<?xml version="1.0" encoding="UTF-8" standalone="no"?>
<!-- Created with Inkscape (http://www.inkscape.org/) -->

<svg
   xmlns:dc="http://purl.org/dc/elements/1.1/"
   xmlns:cc="http://creativecommons.org/ns#"
   xmlns:rdf="http://www.w3.org/1999/02/22-rdf-syntax-ns#"
   xmlns:svg="http://www.w3.org/2000/svg"
   xmlns="http://www.w3.org/2000/svg"
   xmlns:sodipodi="http://sodipodi.sourceforge.net/DTD/sodipodi-0.dtd"
   xmlns:inkscape="http://www.inkscape.org/namespaces/inkscape"
   id="svg4155"
   version="1.1"
   inkscape:version="0.91 r13725"
   xml:space="preserve"
   width="80"
   height="80"
   viewBox="0 0 80 80"
   sodipodi:docname="plugins.svg"><metadata
     id="metadata4161"><rdf:RDF><cc:Work
         rdf:about=""><dc:format>image/svg+xml</dc:format><dc:type
           rdf:resource="http://purl.org/dc/dcmitype/StillImage" /><dc:title></dc:title></cc:Work></rdf:RDF></metadata><defs
     id="defs4159" /><sodipodi:namedview
     pagecolor="#ffffff"
     bordercolor="#666666"
     borderopacity="1"
     objecttolerance="10"
     gridtolerance="10"
     guidetolerance="10"
     inkscape:pageopacity="0"
     inkscape:pageshadow="2"
     inkscape:window-width="1366"
     inkscape:window-height="706"
     id="namedview4157"
     showgrid="false"
     inkscape:zoom="3.6195029"
     inkscape:cx="31.470461"
     inkscape:cy="39.107427"
     inkscape:window-x="-8"
     inkscape:window-y="-8"
     inkscape:window-maximized="1"
     inkscape:current-layer="g4163" /><g
     id="g4163"
     inkscape:groupmode="layer"
     inkscape:label="ink_ext_XXXXXX"
     transform="matrix(1.25,0,0,-1.25,0,80)"><path
       inkscape:connector-curvature="0"
       id="path4167"
       style="fill:#428404;fill-opacity:1;fill-rule:nonzero;stroke:none"
       d="M 64,32 C 64,14.327 49.673,0 32,0 14.327,0 0,14.327 0,32 0,49.673 14.327,64 32,64 49.673,64 64,49.673 64,32" /><g
       transform="matrix(0.07725982,0,0,-0.07725982,14.274157,55.268838)"
       id="g3"><g
         id="extension"><path
           style="fill:#ffffff"
           inkscape:connector-curvature="0"
           d="m 471.75,255 -38.25,0 0,-102 c 0,-28.05 -22.95,-51 -51,-51 l -102,0 0,-38.25 C 280.5,28.05 252.45,0 216.75,0 181.05,0 153,28.05 153,63.75 L 153,102 51,102 C 22.95,102 0,124.95 0,153 l 0,96.9 38.25,0 c 38.25,0 68.85,30.6 68.85,68.85 0,38.25 -30.6,68.85 -68.85,68.85 l -38.25,0 0,96.9 c 0,28.05 22.95,51 51,51 l 96.9,0 0,-38.25 c 0,-38.25 30.6,-68.85 68.85,-68.85 38.25,0 68.85,30.6 68.85,68.85 l 0,38.25 96.9,0 c 28.05,0 51,-22.95 51,-51 l 0,-102 38.25,0 c 35.7,0 63.75,-28.05 63.75,-63.75 0,-35.7 -28.05,-63.75 -63.75,-63.75 z"
           id="path6" /></g></g></g></svg>