<?xml version="1.0" encoding="UTF-8" standalone="no"?>
<!-- Created with Inkscape (http://www.inkscape.org/) -->

<svg
   version="1.1"
   id="svg9"
   width="512"
   height="512"
   viewBox="0 0 512 512"
   sodipodi:docname="yellow.svg"
   inkscape:version="1.1.1 (3bf5ae0d25, 2021-09-20)"
   xmlns:inkscape="http://www.inkscape.org/namespaces/inkscape"
   xmlns:sodipodi="http://sodipodi.sourceforge.net/DTD/sodipodi-0.dtd"
   xmlns="http://www.w3.org/2000/svg"
   xmlns:svg="http://www.w3.org/2000/svg">
  <defs
     id="defs13" />
  <sodipodi:namedview
     id="namedview11"
     pagecolor="#ffffff"
     bordercolor="#666666"
     borderopacity="1.0"
     inkscape:pageshadow="2"
     inkscape:pageopacity="0.0"
     inkscape:pagecheckerboard="0"
     showgrid="false"
     inkscape:zoom="0.48535156"
     inkscape:cx="181.31187"
     inkscape:cy="174.1006"
     inkscape:window-width="1366"
     inkscape:window-height="705"
     inkscape:window-x="-8"
     inkscape:window-y="-8"
     inkscape:window-maximized="1"
     inkscape:current-layer="g15">
    <inkscape:grid
       type="xygrid"
       id="grid381" />
  </sodipodi:namedview>
  <g
     inkscape:groupmode="layer"
     inkscape:label="Image"
     id="g15">
    <path
       style="fill:#f3dd1d;stroke:none;fill-opacity:1"
       d="m 79.686042,62.328363 c -9.9424,1.4243 -19.5278,4.530101 -28,10.011501 -37.2555,24.104101 -37.3411,79.982206 -2,105.633206 14.2831,10.367 31.8671,13.384 49,10.793 8.134998,-1.231 16.089998,-4.524 22.999998,-8.956 54.83,-35.164 24.028,-126.940707 -41.999998,-117.481707 m 169.999998,-0.0031 c -14.465,1.969 -27.797,6.0094 -40,14.2461 -9.275,6.260399 -17.007,14.037999 -23.251,23.328702 -40.889,60.846995 12.639,140.498995 83.251,131.713995 11.703,-1.456 22.971,-5.589 33,-11.779 62.522,-38.59 47.838,-139.211098 -25,-155.509797 -9.079,-2.0317 -18.726,-3.262401 -28,-2 m 172,0 c -12.007,1.6343 -23.351,5.5022 -33,13.092599 -48.405,38.078198 -16.646,121.889198 46,114.196198 10.227,-1.256 20.411,-4.448 29,-10.234 53.089,-35.765 23.859,-126.019698 -42,-117.054797 M 86.686042,360.90007 c 0.1343,-48.672 26.609998,-101.819 69.999998,-126 -9.584,-20.55 -39.309,-24 -58.999998,-24 -30.318,0 -60.3191,-1.636 -81.6744,24 -14.4232099,17.315 -14.3255999,37.764 -14.3255999,59 0,26.227 -0.64791,53.856 28.9999999,64.301 16.8503,5.936 38.3818,2.699 56,2.699 m 271.999998,-126 c 43.407,24.19 69.866,77.31 70,126 17.618,0 39.15,3.237 56,-2.699 29.648,-10.445 29,-38.074 29,-64.301 0,-21.236 0.098,-41.685 -14.326,-59 -21.355,-25.636 -51.356,-24 -81.674,-24 -19.727,0 -49.4,3.416 -59,24 m -131,19.424 c -60.745,8 -98,54.247 -98,114.576 0,22.177 2.541,43.788 20.039,59.711 19.17,17.443 41.651,17.289 65.961,17.289 h 61 c 16.926,0 35.243,1.972 52,-0.428 66.485,-9.525 70.212,-96.046 40.302,-142.572 -30.398,-47.284 -89.396,-55.411 -141.302,-48.576 z"
       id="path281" />
    <path
       style="fill:#000000"
       id="path117"
       d="" />
  </g>
</svg>
