<?xml version="1.0" encoding="iso-8859-1"?>
<!-- Generator: Adobe Illustrator 16.0.0, SVG Export Plug-In . SVG Version: 6.00 Build 0)  -->
<!DOCTYPE svg PUBLIC "-//W3C//DTD SVG 1.1//EN" "http://www.w3.org/Graphics/SVG/1.1/DTD/svg11.dtd">
<svg xmlns="http://www.w3.org/2000/svg" xmlns:xlink="http://www.w3.org/1999/xlink" version="1.1" id="Capa_1" x="0px" y="0px" width="512px" height="512px" viewBox="0 0 511.626 511.626" style="enable-background:new 0 0 511.626 511.626;" xml:space="preserve">
<g>
	<path d="M500.922,193.257c-7.139-7.135-15.753-10.706-25.845-10.706h0.007V72.917c0-9.9-3.62-18.464-10.848-25.697   c-7.231-7.233-15.808-10.85-25.7-10.85c-87.745,73.089-173.018,109.636-255.815,109.636H45.682   c-12.562,0-23.318,4.471-32.264,13.418C4.471,168.373,0,179.129,0,191.688v54.816c0,12.563,4.464,23.319,13.412,32.264   c8.945,8.952,19.701,13.418,32.264,13.418h34.833c-3.235,10.284-5.33,20.804-6.28,31.549c-0.949,10.756-1.283,20.126-0.999,28.124   c0.284,7.994,1.714,17.604,4.283,28.835c2.568,11.229,4.759,19.698,6.567,25.406c1.807,5.715,4.853,14.705,9.135,26.98   c4.281,12.278,7.089,20.604,8.42,24.981c8.754,7.994,21.316,13.278,37.685,15.845c16.374,2.563,32.408,1.475,48.111-3.285   c15.702-4.757,26.314-12.662,31.833-23.695c-7.232-5.712-13.084-10.517-17.556-14.421c-4.474-3.901-9.041-8.654-13.706-14.271   c-4.665-5.612-7.849-10.849-9.563-15.701c-1.712-4.853-2.284-10.372-1.712-16.562c0.57-6.188,2.76-12.423,6.567-18.699   c-7.232-7.426-11.043-16.228-11.421-26.412c-0.378-10.178,2.572-19.746,8.852-28.691c6.279-8.945,14.943-15.229,25.981-18.843   c75.187,6.28,152.462,42.442,231.833,108.493c9.893,0,18.469-3.617,25.693-10.852c7.234-7.228,10.848-15.797,10.848-25.693V255.642   c10.096,0,18.709-3.567,25.845-10.706c7.132-7.139,10.704-15.752,10.704-25.837C511.626,209.01,508.054,200.396,500.922,193.257z    M438.537,354.997c-74.426-56.907-147.51-89.366-219.267-97.356v-77.09c71.183-7.804,144.277-40.446,219.267-97.927V354.997z" fill="#008dc0"/>
</g>
<g>
</g>
<g>
</g>
<g>
</g>
<g>
</g>
<g>
</g>
<g>
</g>
<g>
</g>
<g>
</g>
<g>
</g>
<g>
</g>
<g>
</g>
<g>
</g>
<g>
</g>
<g>
</g>
<g>
</g>
</svg>
