<?xml version="1.0" encoding="iso-8859-1"?>
<!-- Generator: Adobe Illustrator 16.0.0, SVG Export Plug-In . SVG Version: 6.00 Build 0)  -->
<!DOCTYPE svg PUBLIC "-//W3C//DTD SVG 1.1//EN" "http://www.w3.org/Graphics/SVG/1.1/DTD/svg11.dtd">
<svg xmlns="http://www.w3.org/2000/svg" xmlns:xlink="http://www.w3.org/1999/xlink" version="1.1" id="Capa_1" x="0px" y="0px" width="512px" height="512px" viewBox="0 0 438.533 438.533" style="enable-background:new 0 0 438.533 438.533;" xml:space="preserve">
<g>
	<g>
		<path d="M382.58,108.493l-89.078-89.081c-9.521-9.517-22.087-15.706-37.692-18.558v145.324h145.326    C398.281,130.566,392.091,118.006,382.58,108.493z" fill="#FFFFFF"/>
		<path d="M246.676,182.72c-7.617,0-14.089-2.663-19.417-7.993c-5.33-5.327-7.992-11.799-7.992-19.414V0H63.953    C56.341,0,49.869,2.663,44.54,7.993c-5.33,5.327-7.994,11.799-7.994,19.414v383.719c0,7.617,2.664,14.089,7.994,19.417    c5.33,5.325,11.801,7.991,19.414,7.991h310.633c7.611,0,14.079-2.666,19.407-7.991c5.328-5.332,7.994-11.8,7.994-19.417V182.72    H246.676z" fill="#FFFFFF"/>
	</g>
</g>
<g>
</g>
<g>
</g>
<g>
</g>
<g>
</g>
<g>
</g>
<g>
</g>
<g>
</g>
<g>
</g>
<g>
</g>
<g>
</g>
<g>
</g>
<g>
</g>
<g>
</g>
<g>
</g>
<g>
</g>
</svg>
