<?xml version="1.0" encoding="iso-8859-1"?>
<!-- Generator: Adobe Illustrator 16.0.0, SVG Export Plug-In . SVG Version: 6.00 Build 0)  -->
<!DOCTYPE svg PUBLIC "-//W3C//DTD SVG 1.1//EN" "http://www.w3.org/Graphics/SVG/1.1/DTD/svg11.dtd">
<svg xmlns="http://www.w3.org/2000/svg" xmlns:xlink="http://www.w3.org/1999/xlink" version="1.1" id="Capa_1" x="0px" y="0px" width="512px" height="512px" viewBox="0 0 475.078 475.077" style="enable-background:new 0 0 475.078 475.077;" xml:space="preserve">
<g>
	<path d="M462.094,285.791c-8.658-11.231-20.793-16.851-36.398-16.851c-8.186,0-16.084,1.43-23.694,4.284   c-7.625,2.854-13.765,6.044-18.426,9.564c-4.653,3.519-9.705,6.711-15.125,9.565c-5.421,2.854-10.232,4.288-14.414,4.288   c-8.569,0-17.036-4.381-25.413-13.135c-6.663-7.046-9.993-18.175-9.993-33.403c0-18.083,2.279-41.399,6.845-69.949   c0.198-0.571,0.526-2.618,0.999-6.139c0.486-3.518,0.951-6.757,1.431-9.707c0.472-2.95,0.801-4.615,0.992-4.998v-0.57   c-8.938,0.382-24.455,1.997-46.534,4.853c-22.08,2.856-39.205,4.283-51.391,4.283c-11.61,0-21.414-2.521-29.408-7.566   c-7.993-5.043-11.991-12.991-11.991-23.839c0-7.045,1.668-13.8,4.996-20.273c3.33-6.473,6.947-11.851,10.85-16.134   c3.905-4.286,7.521-9.9,10.85-16.846c3.332-6.942,4.996-14.322,4.996-22.123c0-15.037-5.136-26.794-15.415-35.26   c-10.278-8.466-23.029-12.703-38.256-12.703c-16.18,0-29.88,4.332-41.112,12.99c-11.228,8.66-16.845,20.795-16.845,36.403   c0,8.182,1.427,16.081,4.283,23.695c2.853,7.613,6.04,13.752,9.563,18.417c3.521,4.665,6.71,9.707,9.563,15.131   c2.856,5.428,4.281,10.232,4.281,14.419c0,8.566-4.377,17.036-13.134,25.41c-7.043,6.663-18.175,10-33.402,10   c-18.083,0-41.399-2.286-69.949-6.854c-0.568-0.2-2.615-0.534-6.136-1.01c-3.523-0.477-6.757-0.95-9.707-1.427   c-2.952-0.476-4.62-0.806-4.998-0.999V451.67c0,0.191,0.19,0.287,0.571,0.287c0.378,0.188,0.666,0.28,0.855,0.28l3.711,0.575   c1.716,0.373,4.331,0.76,7.852,1.137c3.523,0.38,6.14,0.767,7.854,1.14c28.549,4.571,51.866,6.854,69.949,6.854   c15.227,0,26.359-3.334,33.402-10c8.757-8.374,13.134-16.847,13.134-25.406c0-4.185-1.425-8.99-4.281-14.421   c-2.853-5.421-6.045-10.461-9.563-15.126c-3.518-4.664-6.707-10.804-9.563-18.415c-2.856-7.613-4.283-15.512-4.283-23.698   c0-15.608,5.617-27.747,16.846-36.404c11.228-8.662,24.838-12.991,40.824-12.991c15.419,0,28.266,4.237,38.544,12.703   c10.278,8.467,15.415,20.226,15.415,35.262c0,7.8-1.665,15.182-4.996,22.121c-3.33,6.951-6.951,12.56-10.85,16.851   c-3.903,4.285-7.517,9.657-10.85,16.133c-3.331,6.468-4.996,13.227-4.996,20.266c0,10.855,3.995,18.802,11.991,23.846   c7.998,5.041,17.799,7.56,29.408,7.56c8.758,0,18.083-0.473,27.979-1.427c9.897-0.948,20.889-2.235,32.977-3.854   c12.087-1.619,21.36-2.718,27.832-3.285c2.098-0.195,5.239-0.288,9.421-0.288v-1.423c0.192-7.423-1.235-18.367-4.277-32.836   c-3.046-14.462-4.575-25.406-4.575-32.832c0-23.603,10.468-35.402,31.408-35.402c7.046,0,13.802,1.666,20.273,4.996   c6.471,3.333,11.847,6.954,16.128,10.852c4.288,3.905,9.911,7.519,16.854,10.852c6.943,3.327,14.314,4.997,22.117,4.997   c15.037,0,26.796-5.141,35.262-15.417c8.474-10.284,12.703-23.124,12.703-38.541C475.078,310.622,470.752,297.022,462.094,285.791z   " fill="#FFFFFF"/>
</g>
<g>
</g>
<g>
</g>
<g>
</g>
<g>
</g>
<g>
</g>
<g>
</g>
<g>
</g>
<g>
</g>
<g>
</g>
<g>
</g>
<g>
</g>
<g>
</g>
<g>
</g>
<g>
</g>
<g>
</g>
</svg>
