<?xml version="1.0" encoding="iso-8859-1"?>
<!-- Generator: Adobe Illustrator 19.0.0, SVG Export Plug-In . SVG Version: 6.00 Build 0)  -->
<svg xmlns="http://www.w3.org/2000/svg" xmlns:xlink="http://www.w3.org/1999/xlink" version="1.1" id="Capa_1" x="0px" y="0px" viewBox="0 0 59 59" style="enable-background:new 0 0 59 59;" xml:space="preserve" width="512px" height="512px">
<path d="M47,39c-2.671,0-5.182,1.04-7.071,2.929c-0.524,0.524-0.975,1.1-1.365,1.709l-17.28-10.489  C21.741,32.005,22,30.761,22,29.456c0-1.305-0.259-2.549-0.715-3.693l17.284-10.409C40.345,18.142,43.456,20,47,20  c5.514,0,10-4.486,10-10S52.514,0,47,0S37,4.486,37,10c0,1.256,0.243,2.454,0.667,3.562L20.361,23.985  c-1.788-2.724-4.866-4.529-8.361-4.529c-5.514,0-10,4.486-10,10s4.486,10,10,10c3.495,0,6.572-1.805,8.36-4.529L37.664,45.43  C37.234,46.556,37,47.759,37,49c0,2.671,1.04,5.183,2.929,7.071C41.818,57.96,44.329,59,47,59s5.182-1.04,7.071-2.929  C55.96,54.183,57,51.671,57,49s-1.04-5.183-2.929-7.071C52.182,40.04,49.671,39,47,39z" fill="#FFFFFF"/>
<g>
</g>
<g>
</g>
<g>
</g>
<g>
</g>
<g>
</g>
<g>
</g>
<g>
</g>
<g>
</g>
<g>
</g>
<g>
</g>
<g>
</g>
<g>
</g>
<g>
</g>
<g>
</g>
<g>
</g>
</svg>
