<?xml version="1.0" encoding="iso-8859-1"?>
<!-- Generator: Adobe Illustrator 16.0.0, SVG Export Plug-In . SVG Version: 6.00 Build 0)  -->
<!DOCTYPE svg PUBLIC "-//W3C//DTD SVG 1.1//EN" "http://www.w3.org/Graphics/SVG/1.1/DTD/svg11.dtd">
<svg xmlns="http://www.w3.org/2000/svg" xmlns:xlink="http://www.w3.org/1999/xlink" version="1.1" id="Capa_1" x="0px" y="0px" width="512px" height="512px" viewBox="0 0 438.543 438.543" style="enable-background:new 0 0 438.543 438.543;" xml:space="preserve">
<g>
	<path d="M396.58,5.424C392.959,1.807,388.675,0,383.727,0H54.824c-4.952,0-9.235,1.807-12.852,5.424   c-3.615,3.615-5.424,7.898-5.424,12.847v219.268c0,16.371,3.186,32.596,9.563,48.681c6.374,16.084,14.274,30.361,23.697,42.828   c9.423,12.47,20.651,24.605,33.689,36.405c13.04,11.806,25.078,21.6,36.116,29.409c11.038,7.803,22.554,15.181,34.545,22.121   c11.991,6.943,20.511,11.663,25.553,14.134c5.043,2.478,9.088,4.38,12.132,5.708c2.286,1.143,4.758,1.718,7.426,1.718   c2.671,0,5.14-0.575,7.428-1.718c3.042-1.328,7.087-3.23,12.128-5.708c5.041-2.471,13.565-7.19,25.557-14.134   c11.984-6.94,23.504-14.318,34.54-22.121c11.043-7.81,23.079-17.604,36.121-29.409c13.031-11.8,24.263-23.936,33.685-36.405   c9.421-12.467,17.319-26.744,23.705-42.828c6.379-16.085,9.562-32.31,9.562-48.681V18.271   C401.994,13.319,400.187,9.04,396.58,5.424z M347.178,237.539c0,33.5-22.367,67.759-67.095,102.781   c-17.892,14.082-38.164,27.124-60.813,39.115V54.813h127.908V237.539z" fill="#FFFFFF"/>
</g>
<g>
</g>
<g>
</g>
<g>
</g>
<g>
</g>
<g>
</g>
<g>
</g>
<g>
</g>
<g>
</g>
<g>
</g>
<g>
</g>
<g>
</g>
<g>
</g>
<g>
</g>
<g>
</g>
<g>
</g>
</svg>
